<svg xmlns="http://www.w3.org/2000/svg" xmlns:xlink="http://www.w3.org/1999/xlink" viewBox="0 0 546 286.004"><g opacity=".15"><path d="M335.501 220.17l1.346-.176c.144-.105.3-.206.467-.303l103.964-60.024c2.686-1.551 7.378-1.356 10.48.434l60.651 35.017c.809.467 1.425.997 1.853 1.551l.713-.209v2.097l-.005.001c-.007.979-.598 1.912-1.808 2.61l-103.964 60.024c-2.686 1.551-7.378 1.356-10.48-.434l-60.651-35.017c-1.733-1.001-2.601-2.288-2.563-3.5h-.003v-2.071z" fill="#9ffff8"/><path d="M409.197 259.087l103.964-60.024c2.686-1.551 2.349-4.26-.752-6.051l-60.651-35.017c-3.102-1.791-7.794-1.985-10.48-.434l-103.964 60.024c-2.686 1.551-2.349 4.26.753 6.051l60.651 35.017c3.101 1.791 7.793 1.985 10.479.434z" fill="#42e8e0"/><g fill="#fff"><path d="M479.217 205.634l12.836-7.411c1.194-.689 1.044-1.894-.335-2.69s-3.465-.883-4.659-.193l-12.836 7.411c-1.194.689-1.045 1.894.335 2.69 1.379.796 3.465.882 4.659.193zM455.531 219.309l12.836-7.411c1.194-.689 1.044-1.894-.335-2.69s-3.465-.883-4.659-.193l-12.836 7.411c-1.194.689-1.044 1.894.335 2.69s3.465.883 4.659.193zM431.845 232.984l12.836-7.411c1.194-.69 1.045-1.894-.335-2.69-1.379-.796-3.465-.883-4.659-.193l-12.836 7.411c-1.194.689-1.045 1.894.335 2.69 1.378.796 3.465.883 4.659.193zM408.158 246.66l12.836-7.411c1.194-.689 1.044-1.894-.335-2.69s-3.465-.883-4.66-.193l-12.836 7.411c-1.194.689-1.044 1.894.335 2.69 1.38.796 3.466.882 4.66.193z"/></g></g><path d="M411.645 249.808l88.102-50.866c2.276-1.314 1.991-3.61-.638-5.128l-51.397-29.674c-2.629-1.518-6.605-1.682-8.881-.368l-88.102 50.866c-2.276 1.314-1.991 3.61.638 5.128l51.397 29.674c2.628 1.518 6.604 1.682 8.881.368z" opacity=".4" fill="#24126a"/><path d="M335.501 177.722l1.346-.176c.144-.105.3-.207.467-.303l103.964-60.024c2.686-1.551 7.378-1.356 10.48.434l60.651 35.017c.809.467 1.425.997 1.853 1.551l.713-.209v2.097l-.005.001c-.007.979-.598 1.912-1.808 2.61l-103.964 60.024c-2.686 1.551-7.378 1.356-10.48-.434l-60.651-35.017c-1.733-1.001-2.601-2.288-2.563-3.5h-.003v-2.071z" fill="#9ffff8"/><path d="M409.197 216.639l103.964-60.024c2.686-1.551 2.349-4.26-.752-6.051l-60.651-35.017c-3.102-1.791-7.794-1.985-10.48-.435l-103.964 60.024c-2.686 1.551-2.349 4.26.753 6.051l60.651 35.017c3.101 1.792 7.793 1.986 10.479.435z" fill="#42e8e0"/><radialGradient id="a" cx="458.904" cy="135.877" r="281.012" gradientUnits="userSpaceOnUse"><stop offset="0" stop-color="#42e8e0"/><stop offset=".017" stop-color="#43e0de"/><stop offset=".112" stop-color="#47bad1"/><stop offset=".214" stop-color="#4b9ac7"/><stop offset=".324" stop-color="#4e7fbe"/><stop offset=".443" stop-color="#506bb7"/><stop offset=".578" stop-color="#525cb3"/><stop offset=".739" stop-color="#5354b0"/><stop offset="1" stop-color="#5351af"/></radialGradient><path d="M409.197 216.639l103.964-60.024c2.686-1.551 2.349-4.26-.752-6.051l-60.651-35.017c-3.102-1.791-7.794-1.985-10.48-.435l-103.964 60.024c-2.686 1.551-2.349 4.26.753 6.051l60.651 35.017c3.101 1.792 7.793 1.986 10.479.435z" fill="url(#a)"/><path opacity=".7" fill="#453c9e" d="M392.422 212.571l113.692-65.64-12.068-6.968-113.692 65.64z"/><path d="M513.161 155.324l-103.964 60.024c-2.686 1.551-7.378 1.356-10.48-.434l-60.651-35.017c-1.385-.799-2.214-1.782-2.474-2.763-.37 1.362.473 2.899 2.474 4.054l60.651 35.017c3.102 1.791 7.794 1.985 10.48.434l103.964-60.024c1.487-.859 2.044-2.072 1.721-3.288-.202.75-.767 1.447-1.721 1.997z" fill="#fff"/><path opacity=".8" fill="#fff" d="M394.212 183.631l34.231-19.762-8.354-4.823-34.23 19.763z"/><g opacity=".15"><linearGradient id="b" gradientUnits="userSpaceOnUse" x1="3416.359" y1="992.992" x2="3470.368" y2="895.742" gradientTransform="rotate(-120.584 1650.582 1481.865)"><stop offset="0" stop-color="#5761d7"/><stop offset=".04" stop-color="#5c66d9"/><stop offset=".087" stop-color="#6a73df"/><stop offset=".137" stop-color="#8289e8"/><stop offset=".19" stop-color="#a3a7f5"/><stop offset=".224" stop-color="#bcbeff"/></linearGradient><path d="M205.895 178.811l.106 9.401.006-.003c-.006.128.063.252.222.341l102.68 57.889c.335.189.917.159 1.299-.067l16.589-9.806c.184-.109.284-.243.305-.374l.003.001v-.008-.029l-.107-9.496-8.048 4.681-94.747-53.417c-.335-.189-.917-.159-1.299.067l-5.693 3.365-11.316-2.545z" fill="url(#b)"/><linearGradient id="c" gradientUnits="userSpaceOnUse" x1="3482.715" y1="993.35" x2="3446.758" y2="923.058" gradientTransform="rotate(-120.584 1650.582 1481.865)"><stop offset="0" stop-color="#c0bff6"/><stop offset=".294" stop-color="#c5c4f7"/><stop offset=".64" stop-color="#d3d2f9"/><stop offset="1" stop-color="#e9e9fd"/></linearGradient><path d="M224.093 168.477l102.68 57.889c.335.189.297.526-.086.752l-16.589 9.806c-.383.226-.964.256-1.299.067l-102.68-57.889c-.335-.189-.297-.525.086-.752l16.589-9.806c.382-.226.964-.256 1.299-.067z" fill="url(#c)"/></g><g opacity=".2"><path d="M314.5 111.82c-.95-11.11-9.906-23.954-20.003-28.687-5.058-2.371-9.443-2.256-12.441-.154v-.001l-3.129 2.209.964.008c-1.555 2.274-2.298 5.494-1.957 9.487.95 11.11 9.905 23.954 20.003 28.687 3.47 1.626 6.622 2.083 9.228 1.532l.002.889 3.177-2.243.039-.028.129-.091-.008-.001c2.903-2.119 4.463-6.142 3.996-11.607z" fill="#9ffff8"/><ellipse transform="rotate(-34.888 293.046 105.48)" cx="293.053" cy="105.484" rx="14.277" ry="24.729" fill="#42e8e0"/><path d="M300.794 125.089c-1.936 0-4.077-.527-6.326-1.581-8.99-4.214-16.993-15.69-17.839-25.584-.415-4.847.923-8.607 3.767-10.59 2.842-1.983 6.832-1.939 11.241.126 8.99 4.214 16.992 15.69 17.839 25.583.415 4.847-.923 8.607-3.767 10.591-1.392.971-3.059 1.455-4.915 1.455zm-15.481-38.71c-1.755 0-3.325.454-4.631 1.365-2.691 1.876-3.953 5.477-3.555 10.137.833 9.735 8.707 21.028 17.554 25.174 4.237 1.986 8.051 2.045 10.742.169 2.69-1.877 3.953-5.477 3.555-10.138-.833-9.734-8.707-21.027-17.554-25.173-2.181-1.022-4.25-1.534-6.111-1.534z" fill="#18b2a3"/></g><path d="M290.135 73.315c10.818-2.706 22.073-13.591 25.138-24.313 1.536-5.371.725-9.682-1.827-12.307h.001l-2.679-2.738.146.953c-2.493-1.173-5.79-1.395-9.677-.423-10.818 2.706-22.073 13.591-25.138 24.313-1.053 3.684-1.003 6.87-.044 9.354l-.878.144 2.72 2.779.033.034.11.113v-.008c2.555 2.53 6.775 3.43 12.095 2.099z" fill="#9ffff8"/><ellipse transform="rotate(-44.045 292.982 51.137)" cx="292.978" cy="51.133" rx="24.729" ry="14.277" fill="#42e8e0"/><path d="M283.944 69.103c-2.849 0-5.217-.877-6.871-2.587-2.41-2.492-3.002-6.44-1.664-11.117 2.73-9.548 12.787-19.274 22.419-21.683 4.721-1.181 8.646-.458 11.055 2.034 2.41 2.492 3.001 6.44 1.664 11.116-2.729 9.547-12.786 19.273-22.419 21.683-1.48.371-2.882.554-4.184.554zm18.065-35.441c-1.26 0-2.621.179-4.06.538-9.477 2.37-19.373 11.941-22.06 21.335-1.286 4.499-.738 8.274 1.543 10.633 2.28 2.359 6.036 3.031 10.574 1.896 9.478-2.371 19.374-11.941 22.06-21.335 1.286-4.498.738-8.273-1.543-10.632-1.557-1.609-3.802-2.435-6.514-2.435z" fill="#18b2a3"/><g><linearGradient id="d" gradientUnits="userSpaceOnUse" x1="3424.314" y1="997.548" x2="3478.323" y2="900.298" gradientTransform="rotate(-120.584 1650.582 1481.865)"><stop offset="0" stop-color="#5761d7"/><stop offset=".04" stop-color="#5c66d9"/><stop offset=".087" stop-color="#6a73df"/><stop offset=".137" stop-color="#8289e8"/><stop offset=".19" stop-color="#a3a7f5"/><stop offset=".224" stop-color="#bcbeff"/></linearGradient><path d="M205.77 169.644l.106 9.401.006-.003c-.006.128.063.252.222.341l102.68 57.889c.335.189.917.159 1.299-.067l16.589-9.806c.184-.109.284-.243.305-.374l.003.001v-.007-.029l-.107-9.496-8.048 4.682-94.747-53.417c-.335-.189-.917-.159-1.299.067l-5.693 3.365-11.316-2.547z" fill="url(#d)"/><radialGradient id="e" cx="3391.059" cy="976.267" r="89.732" gradientTransform="rotate(-120.584 1650.582 1481.865)" gradientUnits="userSpaceOnUse"><stop offset="0" stop-color="#42e8e0"/><stop offset=".017" stop-color="#43e0de"/><stop offset=".112" stop-color="#47bad1"/><stop offset=".214" stop-color="#4b9ac7"/><stop offset=".324" stop-color="#4e7fbe"/><stop offset=".443" stop-color="#506bb7"/><stop offset=".578" stop-color="#525cb3"/><stop offset=".739" stop-color="#5354b0"/><stop offset="1" stop-color="#5351af"/></radialGradient><path d="M205.77 169.644l.106 9.401.006-.003c-.006.128.063.252.222.341l102.68 57.889c.335.189.917.159 1.299-.067l16.589-9.806c.184-.109.284-.243.305-.374l.003.001v-.007-.029l-.107-9.496-8.048 4.682-94.747-53.417c-.335-.189-.917-.159-1.299.067l-5.693 3.365-11.316-2.547z" fill="url(#e)"/><linearGradient id="f" gradientUnits="userSpaceOnUse" x1="3490.67" y1="997.906" x2="3454.713" y2="927.614" gradientTransform="rotate(-120.584 1650.582 1481.865)"><stop offset="0" stop-color="#c0bff6"/><stop offset=".294" stop-color="#c5c4f7"/><stop offset=".64" stop-color="#d3d2f9"/><stop offset="1" stop-color="#e9e9fd"/></linearGradient><path d="M223.968 159.31l102.68 57.889c.335.189.297.525-.086.752l-16.589 9.806c-.383.226-.964.256-1.299.067l-102.68-57.889c-.335-.189-.297-.525.086-.752l16.589-9.806c.382-.225.964-.256 1.299-.067z" fill="url(#f)"/><path d="M326.648 217.2l-.286-.161-16.389 9.687c-.383.226-.964.256-1.299.067L206.28 169.065l-.2.118c-.382.226-.421.563-.086.752l102.68 57.889c.335.189.917.159 1.299-.067l16.589-9.806c.383-.226.422-.563.086-.751z" fill="#fff"/><path d="M227.773 173.419l80.679 44.644a54.688 54.688 0 012.673-9.615l-80.541-45.408c-1.298 3.444-2.252 6.942-2.811 10.379z" opacity=".6" fill="#24126a"/><path d="M220.468 164.763l96.821 54.586c.229.129.203.359-.059.514l-4.168 2.463c-.261.155-.659.175-.888.046l-96.821-54.586c-.229-.129-.203-.359.059-.514l4.168-2.463c.261-.155.659-.176.888-.046z" fill="#24126a"/><path d="M215.353 167.786l1.969 1.11 2.25-1.33c.261-.154.659-.175.888-.046l94.852 53.476 1.918-1.134c.262-.155.288-.385.059-.514l-96.821-54.586c-.229-.129-.627-.109-.888.046l-4.168 2.463c-.262.155-.288.386-.059.515z" fill="#453c9e"/><linearGradient id="g" gradientUnits="userSpaceOnUse" x1="3543.01" y1="1145.973" x2="3430.361" y2="946.368" gradientTransform="rotate(-120.584 1650.582 1481.865)"><stop offset="0" stop-color="#c0bff6"/><stop offset=".117" stop-color="#d0cff9"/><stop offset=".263" stop-color="#e9e9fd"/><stop offset=".514" stop-color="#c0bff6"/><stop offset=".622" stop-color="#d0cff9"/><stop offset=".755" stop-color="#e9e9fd"/><stop offset="1" stop-color="#c0bff6"/></linearGradient><path d="M462.762 67.651l-80.548-45.412c.147 14.369-9.762 31.945-22.132 39.257l-110.036 65.04c-14.54 8.594-26.187 29.254-26.014 46.144l80.548 45.412c-.173-16.89 11.474-37.549 26.014-46.144l110.036-65.04c12.37-7.312 22.279-24.888 22.132-39.257z" opacity=".7" fill="url(#g)"/><radialGradient id="h" cx="3434.028" cy="1148.378" r="233.896" gradientTransform="rotate(-120.584 1650.582 1481.865)" gradientUnits="userSpaceOnUse"><stop offset="0" stop-color="#42e8e0"/><stop offset=".017" stop-color="#43e0de"/><stop offset=".112" stop-color="#47bad1"/><stop offset=".214" stop-color="#4b9ac7"/><stop offset=".324" stop-color="#4e7fbe"/><stop offset=".443" stop-color="#506bb7"/><stop offset=".578" stop-color="#525cb3"/><stop offset=".739" stop-color="#5354b0"/><stop offset="1" stop-color="#5351af"/></radialGradient><path d="M462.762 67.651l-80.548-45.412c.147 14.369-9.762 31.945-22.132 39.257l-110.036 65.04c-14.54 8.594-26.187 29.254-26.014 46.144l80.548 45.412c-.173-16.89 11.474-37.549 26.014-46.144l110.036-65.04c12.37-7.312 22.279-24.888 22.132-39.257z" fill="url(#h)"/><path d="M224.031 172.68l80.548 45.412c-.008-.741.016-1.492.053-2.247l-.007-.002-80.542-45.404a39.224 39.224 0 00-.052 2.241z" opacity=".8" fill="#453c9e"/><g opacity=".8" fill="#fff"><path d="M356.717 124.995l15.871 8.947-1.513.895-15.871-8.948zM348.579 120.406l5.714 3.222-1.514.894-5.714-3.221zM342.271 116.85l3.883 2.189-1.514.895-3.883-2.189zM367.398 127.023l8.648 4.876-1.514.894-8.647-4.875zM354.376 119.682l10.598 5.974-1.514.895-10.597-5.975zM348.068 116.126l3.883 2.189-1.513.894-3.883-2.189zM342.066 112.742l3.883 2.189-1.514.894-3.883-2.189zM373.247 126.328l6.256 3.527-1.513.895-6.257-3.528zM368.683 123.755l2.139 1.206-1.514.894-2.138-1.205zM362.376 120.199l3.883 2.189-1.514.895-3.883-2.189zM359.867 114.791l23.094 13.021-1.514.894-23.094-13.02zM351.728 110.203l5.714 3.221-1.514.895-5.714-3.222zM380.161 122.24l6.257 3.528-1.513.895-6.257-3.528zM365.478 113.962l12.259 6.911-1.514.895-12.259-6.912zM359.17 110.406l3.883 2.189-1.514.894-3.883-2.189zM377.074 116.507l12.802 7.217-1.514.895-12.802-7.218zM365.391 109.92l9.258 5.22-1.513.894-9.258-5.219zM356.71 105.026l6.257 3.527-1.514.895-6.257-3.528zM389.01 119.243l4.323 2.438-1.513.894-4.324-2.437zM380.871 114.654l5.714 3.222-1.514.895-5.714-3.222zM369.239 108.097l9.207 5.19-1.514.895-9.207-5.191zM383.546 112.17l13.245 7.467-1.514.895-13.244-7.468zM368.712 103.806l12.409 6.997-1.513.894-12.41-6.996zM362.404 100.25l3.883 2.189-1.514.895-3.883-2.189zM356.35 96.837l3.883 2.19-1.513.894-3.883-2.189zM392.313 113.119l7.935 4.474-1.513.895-7.936-4.474zM324.526 106.845l-11.005-6.204-1.514.895 11.005 6.204zM325.626 103.473l-8.648-4.875-1.513.894 8.648 4.876zM326.693 100.081l-6.257-3.527-1.514.895 6.257 3.527zM332.995 99.641l-9.102-5.131-1.513.895 9.101 5.131zM333.608 95.994l-6.257-3.527-1.514.894 6.257 3.528zM338.744 94.897l-7.936-4.474-1.513.895 7.935 4.474zM338.59 90.817l-4.324-2.438-1.514.895 4.324 2.438zM346.102 91.059l-8.379-4.723-1.513.894 8.378 4.724zM349.116 88.766l-7.935-4.474-1.514.895 7.936 4.474zM386.514 109.85l3.374 1.902-1.513.895-3.375-1.902zM376.493 104.2l7.596 4.283-1.513.895-7.597-4.283zM385.822 88.651l12.818 7.227-1.513.894-12.819-7.227zM377.042 83.701l5.049 2.846-1.513.895-5.049-2.846z"/></g><g opacity=".8" fill="#fff"><path d="M323.362 144.711l15.871 8.947-1.514.895-15.871-8.948zM315.223 140.122l5.714 3.222-1.513.894-5.714-3.221zM308.915 136.566l3.883 2.189-1.513.895-3.883-2.19zM334.043 146.739l8.647 4.876-1.513.894-8.648-4.875zM321.021 139.398l10.597 5.974-1.513.895-10.598-5.975zM314.713 135.841l3.883 2.19-1.514.894-3.883-2.189zM308.71 132.457l3.883 2.189-1.513.895-3.883-2.189zM339.891 146.044l6.257 3.527-1.514.895-6.256-3.528zM335.328 143.471l2.138 1.205-1.513.895-2.139-1.206zM329.02 139.915l3.883 2.189-1.514.894-3.882-2.189zM326.511 134.507l23.094 13.02-1.513.895-23.094-13.02zM318.372 129.919l5.714 3.221-1.513.895-5.714-3.222zM291.17 126.561l-11.005-6.204-1.513.895 11.004 6.204zM292.271 123.189l-8.648-4.876-1.514.895 8.648 4.875zM293.337 119.797l-6.257-3.527-1.513.894 6.257 3.528zM299.639 119.357l-9.101-5.131-1.514.895 9.101 5.131z"/></g></g><g><g opacity=".1"><path d="M467.399 163.625c0-11.151-7.829-24.711-17.486-30.286-4.838-2.793-9.217-3.052-12.382-1.214v-.001l-3.306 1.934.96.09c-1.743 2.134-2.758 5.279-2.758 9.285 0 11.151 7.829 24.711 17.486 30.286 3.318 1.916 6.421 2.64 9.064 2.312l-.074.886 3.356-1.964.041-.024.136-.079-.008-.002c3.075-1.863 4.971-5.738 4.971-11.223z" fill="#9ffff8"/><ellipse transform="rotate(-30 446.58 155.506)" cx="446.57" cy="155.485" rx="14.277" ry="24.729" fill="#42e8e0"/></g><path d="M447.702 181.823c-12.064 0-24.126-2.65-33.311-7.953-8.93-5.156-13.848-12.021-13.848-19.332s4.917-14.176 13.847-19.331c18.367-10.604 48.253-10.604 66.62 0 8.93 5.156 13.849 12.023 13.849 19.333 0 7.31-4.918 14.175-13.848 19.331-9.183 5.3-21.248 7.952-33.309 7.952zm-.002-54.228c-12.001 0-24.001 2.637-33.137 7.912-8.818 5.091-13.674 11.849-13.674 19.03 0 7.181 4.857 13.94 13.675 19.031 18.272 10.55 48.004 10.55 66.272.001l.087.15-.087-.15c8.818-5.091 13.675-11.85 13.675-19.03 0-7.182-4.857-13.941-13.676-19.032-9.135-5.275-21.135-7.912-33.135-7.912z" opacity=".4" fill="#42e8e0"/><path d="M447.702 189.135c-15.31 0-30.616-3.363-42.272-10.093-11.323-6.538-17.559-15.24-17.559-24.505 0-9.265 6.235-17.967 17.559-24.505 23.31-13.456 61.232-13.457 84.54.001 11.324 6.538 17.56 15.241 17.56 24.506s-6.236 17.967-17.559 24.504c-11.652 6.728-26.963 10.092-42.269 10.092zm-.003-68.852c-15.246 0-30.49 3.35-42.096 10.051-11.212 6.473-17.386 15.068-17.386 24.204 0 9.136 6.175 17.731 17.387 24.204 23.214 13.402 60.983 13.402 84.193.001 11.211-6.473 17.386-15.067 17.386-24.203s-6.175-17.731-17.388-24.205c-11.605-6.702-26.851-10.052-42.096-10.052z" opacity=".2" fill="#42e8e0"/><path d="M447.701 176.062c-9.507 0-19.014-2.09-26.251-6.268-7.045-4.067-10.925-9.485-10.925-15.257 0-5.77 3.88-11.188 10.924-15.256 14.474-8.357 38.024-8.357 52.502 0 7.044 4.067 10.924 9.485 10.924 15.257 0 5.771-3.879 11.189-10.923 15.256-7.238 4.178-16.745 6.268-26.251 6.268zm-.001-42.706c-9.444 0-18.888 2.075-26.077 6.227-6.934 4.002-10.751 9.313-10.751 14.955 0 5.643 3.818 10.954 10.752 14.956 14.379 8.303 37.775 8.303 52.154 0 6.933-4.002 10.75-9.314 10.75-14.955 0-5.643-3.817-10.954-10.751-14.956-7.19-4.152-16.634-6.227-26.077-6.227z" fill="#42e8e0"/><defs><path id="i" d="M475.08 159.205l-10.991 6.335-43.769-25.27V91.674l54.76 31.616z"/></defs><clipPath id="j"><use xlink:href="#i" overflow="visible"/></clipPath><g clip-path="url(#j)"><path d="M467.399 163.625c0-11.151-7.829-24.711-17.486-30.286-4.838-2.793-9.217-3.052-12.382-1.214v-.001l-3.306 1.934.96.09c-1.743 2.134-2.758 5.279-2.758 9.285 0 11.151 7.829 24.711 17.486 30.286 3.318 1.916 6.421 2.64 9.064 2.312l-.074.886 3.356-1.964.041-.024.136-.079-.008-.002c3.075-1.863 4.971-5.738 4.971-11.223z" fill="#9ffff8"/><ellipse transform="rotate(-30 446.58 155.506)" cx="446.57" cy="155.485" rx="14.277" ry="24.729" fill="#42e8e0"/><path d="M453.604 176.076c-2.201 0-4.638-.735-7.159-2.191-8.752-5.054-15.872-17.387-15.872-27.491 0-4.95 1.683-8.647 4.737-10.412 3.056-1.761 7.099-1.371 11.385 1.104 8.752 5.054 15.873 17.387 15.873 27.492 0 4.949-1.683 8.646-4.737 10.41-1.259.726-2.685 1.088-4.227 1.088zm-14.066-40.68c-1.456 0-2.798.338-3.979 1.02-2.893 1.671-4.487 5.214-4.487 9.979 0 9.945 7.008 22.084 15.622 27.058 4.125 2.381 7.991 2.773 10.886 1.104 2.894-1.671 4.487-5.214 4.487-9.977 0-9.946-7.009-22.085-15.623-27.059-2.442-1.412-4.793-2.125-6.906-2.125z" fill="#18b2a3"/></g></g><g><path d="M261.018 183.267c0-11.151-7.829-24.711-17.486-30.286-4.838-2.793-9.216-3.052-12.382-1.214v-.001l-3.306 1.934.96.09c-1.743 2.134-2.758 5.279-2.758 9.286 0 11.151 7.829 24.711 17.486 30.286 3.318 1.916 6.421 2.64 9.064 2.312l-.074.886 3.356-1.964.041-.024.136-.079-.007-.002c3.073-1.864 4.97-5.74 4.97-11.224z" fill="#9ffff8"/><ellipse transform="rotate(-30 240.19 175.141)" cx="240.189" cy="175.127" rx="14.277" ry="24.729" fill="#42e8e0"/><path d="M246.954 194.94c-2.118 0-4.464-.708-6.89-2.108-8.42-4.861-15.271-16.726-15.271-26.449 0-4.764 1.619-8.322 4.561-10.02 2.942-1.7 6.833-1.32 10.96 1.061 8.42 4.861 15.27 16.727 15.27 26.449 0 4.765-1.62 8.323-4.561 10.021-1.212.698-2.585 1.046-4.069 1.046zm-13.529-39.125c-1.398 0-2.688.325-3.821.98-2.78 1.605-4.311 5.01-4.311 9.588 0 9.564 6.738 21.234 15.021 26.016 3.964 2.29 7.678 2.669 10.459 1.061 2.78-1.604 4.311-5.01 4.311-9.588 0-9.563-6.738-21.234-15.02-26.016-2.348-1.356-4.609-2.041-6.639-2.041z" fill="#18b2a3"/></g><g opacity=".2"><path d="M261.018 241.001c0-11.151-7.829-24.711-17.486-30.286-4.838-2.793-9.216-3.052-12.382-1.214v-.001l-3.306 1.934.96.09c-1.743 2.134-2.758 5.279-2.758 9.286 0 11.151 7.829 24.711 17.486 30.286 3.318 1.916 6.421 2.64 9.064 2.312l-.074.886 3.356-1.964.041-.024.136-.08-.007-.002c3.073-1.864 4.97-5.739 4.97-11.223z" fill="#9ffff8"/><ellipse transform="rotate(-30 240.188 232.876)" cx="240.189" cy="232.86" rx="14.277" ry="24.729" fill="#42e8e0"/><path d="M246.954 252.673c-2.119 0-4.464-.707-6.89-2.107-8.42-4.862-15.271-16.727-15.271-26.449 0-4.765 1.619-8.323 4.561-10.021 2.939-1.699 6.832-1.321 10.96 1.061 8.42 4.861 15.27 16.727 15.27 26.449 0 4.765-1.62 8.323-4.561 10.021-1.212.699-2.585 1.046-4.069 1.046zm-13.529-39.125c-1.398 0-2.688.325-3.821.98-2.779 1.605-4.311 5.011-4.311 9.589 0 9.563 6.738 21.233 15.021 26.016 3.965 2.289 7.68 2.667 10.459 1.061 2.78-1.604 4.311-5.01 4.311-9.588 0-9.563-6.738-21.234-15.02-26.016-2.348-1.356-4.609-2.042-6.639-2.042z" fill="#18b2a3"/></g><ellipse transform="rotate(-77.415 102.883 145.119)" cx="102.882" cy="145.122" rx="56.504" ry="56.503" fill="none"/><linearGradient id="k" gradientUnits="userSpaceOnUse" x1="52.907" y1="95.278" x2="152.608" y2="194.979" gradientTransform="translate(1.116 -.589)"><stop offset="0" stop-color="#00f1fb"/><stop offset="1" stop-color="#634ef1"/></linearGradient><path d="M170.419 124.955c-7.291-24.305-27.35-43.116-52.432-48.591a70.696 70.696 0 00-5.137-.924v-.001a70.734 70.734 0 00-13.798-.596c-36.943 1.975-66.414 32.424-66.669 69.913-.256 37.487 28.798 68.335 65.71 70.815 1.425.095 2.861.154 4.308.164.477.003.953-.002 1.428-.008a70.504 70.504 0 005.79-.308c35.57-3.371 63.511-33.203 63.76-69.702.05-7.22-.99-14.192-2.96-20.762zm-60.686 73.921a54.43 54.43 0 01-5.791.421c-.474.009-.951.013-1.428.009a54.753 54.753 0 01-4.308-.2c-27.833-2.386-49.588-25.827-49.394-54.239.194-28.412 22.266-51.556 50.129-53.562a54.944 54.944 0 015.738-.113 54.29 54.29 0 015.785.502l.064.009c2.508.355 4.96.884 7.345 1.57 17.635 5.078 31.551 18.881 36.809 36.407a54.034 54.034 0 012.272 15.924c-.188 27.416-20.747 49.924-47.221 53.272z" fill="url(#k)"/><g><linearGradient id="l" gradientUnits="userSpaceOnUse" x1="69.204" y1="136.379" x2="97.007" y2="136.379" gradientTransform="translate(1.116 -.589)"><stop offset="0" stop-color="#00f1fb"/><stop offset="1" stop-color="#634ef1"/></linearGradient><path d="M85.422 124.518l-15.952-.109-.045 6.587 6.587.045 3.681.025 5.684.039a5.268 5.268 0 015.226 5.298 5.269 5.269 0 01-5.298 5.227l-9.365-.064.064-9.33-6.587-.045-.109 15.917 15.952.109c6.534.045 11.886-5.235 11.93-11.769.046-6.534-5.234-11.886-11.768-11.93z" fill="url(#l)"/><g><linearGradient id="m" gradientUnits="userSpaceOnUse" x1="69.204" y1="153.491" x2="99.755" y2="153.491" gradientTransform="translate(1.116 -.589)"><stop offset="0" stop-color="#00f1fb"/><stop offset="1" stop-color="#634ef1"/></linearGradient><path d="M88.054 141.648l-18.7-.127-.162 23.699 6.587.045.045-6.587.013-1.882.059-8.643 12.113.083a5.27 5.27 0 015.227 5.299 5.269 5.269 0 01-5.298 5.226l-10.918-.074-.045 6.587 10.918.074c6.534.045 11.886-5.235 11.93-11.768.044-6.535-5.236-11.887-11.769-11.932z" fill="url(#m)"/></g></g><g><linearGradient id="n" gradientUnits="userSpaceOnUse" x1="103.975" y1="134.611" x2="138.403" y2="134.611" gradientTransform="translate(1.116 -.589)"><stop offset="0" stop-color="#00f1fb"/><stop offset="1" stop-color="#634ef1"/></linearGradient><path d="M111.573 144.837c.438-7.045 6.317-12.624 13.46-12.576 2.765.019 5.441.899 7.664 2.475 1.435 1.017 3.371.941 4.68-.233 1.764-1.582 1.636-4.408-.291-5.788a20.883 20.883 0 00-12.002-3.905c-11.254-.077-20.51 8.819-20.981 19.976l7.47.051z" fill="url(#n)"/><linearGradient id="o" gradientUnits="userSpaceOnUse" x1="103.975" y1="156.219" x2="138.403" y2="156.219" gradientTransform="translate(1.116 -.589)"><stop offset="0" stop-color="#00f1fb"/><stop offset="1" stop-color="#634ef1"/></linearGradient><path d="M124.85 159.085c-7.143-.049-12.946-5.707-13.288-12.758l-7.47-.051c.318 11.162 9.453 20.183 20.707 20.26a20.885 20.885 0 0012.054-3.741c1.946-1.353 2.112-4.177.37-5.783-1.293-1.192-3.228-1.295-4.676-.297a13.42 13.42 0 01-7.697 2.37z" fill="url(#o)"/></g></svg>