<?xml version="1.0" encoding="utf-8"?>
<!-- Generator: Adobe Illustrator 24.0.2, SVG Export Plug-In . SVG Version: 6.00 Build 0)  -->
<svg version="1.1" id="Слой_1" xmlns="http://www.w3.org/2000/svg" xmlns:xlink="http://www.w3.org/1999/xlink" x="0px" y="0px"
	 viewBox="0 0 150 150" style="enable-background:new 0 0 150 150;" xml:space="preserve">
<style type="text/css">
	.st0{fill:#E52713;}
	.st1{fill:none;}
</style>
<path class="st0" d="M22.8,55.8c2.6,0,3.4,1.9,4.1,3.8c0.3,0.8,7.1,19.4,7.3,20c0.1,0.2,0,0.4-0.2,0.5c-0.2,0.1-3.8,1.5-4,1.5
	c-0.2,0.1-0.4,0-0.5-0.2c-0.1-0.2-1.5-4.3-1.7-4.7c-0.5,0-9.6,0-10.1,0c-0.2,0.5-1.6,4.5-1.7,4.7c-0.1,0.2-0.3,0.3-0.5,0.2
	c-0.2-0.1-3.8-1.5-4-1.5c-0.2-0.1-0.3-0.3-0.2-0.5c0.3-0.7,6.9-19,7.3-20C19.3,57.7,20.2,55.8,22.8,55.8z M10.8,89.1
	c-0.2,0-0.4,0.2-0.4,0.4v4.3c0,0.2,0.2,0.4,0.4,0.4h23.9c0.2,0,0.4-0.2,0.4-0.4v-4.3c0-0.2-0.2-0.4-0.4-0.4H10.8 M22.8,61.9
	l-3.4,10.2h6.9L22.8,61.9L22.8,61.9z M111.7,76.9c0,1.2-0.6,1.9-1.8,1.9c-0.5,0-0.8,0-1.5-0.2v-3.5c0.3,0,0.8-0.1,1.5-0.1
	C111.1,75.1,111.7,75.6,111.7,76.9z M114.1,76.7c0-2.1-1.3-3.6-3.9-3.6c-0.6,0-1.1,0.1-1.8,0.2l0-3.1c0.4-0.1,1.2-0.1,2-0.1
	c0.8,0,1.8,0,2.6,0.1l0.1-1.8c-1-0.2-2.4-0.4-3.5-0.4c-1.1,0-2.8,0.3-3.6,0.5l0,11.4c1.3,0.5,2.5,0.7,3.7,0.7
	C112.6,80.7,114.1,79.2,114.1,76.7z M86.7,76.1c0,1.6-0.6,2.6-1.7,2.6c-0.4,0-0.7,0-1.2-0.2v-4.8c0.5-0.3,0.8-0.3,1.3-0.3
	C86.2,73.5,86.7,74.3,86.7,76.1 M78.7,76.1c0-1.7,0.5-2.7,1.6-2.7c0.4,0,0.7,0,1.3,0.3v4.8c-0.5,0.2-0.7,0.2-1.2,0.2
	C79.2,78.7,78.7,77.7,78.7,76.1 M83.8,83.3v-3.1c0.3,0.2,0.9,0.4,1.8,0.4c1.9,0,3.3-1.6,3.3-4.5c0-3.2-1.4-4.5-3.7-4.5
	c-0.6,0-1,0.1-1.4,0.3v-3.7h-2.3v3.7c-0.5-0.2-0.9-0.3-1.5-0.3c-2.3,0-3.7,1.4-3.7,4.6c0,2.9,1.3,4.5,3.3,4.5c1,0,1.5-0.3,1.8-0.4
	v3.1H83.8 M66.6,80.5v-8.3c-1.2-0.4-2.2-0.5-3.5-0.5c-1.3,0-2.2,0.2-3.4,0.5v4.3c0,1.2,0,1.5-0.1,1.9c-0.1,0.3-0.3,0.7-0.8,1
	l0.6,1.3c1.8-0.5,2.5-1.3,2.5-3.8v-3.1c0.6-0.1,0.7-0.1,1.2-0.1c0.5,0,0.6,0,1.2,0.1v6.8H66.6z M94.6,78.6c-0.5,0.2-0.8,0.2-1.2,0.2
	c-0.8,0-1.3-0.3-1.3-1.2c0-0.9,0.6-1.2,1.7-1.2c0.3,0,0.5,0,0.7,0.1v0.6C94.5,77.9,94.6,78.3,94.6,78.6z M97.5,79.6
	c-0.6-0.9-0.8-1.5-0.8-2.6v-2.3c0-1.3-0.1-1.7-0.5-2.2c-0.5-0.6-1.2-0.9-2.7-0.9c-1,0-2,0.1-2.9,0.3l0.3,1.7
	c0.6-0.1,1.3-0.2,1.8-0.2c1.5,0,1.7,0.2,1.7,1.3v0.4c-0.3-0.1-0.7-0.2-1.2-0.2c-2.3,0-3.5,1.1-3.5,2.9c0,1.7,1.3,2.7,2.8,2.7
	c0.6,0,1.2-0.1,1.7-0.3c0.3-0.1,0.4-0.2,0.8-0.4c0.2,0.3,0.7,0.7,0.9,0.7L97.5,79.6z M119.8,78.6c-0.5,0.2-0.8,0.2-1.2,0.2
	c-0.8,0-1.3-0.3-1.3-1.2c0-0.9,0.6-1.2,1.7-1.2c0.3,0,0.5,0,0.7,0.1v0.6C119.6,77.9,119.7,78.3,119.8,78.6z M122.6,79.6
	c-0.6-0.9-0.8-1.5-0.8-2.6v-2.3c0-1.3-0.1-1.7-0.5-2.2c-0.5-0.6-1.2-0.9-2.7-0.9c-1,0-2,0.1-2.9,0.3l0.3,1.7
	c0.6-0.1,1.3-0.2,1.8-0.2c1.5,0,1.7,0.2,1.7,1.3v0.4c-0.3-0.1-0.7-0.2-1.1-0.2c-2.3,0-3.5,1.1-3.5,2.9c0,1.7,1.3,2.7,2.8,2.7
	c0.6,0,1.2-0.1,1.7-0.3c0.3-0.1,0.4-0.2,0.8-0.4c0.2,0.3,0.7,0.7,0.9,0.7L122.6,79.6z M73.1,77.5c0,0.9-0.3,1.4-1.4,1.4
	c-0.4,0-0.5,0-1-0.1v-2.5c0.6-0.1,0.6-0.1,1-0.1C72.7,76.1,73.1,76.6,73.1,77.5z M68.4,71.7l0,8.3c1.1,0.5,2.3,0.7,3.3,0.7
	c2.4,0,3.7-1.2,3.7-3.3c0-1.9-1.1-3-3.3-3c-0.5,0-0.9,0.1-1.5,0.2v-2.8H68.4z M131,80.5v-8.7h-2.3v3.3h-2.6v-3.3h-2.3v8.7h2.3v-3.5
	h2.6v3.5H131z M140.3,80.5c0,0-1.2-2.6-1.5-3.2c-0.3-0.7-0.7-1.1-1.4-1.3v0c0.5-0.1,0.8-0.4,1.2-1.2c0.4-0.8,0.5-1,0.7-1.2
	c0.2-0.2,0.5-0.1,0.5-0.1l0.1-1.6c-0.3,0-0.7,0-1.1,0c-0.6,0-0.9,0.2-1.2,0.5c-0.2,0.2-0.4,0.6-0.6,1c-0.2,0.4-0.4,0.8-0.6,1.2
	c-0.2,0.5-0.3,0.7-0.9,0.7h-0.4v-3.3h-2.3v8.7h2.3v-3.5l0.3,0c0.6,0,0.8,0.2,1.1,0.8c0.4,0.8,1.2,2.7,1.2,2.7H140.3z M55.5,80.5h2.6
	l-4-12.1c-0.4-0.1-0.9-0.2-1.5-0.2c-0.6,0-0.8,0.1-1.3,0.2l-4.2,12.1h2.5c0,0,0.3-1.1,0.7-2.4h4.3C55.2,79.4,55.5,80.5,55.5,80.5z
	 M51.1,76.1c0,0,0.7-2.4,0.8-2.8c0.3-1,0.7-2.5,0.7-2.5h0.1c0,0,0.4,1.6,0.7,2.5c0.1,0.4,0.8,2.8,0.8,2.8H51.1z M101.4,74.7
	c-0.8,0-1.5,0.7-1.5,1.5c0,0.8,0.7,1.5,1.5,1.5c0.8,0,1.5-0.6,1.5-1.5C102.9,75.3,102.2,74.7,101.4,74.7z"/>
<rect x="-1.9" y="43.5" class="st1" width="160.3" height="63.1"/>
</svg>
