<svg xmlns="http://www.w3.org/2000/svg" viewBox="0 0 370 370"><path d="M184.787 284.773c55.065 0 99.702-44.639 99.702-99.702 0-55.063-44.638-99.701-99.702-99.701-55.063 0-99.701 44.638-99.701 99.701 0 55.063 44.638 99.702 99.701 99.702z" fill-rule="evenodd" clip-rule="evenodd" fill="#fff"/><path d="M84.877 185.071c0 55.092 44.819 99.91 99.91 99.91 55.092 0 99.91-44.818 99.91-99.91s-44.818-99.91-99.91-99.91c-55.091 0-99.91 44.819-99.91 99.91zm.418 0c0-54.86 44.631-99.491 99.491-99.491s99.491 44.632 99.491 99.491-44.632 99.491-99.491 99.491-99.491-44.631-99.491-99.491z" fill-rule="evenodd" clip-rule="evenodd" fill="#0071ba"/><path d="M184.787 279.649c52.277 0 94.657-42.38 94.657-94.657 0-52.275-42.38-94.656-94.657-94.656-52.277 0-94.656 42.38-94.656 94.656 0 52.277 42.379 94.657 94.656 94.657z" fill-rule="evenodd" clip-rule="evenodd" fill="#0071ba"/><g fill-rule="evenodd" clip-rule="evenodd" fill="#fff"><path d="M108.952 211.966l-1.732-6.298c2.378.994 7.436 1.375 12.581.797 3.2-.36 6.489-1.392 10.363-3.479 3.319-1.786 5.265-5.469 5.364-7.748.298-6.853-3.873-8.941-9.238-9.238h-9.238l-.297-8.94 5.962-.471c4.232-.474 11.918-2.211 10.428-7.872-.829-3.151-4.086-6.995-9.237-6.258-4.172.595-8.107 3.706-11.784 6.58l-4.904-6.282c3.003-2.437 10.482-7.653 17.529-8.492 13.76-1.64 19.719 4.32 20.91 11.472.921 5.522-3.277 11.918-11.621 14.303l1.061-.298c6.603.434 12.926 4.509 13.727 11.644 1.062 9.459-9.355 20.711-23.046 22.246-6.4.719-12.052.933-15.507-.189-.308-.099-.447 0-.838-.448-.39-.446-.483-1.029-.483-1.029zM186.536 153.634l1.958 5.313c-1.408.033-7.135 2.239-8.394 2.94-9.782 5.434-14.372 13.103-15.271 19.435l.247-.019c2.423-2.868 6.087-4.751 11.031-5.151 8.983-.728 17.081 5.043 17.988 16.239.867 10.697-6.58 20.147-18.117 21.082-14.339 1.163-22.212-8.968-23.252-21.819-.82-10.118 2.205-18.875 7.611-24.824 4.878-5.32 15.601-11.88 23.68-14.035 2.098-.561 2.38.138 2.519.839zm-8.525 32.302c-4.568-2.554-12.729 2.358-12.727 2.068-.002 1.009-1.278 9.086 1.678 15.305.555 1.169 2.264 2.459 4.054 3.051 1.809.595 3.702.49 4.476.278.904-.245 5.71-1.642 6.566-7.543 1.357-9.374-1.626-11.806-4.047-13.159zM250.819 152.855l1.958 5.316c-1.409.031-7.134 2.237-8.393 2.937-9.785 5.436-14.376 13.103-15.272 19.437l.248-.021c2.422-2.868 6.086-4.751 11.028-5.151 8.983-.726 17.081 5.045 17.99 16.238.868 10.697-6.58 20.148-18.117 21.083-14.34 1.161-22.21-8.966-23.252-21.82-.819-10.118 2.203-18.876 7.611-24.823 4.878-5.32 15.602-11.883 23.68-14.036 2.097-.558 2.38.14 2.519.84zm-8.524 32.305c-4.568-2.555-12.729 2.358-12.726 2.066-.003 1.009-1.278 9.085 1.678 15.305.555 1.169 2.264 2.459 4.053 3.051 1.811.595 3.705.49 4.478.278.902-.245 5.712-1.639 6.565-7.543 1.357-9.374-1.629-11.806-4.048-13.157zM208.696 185.062c-1.445 1.929-2.228 2.492-3.417 4.101-1.96-2.308-2.645-2.86-4.416-5.089-1.262-1.584-2.802-3.629-2.802-5.765 0-1.954 1.516-3.378 3.468-3.378 1.861 0 3.31 1.563 3.699 3.309.484-1.815 1.792-3.309 3.814-3.309 1.86 0 3.355 1.516 3.355 3.401 0 2.022-1.355 3.652-2.527 5.193l-1.174 1.537z"/></g></svg>