<?xml version="1.0" encoding="utf-8"?>
<!-- Generator: Adobe Illustrator 24.0.2, SVG Export Plug-In . SVG Version: 6.00 Build 0)  -->
<svg version="1.1" id="Слой_1" xmlns="http://www.w3.org/2000/svg" xmlns:xlink="http://www.w3.org/1999/xlink" x="0px" y="0px"
	 viewBox="0 0 150 150" style="enable-background:new 0 0 150 150;" xml:space="preserve">
<style type="text/css">
	.st0{fill:url(#БЕЛОЕ_2_);stroke:#E2E2E2;stroke-width:0.9023;}
	.st1{fill:url(#СИНЕЕ_2_);}
	.st2{fill:url(#КРАСНОЕ_1_);}
	.st3{fill:#D72C00;}
	.st4{fill:url(#ТЕНЬ_1_);}
	.st5{fill-rule:evenodd;clip-rule:evenodd;fill:#32409A;}
</style>
<g id="ФЛАГ">
	<linearGradient id="БЕЛОЕ_2_" gradientUnits="userSpaceOnUse" x1="128.0648" y1="75.4618" x2="113.7998" y2="65.4733">
		<stop  offset="0.1067" style="stop-color:#FFFFFF"/>
		<stop  offset="0.2118" style="stop-color:#F5F7FC"/>
		<stop  offset="0.309" style="stop-color:#E7EBF7"/>
		<stop  offset="0.3529" style="stop-color:#F0F2FA"/>
		<stop  offset="0.4411" style="stop-color:#FBFCFE"/>
		<stop  offset="0.5337" style="stop-color:#FFFFFF"/>
	</linearGradient>
	<path id="БЕЛОЕ_1_" class="st0" d="M140.2,58.1c-4.9,4.3-13.1,2-15.4,8.3c-13.1,2.7-14.3,8.4-22.6,15.7c0,0-0.1,1-0.1,1
		c3.8-3.5,10.3-12.8,22.1-12.9c0.6-0.5,2.7-3.4,7.6-1.8C133.2,67.8,139.5,59,140.2,58.1z"/>
	<linearGradient id="СИНЕЕ_2_" gradientUnits="userSpaceOnUse" x1="126.2929" y1="77.6561" x2="112.1875" y2="67.7794">
		<stop  offset="0" style="stop-color:#101D5B"/>
		<stop  offset="5.270436e-02" style="stop-color:#13205E"/>
		<stop  offset="9.923498e-02" style="stop-color:#1E2A67"/>
		<stop  offset="0.1434" style="stop-color:#303A77"/>
		<stop  offset="0.1862" style="stop-color:#4A518C"/>
		<stop  offset="0.228" style="stop-color:#6B6FA8"/>
		<stop  offset="0.2689" style="stop-color:#9394CA"/>
		<stop  offset="0.3086" style="stop-color:#C2BEF2"/>
		<stop  offset="0.3202" style="stop-color:#D1CCFF"/>
		<stop  offset="0.3234" style="stop-color:#C7C3F6"/>
		<stop  offset="0.3393" style="stop-color:#9B99CC"/>
		<stop  offset="0.3563" style="stop-color:#7475A8"/>
		<stop  offset="0.3743" style="stop-color:#535689"/>
		<stop  offset="0.3936" style="stop-color:#383D70"/>
		<stop  offset="0.4145" style="stop-color:#24295C"/>
		<stop  offset="0.438" style="stop-color:#151B4E"/>
		<stop  offset="0.4661" style="stop-color:#0D1346"/>
		<stop  offset="0.5112" style="stop-color:#0A1144"/>
		<stop  offset="0.7135" style="stop-color:#D1CCFF"/>
		<stop  offset="0.7205" style="stop-color:#C2BEF1"/>
		<stop  offset="0.7429" style="stop-color:#9796C9"/>
		<stop  offset="0.7671" style="stop-color:#7172A5"/>
		<stop  offset="0.7929" style="stop-color:#515487"/>
		<stop  offset="0.8206" style="stop-color:#373B6E"/>
		<stop  offset="0.8511" style="stop-color:#23285B"/>
		<stop  offset="0.8857" style="stop-color:#151B4E"/>
		<stop  offset="0.9279" style="stop-color:#0C1346"/>
		<stop  offset="1" style="stop-color:#0A1144"/>
	</linearGradient>
	<path id="СИНЕЕ_1_" class="st1" d="M136.8,62.6c-1.7,2.1-3.7,2.1-6.1,2c-2.6,0-6.2,0.3-7,3.9c-6.1-0.2-14.3,6.6-18.5,10.6
		c-1.8,1.7-3,2.8-3,2.8l-0.1,1c0,0,1.5-1.5,3.6-3.7c2.6-2.5,6.4-5.5,10.4-7.3c2.8-1.2,5.5,0.5,8.4-1.1c1.4-0.4,3.8-0.6,4.3-0.7
		C131.4,70.5,136.5,63.1,136.8,62.6z"/>
	<linearGradient id="КРАСНОЕ_1_" gradientUnits="userSpaceOnUse" x1="124.6699" y1="79.6061" x2="110.8328" y2="69.9173">
		<stop  offset="0" style="stop-color:#970F00"/>
		<stop  offset="7.334219e-02" style="stop-color:#B91300"/>
		<stop  offset="0.2079" style="stop-color:#FF1A00"/>
		<stop  offset="0.3202" style="stop-color:#F27070"/>
		<stop  offset="0.3264" style="stop-color:#F36464"/>
		<stop  offset="0.3452" style="stop-color:#F74545"/>
		<stop  offset="0.3658" style="stop-color:#FA2C2C"/>
		<stop  offset="0.3887" style="stop-color:#FC1818"/>
		<stop  offset="0.4149" style="stop-color:#FE0A0A"/>
		<stop  offset="0.4474" style="stop-color:#FF0202"/>
		<stop  offset="0.5056" style="stop-color:#FF0000"/>
		<stop  offset="0.7135" style="stop-color:#FFFFFF"/>
		<stop  offset="0.8427" style="stop-color:#FF0000"/>
		<stop  offset="0.8621" style="stop-color:#E90000"/>
		<stop  offset="0.8871" style="stop-color:#D40000"/>
		<stop  offset="0.9151" style="stop-color:#C50000"/>
		<stop  offset="0.9483" style="stop-color:#BD0000"/>
		<stop  offset="1" style="stop-color:#BA0000"/>
	</linearGradient>
	<path id="КРАСНОЕ" class="st2" d="M133.6,66.8c-4.3,6.8-8.6,2-10.6,6.6c-0.5,0.9-1.5,0.5-1.5,0.5s-5.5-1.9-13.5,3.8
		c-1.8,1.3-3.8,3.1-5.8,5.4c0,0,0.1-1,0.1-1s12.4-12.7,19.1-10.7C125.9,64.5,128.1,69.6,133.6,66.8z"/>
	<path id="ОРАНЖЕВОЕ" class="st3" d="M102.3,83c-24.5,14.3-59.6,9.1-61,3.1c37.3,9.7,56-1,61.1-4.2
		C102.4,82,102.3,83,102.3,83z"/>
	<linearGradient id="ТЕНЬ_1_" gradientUnits="userSpaceOnUse" x1="125.6861" y1="73.4333" x2="121.8563" y2="70.7516">
		<stop  offset="0" style="stop-color:#FF0000"/>
		<stop  offset="2.732117e-02" style="stop-color:#FC1A1A"/>
		<stop  offset="6.322135e-02" style="stop-color:#F93535"/>
		<stop  offset="0.1045" style="stop-color:#F64B4B"/>
		<stop  offset="0.1527" style="stop-color:#F45C5C"/>
		<stop  offset="0.2123" style="stop-color:#F36767"/>
		<stop  offset="0.2959" style="stop-color:#F26E6E"/>
		<stop  offset="0.5281" style="stop-color:#F27070"/>
		<stop  offset="0.7584" style="stop-color:#B63026"/>
		<stop  offset="0.8764" style="stop-color:#970F00"/>
	</linearGradient>
	<path id="ТЕНЬ" class="st4" d="M121.7,71.2c0.4-0.2,0.5-0.1,1.8,0c1.3,0.1,3.7-0.2,3.8-0.2c-5.7,0.2-3.1,3.9-6.4,2.8
		C122.6,73.8,120.3,71.9,121.7,71.2z"/>
</g>
<g id="АЭРОФЛОТ">
	<path class="st5" d="M76.7,73.4h-1.6l4.2-8.1h3.1l4.7,8.1h-3.6l-3.5-6.3h-0.1L76.7,73.4L76.7,73.4z M25.5,69.9l5-0.1
		c-0.1,1.1-0.7,1.8-1,2c-0.8,0.6-2,0.7-2.6,0.7c-0.8,0-1.5-0.1-2.3-0.5c-0.5-0.3-1-0.7-1.3-1.1l-0.2-0.3l-1.6,0.9
		c0.5,0.5,1.2,1.1,2,1.4c1.2,0.6,2.3,0.7,3.7,0.7c1.4,0,3.7-0.2,5.3-1.4c1.1-0.8,1.6-1.9,1.6-2.9c0-1-0.5-2.1-1.6-2.9
		c-1.4-1-3.4-1.4-5.2-1.4c-1.2,0-2.3,0.1-3.4,0.5c-0.9,0.3-1.6,0.7-2.4,1.3l1.6,0.9l0.4-0.4c0.3-0.4,0.9-0.7,1.4-0.9
		c0.7-0.3,1.3-0.4,2.1-0.4c1.4,0,2.3,0.4,2.7,0.9c0.3,0.3,0.7,0.8,0.8,1.6l-5-0.1V69.9L25.5,69.9z M93.1,66.1
		c-0.8,0-1.7,0.2-2.5,1.1c-0.6,0.7-0.7,1.5-0.7,2.2c0,0.7,0.1,1.5,0.7,2.2c0.7,0.9,1.6,1.1,2.5,1.1c0.8,0,1.7-0.2,2.5-1.1
		c0.6-0.7,0.7-1.5,0.7-2.2c0-0.7-0.1-1.5-0.7-2.2C94.8,66.3,93.9,66.1,93.1,66.1L93.1,66.1z M93.1,73.6c-1.5,0-3.6-0.3-5.1-1.4
		c-1.1-0.8-1.6-1.9-1.6-2.9c0-1,0.5-2.1,1.6-2.9c1.4-1,3.6-1.4,5.1-1.4c1.5,0,3.6,0.3,5.1,1.4c1.1,0.8,1.7,1.9,1.7,2.9
		c0,1-0.5,2.1-1.7,2.9C96.7,73.3,94.6,73.6,93.1,73.6L93.1,73.6z M65.2,67.4c-0.3,0.1-0.5,0.2-0.7,0.4c-0.4,0.3-0.7,0.8-0.7,1.6
		c0,0.8,0.3,1.3,0.7,1.6c0.2,0.2,0.4,0.3,0.7,0.4c0.3,0.1,0.7,0.2,1,0.2h0.4v-4.2h-0.4C65.9,67.2,65.5,67.3,65.2,67.4L65.2,67.4z
		 M71.1,72.4c-0.3,0-0.6,0-1,0h-0.4v1.2h-3.2v-1.2h-0.3c-0.4,0-0.7,0-1,0c-1.8-0.1-2.8-0.5-3.3-0.8c-1-0.6-1.4-1.4-1.4-2.3
		c0-1.2,0.8-1.9,1.4-2.3c0.8-0.5,2.1-0.8,3.3-0.8c0.3,0,0.6,0,1,0h0.3V65h3.2v1.1h0.4c0.3,0,0.6,0,1,0c1.2,0.1,2.4,0.3,3.3,0.8
		c0.6,0.4,1.4,1.1,1.4,2.3c0,0.9-0.4,1.7-1.4,2.3C73.9,71.9,72.9,72.3,71.1,72.4L71.1,72.4z M71.1,67.4c-0.3-0.1-0.7-0.2-1.1-0.2
		h-0.4v4.2h0.4c0.4,0,0.7-0.1,1.1-0.2c0.3-0.1,0.5-0.2,0.7-0.4c0.4-0.3,0.7-0.8,0.7-1.6c0-0.8-0.3-1.3-0.7-1.6
		C71.6,67.6,71.4,67.4,71.1,67.4L71.1,67.4z M53,66.1c-0.8,0-1.8,0.2-2.5,1.1c-0.6,0.7-0.7,1.5-0.7,2.2c0,0.7,0.1,1.5,0.7,2.2
		c0.7,0.9,1.7,1.1,2.5,1.1c0.8,0,1.7-0.2,2.5-1.1c0.6-0.7,0.7-1.5,0.7-2.2c0-0.7-0.1-1.5-0.7-2.2C54.7,66.3,53.8,66.1,53,66.1
		L53,66.1z M53,73.6c-1.5,0-3.7-0.3-5.1-1.4c-1.1-0.8-1.6-1.9-1.6-2.9c0-1,0.5-2.1,1.6-2.9c1.4-1,3.6-1.4,5.1-1.4
		c1.5,0,3.6,0.3,5.1,1.4c1.1,0.8,1.6,1.9,1.6,2.9c0,1-0.5,2.1-1.6,2.9C56.6,73.3,54.5,73.6,53,73.6L53,73.6z M40.1,70.4h-1.8v3H35
		v-8.1h5.1h0.5c1.7,0,2.8,0.1,3.6,0.6c1,0.5,1.2,1.3,1.2,1.9c0,0.6-0.2,1.4-1.2,2c-0.8,0.5-1.9,0.6-3.4,0.6H40.1L40.1,70.4z
		 M40.1,66.6c-0.1,0-0.2,0-0.3,0h-1.5v2.7h1.5c0.1,0,0.2,0,0.3,0c0.4,0,0.9-0.1,1.2-0.3c0.5-0.3,0.6-0.8,0.6-1c0-0.3-0.1-0.7-0.6-1
		C41,66.6,40.5,66.6,40.1,66.6L40.1,66.6z M14.6,67.2L14.6,67.2L14.6,67.2L13,70h3.2L14.6,67.2L14.6,67.2z M16.8,71.1h-4.5l-1.3,2.3
		H9.5l4.5-8.1h3l4.9,8.1h-3.6L16.8,71.1L16.8,71.1z M99.4,66.5h3.5v6.9h3.2v-6.9h3.5v-1.2H99.4V66.5L99.4,66.5z M70.6,79.8
		c-0.2,0.1-0.5,0.3-0.7,0.7l0,0.1h0.7h0.6l0-0.1c0.1-0.3,0.3-0.7-0.4-0.7C70.8,79.8,70.7,79.8,70.6,79.8L70.6,79.8z M70.6,81h-0.9
		l-0.1,0.3c-0.3,0.6,0.2,0.7,0.4,0.7c0.3,0,0.4-0.1,0.6-0.2c0.2-0.1,0.3-0.3,0.3-0.4l0.5,0.1c0,0.3-0.3,0.6-0.9,0.8
		c-0.2,0.1-0.4,0.1-0.7,0.1c-0.7,0-1.3-0.2-0.8-1.4c0.3-0.9,0.9-1.3,1.5-1.5c0.1,0,0.3,0,0.4,0c1.1,0,1.1,0.6,0.7,1.6H70.6L70.6,81z
		 M68.9,79.5h-0.6l-2.4,2.1l0.8-2.1H66l-1.1,2.8h0.6l2.4-2.1l-0.8,2.1h0.6L68.9,79.5L68.9,79.5z M62.6,79.5l-1.1,2.8h0.6l0.5-1.3
		h0.6c0.1,0,0.3,0,0.3,0.1c0,0,0.1,0.1,0,0.3l-0.1,0.4c0,0.2-0.1,0.4,0.2,0.5c0.1,0,0.3,0.1,0.4,0.1l0.3-0.4c0,0-0.1,0-0.1,0
		c-0.1,0-0.1-0.2-0.1-0.2l0-0.2c0-0.1,0.1-0.3,0-0.5c0-0.1-0.2-0.2-0.3-0.2v0c0.2,0,0.3-0.1,0.4-0.2c0.1-0.1,0.2-0.2,0.2-0.3
		l0.1-0.2c0-0.1,0.1-0.3,0.3-0.3c0,0,0.1,0,0.2,0l0.1-0.4c-0.2,0-0.5,0-0.7,0.2c-0.2,0.1-0.3,0.3-0.4,0.4L64,80.2
		c-0.1,0.1-0.1,0.3-0.3,0.3c-0.1,0.1-0.2,0.1-0.4,0.1h-0.6l0.4-1.1H62.6L62.6,79.5z M60.7,81.7c-0.1,0.1-0.3,0.1-0.4,0.1
		c-0.2,0-0.3,0.1-0.5,0.1c-0.2,0-0.4,0-0.6-0.2c-0.2-0.2-0.1-0.5,0.1-0.9c0.1-0.3,0.2-0.6,0.5-0.8c0.1-0.1,0.3-0.3,0.7-0.3
		c0.2,0,0.4,0.1,0.4,0.2c0.1,0.1,0,0.2-0.1,0.4l0.6,0c0.2-0.3,0.2-0.6-0.1-0.8c-0.2-0.1-0.4-0.1-0.7-0.1c-0.3,0-0.7,0.1-1,0.2
		c-0.6,0.3-0.9,0.9-1,1.2c-0.1,0.3-0.3,0.8,0,1.2c0.2,0.2,0.5,0.3,0.9,0.3c0.2,0,0.5,0,0.7-0.1c0.1-0.1,0.3-0.1,0.5-0.2L60.7,81.7
		L60.7,81.7z M57.5,78.2c0,0.1-0.1,0.1-0.2,0.2c-0.1,0.1-0.3,0.1-0.4,0.1c-0.1,0-0.3,0-0.3-0.1c0-0.1,0-0.1,0-0.2h-0.5
		c-0.1,0.2-0.1,0.4,0,0.5c0.1,0.1,0.4,0.1,0.6,0.1c0.2,0,0.4,0,0.7-0.1c0.2-0.1,0.4-0.3,0.5-0.5H57.5L57.5,78.2z M58.4,79.5h-0.6
		l-2.4,2.1l0.8-2.1h-0.6l-1.1,2.8H55l2.4-2.1l-0.8,2.1h0.6L58.4,79.5L58.4,79.5z M54.6,79.5H54l-2.4,2.1l0.8-2.1h-0.6l-1.1,2.8h0.6
		l2.4-2.1l-0.8,2.1h0.6L54.6,79.5L54.6,79.5z M49.9,81.7c-0.1,0.1-0.3,0.1-0.4,0.1c-0.2,0-0.3,0.1-0.5,0.1c-0.2,0-0.4,0-0.6-0.2
		c-0.2-0.2-0.1-0.5,0.1-0.9c0.1-0.3,0.3-0.6,0.5-0.8c0.1-0.1,0.3-0.3,0.6-0.3c0.2,0,0.4,0.1,0.4,0.2c0.1,0.1,0,0.2-0.1,0.4l0.6,0
		c0.2-0.3,0.2-0.6,0-0.8c-0.2-0.1-0.4-0.1-0.7-0.1c-0.3,0-0.7,0.1-1,0.2c-0.6,0.3-0.9,0.9-1,1.2c-0.1,0.3-0.3,0.8,0,1.2
		c0.2,0.2,0.6,0.3,0.9,0.3c0.2,0,0.5,0,0.7-0.1c0.1-0.1,0.3-0.1,0.5-0.2L49.9,81.7L49.9,81.7z M46.8,81.7c-0.1,0.1-0.3,0.1-0.4,0.1
		c-0.2,0-0.3,0.1-0.5,0.1c-0.2,0-0.4,0-0.6-0.2c-0.2-0.2-0.1-0.5,0.1-0.9c0.1-0.3,0.2-0.6,0.5-0.8c0.1-0.1,0.3-0.3,0.6-0.3
		c0.2,0,0.4,0.1,0.4,0.2c0.1,0.1,0,0.2-0.1,0.4l0.6,0c0.2-0.3,0.2-0.6,0-0.8c-0.2-0.1-0.4-0.1-0.7-0.1c-0.3,0-0.7,0.1-1,0.2
		c-0.6,0.3-0.9,0.9-1,1.2c-0.1,0.3-0.3,0.8,0,1.2c0.2,0.2,0.6,0.3,0.9,0.3c0.2,0,0.5,0,0.7-0.1c0.1-0.1,0.3-0.1,0.5-0.2L46.8,81.7
		L46.8,81.7z M42.6,79.9c-0.1,0-0.1,0.1-0.2,0.1c-0.3,0.2-0.4,0.5-0.5,0.7l-0.2,0.5c0,0.1-0.2,0.4,0,0.6c0,0.1,0.2,0.2,0.5,0.2
		c0.2,0,0.3,0,0.4-0.1c0.1,0,0.1-0.1,0.2-0.1c0.3-0.2,0.4-0.5,0.5-0.6l0.2-0.5c0-0.1,0.2-0.4,0-0.7c0-0.1-0.2-0.2-0.4-0.2
		C42.8,79.8,42.7,79.8,42.6,79.9L42.6,79.9z M43.2,79.4c0.5,0,0.8,0.2,0.9,0.4c0.2,0.3,0.1,0.7,0,1.1c-0.1,0.3-0.4,0.8-0.8,1.1
		c-0.2,0.1-0.4,0.2-0.6,0.3c-0.2,0.1-0.4,0.1-0.6,0.1c-0.5,0-0.8-0.1-0.9-0.4c-0.2-0.3-0.1-0.8,0.1-1.1c0.1-0.4,0.4-0.8,0.8-1.1
		c0.2-0.1,0.4-0.2,0.6-0.3C42.8,79.4,43,79.4,43.2,79.4L43.2,79.4z M40,78.7h-0.5l-0.5,1.4h0.9c0,0,0.1,0,0.1,0
		c0.2,0,0.4-0.1,0.6-0.2c0.1-0.1,0.3-0.2,0.4-0.5c0.1-0.3,0-0.4-0.1-0.5c-0.1-0.1-0.3-0.2-0.5-0.2H40L40,78.7z M40,80.5
		c-0.1,0-0.2,0-0.2,0h-1l-0.7,1.8h-0.7l1.6-4.1h1h0.6c0.4,0,0.8,0,1.1,0.3c0.3,0.3,0.2,0.6,0.1,0.8c-0.1,0.3-0.4,0.6-0.7,0.8
		C40.7,80.4,40.3,80.5,40,80.5L40,80.5z M105.1,79.5h-0.6l-2.4,2.1l0.8-2.1h-0.6l-1.1,2.8h0.6l2.4-2.1l-0.8,2.1h0.6L105.1,79.5
		L105.1,79.5z M101.3,79.5h-0.6l-0.4,1.1h-1.5l0.4-1.1h-0.6l-1.1,2.8h0.6l0.5-1.3h1.5l-0.5,1.3h0.6L101.3,79.5L101.3,79.5z
		 M97.6,79.5H97l-2.4,2.1l0.8-2.1h-0.6l-1.1,2.8h0.6l2.4-2.1l-0.8,2.1h0.6L97.6,79.5L97.6,79.5z M91.9,79.5l-0.4,0.8
		c-0.2,0.4-0.2,0.5-0.4,0.8c-0.2,0.4-0.4,0.8-1,0.9l-0.1,0.4c0.3,0,0.6-0.1,0.7-0.2c0.6-0.4,0.8-1,1.3-1.9l0.2-0.3H93l-0.9,2.4h0.6
		l1.1-2.8H91.9L91.9,79.5z M78.1,81c-0.2,0-0.4,0.1-0.5,0.2c-0.2,0.1-0.3,0.2-0.3,0.3c0,0.1,0,0.3,0,0.4c0.1,0.1,0.3,0.1,0.4,0.1
		c0.1,0,0.2,0,0.3-0.1c0.1,0,0.1,0,0.2-0.1c0.1-0.1,0.2-0.1,0.3-0.3l0.2-0.6h-0.5C78.3,81,78.2,81,78.1,81L78.1,81z M78.5,82.3
		l0.1-0.4h0c0,0-0.2,0.2-0.5,0.3h0c-0.2,0.1-0.5,0.1-0.7,0.1c-0.7,0-0.9-0.4-0.7-0.8c0.2-0.6,0.8-0.8,1.4-0.9c0.1,0,0.3,0,0.5,0h0.5
		l0.1-0.4c0-0.1,0.1-0.3,0-0.4c-0.1-0.1-0.2-0.1-0.4-0.1c-0.3,0-0.5,0-0.7,0.2C78.1,80,78,80.1,78,80.2l-0.5,0
		c0-0.2,0.2-0.5,0.7-0.7c0.2-0.1,0.5-0.1,0.9-0.1c0.3,0,0.6,0.1,0.8,0.3c0.2,0.2,0,0.5-0.1,0.8L79,82.3H78.5L78.5,82.3z M88.8,81
		c-0.2,0-0.4,0.1-0.5,0.2c-0.2,0.1-0.3,0.2-0.3,0.3c0,0.1,0,0.3,0,0.4c0.1,0.1,0.2,0.1,0.4,0.1c0.1,0,0.2,0,0.3-0.1
		c0.1,0,0.1,0,0.2-0.1c0.1-0.1,0.2-0.1,0.3-0.3l0.2-0.6h-0.5C89,81,88.9,81,88.8,81L88.8,81z M89.1,82.3l0.1-0.4h0
		c0,0-0.2,0.2-0.5,0.3c-0.2,0.1-0.5,0.1-0.7,0.1c-0.7,0-0.9-0.4-0.7-0.8c0.2-0.6,0.8-0.8,1.4-0.9c0.1,0,0.3,0,0.5,0h0.5l0.1-0.4
		c0-0.1,0.1-0.3,0-0.4c-0.1-0.1-0.2-0.1-0.4-0.1c-0.3,0-0.5,0-0.7,0.2c-0.1,0.1-0.1,0.1-0.1,0.2l-0.5,0c0-0.2,0.2-0.5,0.7-0.7
		c0.2-0.1,0.5-0.1,0.9-0.1c0.3,0,0.6,0.1,0.8,0.3c0.2,0.2,0,0.5,0,0.8l-0.7,1.8H89.1L89.1,82.3z M87.4,79.5h-0.6l-2.4,2.1l0.8-2.1
		h-0.6l-1.1,2.8H84l2.4-2.1l-0.8,2.1h0.6L87.4,79.5L87.4,79.5z M82,81c0,0-0.1,0-0.1,0h-0.8l-0.3,0.9h0.8c0.2,0,0.4,0,0.5-0.1
		c0,0,0,0,0,0c0.1-0.1,0.2-0.2,0.3-0.3c0.1-0.1,0.1-0.3,0-0.4C82.2,81.1,82.1,81,82,81L82,81z M82,79.8h-0.4l-0.3,0.8H82
		c0.2,0,0.3,0,0.5-0.1c0.1-0.1,0.2-0.2,0.3-0.3c0-0.1,0-0.2,0-0.3c-0.1-0.1-0.2-0.1-0.4-0.1H82L82,79.8z M82,82.2
		c-0.1,0-0.3,0-0.4,0H80l1.1-2.8H82h0.7c0.2,0,0.5,0,0.6,0.2c0.1,0.1,0.2,0.3,0.1,0.5c-0.1,0.1-0.2,0.3-0.3,0.4
		c-0.1,0.1-0.3,0.2-0.5,0.2l0,0c0.2,0,0.3,0.1,0.4,0.2c0.1,0.1,0.1,0.3,0,0.5c-0.1,0.2-0.3,0.4-0.5,0.5C82.4,82.1,82.2,82.2,82,82.2
		L82,82.2z M108.9,79.5h-0.6l-2.4,2.1l0.8-2.1H106l-1.1,2.8h0.6l2.4-2.1l-0.8,2.1h0.6L108.9,79.5L108.9,79.5z"/>
	<path class="st5" d="M13.6,81.4L12.7,81l3.7-0.5c0.1,0.1,0.1,0.2,0.2,0.3L13.6,81.4L13.6,81.4z M23.5,81.4l0.9-0.4l-3.7-0.4
		c0,0.1-0.1,0.2-0.2,0.3L23.5,81.4L23.5,81.4z M23,81.5l-1.1,0.4l-1.6-0.5l-0.1,0c0.1,0,0.1-0.1,0.1-0.1c0.1-0.1,0.1-0.1,0.2-0.2
		L23,81.5L23,81.5z M25.9,80.5l-1,0.5l-4.1-0.5c0-0.1,0.1-0.2,0.1-0.3L25.9,80.5L25.9,80.5z M26.3,80.3l1.3-0.9h-7.2
		c0,0.3,0,0.6-0.1,0.8c-0.3,0.7-1,1.1-1.7,1.1c-0.7,0-1.4-0.4-1.7-1c-0.1-0.2-0.2-0.5-0.2-0.8H9.4l1.3,0.9l5.5-0.3
		c0.1,0.4,0.3,0.7,0.6,1c0.4,0.5,1.1,0.7,1.7,0.7c0.6,0,1.2-0.2,1.7-0.7c0.2-0.3,0.4-0.6,0.5-1L26.3,80.3L26.3,80.3z M20.3,82.5
		l0.1,0.3l-0.1,0.1L19.9,83l-0.4-0.9c-0.3,0.1-0.6,0.2-0.9,0.2c-0.3,0-0.7,0-0.9-0.1L17.3,83c-0.1,0-0.3,0-0.4-0.1
		c-0.1,0-0.1-0.1-0.1-0.2l0.1-0.2l0.3-0.6c-0.1-0.1-0.2-0.1-0.3-0.2l0.3-0.3c0.4,0.3,0.9,0.4,1.4,0.4c0.5,0,0.9-0.1,1.4-0.5l0.3,0.1
		l0.1,0c0,0-0.1,0.1-0.1,0.1c-0.1,0.1-0.2,0.2-0.3,0.2L20.3,82.5L20.3,82.5z M20.3,78.1c0.3,0.3,0.5,0.7,0.6,1.2h-0.5
		c0-0.1-0.1-0.3-0.1-0.4c-0.3-0.8-0.9-1.4-1.7-1.9c-0.1-0.1-0.2-0.1-0.3-0.2c0.1,0,0.2,0.1,0.3,0.1C19.3,77.2,19.8,77.6,20.3,78.1
		L20.3,78.1z M19,81.1c0.1,0,0.3-0.1,0.4-0.2l-0.7-1.5l0.8-0.4l-0.6-0.6l-0.3,0.1l-1.1,0.5l0.3,0.7l0.5-0.2L19,81.1L19,81.1z
		 M17,81.4c0,0-0.1-0.1-0.1-0.1c-0.1-0.1-0.2-0.2-0.2-0.2l-2.5,0.5l1.1,0.4L17,81.4L17,81.4z M16.3,80.5c0-0.1-0.1-0.2-0.1-0.3
		l-5.1,0.3l1,0.5L16.3,80.5L16.3,80.5z"/>
</g>
</svg>
