<?xml version="1.0" encoding="utf-8"?>
<!-- Generator: Adobe Illustrator 24.0.2, SVG Export Plug-In . SVG Version: 6.00 Build 0)  -->
<svg version="1.1" id="Слой_1" xmlns="http://www.w3.org/2000/svg" xmlns:xlink="http://www.w3.org/1999/xlink" x="0px" y="0px"
	 viewBox="0 0 150 150" style="enable-background:new 0 0 150 150;" xml:space="preserve">
<style type="text/css">
	.st0{fill:#ED1A3A;}
	.st1{fill:#FFFFFF;}
</style>
<g id="layer1" transform="translate(13.340081,-38.737594)">
	<g id="g2506">
		<path id="path2443" class="st0" d="M31.6,97.1H-2.1v33.6h33.7V97.1z"/>
		<path id="rect2493" class="st1" d="M26.1,100.5c-0.8,0-1.4,0.5-1.7,1.1l-4.2,7c-0.3,0.6-0.5,1.4-0.5,1.8c0,0.4,0.1,0.8,0.2,1.2
			l4.6,10.9H6.7c-0.6,0-1.2-0.6-1.2-1.2v-18.9c-0.1-2.6-3.8-2.6-3.9,0.1l0.1,20c0,2.2,1.7,3.9,3.8,3.9h24.3l-5.9-15.1
			c-0.2-0.6-0.2-1.1,0.2-1.7l3.9-6.4c0.1-0.1,0.1-0.7,0.1-0.9C28,101.2,27.1,100.4,26.1,100.5z M16.5,100.5c-1,0-1.9,0.7-1.9,2v13.5
			c0,2-2.6,1.8-2.6,0v-13.5c0-2.6-3.8-2.6-3.8,0V116c0,3.1,2.3,5.2,5.1,5.2c2.8,0,5.2-2.1,5.2-5.2v-13.6
			C18.4,101.1,17.5,100.5,16.5,100.5z"/>
		<path id="path2399" d="M38.2,101.1v8.9c0,2.2-0.2,3.5-2,3.5c-0.3,0-0.6,0-0.9-0.1v3.8c0.7,0.2,1.1,0.2,1.7,0.2
			c5.1,0,5.3-3.8,5.3-6.1v-6.4h2.9v12.2h4.1v-16.1H38.2"/>
		<path id="path2401" d="M50.6,101.1l5.5,11.6l-2,4.4h4.4l6.6-16.1h-4.4l-2.4,6.8l-2.8-6.8H50.6"/>
		<path id="path2403" d="M66.3,117.1h4.1v-6.9l4.2,6.9h5.2l-5.8-8.3l5.7-7.8h-4.9l-4.4,6.8v-6.8h-4.1V117.1"/>
		<path id="path2405" d="M86.5,117.6c5.4,0,7.9-4.2,7.9-8.5c0-4.2-2.5-8.4-7.9-8.4c-5.3,0-7.8,4.2-7.8,8.4
			C78.7,113.4,81.2,117.6,86.5,117.6z M86.5,113.8c-1.8,0-3.6-1.6-3.6-4.7c0-3.1,1.8-4.6,3.6-4.6c1.9,0,3.7,1.5,3.7,4.6
			C90.2,112.2,88.4,113.8,86.5,113.8"/>
		<path id="path2407" d="M96.4,101.1v16.1h4l5.7-9.6v9.6h4v-16.1h-4l-5.7,9.6v-9.6H96.4z M103.3,100.2c1.7,0,3.4-0.6,4.2-2.5l-2.4-1
			c-0.3,1.2-1.4,1.4-1.8,1.4c-0.3,0-1.5-0.1-1.7-1.4l-2.4,1C99.9,99.6,101.8,100.2,103.3,100.2"/>
		<path id="path2409" d="M114.3,101.1v8.9c0,2.2-0.2,3.5-2,3.5c-0.3,0-0.6,0-0.9-0.1v3.8c0.7,0.2,1.1,0.2,1.7,0.2
			c5.1,0,5.3-3.8,5.3-6.1v-6.4h2.9v12.2h4.1v-16.1H114.3"/>
		<path id="path2411" d="M35.2,126.1h0.6v-3h3.3v3h0.6v-5.8h-0.6v2.4h-3.3v-2.4h-0.6V126.1"/>
		<path id="path2413" d="M41.2,126.1h3.1v-0.5h-2.6v-2.6h2.5v-0.5h-2.5v-1.9h2.6v-0.5h-3.1V126.1"/>
		<path id="path2415" d="M48.1,126.1h0.6v-0.8h0.2c1.9,0,2.7-1.1,2.7-2.3c0-1.4-1-2.3-2.7-2.3h-0.2v-0.7h-0.6v0.7h-0.2
			c-1.7,0-2.7,0.9-2.7,2.3c0,1.2,0.8,2.3,2.7,2.3h0.2V126.1z M48.7,121.2c1.9,0,2.3,0.9,2.3,1.8c0,1.4-0.9,1.8-2.3,1.8V121.2z
			 M48.1,124.9c-1.4,0-2.3-0.4-2.3-1.8c0-0.9,0.4-1.8,2.3-1.8V124.9"/>
		<path id="path2417" d="M53.7,126.1h0.6v-5.4h1.6v-0.5h-3.7v0.5h1.6V126.1"/>
		<path id="path2419" d="M56.4,126.1h0.6l1.6-2.6h0.5v2.6h0.6v-5.8h-1.3c-1.8,0-2,1.2-2,1.7c0,1,0.8,1.6,1.7,1.6L56.4,126.1z
			 M59.1,123.1h-0.8c-0.5,0-1.4-0.1-1.4-1.2c0-1.1,1-1.2,1.5-1.2h0.8V123.1"/>
		<path id="path2421" d="M61.2,126.1h0.6v-3h3.3v3h0.6v-5.8h-0.6v2.4h-3.3v-2.4h-0.6V126.1"/>
		<path id="path2423" d="M66.5,126.1h0.6l0.8-1.9h2.5l0.8,1.9h0.6l-2.6-6L66.5,126.1z M68.1,123.8l1-2.4l1,2.4H68.1"/>
		<path id="path2425" d="M72.4,126.1H73l1.6-2.6h0.5v2.6h0.6v-5.8h-1.3c-1.8,0-2,1.2-2,1.7c0,1,0.8,1.6,1.7,1.6L72.4,126.1z
			 M75.1,123.1h-0.8c-0.5,0-1.4-0.1-1.4-1.2c0-1.1,1-1.2,1.5-1.2h0.8V123.1"/>
		<path id="path2427" d="M79.1,126.1h0.6v-2.8l2.6,2.8H83l-2.8-3l2.8-2.8h-0.7l-2.6,2.7v-2.7h-0.6V126.1"/>
		<path id="path2429" d="M86.7,126.3c1.7,0,3.2-1.3,3.2-3.1c0-1.8-1.4-3.1-3.2-3.1c-1.7,0-3.1,1.2-3.1,3.1
			C83.6,125.1,85,126.3,86.7,126.3z M86.7,125.8c-1.4,0-2.5-1.1-2.5-2.6c0-1.5,1.1-2.6,2.5-2.6c1.4,0,2.6,1.1,2.6,2.6
			C89.3,124.8,88.1,125.8,86.7,125.8"/>
		<path id="path2431" d="M90.7,126.1h0.6l0.5-4.3l2.2,4.6l2.1-4.6l0.6,4.3h0.5l-0.8-6.1l-2.4,5.2l-2.4-5.2L90.7,126.1"/>
		<path id="path2433" d="M98.2,120.3v5.8h0.6v-5.4h3.3v5.4h0.6v-5.8H98.2"/>
		<path id="path2435" d="M103.5,126.1h0.6l0.8-1.9h2.5l0.8,1.9h0.6l-2.6-6L103.5,126.1z M105.1,123.8l1-2.4l1,2.4H105.1"/>
		<path id="path2437" d="M109.6,126.1h0.6v-3h3.3v3h0.6v-5.8h-0.6v2.4h-3.3v-2.4h-0.6V126.1"/>
		<path id="path2439" d="M115.5,120.3v6.1l4-4.9v4.6h0.6v-6.1l-4,4.9v-4.6H115.5"/>
		<path id="path2441" d="M121.4,126.1h0.6l1.6-2.6h0.5v2.6h0.6v-5.8h-1.3c-1.8,0-2,1.2-2,1.7c0,1,0.8,1.6,1.7,1.6L121.4,126.1z
			 M124.1,123.1h-0.8c-0.5,0-1.4-0.1-1.4-1.2c0-1.1,1-1.2,1.5-1.2h0.8V123.1"/>
	</g>
</g>
</svg>
