<svg xmlns="http://www.w3.org/2000/svg" viewBox="0 0 370 370"><g clip-rule="evenodd"><path fill="none" d="M44.468 112.907H326v144.97H44.468v-144.97z"/><path fill-rule="evenodd" fill="#3d3d42" d="M151.784 221.194v-2.491h-6.339v2.491h-.739v-5.344h.739v2.318h6.339v-2.318h.732v5.344h-.732zM155.009 221.194v-5.344h6.314v.532h-5.585v1.786h5.438v.528h-5.438v1.964h5.585v.534h-6.314zM174.137 218.838v-.666c0-1.271-.631-1.91-2.63-1.91h-2.177v-.475h-.742v.475h-2.15c-2.012 0-2.643.533-2.643 1.91v.666c0 1.359.713 1.83 2.643 1.83h2.15v.526h.742v-.526h2.177c1.919 0 2.63-.446 2.63-1.83zm-.744 0c0 1.03-.498 1.301-1.886 1.301h-2.177v-3.343h2.177c1.319 0 1.886.309 1.886 1.346v.696zm-4.805 1.301h-2.15c-1.391 0-1.921-.271-1.921-1.308v-.712c0-1.023.582-1.324 1.921-1.324h2.15v3.344zM184.002 216.382v-.532h-7.684v.532h3.459v4.812h.739v-4.812h3.486zM193.307 221.194v-5.344h-4.805c-1.774 0-2.506.439-2.506 1.655 0 1.004.732 1.473 2.131 1.473l-2.426 2.217h1.027l2.282-2.217h3.553v2.217h.744v-.001zm-.744-2.744h-4.295c-1.142 0-1.54-.148-1.54-.946 0-.83.418-1.123 1.468-1.123h4.367v2.069zM203.069 221.194v-2.491h-6.334v2.491h-.738v-5.344h.738v2.318h6.334v-2.318h.74v5.344h-.74zM214.291 221.194l-3.696-5.344h-1.135l-3.693 5.344h.814l.917-1.341h5.015l.908 1.341h.87zm-2.161-1.887h-4.23l2.109-3.075 2.121 3.075zM222.717 221.194v-2.217h-3.552l-2.295 2.217h-1.013l2.409-2.217c-1.396 0-2.119-.469-2.119-1.473 0-1.215.723-1.655 2.497-1.655h4.815v5.344h-.742v.001zm0-4.812h-4.366c-1.047 0-1.481.292-1.481 1.123 0 .797.404.946 1.55.946h4.296v-2.069h.001zM238.44 221.194l-5.157-2.801 5.042-2.543h-1.307l-4.503 2.292h-1.198v-2.292h-.74v5.344h.74v-2.514h1.228l4.6 2.514h1.295zM248.04 219.362c0 1.046-.35 1.298-1.847 1.298h-3.121c-1.389 0-1.907-.268-1.907-1.298v-1.706c0-1.04.568-1.322 1.907-1.322h3.121c1.422 0 1.847.264 1.847 1.322v1.706zm.731 0v-1.672c0-1.555-.85-1.903-2.579-1.903h-3.114c-2.025 0-2.656.546-2.656 1.903v1.672c0 1.374.719 1.833 2.656 1.833h3.114c1.896-.001 2.579-.312 2.579-1.833zM260.837 221.194v-4.91h-.41l-3.851 4.91h-.378l-3.844-4.91h-.416v4.91h-.735v-5.344h1.578l3.616 4.557 3.592-4.557h1.589v5.344h-.741zM272.035 221.194v-5.344h-7.814v5.344h.749v-4.812h6.319v4.812h.746zM281.653 221.194l-.907-1.341h-5.015l-.93 1.341h-.814l3.701-5.344h1.121l3.696 5.344h-.852zm-3.408-4.962l-2.124 3.075h4.238l-2.114-3.075zM292.43 221.194v-5.344h-.736v2.318h-6.326v-2.318h-.749v5.344h.749v-2.491h6.326v2.491h.736zM302.779 221.194v-5.344h-1.44l-5.639 4.929h-.064v-4.929h-.729v5.344h1.2l5.652-4.932h.273v4.932h.747zM311.699 218.45h-4.305c-1.148 0-1.533-.148-1.533-.946 0-.83.406-1.123 1.453-1.123h4.384v2.069h.001zm.727 2.744v-5.344h-4.801c-1.763 0-2.503.439-2.503 1.655 0 1.004.74 1.473 2.135 1.473l-2.435 2.217h1.04l2.271-2.217h3.567v2.217h.726v-.001zM144.641 229.115s16.06-.217 17.347.646c1.286.85 2.569 1.717 2.784 3.422.213 1.715-.856 7.06-4.927 7.279-4.065.213-8.77-.218-8.77-.218l-.21 4.283-6.424-.213.2-15.199z"/><path d="M151.283 233.392l-.207 2.573s5.133 1.067 6.201 0c1.071-1.068.211-2.783-1.496-2.783-1.708.001-4.498.21-4.498.21z" fill-rule="evenodd" fill="#fff"/><path d="M164.773 233.183c1.721-1.924 4.714-4.924 11.552-4.499 6.852.431 10.499 3.206 10.499 6.436 0 3.201.203 7.48-3.862 8.758-4.062 1.291-8.136 1.291-10.915.87-2.784-.434-7.274-3.007-7.914-6.427-.643-3.424.64-5.138.64-5.138z" fill-rule="evenodd" fill="#423e40"/><path d="M171.198 237.246c-.392-2.764 1.92-4.497 3.846-4.497 1.923 0 5.127.218 4.914 3.858-.209 3.636-.415 3.42-2.339 4.066-1.928.643-5.783 1.292-6.421-3.427z" fill-rule="evenodd" fill="#fff"/><path d="M209.711 235.12c-1.064-1.937-3.412-5.583-7.059-5.788-3.637-.217-8.564-.647-10.914.205-2.361.864-4.271 2.997-4.704 4.924-.425 1.933-.866 6.213 1.924 8.139 2.78 1.927 7.286 3.429 11.559 2.569 4.272-.854 8.343-2.569 8.986-6.209h-7.271s-1.936 2.572-4.28 2.356c0 0-2.154.649-3.647-1.488-1.489-2.151-1.281-4.075.213-6.005 1.512-1.933 5.57-1.289 6.001-.431.425.859 1.068 2.139 1.068 2.139l8.124-.411z" fill-rule="evenodd" fill="#423e40"/><path fill-rule="evenodd" fill="#423e40" d="M209.077 229.537h6.638v5.145h6.624v-5.567h6.855v15.411h-6.426v-5.137h-6.839v5.137h-7.069l.217-14.989zM231.342 229.115l19.047.217v3.851h-11.555v1.499h9.632v4.277H238.4v1.936h12.414v4.061h-19.263l-.209-15.841z"/><path d="M260.23 229.115h6.637s-.424 1.074.441.861c.843-.215 6.622-.439 8.341 1.712 1.707 2.135 2.355 4.919.635 6.846s-3.215 2.781-4.273 2.781c-1.081 0-4.703.215-4.703.215v3.425h-7.077v-3.64s-4.497-.215-5.995-.642c-1.492-.431-4.28-2.139-4.28-4.921 0-2.786 1.499-5.142 3.647-5.352 2.131-.213 6.2-.213 6.2-.213l.427-1.072z" fill-rule="evenodd" fill="#423e40"/><path d="M260.23 233.823l-.213 3.209s-3.422.431-3.422-.846c.001-1.289.646-2.575 3.635-2.363zM267.308 234.036l.203 2.997s1.927.86 3.004-.639c1.058-1.497-.868-2.571-3.207-2.358z" fill-rule="evenodd" fill="#fff"/><path d="M280.777 233.823v11.345h6.848v-11.345h6.203l1.295-1.707-1.925-2.355h-17.979c.004 0-.86 3.422 1.065 3.631 1.924.219 4.493.431 4.493.431z" fill-rule="evenodd" fill="#423e40"/><path d="M300.68 229.761v4.275s8.141-.425 9.641.425c1.498.859 2.994 2.147 3.208 3.637.213 1.508-.214 3.867-1.71 5.145-1.498 1.284-3.205 2.138-4.931 2.138h-12.403v-15.404l6.195-.216z" fill-rule="evenodd" fill="#423e40"/><path d="M301.333 238.534v2.566h4.273c1.065 0 2.57-2.353.64-2.78-1.922-.428-4.913.214-4.913.214z" fill-rule="evenodd" fill="#fff"/><path fill-rule="evenodd" fill="#423e40" d="M56.889 158.481H67.81v37.032l-10.921-9.636v-27.396zM69.952 146.283h10.487v61.219l-10.487-10.073v-51.146zM82.583 134.084h10.703v58.002H82.583v-58.002zM95.418 121.883h11.131v58.218H95.418v-58.218zM108.048 133.435h10.706v58.651h-10.706v-58.651zM121.322 146.058h10.487v51.158l-10.487 10.286v-61.444zM133.73 158.266h10.712v26.758l-10.712 10.489v-37.247z"/><path fill-rule="evenodd" fill="#c7b826" d="M82.583 193.38h10.703v53.707H82.583V193.38zM95.418 181.821h10.484v65.266H95.418v-65.266zM108.048 193.585h10.706v53.502h-10.706v-53.502z"/></g></svg>