<?xml version="1.0" encoding="utf-8"?>
<!-- Generator: Adobe Illustrator 24.0.2, SVG Export Plug-In . SVG Version: 6.00 Build 0)  -->
<svg version="1.1" id="Слой_1" xmlns="http://www.w3.org/2000/svg" xmlns:xlink="http://www.w3.org/1999/xlink" x="0px" y="0px"
	 viewBox="0 0 370 370" style="enable-background:new 0 0 370 370;" xml:space="preserve">
<style type="text/css">
	.st0{fill:#20AA4D;}
	.st1{fill:url(#SVGID_1_);}
	.st2{fill:url(#SVGID_2_);}
	.st3{fill:url(#SVGID_3_);}
</style>
<path class="st0" d="M272.4,168.4l11-8.3h-37v49.7h37v-8.3h-26.4v-12.7h22.5v-8.3h-22.5v-12.1H272.4z"/>
<path class="st0" d="M218.6,179.5h-12.8v-11.1h20.5l11-8.3h-42.1v49.7h22c12.3,0,19.4-5.7,19.4-15.6
	C236.7,184.7,230.3,179.5,218.6,179.5z M216.8,201.5h-11v-13.8h11c6.7,0,9.8,2.3,9.8,6.9C226.6,199.3,223.3,201.5,216.8,201.5z"/>
<path class="st0" d="M313.4,160.1h-20.1v49.7h10.6v-14.1h9.6c12.9,0,20.8-6.9,20.8-17.8C334.3,166.9,326.3,160.1,313.4,160.1z
	 M313.2,187.4h-9.3v-19.1h9.3c6.8,0,10.5,3.4,10.5,9.5C323.7,184.1,320,187.4,313.2,187.4z"/>
<path class="st0" d="M177.1,199c-2.7,1.5-5.9,2.3-9.1,2.3c-9.5,0-16.4-6.9-16.4-16.4c0-9.5,6.9-16.4,16.4-16.4c3.6,0,6.8,1,9.6,3
	l7.6-5.7l-0.5-0.5c-4.4-4-10.3-6-17.1-6c-7.3,0-14,2.5-18.7,7.1c-4.8,4.6-7.4,11-7.4,18.1c0,7.2,2.6,13.7,7.4,18.4
	c4.8,4.7,11.4,7.4,18.7,7.4c7.6,0,14.3-2.7,18.8-7.6c-3.5-2.6-6.8-5.1-6.8-5.1L177.1,199z"/>
<path class="st0" d="M109,159.6c1.9,2.5,3.6,5.3,4.9,8.2l-37.1,27.8l-15.5-9.9v-11.9l15.5,9.9L109,159.6z"/>
<path class="st0" d="M117.1,185c0-2.5-0.2-5-0.6-7.4l-8.8,6.6c0,0.3,0,0.6,0,0.8c0,17.5-14,31.8-31.3,31.8
	c-17.3,0-31.3-14.2-31.3-31.8c0-17.5,14-31.8,31.3-31.8c6.5,0,12.6,2,17.6,5.5l7.9-5.9c-7-5.7-15.9-9.2-25.6-9.2
	c-22.5,0-40.7,18.5-40.7,41.3c0,22.8,18.2,41.3,40.7,41.3C98.9,226.3,117.1,207.8,117.1,185z"/>
<radialGradient id="SVGID_1_" cx="-67.3317" cy="426.4544" r="3.6883" gradientTransform="matrix(20.5519 -15.4958 -16.9186 -22.4388 8625.9834 8750.3164)" gradientUnits="userSpaceOnUse">
	<stop  offset="0.2973" style="stop-color:#F0EA18"/>
	<stop  offset="0.446" style="stop-color:#F0EA18;stop-opacity:0.6209"/>
	<stop  offset="0.6295" style="stop-color:#F1EB19;stop-opacity:0"/>
</radialGradient>
<path class="st1" d="M117.1,185c0-2.5-0.2-5-0.6-7.4l-8.8,6.6c0,0.3,0,0.6,0,0.8c0,17.5-14,31.8-31.3,31.8
	c-17.3,0-31.3-14.2-31.3-31.8c0-17.5,14-31.8,31.3-31.8c6.5,0,12.6,2,17.6,5.5l7.9-5.9c-7-5.7-15.9-9.2-25.6-9.2
	c-22.5,0-40.7,18.5-40.7,41.3c0,22.8,18.2,41.3,40.7,41.3C98.9,226.3,117.1,207.8,117.1,185z"/>
<radialGradient id="SVGID_2_" cx="-49.1442" cy="425.8979" r="3.6883" gradientTransform="matrix(11.6692 7.8611 6.0089 -8.9197 -1931.585 4328.9019)" gradientUnits="userSpaceOnUse">
	<stop  offset="0.4782" style="stop-color:#00A9EB"/>
	<stop  offset="0.8908" style="stop-color:#00A8E9;stop-opacity:0"/>
</radialGradient>
<path class="st2" d="M117.1,185c0-2.5-0.2-5-0.6-7.4l-8.8,6.6c0,0.3,0,0.6,0,0.8c0,17.5-14,31.8-31.3,31.8
	c-17.3,0-31.3-14.2-31.3-31.8c0-17.5,14-31.8,31.3-31.8c6.5,0,12.6,2,17.6,5.5l7.9-5.9c-7-5.7-15.9-9.2-25.6-9.2
	c-22.5,0-40.7,18.5-40.7,41.3c0,22.8,18.2,41.3,40.7,41.3C98.9,226.3,117.1,207.8,117.1,185z"/>
<radialGradient id="SVGID_3_" cx="-49.647" cy="442.4113" r="3.6883" gradientTransform="matrix(-1.4039 13.0182 23.8392 2.5708 -10534.8145 -352.2172)" gradientUnits="userSpaceOnUse">
	<stop  offset="0" style="stop-color:#228BCB"/>
	<stop  offset="0.4631" style="stop-color:#00AAEB"/>
	<stop  offset="0.9585" style="stop-color:#00AAEB;stop-opacity:0"/>
</radialGradient>
<path class="st3" d="M117.1,185c0-2.5-0.2-5-0.6-7.4l-8.8,6.6c0,0.3,0,0.6,0,0.8c0,17.5-14,31.8-31.3,31.8
	c-17.3,0-31.3-14.2-31.3-31.8c0-17.5,14-31.8,31.3-31.8c6.5,0,12.6,2,17.6,5.5l7.9-5.9c-7-5.7-15.9-9.2-25.6-9.2
	c-22.5,0-40.7,18.5-40.7,41.3c0,22.8,18.2,41.3,40.7,41.3C98.9,226.3,117.1,207.8,117.1,185z"/>
</svg>
