<svg xmlns="http://www.w3.org/2000/svg" viewBox="0 0 370 370"><path fill-rule="evenodd" clip-rule="evenodd" fill="#f28c00" d="M41.155 161.706H27.013l16.25 22.798-16.25 22.876h14.142l16.257-22.876-16.257-22.798"/><path fill="#1d1d1b" d="M59.125 171.923h6.79l5.22 8.505 5.403-8.505h6.408l-8.527 12.707 9.273 13.918H76.72l-5.808-9.212-5.93 9.212h-6.565l9.29-13.953-8.582-12.672M91.305 176.321l-1.042 5.935.078.073c.727-.721 1.497-1.242 2.314-1.55.818-.316 1.75-.466 2.792-.466 1.296 0 2.44.236 3.434.708a7.601 7.601 0 012.52 1.895c.684.793 1.205 1.726 1.568 2.811.364 1.079.546 2.223.546 3.44 0 1.351-.266 2.592-.788 3.738a9.57 9.57 0 01-2.108 3.004 9.42 9.42 0 01-3.077 1.949 9.563 9.563 0 01-3.731.654c-1.272 0-2.483-.169-3.64-.507a9.156 9.156 0 01-3.071-1.54 7.786 7.786 0 01-2.144-2.592c-.533-1.029-.812-2.229-.836-3.597h5.294c.121 1.193.569 2.144 1.344 2.845.764.71 1.745 1.067 2.938 1.067.696 0 1.327-.14 1.878-.424a4.468 4.468 0 001.423-1.115c.382-.459.678-.992.891-1.599a5.538 5.538 0 00.321-1.878c0-.666-.103-1.302-.303-1.895a4.44 4.44 0 00-.89-1.557c-.4-.449-.866-.8-1.424-1.042-.545-.249-1.174-.364-1.896-.364-.944 0-1.714.158-2.308.496-.605.34-1.163.861-1.684 1.587h-4.766l2.573-14.439h14.585v4.361H91.305M120.541 171.923c1.09 0 2.126.128 3.113.407.975.271 1.835.682 2.568 1.252.733.558 1.314 1.278 1.75 2.157.43.884.654 1.926.654 3.125 0 1.689-.436 3.162-1.308 4.396-.873 1.243-2.158 2.036-3.877 2.386v.08c.872.126 1.593.351 2.168.685a4.48 4.48 0 011.405 1.284c.358.533.618 1.127.781 1.817.163.678.267 1.417.321 2.21.024.448.049.994.073 1.641.024.649.072 1.297.151 1.958.066.659.193 1.283.357 1.858.157.594.376 1.042.648 1.369h-2.811a3.444 3.444 0 01-.357-.914 8.257 8.257 0 01-.182-1.12c-.036-.383-.072-.764-.096-1.139a24.266 24.266 0 00-.079-.97 40.009 40.009 0 00-.236-2.81c-.115-.927-.352-1.756-.715-2.49a4.327 4.327 0 00-1.562-1.768c-.679-.455-1.618-.649-2.81-.6h-9.594v11.81h-2.556v-26.625h12.194m-.194 12.636c.769 0 1.508-.115 2.198-.351a5.57 5.57 0 001.829-1.024 5.133 5.133 0 001.248-1.617c.303-.629.455-1.356.455-2.18 0-1.641-.467-2.932-1.411-3.876-.939-.946-2.375-1.412-4.318-1.412h-9.443v10.461h9.442zM150.842 171.923v2.174h-15.838v9.588h14.833v2.181h-14.833v10.502h16.025v2.18h-18.57v-26.625h18.383M173.518 171.923v2.174h-9.284v24.451h-2.539v-24.451h-9.248v-2.174h21.071M182.905 171.923l10.43 26.625h-2.713l-3.247-8.286h-12.114l-3.203 8.286h-2.683l10.697-26.625h2.833m3.616 16.161l-5.147-13.646-5.325 13.646h10.472zM195.939 171.912h2.545v26.636h-2.545zM206.576 171.923v24.445h14.911v2.18h-17.456v-26.625h2.545M236.518 199.556c-2.085 0-3.951-.371-5.585-1.143-1.611-.759-2.975-1.783-4.058-3.094-1.08-1.293-1.892-2.822-2.439-4.553-.551-1.73-.82-3.579-.82-5.526 0-1.988.297-3.84.881-5.588.596-1.748 1.447-3.277 2.55-4.566a11.791 11.791 0 014.059-3.08c1.6-.745 3.418-1.12 5.436-1.12 1.531 0 2.951.22 4.258.654a11.022 11.022 0 013.452 1.879c.99.82 1.81 1.797 2.439 2.93.644 1.141 1.071 2.426 1.308 3.824l.085.499h-1.617l-.063-.354a9.903 9.903 0 00-1.151-3.225 8.83 8.83 0 00-2.1-2.463c-.843-.686-1.816-1.213-2.929-1.586-1.101-.372-2.332-.553-3.682-.553-1.811 0-3.404.334-4.791.998a10.482 10.482 0 00-3.545 2.723c-.971 1.151-1.712 2.494-2.218 4.046-.507 1.552-.759 3.219-.759 4.983 0 1.777.246 3.448.732 5.007.475 1.548 1.192 2.902 2.149 4.041.944 1.134 2.138 2.042 3.557 2.72 1.412.659 3.063 1.001 4.972 1.001 1.425 0 2.742-.245 3.97-.735 1.246-.491 2.333-1.174 3.24-2.037.914-.861 1.625-1.894 2.156-3.098.52-1.204.781-2.503.781-3.913v-.953h-10.318V185.678h11.936v13.284H246.786l.012-5.079a10.052 10.052 0 01-3.286 3.696c-1.946 1.322-4.282 1.976-6.975 1.976l-.019.001zM250.995 198.974h-.427v-27.469h11.345c2.846.003 4.993.547 6.414 1.761 1.416 1.204 2.113 3.068 2.174 5.48.004.085.004.169.004.254 0 1.761-.514 3.271-1.535 4.479-.774.919-1.795 1.617-3.033 2.098a6.73 6.73 0 011.332.535c.754.415 1.353.971 1.761 1.667.4.674.671 1.464.805 2.362.119.872.179 1.835.179 2.93 0 .345.024.817.043 1.374.024.553.064 1.101.109 1.637.055.539.112 1.023.183 1.464.064.419.168.685.224.75l.494.678H269.137l-.114-.241c-.163-.333-.269-.731-.356-1.227a16.258 16.258 0 01-.167-1.509c-.033-.526-.069-1.053-.079-1.595a67.91 67.91 0 01-.022-1.452c0-1.072-.075-2.025-.236-2.854-.151-.793-.446-1.437-.884-1.961-.44-.512-1.085-.927-1.933-1.217-.862-.287-2.048-.445-3.557-.445h-9.602v12.5h-1.192zm10.727-14.082c.961 0 1.867-.123 2.747-.369a6.07 6.07 0 002.252-1.11 5.562 5.562 0 001.566-1.925c.384-.759.584-1.684.584-2.801-.029-1.809-.558-3.135-1.579-4.113-.995-.941-2.712-1.461-5.19-1.459l-9.915-.003v11.78h9.535zM279.015 198.411c-1.58-.763-2.916-1.798-3.983-3.114-1.061-1.316-1.874-2.841-2.425-4.583a18.15 18.15 0 01-.83-5.49c0-1.933.285-3.77.83-5.495.551-1.745 1.364-3.267 2.425-4.58 1.067-1.319 2.403-2.364 3.979-3.127 1.599-.783 3.423-1.171 5.459-1.171 2.045 0 3.87.388 5.458 1.171 1.58.763 2.92 1.808 3.988 3.127 1.064 1.313 1.877 2.835 2.427 4.577.546 1.728.82 3.565.82 5.499 0 1.928-.274 3.759-.82 5.49-.551 1.742-1.364 3.267-2.427 4.583-1.068 1.316-2.408 2.351-3.988 3.114-1.592.772-3.413 1.147-5.458 1.147-2.032-.001-3.856-.376-5.455-1.148zm-2.605-3.967a9.971 9.971 0 003.449 2.635c1.348.627 2.879.941 4.613.941 1.742 0 3.274-.315 4.626-.938a10.063 10.063 0 003.445-2.636c.931-1.12 1.668-2.463 2.186-4.026.52-1.583.793-3.293.817-5.163-.023-1.868-.297-3.586-.817-5.159-.517-1.565-1.255-2.915-2.186-4.038a10.084 10.084 0 00-3.445-2.626c-1.353-.631-2.885-.947-4.626-.947-1.734 0-3.265.316-4.611.947-1.366.642-2.509 1.508-3.451 2.626-.938 1.123-1.67 2.473-2.194 4.038-.513 1.57-.784 3.291-.808 5.149.023 1.878.295 3.588.808 5.171v-.002c.524 1.568 1.255 2.911 2.194 4.028zM319.423 171.493h.429v17.124c0 3.637-.85 6.407-2.621 8.23-1.76 1.822-4.316 2.712-7.564 2.712h-.017c-3.26.003-5.815-.887-7.578-2.712-1.779-1.823-2.621-4.593-2.621-8.23v-17.124H301.067v17.124c.003 3.147.718 5.462 2.087 7.02 1.362 1.54 3.487 2.345 6.495 2.35 3.007-.004 5.128-.81 6.491-2.35 1.366-1.561 2.093-3.873 2.093-7.02v-17.124h1.19zM322.678 198.974h-.43v-27.458h11.227c2.622 0 4.723.63 6.246 1.937 1.519 1.314 2.282 3.269 2.279 5.762 0 1.221-.228 2.321-.674 3.292a6.801 6.801 0 01-1.876 2.429c-.791.644-1.736 1.131-2.811 1.452-1.077.33-2.265.485-3.539.485h-9.233v12.1h-1.189zm10.787-13.719c1.001 0 1.928-.132 2.776-.405a6.233 6.233 0 002.187-1.183 5.55 5.55 0 001.431-1.886c.344-.732.52-1.588.52-2.579-.004-2.032-.57-3.512-1.678-4.532-1.09-1.011-2.814-1.555-5.236-1.555l-9.6-.003v12.143h9.6z"/></svg>