<?xml version="1.0" encoding="utf-8"?>
<!-- Generator: Adobe Illustrator 24.0.2, SVG Export Plug-In . SVG Version: 6.00 Build 0)  -->
<svg version="1.1" id="Слой_1" xmlns="http://www.w3.org/2000/svg" xmlns:xlink="http://www.w3.org/1999/xlink" x="0px" y="0px"
	 viewBox="0 0 80 40" enable-background="new 0 0 80 40" xml:space="preserve">
<linearGradient id="SVGID_1_" gradientUnits="userSpaceOnUse" x1="-0.8762" y1="6.8781" x2="22.8301" y2="30.909">
	<stop  offset="1.065558e-07" style="stop-color:#00F1FB"/>
	<stop  offset="1" style="stop-color:#634EF1"/>
</linearGradient>
<path fill="url(#SVGID_1_)" d="M17.095,7.541v27.354c0,2.207-1.789,3.996-3.996,3.996h-0.644c-2.207,0-3.996-1.789-3.996-3.996
	V10.229l-2.876,0.789c-2.114,0.58-4.3-0.651-4.901-2.76l0,0C0.107,6.238,1.194,4.117,3.17,3.404L8.481,1.49
	c0.7-0.252,1.438-0.381,2.182-0.381l0,0C14.215,1.109,17.095,3.989,17.095,7.541z"/>
<linearGradient id="SVGID_2_" gradientUnits="userSpaceOnUse" x1="4.0462" y1="2.0221" x2="17.7183" y2="15.8814">
	<stop  offset="1.065558e-07" style="stop-color:#00F1FB"/>
	<stop  offset="1" style="stop-color:#634EF1"/>
</linearGradient>
<path fill="url(#SVGID_2_)" d="M10.663,1.109c-0.744,0-1.482,0.129-2.182,0.381L3.17,3.404C1.194,4.117,0.107,6.238,0.682,8.258
	c0.6,2.108,2.787,3.339,4.901,2.76l2.876-0.789l0.308-0.085c4.192-1.15,8.328,2.005,8.328,6.352V7.541
	C17.095,3.989,14.215,1.109,10.663,1.109z"/>
<linearGradient id="SVGID_3_" gradientUnits="userSpaceOnUse" x1="6.0913" y1="25.7372" x2="16.9325" y2="36.7269">
	<stop  offset="1.065558e-07" style="stop-color:#00F1FB"/>
	<stop  offset="1" style="stop-color:#634EF1"/>
</linearGradient>
<path fill="url(#SVGID_3_)" d="M8.459,23.401v11.493c0,2.207,1.789,3.996,3.996,3.996h0.644c2.207,0,3.996-1.789,3.996-3.996v-2.857
	C17.095,27.268,13.229,23.401,8.459,23.401L8.459,23.401z"/>
<linearGradient id="SVGID_4_" gradientUnits="userSpaceOnUse" x1="23.9649" y1="6.5593" x2="45.8909" y2="28.7855">
	<stop  offset="1.065558e-07" style="stop-color:#00F1FB"/>
	<stop  offset="1" style="stop-color:#634EF1"/>
</linearGradient>
<path fill="url(#SVGID_4_)" d="M47.456,21.701L37.273,37.163c-0.741,1.125-1.998,1.803-3.345,1.803l0,0
	c-3.226,0-5.128-3.618-3.3-6.276l3.759-5.465c-7.383-0.585-12.379-5.845-12.379-13.07c0-7.704,5.632-13.122,13.814-13.122
	c8.235,0,13.813,5.418,13.813,13.122C49.635,17.026,48.836,19.629,47.456,21.701z M35.821,19.309c2.868,0,5.313-1.858,5.313-5.153
	c0-3.293-2.445-5.153-5.313-5.153c-2.815,0-5.313,1.913-5.313,5.153C30.508,17.397,33.006,19.309,35.821,19.309z"/>
<g>
	<linearGradient id="SVGID_5_" gradientUnits="userSpaceOnUse" x1="23.6655" y1="6.8646" x2="39.1325" y2="22.5434">
		<stop  offset="1.065558e-07" style="stop-color:#00F1FB"/>
		<stop  offset="1" style="stop-color:#634EF1"/>
	</linearGradient>
	<path fill="url(#SVGID_5_)" d="M39.57,10.363c0.959,0.876,1.564,2.157,1.564,3.793c0,3.295-2.445,5.153-5.313,5.153
		c-0.289,0-0.571-0.033-0.85-0.072l-0.005,0.011c-11.466,0-9.622-16.061-2.402-17.896c-6.378,1.247-10.556,6.174-10.556,12.804
		c0,7.225,4.995,12.485,12.379,13.07l9.441-13.566L39.57,10.363z"/>
	<linearGradient id="SVGID_6_" gradientUnits="userSpaceOnUse" x1="32.8773" y1="1.2695" x2="32.9003" y2="1.2928">
		<stop  offset="1.065558e-07" style="stop-color:#00F1FB"/>
		<stop  offset="1" style="stop-color:#634EF1"/>
	</linearGradient>
	<path fill="url(#SVGID_6_)" d="M32.917,1.277c-0.018,0.003-0.037,0.005-0.055,0.009C32.879,1.282,32.898,1.28,32.917,1.277z"/>
</g>
<linearGradient id="SVGID_7_" gradientUnits="userSpaceOnUse" x1="29.4273" y1="16.4428" x2="43.7097" y2="30.9207">
	<stop  offset="1.065558e-07" style="stop-color:#00F1FB"/>
	<stop  offset="1" style="stop-color:#634EF1"/>
</linearGradient>
<path fill="url(#SVGID_7_)" d="M46.783,22.498c2.409-6.085-1.969-12.746-8.491-13.29L36.88,9.091
	c0.961,0.163,1.829,0.56,2.534,1.151h0c0,0,0,0,0,0c0.583,0.49,1.045,1.118,1.342,1.878c0.995,2.081,0.858,4.596-0.512,6.588
	l-5.859,8.518l-3.65,5.307c-0.138,0.201-0.233,0.409-0.337,0.616c-0.066,0.127-0.14,0.252-0.19,0.382
	c-0.071,0.179-0.112,0.36-0.159,0.54c-0.05,0.215-0.104,0.43-0.117,0.646c-0.004,0.045-0.005,0.089-0.008,0.134
	c-0.043,1.746,1.078,3.405,2.818,3.936c0.053,0.016,0.106,0.022,0.158,0.036c0.299,0.078,0.612,0.126,0.942,0.132
	c0.042,0.001,0.084,0.008,0.125,0.007c0.294-0.003,0.582-0.043,0.863-0.108c0.065-0.015,0.129-0.034,0.193-0.053
	c0.257-0.073,0.507-0.167,0.743-0.29c0.025-0.013,0.053-0.022,0.078-0.035c0.252-0.137,0.484-0.309,0.702-0.498
	c0.052-0.045,0.102-0.092,0.152-0.14c0.212-0.204,0.41-0.423,0.575-0.674l9.083-13.792C46.494,23.164,46.637,22.866,46.783,22.498z"
	/>
<g>
	<linearGradient id="SVGID_8_" gradientUnits="userSpaceOnUse" x1="66.7681" y1="26.8212" x2="68.7074" y2="28.7941">
		<stop  offset="1.065558e-07" style="stop-color:#00F1FB"/>
		<stop  offset="1" style="stop-color:#634EF1"/>
	</linearGradient>
	<path fill="url(#SVGID_8_)" d="M76.557,20.808L60.738,36.627c-1.294,1.294-2.751,1.936-3.254,1.433l0,0
		c-0.503-0.503,0.139-1.959,1.433-3.254l15.819-15.819c1.294-1.294,2.751-1.936,3.254-1.433l0,0
		C78.493,18.057,77.852,19.514,76.557,20.808z"/>
	<linearGradient id="SVGID_9_" gradientUnits="userSpaceOnUse" x1="69.5709" y1="24.066" x2="71.4434" y2="25.9707">
		<stop  offset="1.065558e-07" style="stop-color:#00F1FB"/>
		<stop  offset="1" style="stop-color:#634EF1"/>
	</linearGradient>
	<path fill="url(#SVGID_9_)" d="M62.141,31.584L62.141,31.584c1.005,1.005,3.919-0.278,6.508-2.867l7.909-7.909
		c1.294-1.294,1.936-2.751,1.433-3.254l0,0c-0.503-0.503-1.959,0.139-3.254,1.433L62.141,31.584z"/>
	<linearGradient id="SVGID_10_" gradientUnits="userSpaceOnUse" x1="72.7947" y1="20.8969" x2="74.6129" y2="22.7465">
		<stop  offset="1.065558e-07" style="stop-color:#00F1FB"/>
		<stop  offset="1" style="stop-color:#634EF1"/>
	</linearGradient>
	<path fill="url(#SVGID_10_)" d="M68.534,25.191L68.534,25.191c1.005,1.005,3.919-0.278,6.508-2.867l1.516-1.516
		c1.294-1.294,1.936-2.751,1.433-3.254l0,0c-0.503-0.503-1.959,0.139-3.254,1.433L68.534,25.191z"/>
</g>
<linearGradient id="SVGID_11_" gradientUnits="userSpaceOnUse" x1="58.1763" y1="18.094" x2="64.8421" y2="24.8511">
	<stop  offset="1.065558e-07" style="stop-color:#00F1FB"/>
	<stop  offset="1" style="stop-color:#634EF1"/>
</linearGradient>
<path fill="url(#SVGID_11_)" d="M66.265,21.324c-0.002-0.058-0.004-0.116-0.008-0.174c-0.006-0.083-0.014-0.166-0.024-0.249
	c-0.008-0.064-0.017-0.128-0.027-0.191c-0.013-0.078-0.027-0.155-0.044-0.233c-0.015-0.068-0.032-0.136-0.05-0.204
	c-0.019-0.073-0.039-0.145-0.062-0.217c-0.023-0.072-0.049-0.143-0.075-0.214c-0.025-0.067-0.05-0.134-0.078-0.201
	c-0.032-0.075-0.068-0.148-0.103-0.221c-0.03-0.061-0.059-0.123-0.091-0.183c-0.042-0.078-0.089-0.153-0.136-0.229
	c-0.033-0.054-0.065-0.109-0.101-0.162c-0.057-0.084-0.12-0.166-0.183-0.247c-0.033-0.042-0.062-0.086-0.096-0.127
	c-0.1-0.122-0.207-0.241-0.322-0.355c-1.132-1.132-2.641-1.568-4.067-1.346c-0.009,0.001-0.019,0.003-0.028,0.004
	c-0.104,0.017-0.207,0.036-0.309,0.06c-0.024,0.005-0.048,0.012-0.072,0.018c-0.293,0.072-0.579,0.174-0.857,0.303
	c-0.056,0.026-0.113,0.051-0.168,0.08c-0.061,0.031-0.121,0.066-0.181,0.1c-0.068,0.039-0.135,0.078-0.201,0.12
	c-0.052,0.033-0.104,0.067-0.155,0.102c-0.076,0.053-0.151,0.109-0.225,0.167c-0.04,0.031-0.081,0.061-0.12,0.094
	c-0.112,0.094-0.223,0.192-0.328,0.298c-0.124,0.124-0.237,0.255-0.345,0.388c-0.01,0.012-0.019,0.024-0.029,0.036
	c-0.028,0.035-0.052,0.071-0.078,0.106c-0.076,0.101-0.149,0.204-0.216,0.309c-0.03,0.047-0.058,0.095-0.086,0.143
	c-0.064,0.109-0.123,0.219-0.177,0.331c-0.021,0.042-0.041,0.085-0.06,0.127c-0.06,0.135-0.114,0.272-0.161,0.411
	c-0.007,0.02-0.015,0.04-0.022,0.06c-0.222,0.687-0.283,1.414-0.179,2.125c0,0,0,0,0,0c0.006,0.044,0.011,0.089,0.019,0.133
	c0.01,0.056,0.022,0.112,0.034,0.168c0.017,0.08,0.037,0.159,0.058,0.238c0.015,0.054,0.028,0.108,0.045,0.162
	c0.037,0.12,0.078,0.239,0.125,0.357c0.234,0.583,0.589,1.134,1.071,1.617c1.899,1.899,4.859,1.853,6.712,0
	c0.661-0.661,1.088-1.464,1.283-2.309c0.004-0.018,0.01-0.036,0.014-0.055c0.023-0.106,0.04-0.213,0.056-0.32
	c0.006-0.038,0.013-0.076,0.017-0.114c0.012-0.096,0.018-0.193,0.024-0.29c0.003-0.05,0.007-0.099,0.008-0.149
	C66.269,21.503,66.268,21.413,66.265,21.324z M63.427,23.39c-0.072,0.072-0.148,0.139-0.225,0.202
	c-0.192,0.157-0.398,0.283-0.614,0.38c-0.004,0.002-0.009,0.004-0.013,0.006c-0.055,0.025-0.112,0.045-0.169,0.066
	c-0.021,0.008-0.041,0.016-0.063,0.023c-0.051,0.017-0.102,0.03-0.153,0.044c-0.028,0.007-0.056,0.016-0.084,0.022
	c-0.048,0.011-0.096,0.019-0.144,0.027c-0.032,0.005-0.064,0.011-0.097,0.015c-0.046,0.006-0.092,0.009-0.138,0.013
	c-0.035,0.003-0.07,0.005-0.106,0.006c-0.044,0.001-0.089,0.001-0.133,0c-0.038-0.001-0.076-0.003-0.113-0.005
	c-0.043-0.003-0.085-0.007-0.128-0.013c-0.04-0.005-0.079-0.011-0.118-0.018c-0.041-0.007-0.082-0.015-0.123-0.024
	c-0.041-0.009-0.082-0.02-0.123-0.031c-0.039-0.011-0.079-0.022-0.118-0.035c-0.042-0.014-0.084-0.03-0.126-0.047
	c-0.037-0.014-0.075-0.029-0.112-0.045c-0.044-0.019-0.087-0.041-0.13-0.063c-0.035-0.018-0.07-0.034-0.104-0.054
	c-0.045-0.025-0.09-0.054-0.135-0.083c-0.031-0.02-0.063-0.039-0.094-0.06c-0.049-0.034-0.097-0.072-0.145-0.11
	c-0.025-0.02-0.052-0.038-0.077-0.059c-0.073-0.061-0.144-0.125-0.214-0.195c-0.01-0.01-0.019-0.021-0.029-0.031
	c-0.057-0.059-0.112-0.118-0.163-0.178c-0.031-0.037-0.058-0.076-0.087-0.113c-0.025-0.033-0.052-0.066-0.076-0.1
	c-0.035-0.05-0.066-0.101-0.097-0.151c-0.014-0.022-0.028-0.045-0.041-0.067c-0.032-0.056-0.06-0.112-0.088-0.168
	c-0.006-0.013-0.014-0.026-0.02-0.039l-0.001,0.001c-0.002-0.004-0.003-0.009-0.005-0.013c-0.004-0.008-0.007-0.017-0.011-0.026
	c-0.021-0.046-0.039-0.093-0.057-0.139c-0.116-0.305-0.173-0.619-0.17-0.93c0,0,0,0,0-0.001c0.001-0.083,0.006-0.166,0.016-0.248
	c0.001-0.005,0.002-0.011,0.003-0.016c0.009-0.077,0.021-0.154,0.038-0.23c0.003-0.013,0.007-0.027,0.011-0.04
	c0.016-0.068,0.033-0.136,0.055-0.203c0.006-0.019,0.015-0.038,0.021-0.057c0.021-0.06,0.042-0.121,0.068-0.18
	c0.011-0.026,0.026-0.051,0.038-0.077c0.024-0.052,0.048-0.103,0.076-0.154c0.018-0.033,0.041-0.065,0.061-0.098
	c0.025-0.042,0.049-0.084,0.077-0.125c0.029-0.042,0.062-0.082,0.093-0.123c0.023-0.03,0.044-0.061,0.068-0.09
	c0.058-0.069,0.119-0.137,0.185-0.202c1.051-1.051,2.646-1.115,3.798,0.037C64.542,20.744,64.478,22.339,63.427,23.39z"/>
<linearGradient id="SVGID_12_" gradientUnits="userSpaceOnUse" x1="70.6436" y1="37.8784" x2="77.3553" y2="31.1667">
	<stop  offset="1.065558e-07" style="stop-color:#00F1FB"/>
	<stop  offset="1" style="stop-color:#634EF1"/>
</linearGradient>
<path fill="url(#SVGID_12_)" d="M78.755,34.374c-0.002-0.058-0.004-0.116-0.008-0.174c-0.006-0.083-0.014-0.166-0.024-0.249
	c-0.008-0.064-0.017-0.128-0.027-0.191c-0.013-0.078-0.027-0.155-0.044-0.233c-0.015-0.068-0.032-0.136-0.05-0.204
	c-0.019-0.073-0.039-0.145-0.062-0.217s-0.049-0.143-0.075-0.214c-0.025-0.067-0.05-0.134-0.078-0.201
	c-0.032-0.075-0.068-0.148-0.103-0.221c-0.03-0.061-0.059-0.123-0.091-0.183c-0.042-0.078-0.089-0.153-0.136-0.229
	c-0.033-0.054-0.065-0.109-0.101-0.162c-0.057-0.084-0.12-0.166-0.183-0.247c-0.033-0.042-0.062-0.086-0.096-0.127
	c-0.1-0.122-0.207-0.241-0.322-0.355c-1.132-1.132-2.641-1.568-4.067-1.346c-0.009,0.002-0.019,0.003-0.028,0.004
	c-0.104,0.017-0.207,0.036-0.31,0.06c-0.024,0.005-0.048,0.012-0.072,0.018c-0.293,0.072-0.579,0.174-0.857,0.303
	c-0.056,0.026-0.113,0.051-0.168,0.08c-0.061,0.031-0.121,0.066-0.181,0.1c-0.068,0.039-0.135,0.078-0.201,0.12
	c-0.052,0.033-0.104,0.067-0.155,0.102c-0.076,0.053-0.151,0.109-0.225,0.167c-0.04,0.031-0.081,0.061-0.12,0.094
	c-0.112,0.094-0.223,0.192-0.328,0.298c-0.124,0.124-0.237,0.255-0.345,0.388c-0.01,0.012-0.019,0.024-0.029,0.036
	c-0.027,0.035-0.052,0.071-0.078,0.106c-0.076,0.101-0.149,0.204-0.215,0.309c-0.03,0.047-0.058,0.095-0.086,0.143
	c-0.064,0.109-0.123,0.219-0.177,0.331c-0.021,0.042-0.041,0.085-0.06,0.127c-0.06,0.135-0.114,0.272-0.161,0.411
	c-0.007,0.02-0.015,0.04-0.022,0.06c-0.222,0.687-0.283,1.414-0.179,2.125c0,0,0,0,0,0c0.007,0.044,0.011,0.089,0.019,0.133
	c0.01,0.056,0.022,0.112,0.034,0.168c0.017,0.08,0.037,0.159,0.058,0.238c0.015,0.054,0.028,0.108,0.045,0.162
	c0.037,0.12,0.078,0.239,0.125,0.357c0.234,0.583,0.589,1.134,1.071,1.617c1.899,1.899,4.859,1.853,6.712,0
	c0.661-0.661,1.088-1.464,1.283-2.309c0.004-0.018,0.01-0.036,0.014-0.055c0.023-0.106,0.04-0.213,0.056-0.32
	c0.006-0.038,0.013-0.076,0.017-0.114c0.012-0.096,0.018-0.193,0.024-0.29c0.003-0.05,0.007-0.099,0.008-0.149
	C78.759,34.552,78.758,34.463,78.755,34.374z M75.917,36.44c-0.072,0.072-0.148,0.139-0.225,0.202
	c-0.192,0.157-0.398,0.283-0.613,0.38c-0.004,0.002-0.009,0.004-0.013,0.006c-0.055,0.025-0.112,0.045-0.169,0.066
	c-0.021,0.008-0.041,0.016-0.063,0.023c-0.051,0.017-0.102,0.03-0.153,0.044c-0.028,0.007-0.056,0.016-0.084,0.022
	c-0.048,0.011-0.096,0.019-0.144,0.027c-0.032,0.005-0.064,0.011-0.097,0.015c-0.046,0.006-0.092,0.009-0.138,0.013
	c-0.035,0.003-0.07,0.005-0.106,0.006c-0.044,0.001-0.089,0.001-0.133,0c-0.038-0.001-0.076-0.003-0.113-0.005
	c-0.043-0.003-0.085-0.007-0.128-0.013c-0.04-0.005-0.079-0.011-0.119-0.018c-0.041-0.007-0.082-0.015-0.123-0.024
	c-0.041-0.009-0.082-0.02-0.123-0.031c-0.039-0.011-0.079-0.022-0.118-0.035c-0.042-0.014-0.084-0.03-0.126-0.046
	c-0.037-0.015-0.075-0.029-0.112-0.045c-0.044-0.019-0.087-0.041-0.13-0.063c-0.035-0.018-0.07-0.034-0.104-0.054
	c-0.045-0.025-0.09-0.054-0.135-0.083c-0.031-0.02-0.063-0.038-0.094-0.06c-0.049-0.034-0.097-0.072-0.145-0.11
	c-0.025-0.02-0.052-0.038-0.077-0.059c-0.073-0.061-0.144-0.126-0.214-0.195c-0.01-0.01-0.019-0.021-0.029-0.031
	c-0.057-0.059-0.112-0.118-0.163-0.178c-0.031-0.037-0.059-0.076-0.087-0.113c-0.025-0.033-0.052-0.066-0.076-0.1
	c-0.035-0.05-0.066-0.1-0.097-0.151c-0.014-0.022-0.028-0.045-0.041-0.067c-0.032-0.056-0.06-0.112-0.088-0.168
	c-0.006-0.013-0.014-0.026-0.02-0.039l-0.001,0.001c-0.002-0.004-0.003-0.009-0.005-0.013c-0.004-0.008-0.007-0.017-0.011-0.026
	c-0.021-0.046-0.039-0.093-0.057-0.139c-0.116-0.305-0.173-0.619-0.17-0.93c0,0,0,0,0-0.001c0.001-0.083,0.006-0.166,0.016-0.248
	c0.001-0.005,0.002-0.011,0.003-0.016c0.009-0.077,0.021-0.154,0.038-0.23c0.003-0.013,0.007-0.027,0.011-0.04
	c0.016-0.068,0.033-0.136,0.054-0.203c0.006-0.019,0.015-0.038,0.021-0.057c0.021-0.061,0.042-0.121,0.068-0.18
	c0.011-0.026,0.026-0.051,0.038-0.077c0.024-0.052,0.048-0.103,0.076-0.154c0.018-0.033,0.04-0.065,0.06-0.098
	c0.025-0.042,0.049-0.084,0.077-0.124c0.029-0.042,0.062-0.082,0.093-0.123c0.023-0.03,0.044-0.061,0.068-0.09
	c0.058-0.069,0.119-0.137,0.185-0.202c1.051-1.051,2.646-1.115,3.798,0.037C77.033,33.794,76.968,35.389,75.917,36.44z"/>
</svg>
