<?xml version="1.0" encoding="utf-8"?>
<!-- Generator: Adobe Illustrator 24.0.2, SVG Export Plug-In . SVG Version: 6.00 Build 0)  -->
<svg version="1.1" id="Слой_1" xmlns="http://www.w3.org/2000/svg" xmlns:xlink="http://www.w3.org/1999/xlink" x="0px" y="0px"
	 viewBox="0 0 85 40" enable-background="new 0 0 85 40" xml:space="preserve">
<linearGradient id="SVGID_1_" gradientUnits="userSpaceOnUse" x1="-1.0914" y1="4.9301" x2="25.6775" y2="32.0656">
	<stop  offset="1.065558e-07" style="stop-color:#00F1FB"/>
	<stop  offset="1" style="stop-color:#634EF1"/>
</linearGradient>
<path fill="url(#SVGID_1_)" d="M25.964,26.475c0,8.18-6.375,12.431-13.547,12.431c-3.875,0-7.498-1.182-10.126-3.702
	c-1.928-1.849-1.58-5.026,0.731-6.366l0.293-0.17c1.549-0.898,3.587-0.809,4.852,0.459c0.954,0.956,2.305,1.492,4.25,1.492
	c3.506,0,5.047-1.86,5.047-4.144c0-2.285-1.541-4.145-5.047-4.145h-0.402c-1.726,0-3.265-1.087-3.841-2.714l0,0
	c-0.468-1.319-0.225-2.786,0.641-3.885l5.354-6.788H4.553c-2.201,0-3.984-1.784-3.984-3.984l0,0c0-2.201,1.784-3.984,3.984-3.984
	h14.793c2.834,0,5.131,2.297,5.131,5.131l0,0c0,1.15-0.386,2.266-1.096,3.17l-5.332,6.787
	C22.617,17.655,25.964,21.322,25.964,26.475z"/>
<linearGradient id="SVGID_2_" gradientUnits="userSpaceOnUse" x1="3.3139" y1="0.5843" x2="12.8468" y2="10.2476">
	<stop  offset="1.065558e-07" style="stop-color:#00F1FB"/>
	<stop  offset="1" style="stop-color:#634EF1"/>
</linearGradient>
<path fill="url(#SVGID_2_)" d="M0.569,4.959c0,2.201,1.784,3.984,3.984,3.984h9.616c2.546-3.227,0.247-7.969-3.864-7.969H4.553
	C2.352,0.974,0.569,2.758,0.569,4.959z"/>
<linearGradient id="SVGID_3_" gradientUnits="userSpaceOnUse" x1="4.5336" y1="18.9415" x2="21.5232" y2="36.1637">
	<stop  offset="1.065558e-07" style="stop-color:#00F1FB"/>
	<stop  offset="1" style="stop-color:#634EF1"/>
</linearGradient>
<path fill="url(#SVGID_3_)" d="M25.964,26.475c0-5.154-3.347-8.82-7.916-10.414c-1.383-0.374-2.668-0.576-3.813-0.671
	c-2.075-0.172-3.107-2.591-1.818-4.226h0l-3.601,4.566c-0.867,1.099-1.109,2.566-0.641,3.885c0.577,1.627,2.115,2.714,3.841,2.714
	h0.402c3.506,0,5.047,1.86,5.047,4.145c0,2.283-1.541,4.144-5.047,4.144c-1.945,0-3.296-0.536-4.25-1.492
	c-1.265-1.268-3.302-1.357-4.852-0.459l-0.293,0.17c-2.312,1.34-2.66,4.517-0.731,6.367c2.628,2.52,6.251,3.702,10.126,3.702
	C19.589,38.906,25.964,34.656,25.964,26.475z"/>
<linearGradient id="SVGID_4_" gradientUnits="userSpaceOnUse" x1="34.5538" y1="19.0694" x2="51.2051" y2="35.9487">
	<stop  offset="1.065558e-07" style="stop-color:#00F1FB"/>
	<stop  offset="1" style="stop-color:#634EF1"/>
</linearGradient>
<path fill="url(#SVGID_4_)" d="M39.649,14.043h3.028c6.906,0,12.751,4.25,12.751,12.432c0,8.18-6.375,12.431-13.548,12.431
	c-3.988,0-7.612-1.142-10.246-3.574c-2.032-1.876-1.648-5.199,0.745-6.586l0,0c1.615-0.936,3.708-0.833,5.069,0.444
	c0.977,0.917,2.375,1.429,4.432,1.429c3.507,0,5.048-1.86,5.048-4.144c0-2.285-1.541-4.145-4.782-4.145h-7.352"/>
<g>
	<linearGradient id="SVGID_5_" gradientUnits="userSpaceOnUse" x1="31.5044" y1="10.4979" x2="42.557" y2="21.7018">
		<stop  offset="1.065558e-07" style="stop-color:#00F1FB"/>
		<stop  offset="1" style="stop-color:#634EF1"/>
	</linearGradient>
	<path fill="url(#SVGID_5_)" d="M30.888,17.104l-0.069,0.955c-0.166,2.307,1.661,4.271,3.974,4.271h7.127
		c-1.582-0.315-2.743-1.811-2.621-3.481l0.35-4.806l0.372-5.1l-4.807-2.104l-3.97,7.272L30.888,17.104z"/>
</g>
<linearGradient id="SVGID_6_" gradientUnits="userSpaceOnUse" x1="33.5334" y1="1.5574" x2="45.9483" y2="14.1423">
	<stop  offset="1.065558e-07" style="stop-color:#00F1FB"/>
	<stop  offset="1" style="stop-color:#634EF1"/>
</linearGradient>
<path fill="url(#SVGID_6_)" d="M30.867,17.397L30.867,17.397c0.335-4.762,4.296-8.454,9.07-8.454h9.648
	c2.201,0,3.984-1.784,3.984-3.984s-1.784-3.984-3.984-3.984H35.759c-2.089,0-3.824,1.614-3.974,3.697L30.867,17.397z"/>
<g>
	<linearGradient id="SVGID_7_" gradientUnits="userSpaceOnUse" x1="72.7294" y1="26.5614" x2="74.6688" y2="28.5342">
		<stop  offset="1.065558e-07" style="stop-color:#00F1FB"/>
		<stop  offset="1" style="stop-color:#634EF1"/>
	</linearGradient>
	<path fill="url(#SVGID_7_)" d="M82.519,20.549L66.7,36.367c-1.294,1.294-2.751,1.936-3.254,1.433l0,0
		c-0.503-0.503,0.139-1.959,1.433-3.254l15.819-15.819c1.294-1.294,2.751-1.936,3.254-1.433l0,0
		C84.455,17.797,83.813,19.254,82.519,20.549z"/>
	<linearGradient id="SVGID_8_" gradientUnits="userSpaceOnUse" x1="75.5323" y1="23.8061" x2="77.4047" y2="25.7109">
		<stop  offset="1.065558e-07" style="stop-color:#00F1FB"/>
		<stop  offset="1" style="stop-color:#634EF1"/>
	</linearGradient>
	<path fill="url(#SVGID_8_)" d="M68.102,31.324L68.102,31.324c1.005,1.005,3.919-0.278,6.508-2.867l7.909-7.909
		c1.294-1.294,1.936-2.751,1.433-3.254l0,0c-0.503-0.503-1.959,0.139-3.254,1.433L68.102,31.324z"/>
	<linearGradient id="SVGID_9_" gradientUnits="userSpaceOnUse" x1="78.756" y1="20.637" x2="80.5742" y2="22.4866">
		<stop  offset="1.065558e-07" style="stop-color:#00F1FB"/>
		<stop  offset="1" style="stop-color:#634EF1"/>
	</linearGradient>
	<path fill="url(#SVGID_9_)" d="M74.495,24.931L74.495,24.931c1.005,1.005,3.919-0.278,6.508-2.867l1.516-1.516
		c1.294-1.294,1.936-2.751,1.433-3.254l0,0c-0.503-0.503-1.959,0.139-3.254,1.433L74.495,24.931z"/>
</g>
<linearGradient id="SVGID_10_" gradientUnits="userSpaceOnUse" x1="64.1376" y1="17.8341" x2="70.8035" y2="24.5913">
	<stop  offset="1.065558e-07" style="stop-color:#00F1FB"/>
	<stop  offset="1" style="stop-color:#634EF1"/>
</linearGradient>
<path fill="url(#SVGID_10_)" d="M72.226,21.064c-0.002-0.058-0.004-0.116-0.008-0.174c-0.006-0.083-0.014-0.166-0.024-0.249
	c-0.008-0.064-0.017-0.128-0.027-0.191c-0.013-0.078-0.027-0.155-0.044-0.233c-0.015-0.068-0.032-0.136-0.05-0.204
	c-0.019-0.073-0.039-0.145-0.062-0.217s-0.049-0.143-0.075-0.214c-0.025-0.067-0.05-0.134-0.078-0.201
	c-0.032-0.075-0.068-0.148-0.103-0.221c-0.03-0.061-0.059-0.123-0.091-0.183c-0.042-0.078-0.089-0.153-0.136-0.229
	c-0.033-0.054-0.065-0.109-0.101-0.162c-0.057-0.084-0.12-0.166-0.183-0.247c-0.033-0.042-0.062-0.086-0.096-0.127
	c-0.1-0.122-0.207-0.241-0.322-0.355c-1.132-1.132-2.641-1.568-4.067-1.346c-0.009,0.002-0.019,0.003-0.028,0.004
	c-0.104,0.017-0.207,0.036-0.31,0.06c-0.024,0.005-0.048,0.012-0.072,0.018c-0.293,0.072-0.579,0.174-0.857,0.303
	c-0.056,0.026-0.113,0.051-0.168,0.08c-0.061,0.031-0.121,0.066-0.181,0.1c-0.068,0.039-0.135,0.078-0.201,0.12
	c-0.052,0.033-0.104,0.067-0.155,0.102c-0.076,0.053-0.151,0.109-0.225,0.167c-0.04,0.031-0.081,0.061-0.12,0.094
	c-0.112,0.094-0.223,0.192-0.328,0.298c-0.124,0.124-0.237,0.255-0.345,0.388c-0.01,0.012-0.019,0.024-0.029,0.036
	c-0.027,0.035-0.052,0.071-0.078,0.106c-0.076,0.101-0.149,0.204-0.215,0.309c-0.03,0.047-0.058,0.095-0.086,0.143
	c-0.063,0.109-0.123,0.219-0.177,0.331c-0.021,0.042-0.041,0.085-0.06,0.127c-0.06,0.135-0.114,0.272-0.161,0.411
	c-0.007,0.02-0.015,0.04-0.022,0.06c-0.222,0.687-0.283,1.414-0.179,2.125c0,0,0,0,0,0c0.007,0.044,0.011,0.089,0.019,0.133
	c0.01,0.056,0.022,0.112,0.034,0.168c0.017,0.08,0.037,0.159,0.058,0.238c0.015,0.054,0.028,0.108,0.045,0.162
	c0.037,0.12,0.078,0.239,0.125,0.357c0.234,0.583,0.589,1.134,1.071,1.617c1.899,1.899,4.859,1.853,6.712,0
	c0.661-0.661,1.088-1.464,1.283-2.309c0.004-0.018,0.01-0.036,0.014-0.055c0.023-0.106,0.04-0.213,0.056-0.32
	c0.006-0.038,0.013-0.076,0.017-0.114c0.012-0.096,0.018-0.193,0.024-0.29c0.003-0.05,0.007-0.099,0.008-0.149
	C72.231,21.243,72.229,21.154,72.226,21.064z M69.388,23.13c-0.072,0.072-0.148,0.139-0.225,0.202
	c-0.192,0.157-0.398,0.283-0.613,0.38c-0.004,0.002-0.009,0.004-0.013,0.006c-0.055,0.025-0.112,0.045-0.169,0.066
	c-0.021,0.008-0.041,0.016-0.063,0.023c-0.051,0.017-0.102,0.03-0.153,0.044c-0.028,0.007-0.056,0.016-0.084,0.022
	c-0.048,0.011-0.096,0.019-0.144,0.027c-0.032,0.005-0.064,0.011-0.097,0.015c-0.046,0.006-0.092,0.009-0.138,0.013
	c-0.035,0.003-0.07,0.005-0.106,0.006c-0.044,0.001-0.089,0.001-0.133,0c-0.038-0.001-0.076-0.003-0.113-0.005
	c-0.043-0.003-0.085-0.007-0.128-0.013c-0.04-0.005-0.079-0.011-0.119-0.018c-0.041-0.007-0.082-0.015-0.123-0.024
	c-0.041-0.009-0.082-0.02-0.123-0.031c-0.039-0.011-0.079-0.022-0.118-0.035c-0.042-0.014-0.084-0.03-0.126-0.046
	c-0.037-0.015-0.075-0.029-0.112-0.045c-0.044-0.019-0.087-0.041-0.13-0.063c-0.035-0.018-0.07-0.034-0.104-0.054
	c-0.045-0.025-0.09-0.054-0.135-0.083c-0.031-0.02-0.063-0.038-0.094-0.06c-0.049-0.034-0.097-0.072-0.145-0.11
	c-0.025-0.02-0.052-0.038-0.077-0.059c-0.073-0.061-0.144-0.126-0.214-0.195c-0.01-0.01-0.019-0.021-0.029-0.031
	c-0.057-0.059-0.112-0.118-0.163-0.178c-0.031-0.037-0.059-0.076-0.087-0.113c-0.025-0.033-0.052-0.066-0.076-0.1
	c-0.035-0.05-0.066-0.1-0.097-0.151c-0.014-0.022-0.028-0.045-0.041-0.067c-0.032-0.056-0.06-0.112-0.088-0.168
	c-0.006-0.013-0.014-0.026-0.02-0.039l-0.001,0.001c-0.002-0.004-0.003-0.009-0.005-0.013c-0.004-0.008-0.007-0.017-0.011-0.026
	c-0.021-0.046-0.039-0.093-0.057-0.139c-0.116-0.305-0.173-0.619-0.17-0.93c0,0,0,0,0-0.001c0.001-0.083,0.006-0.166,0.016-0.248
	c0.001-0.005,0.002-0.011,0.003-0.016c0.009-0.077,0.021-0.154,0.038-0.23c0.003-0.013,0.007-0.027,0.011-0.04
	c0.016-0.068,0.033-0.136,0.054-0.203c0.006-0.019,0.015-0.038,0.021-0.057c0.021-0.061,0.042-0.121,0.068-0.18
	c0.011-0.026,0.026-0.051,0.038-0.077c0.024-0.052,0.048-0.103,0.076-0.154c0.018-0.033,0.04-0.065,0.06-0.098
	c0.025-0.042,0.049-0.084,0.077-0.124c0.029-0.042,0.062-0.082,0.093-0.123c0.023-0.03,0.044-0.061,0.068-0.09
	c0.058-0.069,0.119-0.137,0.185-0.202c1.051-1.051,2.646-1.115,3.798,0.037C70.504,20.484,70.439,22.079,69.388,23.13z"/>
<linearGradient id="SVGID_11_" gradientUnits="userSpaceOnUse" x1="76.5098" y1="37.6185" x2="83.2215" y2="30.9068">
	<stop  offset="1.065558e-07" style="stop-color:#00F1FB"/>
	<stop  offset="1" style="stop-color:#634EF1"/>
</linearGradient>
<path fill="url(#SVGID_11_)" d="M84.621,34.114c-0.002-0.058-0.004-0.116-0.008-0.174c-0.006-0.083-0.014-0.166-0.024-0.249
	c-0.008-0.064-0.017-0.128-0.027-0.191c-0.013-0.078-0.027-0.155-0.044-0.233c-0.015-0.068-0.032-0.136-0.05-0.204
	c-0.019-0.073-0.039-0.145-0.062-0.217c-0.023-0.072-0.049-0.143-0.075-0.214c-0.025-0.067-0.05-0.134-0.078-0.201
	c-0.032-0.075-0.068-0.148-0.103-0.221c-0.03-0.061-0.059-0.123-0.091-0.183c-0.042-0.077-0.089-0.153-0.136-0.229
	c-0.033-0.054-0.065-0.109-0.101-0.162c-0.057-0.084-0.12-0.166-0.183-0.248c-0.033-0.042-0.062-0.086-0.096-0.127
	c-0.1-0.122-0.207-0.241-0.322-0.355c-1.132-1.132-2.641-1.568-4.067-1.346c-0.009,0.002-0.019,0.003-0.028,0.004
	c-0.104,0.017-0.207,0.036-0.309,0.06c-0.024,0.005-0.048,0.012-0.072,0.018c-0.293,0.072-0.579,0.174-0.857,0.303
	c-0.056,0.026-0.113,0.051-0.168,0.08c-0.061,0.031-0.121,0.066-0.181,0.1c-0.068,0.039-0.135,0.078-0.201,0.12
	c-0.052,0.033-0.104,0.067-0.155,0.102c-0.076,0.053-0.151,0.109-0.225,0.167c-0.04,0.031-0.081,0.061-0.12,0.094
	c-0.112,0.094-0.223,0.192-0.328,0.298c-0.124,0.124-0.237,0.255-0.345,0.388c-0.01,0.012-0.019,0.024-0.029,0.036
	c-0.028,0.035-0.052,0.071-0.078,0.106c-0.076,0.101-0.149,0.204-0.216,0.309c-0.03,0.047-0.058,0.095-0.086,0.143
	c-0.064,0.109-0.123,0.219-0.177,0.331c-0.021,0.042-0.041,0.085-0.06,0.127c-0.06,0.135-0.114,0.272-0.161,0.411
	c-0.007,0.02-0.015,0.04-0.022,0.06c-0.222,0.687-0.283,1.414-0.179,2.125c0,0,0,0,0,0c0.006,0.044,0.011,0.089,0.019,0.133
	c0.01,0.056,0.022,0.112,0.034,0.168c0.017,0.08,0.037,0.159,0.058,0.238c0.015,0.054,0.028,0.108,0.045,0.162
	c0.037,0.12,0.078,0.239,0.125,0.357c0.234,0.583,0.589,1.134,1.071,1.617c1.899,1.899,4.859,1.853,6.712,0
	c0.661-0.661,1.088-1.464,1.283-2.309c0.004-0.018,0.01-0.036,0.014-0.055c0.023-0.106,0.04-0.213,0.056-0.32
	c0.006-0.038,0.013-0.076,0.017-0.114c0.012-0.096,0.018-0.193,0.024-0.29c0.003-0.05,0.007-0.099,0.008-0.149
	C84.626,34.293,84.624,34.204,84.621,34.114z M81.783,36.18c-0.072,0.072-0.148,0.139-0.225,0.202
	c-0.192,0.157-0.398,0.283-0.614,0.38c-0.004,0.002-0.009,0.004-0.013,0.006c-0.055,0.025-0.112,0.045-0.169,0.066
	c-0.021,0.008-0.041,0.016-0.063,0.023c-0.051,0.017-0.102,0.03-0.153,0.044c-0.028,0.007-0.056,0.016-0.084,0.022
	c-0.048,0.011-0.096,0.019-0.144,0.027c-0.032,0.005-0.064,0.011-0.097,0.015c-0.046,0.006-0.092,0.009-0.138,0.013
	c-0.035,0.003-0.07,0.005-0.106,0.006c-0.044,0.001-0.089,0.001-0.133,0c-0.038-0.001-0.076-0.003-0.113-0.005
	c-0.043-0.003-0.085-0.007-0.128-0.013c-0.04-0.005-0.079-0.011-0.118-0.018c-0.041-0.007-0.082-0.015-0.123-0.024
	c-0.041-0.009-0.082-0.02-0.123-0.031c-0.039-0.011-0.079-0.022-0.118-0.035c-0.042-0.014-0.084-0.03-0.126-0.046
	c-0.037-0.014-0.075-0.029-0.112-0.045c-0.044-0.019-0.087-0.041-0.13-0.063c-0.035-0.018-0.07-0.034-0.104-0.054
	c-0.045-0.026-0.09-0.054-0.135-0.083c-0.031-0.02-0.063-0.039-0.094-0.06c-0.049-0.034-0.097-0.072-0.145-0.11
	c-0.026-0.02-0.052-0.038-0.077-0.059c-0.073-0.061-0.144-0.126-0.214-0.195c-0.01-0.01-0.019-0.021-0.029-0.031
	c-0.057-0.059-0.112-0.118-0.163-0.178c-0.031-0.037-0.058-0.076-0.087-0.113c-0.025-0.033-0.052-0.066-0.076-0.1
	c-0.035-0.05-0.066-0.101-0.097-0.151c-0.014-0.022-0.028-0.045-0.041-0.067c-0.032-0.055-0.06-0.112-0.088-0.168
	c-0.006-0.013-0.014-0.026-0.02-0.039l-0.001,0.001c-0.002-0.004-0.003-0.009-0.005-0.013c-0.004-0.008-0.007-0.017-0.011-0.026
	c-0.021-0.046-0.039-0.093-0.057-0.139c-0.116-0.305-0.173-0.619-0.17-0.93c0,0,0,0,0-0.001c0.001-0.083,0.006-0.166,0.016-0.248
	c0.001-0.005,0.002-0.011,0.003-0.016c0.009-0.077,0.021-0.154,0.038-0.23c0.003-0.013,0.008-0.027,0.011-0.04
	c0.016-0.068,0.033-0.136,0.055-0.203c0.006-0.019,0.015-0.038,0.021-0.057c0.021-0.061,0.042-0.121,0.068-0.18
	c0.011-0.026,0.026-0.051,0.038-0.077c0.024-0.052,0.048-0.103,0.076-0.154c0.018-0.033,0.04-0.065,0.06-0.098
	c0.025-0.042,0.049-0.084,0.077-0.124c0.029-0.042,0.062-0.082,0.093-0.123c0.023-0.03,0.044-0.061,0.068-0.09
	c0.058-0.069,0.119-0.137,0.185-0.202c1.051-1.051,2.646-1.115,3.798,0.037C82.899,33.534,82.834,35.129,81.783,36.18z"/>
</svg>
