<?xml version="1.0" encoding="utf-8"?>
<!-- Generator: Adobe Illustrator 24.0.2, SVG Export Plug-In . SVG Version: 6.00 Build 0)  -->
<svg version="1.1" id="Слой_1" xmlns="http://www.w3.org/2000/svg" xmlns:xlink="http://www.w3.org/1999/xlink" x="0px" y="0px"
	 viewBox="0 0 86 40" enable-background="new 0 0 86 40" xml:space="preserve">
<linearGradient id="SVGID_1_" gradientUnits="userSpaceOnUse" x1="15.6462" y1="23.6479" x2="26.8621" y2="35.0173">
	<stop  offset="1.065558e-07" style="stop-color:#00F1FB"/>
	<stop  offset="1" style="stop-color:#634EF1"/>
</linearGradient>
<path fill="url(#SVGID_1_)" d="M17.019,22.294v12.624c0,2.254,1.84,4.082,4.111,4.082c2.27,0,4.111-1.828,4.111-4.082V21.829
	C22.505,22.039,19.765,22.179,17.019,22.294z"/>
<linearGradient id="SVGID_2_" gradientUnits="userSpaceOnUse" x1="13.5522" y1="19.4818" x2="22.8823" y2="28.9397">
	<stop  offset="1.065558e-07" style="stop-color:#00F1FB"/>
	<stop  offset="1" style="stop-color:#634EF1"/>
</linearGradient>
<path fill="url(#SVGID_2_)" d="M25.246,23.449v-3.52c0-2.283-1.85-4.133-4.133-4.133c-2.283,0-4.133,1.851-4.133,4.133v3.52H9.53
	c-1.741,3.436,0.726,7.506,4.577,7.552l0.085,0.001h3.501C21.865,31.002,25.246,27.621,25.246,23.449z"/>
<linearGradient id="SVGID_3_" gradientUnits="userSpaceOnUse" x1="4.0753" y1="9.7359" x2="19.6971" y2="25.5716">
	<stop  offset="1.065558e-07" style="stop-color:#00F1FB"/>
	<stop  offset="1" style="stop-color:#634EF1"/>
</linearGradient>
<path fill="url(#SVGID_3_)" d="M11.057,20.436l6.971-13.753C19.348,4.08,17.456,1,14.537,1c-1.475,0-2.825,0.829-3.491,2.145
	L1.413,22.15c-0.433,0.854-0.659,1.798-0.659,2.756c0,2.809,1.914,5.134,4.499,5.838l0.008,0.022
	c0.211,0.057,0.427,0.101,0.644,0.14c0.31,0.049,0.621,0.095,0.945,0.095h7.343l-0.085-0.001c-3.851-0.046-6.318-4.116-4.577-7.552
	L11.057,20.436z"/>
<linearGradient id="SVGID_4_" gradientUnits="userSpaceOnUse" x1="32.9298" y1="11.2143" x2="54.8556" y2="33.4402">
	<stop  offset="1.065558e-07" style="stop-color:#00F1FB"/>
	<stop  offset="1" style="stop-color:#634EF1"/>
</linearGradient>
<path fill="url(#SVGID_4_)" d="M56.813,25.844c0,7.704-5.632,13.122-13.814,13.122c-8.234,0-13.812-5.419-13.812-13.122
	c0-2.868,0.797-5.472,2.179-7.544L41.547,2.837c0.741-1.125,1.998-1.803,3.345-1.803h0c3.226,0,5.128,3.618,3.3,6.276l-3.759,5.465
	C51.82,13.358,56.813,18.618,56.813,25.844z M48.313,25.844c0-3.24-2.497-5.154-5.314-5.154c-2.869,0-5.312,1.86-5.312,5.154
	s2.443,5.153,5.312,5.153C45.816,30.997,48.313,29.085,48.313,25.844z"/>
<linearGradient id="SVGID_5_" gradientUnits="userSpaceOnUse" x1="39.1965" y1="17.7782" x2="54.7452" y2="33.5399">
	<stop  offset="1.065558e-07" style="stop-color:#00F1FB"/>
	<stop  offset="1" style="stop-color:#634EF1"/>
</linearGradient>
<path fill="url(#SVGID_5_)" d="M44.434,12.775c-5.334,4.089-6.463,10.693-6.626,11.867c0.521-2.539,2.693-3.952,5.191-3.952
	c3.255,0,5.532,2.533,6.064,3.29c3.172,4.504,2.921,13.873-4.218,14.879c7.168-0.756,11.968-5.908,11.968-13.015
	C56.813,18.618,51.82,13.358,44.434,12.775z"/>
<linearGradient id="SVGID_6_" gradientUnits="userSpaceOnUse" x1="35.2446" y1="8.9308" x2="50.1013" y2="23.991">
	<stop  offset="1.065558e-07" style="stop-color:#00F1FB"/>
	<stop  offset="1" style="stop-color:#634EF1"/>
</linearGradient>
<path fill="url(#SVGID_6_)" d="M44.893,1.034c-1.347,0-2.605,0.677-3.346,1.803l-5.967,9.062l-1.969,2.999
	c-4.662,7.102,0.69,16.571,9.172,16.113c0.141-0.008,0.215-0.014,0.215-0.014c-2.366,0-4.419-1.282-5.074-3.573
	c-0.006-0.017-0.011-0.035-0.016-0.052c-0.051-0.184-0.099-0.369-0.131-0.567c-0.054-0.301-0.091-0.616-0.091-0.961
	c0-0.317,0.037-0.654,0.095-1.002c0.023-0.135,0.054-0.263,0.085-0.392c1.033-4.759,6.567-11.675,6.567-11.675l3.759-5.465
	C50.021,4.652,48.118,1.034,44.893,1.034z"/>
<g>
	<linearGradient id="SVGID_7_" gradientUnits="userSpaceOnUse" x1="73.9632" y1="26.6212" x2="75.9025" y2="28.5941">
		<stop  offset="1.065558e-07" style="stop-color:#00F1FB"/>
		<stop  offset="1" style="stop-color:#634EF1"/>
	</linearGradient>
	<path fill="url(#SVGID_7_)" d="M83.753,20.608L67.934,36.427c-1.294,1.294-2.751,1.936-3.254,1.433l0,0
		c-0.503-0.503,0.139-1.959,1.433-3.254l15.819-15.819c1.294-1.294,2.751-1.936,3.254-1.433l0,0
		C85.689,17.857,85.047,19.314,83.753,20.608z"/>
	<linearGradient id="SVGID_8_" gradientUnits="userSpaceOnUse" x1="76.766" y1="23.866" x2="78.6385" y2="25.7707">
		<stop  offset="1.065558e-07" style="stop-color:#00F1FB"/>
		<stop  offset="1" style="stop-color:#634EF1"/>
	</linearGradient>
	<path fill="url(#SVGID_8_)" d="M69.336,31.384L69.336,31.384c1.005,1.005,3.919-0.278,6.508-2.867l7.909-7.909
		c1.294-1.294,1.936-2.751,1.433-3.254l0,0c-0.503-0.503-1.959,0.139-3.254,1.433L69.336,31.384z"/>
	<linearGradient id="SVGID_9_" gradientUnits="userSpaceOnUse" x1="79.9898" y1="20.6969" x2="81.808" y2="22.5465">
		<stop  offset="1.065558e-07" style="stop-color:#00F1FB"/>
		<stop  offset="1" style="stop-color:#634EF1"/>
	</linearGradient>
	<path fill="url(#SVGID_9_)" d="M75.729,24.991L75.729,24.991c1.005,1.005,3.919-0.278,6.508-2.867l1.516-1.516
		c1.294-1.294,1.936-2.751,1.433-3.254l0,0c-0.503-0.503-1.959,0.139-3.254,1.433L75.729,24.991z"/>
</g>
<linearGradient id="SVGID_10_" gradientUnits="userSpaceOnUse" x1="65.3714" y1="17.894" x2="72.0373" y2="24.6511">
	<stop  offset="1.065558e-07" style="stop-color:#00F1FB"/>
	<stop  offset="1" style="stop-color:#634EF1"/>
</linearGradient>
<path fill="url(#SVGID_10_)" d="M73.46,21.124c-0.002-0.058-0.004-0.116-0.008-0.174c-0.006-0.083-0.014-0.166-0.024-0.249
	c-0.008-0.064-0.017-0.128-0.027-0.191c-0.013-0.078-0.027-0.155-0.044-0.233c-0.015-0.068-0.032-0.136-0.05-0.204
	c-0.019-0.073-0.039-0.145-0.062-0.217s-0.049-0.143-0.075-0.214c-0.025-0.067-0.05-0.134-0.078-0.201
	c-0.032-0.075-0.068-0.148-0.103-0.221c-0.03-0.061-0.059-0.123-0.091-0.183c-0.042-0.078-0.089-0.153-0.136-0.229
	c-0.033-0.054-0.065-0.109-0.101-0.162c-0.057-0.084-0.12-0.166-0.183-0.247c-0.033-0.042-0.062-0.086-0.096-0.127
	c-0.1-0.122-0.207-0.241-0.322-0.355c-1.132-1.132-2.641-1.568-4.067-1.346c-0.009,0.002-0.019,0.003-0.028,0.004
	c-0.104,0.017-0.207,0.036-0.31,0.06c-0.024,0.005-0.048,0.012-0.072,0.018c-0.293,0.072-0.579,0.174-0.857,0.303
	c-0.056,0.026-0.113,0.051-0.168,0.08c-0.061,0.031-0.121,0.066-0.181,0.1c-0.068,0.039-0.135,0.078-0.201,0.12
	c-0.052,0.033-0.104,0.067-0.155,0.102c-0.076,0.053-0.151,0.109-0.225,0.167c-0.04,0.031-0.081,0.061-0.12,0.094
	c-0.112,0.094-0.223,0.192-0.328,0.298c-0.124,0.124-0.237,0.255-0.345,0.388c-0.01,0.012-0.019,0.024-0.029,0.036
	c-0.027,0.035-0.052,0.071-0.078,0.106c-0.076,0.101-0.149,0.204-0.215,0.309c-0.03,0.047-0.058,0.095-0.086,0.143
	c-0.063,0.109-0.123,0.219-0.177,0.331c-0.021,0.042-0.041,0.085-0.06,0.127c-0.06,0.135-0.114,0.272-0.161,0.411
	c-0.007,0.02-0.015,0.04-0.022,0.06c-0.222,0.687-0.283,1.414-0.179,2.125c0,0,0,0,0,0c0.007,0.044,0.011,0.089,0.019,0.133
	c0.01,0.056,0.022,0.112,0.034,0.168c0.017,0.08,0.037,0.159,0.058,0.238c0.015,0.054,0.028,0.108,0.045,0.162
	c0.037,0.12,0.078,0.239,0.125,0.357c0.234,0.583,0.589,1.134,1.071,1.617c1.899,1.899,4.859,1.853,6.712,0
	c0.661-0.661,1.088-1.464,1.283-2.309c0.004-0.018,0.01-0.036,0.014-0.055c0.023-0.106,0.04-0.213,0.056-0.32
	c0.006-0.038,0.013-0.076,0.017-0.114c0.012-0.096,0.018-0.193,0.024-0.29c0.003-0.05,0.007-0.099,0.008-0.149
	C73.464,21.302,73.463,21.213,73.46,21.124z M70.622,23.19c-0.072,0.072-0.148,0.139-0.225,0.202
	c-0.192,0.157-0.398,0.283-0.613,0.38c-0.004,0.002-0.009,0.004-0.013,0.006c-0.055,0.025-0.112,0.045-0.169,0.066
	c-0.021,0.008-0.041,0.016-0.063,0.023c-0.051,0.017-0.102,0.03-0.153,0.044c-0.028,0.007-0.056,0.016-0.084,0.022
	c-0.048,0.011-0.096,0.019-0.144,0.027c-0.032,0.005-0.064,0.011-0.097,0.015c-0.046,0.006-0.092,0.009-0.138,0.013
	c-0.035,0.003-0.07,0.005-0.106,0.006c-0.044,0.001-0.089,0.001-0.133,0c-0.038-0.001-0.076-0.003-0.113-0.005
	c-0.043-0.003-0.085-0.007-0.128-0.013c-0.04-0.005-0.079-0.011-0.119-0.018c-0.041-0.007-0.082-0.015-0.123-0.024
	c-0.041-0.009-0.082-0.02-0.123-0.031c-0.039-0.011-0.079-0.022-0.118-0.035c-0.042-0.014-0.084-0.03-0.126-0.046
	c-0.037-0.015-0.075-0.029-0.112-0.045c-0.044-0.019-0.087-0.041-0.13-0.063c-0.035-0.018-0.07-0.034-0.104-0.054
	c-0.045-0.025-0.09-0.054-0.135-0.083c-0.031-0.02-0.063-0.038-0.094-0.06c-0.049-0.034-0.097-0.072-0.145-0.11
	c-0.025-0.02-0.052-0.038-0.077-0.059c-0.073-0.061-0.144-0.126-0.214-0.195c-0.01-0.01-0.019-0.021-0.029-0.031
	c-0.057-0.059-0.112-0.118-0.163-0.178c-0.031-0.037-0.059-0.076-0.087-0.113c-0.025-0.033-0.052-0.066-0.076-0.1
	c-0.035-0.05-0.066-0.1-0.097-0.151c-0.014-0.022-0.028-0.045-0.041-0.067c-0.032-0.056-0.06-0.112-0.088-0.168
	c-0.006-0.013-0.014-0.026-0.02-0.039l-0.001,0.001c-0.002-0.004-0.003-0.009-0.005-0.013c-0.004-0.008-0.007-0.017-0.011-0.026
	c-0.021-0.046-0.039-0.093-0.057-0.139c-0.116-0.305-0.173-0.619-0.17-0.93c0,0,0,0,0-0.001c0.001-0.083,0.006-0.166,0.016-0.248
	c0.001-0.005,0.002-0.011,0.003-0.016c0.009-0.077,0.021-0.154,0.038-0.23c0.003-0.013,0.007-0.027,0.011-0.04
	c0.016-0.068,0.033-0.136,0.054-0.203c0.006-0.019,0.015-0.038,0.021-0.057c0.021-0.061,0.042-0.121,0.068-0.18
	c0.011-0.026,0.026-0.051,0.038-0.077c0.024-0.052,0.048-0.103,0.076-0.154c0.018-0.033,0.04-0.065,0.06-0.098
	c0.025-0.042,0.049-0.084,0.077-0.124c0.029-0.042,0.062-0.082,0.093-0.123c0.023-0.03,0.044-0.061,0.068-0.09
	c0.058-0.069,0.119-0.137,0.185-0.202c1.051-1.051,2.646-1.115,3.798,0.037C71.737,20.544,71.673,22.139,70.622,23.19z"/>
<linearGradient id="SVGID_11_" gradientUnits="userSpaceOnUse" x1="77.6436" y1="37.6783" x2="84.3553" y2="30.9667">
	<stop  offset="1.065558e-07" style="stop-color:#00F1FB"/>
	<stop  offset="1" style="stop-color:#634EF1"/>
</linearGradient>
<path fill="url(#SVGID_11_)" d="M85.755,34.174c-0.002-0.058-0.004-0.116-0.008-0.174c-0.006-0.083-0.014-0.166-0.024-0.249
	c-0.008-0.064-0.017-0.128-0.027-0.191c-0.013-0.078-0.027-0.155-0.044-0.233c-0.015-0.068-0.032-0.136-0.05-0.204
	c-0.019-0.073-0.039-0.145-0.062-0.217c-0.023-0.072-0.049-0.143-0.075-0.214c-0.025-0.067-0.05-0.134-0.078-0.201
	c-0.032-0.075-0.068-0.148-0.103-0.221c-0.03-0.061-0.059-0.123-0.091-0.183c-0.042-0.077-0.089-0.153-0.136-0.229
	c-0.033-0.054-0.065-0.109-0.101-0.162c-0.057-0.084-0.12-0.166-0.183-0.248c-0.033-0.042-0.062-0.086-0.096-0.127
	c-0.1-0.122-0.207-0.241-0.322-0.355c-1.132-1.132-2.641-1.568-4.067-1.346c-0.009,0.002-0.019,0.003-0.028,0.004
	c-0.104,0.017-0.207,0.036-0.31,0.06c-0.024,0.005-0.048,0.012-0.072,0.018c-0.293,0.072-0.579,0.174-0.857,0.303
	c-0.056,0.026-0.113,0.051-0.168,0.08c-0.061,0.031-0.121,0.066-0.181,0.1c-0.068,0.039-0.135,0.078-0.201,0.12
	c-0.052,0.033-0.104,0.067-0.155,0.102c-0.076,0.053-0.151,0.109-0.225,0.167c-0.04,0.031-0.081,0.061-0.12,0.094
	c-0.112,0.094-0.223,0.192-0.328,0.298c-0.124,0.124-0.237,0.255-0.345,0.388c-0.01,0.012-0.019,0.024-0.029,0.036
	c-0.027,0.035-0.052,0.071-0.078,0.106c-0.076,0.101-0.149,0.204-0.215,0.309c-0.03,0.047-0.058,0.095-0.086,0.143
	c-0.064,0.109-0.123,0.219-0.177,0.331c-0.021,0.042-0.041,0.085-0.06,0.127c-0.06,0.135-0.114,0.272-0.161,0.411
	c-0.007,0.02-0.015,0.04-0.022,0.06c-0.222,0.687-0.283,1.414-0.179,2.125c0,0,0,0,0,0c0.007,0.044,0.011,0.089,0.019,0.133
	c0.01,0.056,0.022,0.112,0.034,0.168c0.017,0.08,0.037,0.159,0.058,0.238c0.015,0.054,0.028,0.108,0.045,0.162
	c0.037,0.12,0.078,0.239,0.125,0.357c0.234,0.583,0.589,1.134,1.071,1.617c1.899,1.899,4.859,1.853,6.712,0
	c0.661-0.661,1.088-1.464,1.283-2.309c0.004-0.018,0.01-0.036,0.014-0.055c0.023-0.106,0.04-0.213,0.056-0.32
	c0.006-0.038,0.013-0.076,0.017-0.114c0.012-0.096,0.018-0.193,0.024-0.29c0.003-0.05,0.007-0.099,0.008-0.149
	C85.759,34.353,85.758,34.263,85.755,34.174z M82.917,36.24c-0.072,0.072-0.148,0.139-0.225,0.202
	c-0.192,0.157-0.398,0.283-0.613,0.38c-0.004,0.002-0.009,0.004-0.013,0.006c-0.055,0.025-0.112,0.045-0.169,0.066
	c-0.021,0.008-0.041,0.016-0.063,0.023c-0.051,0.017-0.102,0.03-0.153,0.044c-0.028,0.007-0.056,0.016-0.084,0.022
	c-0.048,0.011-0.096,0.019-0.144,0.027c-0.032,0.005-0.064,0.011-0.097,0.015c-0.046,0.006-0.092,0.009-0.138,0.013
	c-0.035,0.003-0.07,0.005-0.106,0.006c-0.044,0.001-0.089,0.001-0.133,0c-0.038-0.001-0.076-0.003-0.113-0.005
	c-0.043-0.003-0.085-0.007-0.128-0.013c-0.04-0.005-0.079-0.011-0.119-0.018c-0.041-0.007-0.082-0.015-0.123-0.024
	c-0.041-0.009-0.082-0.02-0.123-0.031c-0.039-0.011-0.079-0.022-0.118-0.035c-0.042-0.014-0.084-0.03-0.126-0.046
	c-0.037-0.014-0.075-0.029-0.112-0.045c-0.044-0.019-0.087-0.041-0.13-0.063c-0.035-0.018-0.07-0.034-0.104-0.054
	c-0.045-0.026-0.09-0.054-0.135-0.083c-0.031-0.02-0.063-0.039-0.094-0.06c-0.049-0.034-0.097-0.072-0.145-0.11
	c-0.025-0.02-0.052-0.038-0.077-0.059c-0.073-0.061-0.144-0.126-0.214-0.195c-0.01-0.01-0.019-0.021-0.029-0.031
	c-0.057-0.059-0.112-0.118-0.163-0.178c-0.031-0.037-0.059-0.076-0.087-0.113c-0.025-0.033-0.052-0.066-0.076-0.1
	c-0.035-0.05-0.066-0.101-0.097-0.151c-0.014-0.022-0.028-0.045-0.041-0.067c-0.032-0.055-0.06-0.112-0.088-0.168
	c-0.006-0.013-0.014-0.026-0.02-0.039l-0.001,0.001c-0.002-0.004-0.003-0.009-0.005-0.013c-0.004-0.008-0.007-0.017-0.011-0.026
	c-0.021-0.046-0.039-0.093-0.057-0.139c-0.116-0.305-0.173-0.619-0.17-0.93c0,0,0,0,0-0.001c0.001-0.083,0.006-0.166,0.016-0.248
	c0.001-0.005,0.002-0.011,0.003-0.016c0.009-0.077,0.021-0.154,0.038-0.23c0.003-0.013,0.007-0.027,0.011-0.04
	c0.016-0.068,0.033-0.136,0.054-0.203c0.006-0.019,0.015-0.038,0.021-0.057c0.021-0.061,0.042-0.121,0.068-0.18
	c0.011-0.026,0.026-0.051,0.038-0.077c0.024-0.052,0.048-0.103,0.076-0.154c0.018-0.033,0.04-0.065,0.06-0.098
	c0.025-0.042,0.049-0.084,0.077-0.124c0.029-0.042,0.062-0.082,0.093-0.123c0.023-0.03,0.044-0.061,0.068-0.09
	c0.058-0.069,0.119-0.137,0.185-0.202c1.051-1.051,2.646-1.115,3.798,0.037C84.033,33.594,83.968,35.189,82.917,36.24z"/>
</svg>
