<?xml version="1.0" encoding="utf-8"?>
<!-- Generator: Adobe Illustrator 24.0.2, SVG Export Plug-In . SVG Version: 6.00 Build 0)  -->
<svg version="1.1" id="Слой_1" xmlns="http://www.w3.org/2000/svg" xmlns:xlink="http://www.w3.org/1999/xlink" x="0px" y="0px"
	 viewBox="0 0 86 40" enable-background="new 0 0 86 40" xml:space="preserve">
<linearGradient id="SVGID_1_" gradientUnits="userSpaceOnUse" x1="46.5429" y1="23.6479" x2="57.7588" y2="35.0173">
	<stop  offset="1.065558e-07" style="stop-color:#00F1FB"/>
	<stop  offset="1" style="stop-color:#634EF1"/>
</linearGradient>
<path fill="url(#SVGID_1_)" d="M47.916,22.294v12.624c0,2.254,1.84,4.082,4.111,4.082c2.27,0,4.111-1.828,4.111-4.082V21.829
	C53.402,22.039,50.661,22.179,47.916,22.294z"/>
<linearGradient id="SVGID_2_" gradientUnits="userSpaceOnUse" x1="13.5374" y1="23.4591" x2="25.285" y2="35.3676">
	<stop  offset="1.065558e-07" style="stop-color:#00F1FB"/>
	<stop  offset="1" style="stop-color:#634EF1"/>
</linearGradient>
<path fill="url(#SVGID_2_)" d="M23.288,19.216c-3.843,3.191-8.684,3.191-8.684,3.191c2.93,0,5.075,1.622,5.075,4.396
	c0,2.772-2.145,4.394-5.075,4.394c-1.754,0-3.272-0.635-4.172-1.697c0.051,0.061,0.138,0.237,0.193,0.294
	c2.431,2.539,3.978,5.735,3.978,9.25c8.632,0,13.446-4.341,13.446-11.038C28.05,24.395,26.376,21.204,23.288,19.216z"/>
<linearGradient id="SVGID_3_" gradientUnits="userSpaceOnUse" x1="4.1972" y1="6.191" x2="15.2302" y2="17.3751">
	<stop  offset="1.065558e-07" style="stop-color:#00F1FB"/>
	<stop  offset="1" style="stop-color:#634EF1"/>
</linearGradient>
<path fill="url(#SVGID_3_)" d="M5.919,19.216c5.256-3.486,12.712-1.47,12.712-6.838c0,2.04-1.672,3.542-4.028,3.542
	c-2.354,0-3.82-1.518-3.82-3.559s1.466-3.559,3.82-3.559c2.047,0,3.418,1.148,3.743,2.788c-0.8-8.177-13.904-10.916-15.712-2.09
	c0.128-0.673,0.319-1.302,0.554-1.898c-0.492,1.246-0.775,2.653-0.775,4.235C2.413,15.134,3.774,17.542,5.919,19.216z"/>
<linearGradient id="SVGID_4_" gradientUnits="userSpaceOnUse" x1="1.9164" y1="7.6926" x2="23.8481" y2="29.9246">
	<stop  offset="1.065558e-07" style="stop-color:#00F1FB"/>
	<stop  offset="1" style="stop-color:#634EF1"/>
</linearGradient>
<path fill="url(#SVGID_4_)" d="M9.529,26.803c0-2.774,2.145-4.396,5.075-4.396c0,0,4.842,0,8.684-3.191
	c2.145-1.674,3.506-4.082,3.506-7.378c0-7.115-5.441-10.882-12.19-10.882c-5.966,0-10.902,2.948-11.97,8.545
	c1.808-8.826,14.912-6.087,15.712,2.09c0.049,0.247,0.077,0.503,0.077,0.77c0,5.368-7.248,3.368-12.504,6.854
	c-3.087,1.988-4.762,5.179-4.762,8.79c0,6.697,4.814,11.038,13.446,11.038l0,0c0-3.516-1.536-6.775-3.968-9.314
	C9.935,28.998,9.529,28.01,9.529,26.803z"/>
<linearGradient id="SVGID_5_" gradientUnits="userSpaceOnUse" x1="44.449" y1="19.4818" x2="53.7791" y2="28.9397">
	<stop  offset="1.065558e-07" style="stop-color:#00F1FB"/>
	<stop  offset="1" style="stop-color:#634EF1"/>
</linearGradient>
<path fill="url(#SVGID_5_)" d="M56.143,23.449v-3.52c0-2.283-1.85-4.133-4.133-4.133c-2.283,0-4.133,1.851-4.133,4.133v3.52h-7.449
	c-1.741,3.436,0.726,7.506,4.577,7.552l0.085,0.001h3.501C52.761,31.002,56.143,27.621,56.143,23.449z"/>
<linearGradient id="SVGID_6_" gradientUnits="userSpaceOnUse" x1="34.972" y1="9.7359" x2="50.5938" y2="25.5716">
	<stop  offset="1.065558e-07" style="stop-color:#00F1FB"/>
	<stop  offset="1" style="stop-color:#634EF1"/>
</linearGradient>
<path fill="url(#SVGID_6_)" d="M41.954,20.436l6.971-13.753C50.244,4.08,48.352,1,45.433,1c-1.475,0-2.825,0.829-3.491,2.145
	L32.309,22.15c-0.433,0.854-0.659,1.798-0.659,2.756c0,2.809,1.914,5.134,4.499,5.838l0.008,0.022
	c0.211,0.057,0.427,0.101,0.644,0.14c0.31,0.049,0.621,0.095,0.945,0.095h7.343l-0.085-0.001c-3.851-0.046-6.318-4.116-4.577-7.552
	L41.954,20.436z"/>
<g>
	<linearGradient id="SVGID_7_" gradientUnits="userSpaceOnUse" x1="73.4282" y1="26.5728" x2="75.3676" y2="28.5456">
		<stop  offset="1.065558e-07" style="stop-color:#00F1FB"/>
		<stop  offset="1" style="stop-color:#634EF1"/>
	</linearGradient>
	<path fill="url(#SVGID_7_)" d="M83.218,20.56L67.399,36.379c-1.294,1.294-2.751,1.936-3.254,1.433l0,0
		c-0.503-0.503,0.139-1.959,1.433-3.254L81.397,18.74c1.294-1.294,2.751-1.936,3.254-1.433l0,0
		C85.154,17.809,84.512,19.266,83.218,20.56z"/>
	<linearGradient id="SVGID_8_" gradientUnits="userSpaceOnUse" x1="76.2311" y1="23.8175" x2="78.1035" y2="25.7223">
		<stop  offset="1.065558e-07" style="stop-color:#00F1FB"/>
		<stop  offset="1" style="stop-color:#634EF1"/>
	</linearGradient>
	<path fill="url(#SVGID_8_)" d="M68.801,31.336L68.801,31.336c1.005,1.005,3.919-0.278,6.508-2.867l7.909-7.909
		c1.294-1.294,1.936-2.751,1.433-3.254l0,0c-0.503-0.503-1.959,0.139-3.254,1.433L68.801,31.336z"/>
	<linearGradient id="SVGID_9_" gradientUnits="userSpaceOnUse" x1="79.4549" y1="20.6485" x2="81.2731" y2="22.4981">
		<stop  offset="1.065558e-07" style="stop-color:#00F1FB"/>
		<stop  offset="1" style="stop-color:#634EF1"/>
	</linearGradient>
	<path fill="url(#SVGID_9_)" d="M75.194,24.942L75.194,24.942c1.005,1.005,3.919-0.278,6.508-2.867l1.516-1.516
		c1.294-1.294,1.936-2.751,1.433-3.254l0,0c-0.503-0.503-1.959,0.139-3.254,1.433L75.194,24.942z"/>
</g>
<linearGradient id="SVGID_10_" gradientUnits="userSpaceOnUse" x1="64.8364" y1="17.8455" x2="71.5023" y2="24.6026">
	<stop  offset="1.065558e-07" style="stop-color:#00F1FB"/>
	<stop  offset="1" style="stop-color:#634EF1"/>
</linearGradient>
<path fill="url(#SVGID_10_)" d="M72.925,21.076c-0.002-0.058-0.004-0.116-0.008-0.174c-0.006-0.083-0.014-0.166-0.024-0.249
	c-0.008-0.064-0.017-0.128-0.027-0.191c-0.013-0.078-0.027-0.155-0.044-0.233c-0.015-0.068-0.032-0.136-0.05-0.204
	c-0.019-0.073-0.039-0.145-0.062-0.217c-0.023-0.072-0.049-0.143-0.075-0.214c-0.025-0.067-0.05-0.134-0.078-0.201
	c-0.032-0.075-0.068-0.148-0.103-0.221c-0.03-0.061-0.059-0.123-0.091-0.184c-0.042-0.077-0.089-0.153-0.136-0.229
	c-0.033-0.054-0.065-0.109-0.101-0.162c-0.057-0.084-0.12-0.166-0.183-0.248c-0.033-0.042-0.062-0.086-0.096-0.127
	c-0.1-0.122-0.207-0.241-0.322-0.355c-1.132-1.132-2.641-1.568-4.067-1.346c-0.009,0.001-0.019,0.003-0.028,0.004
	c-0.104,0.017-0.207,0.036-0.309,0.06c-0.024,0.006-0.048,0.012-0.072,0.018c-0.293,0.072-0.579,0.174-0.857,0.303
	c-0.056,0.026-0.113,0.051-0.168,0.08c-0.061,0.031-0.121,0.066-0.181,0.1c-0.068,0.039-0.135,0.078-0.201,0.12
	c-0.052,0.033-0.104,0.067-0.155,0.103c-0.076,0.053-0.151,0.109-0.225,0.167c-0.04,0.031-0.081,0.061-0.12,0.094
	c-0.112,0.094-0.223,0.192-0.328,0.298c-0.124,0.124-0.237,0.255-0.345,0.388c-0.01,0.012-0.019,0.024-0.029,0.036
	c-0.028,0.035-0.052,0.071-0.078,0.106c-0.076,0.101-0.149,0.204-0.216,0.309c-0.03,0.047-0.058,0.095-0.086,0.143
	c-0.064,0.109-0.123,0.219-0.177,0.331c-0.021,0.042-0.041,0.085-0.06,0.127c-0.06,0.135-0.114,0.272-0.161,0.411
	c-0.007,0.02-0.015,0.04-0.022,0.06c-0.222,0.687-0.283,1.414-0.179,2.125c0,0,0,0,0,0c0.006,0.044,0.011,0.089,0.019,0.133
	c0.01,0.056,0.022,0.112,0.034,0.168c0.017,0.08,0.037,0.159,0.058,0.238c0.015,0.054,0.028,0.108,0.045,0.162
	c0.037,0.12,0.078,0.239,0.125,0.357c0.234,0.583,0.589,1.134,1.071,1.616c1.899,1.899,4.859,1.853,6.712,0
	c0.661-0.661,1.088-1.464,1.283-2.309c0.004-0.018,0.01-0.036,0.014-0.055c0.023-0.106,0.04-0.213,0.056-0.32
	c0.006-0.038,0.013-0.076,0.017-0.114c0.012-0.096,0.018-0.193,0.024-0.29c0.003-0.05,0.007-0.099,0.008-0.149
	C72.929,21.254,72.928,21.165,72.925,21.076z M70.087,23.141c-0.072,0.072-0.148,0.139-0.225,0.202
	c-0.192,0.157-0.398,0.283-0.614,0.38c-0.004,0.002-0.009,0.004-0.013,0.006c-0.055,0.025-0.112,0.045-0.169,0.066
	c-0.021,0.008-0.041,0.016-0.063,0.023c-0.051,0.017-0.102,0.03-0.153,0.044c-0.028,0.007-0.056,0.016-0.084,0.022
	c-0.048,0.011-0.096,0.019-0.144,0.027c-0.032,0.005-0.064,0.011-0.097,0.015c-0.046,0.006-0.092,0.009-0.138,0.013
	c-0.035,0.003-0.07,0.005-0.106,0.006c-0.044,0.001-0.089,0.001-0.133,0c-0.038-0.001-0.076-0.003-0.113-0.005
	c-0.043-0.003-0.085-0.007-0.128-0.013c-0.04-0.005-0.079-0.011-0.118-0.018c-0.041-0.007-0.082-0.015-0.123-0.024
	c-0.041-0.009-0.082-0.02-0.123-0.031c-0.039-0.011-0.079-0.022-0.118-0.035c-0.042-0.014-0.084-0.03-0.126-0.046
	c-0.037-0.014-0.075-0.029-0.112-0.045c-0.044-0.019-0.087-0.041-0.13-0.063c-0.035-0.018-0.07-0.034-0.104-0.054
	c-0.045-0.025-0.09-0.054-0.135-0.083c-0.031-0.02-0.063-0.039-0.094-0.06c-0.049-0.034-0.097-0.072-0.145-0.11
	c-0.025-0.02-0.052-0.038-0.077-0.059c-0.073-0.061-0.144-0.125-0.214-0.195c-0.01-0.01-0.019-0.021-0.029-0.031
	c-0.057-0.058-0.112-0.118-0.163-0.178c-0.031-0.037-0.058-0.076-0.087-0.113c-0.025-0.033-0.052-0.066-0.076-0.1
	c-0.035-0.05-0.066-0.101-0.097-0.151c-0.014-0.022-0.028-0.045-0.041-0.067c-0.032-0.055-0.06-0.112-0.088-0.168
	c-0.006-0.013-0.014-0.026-0.02-0.039l-0.001,0.001c-0.002-0.004-0.003-0.009-0.005-0.013c-0.004-0.008-0.007-0.017-0.011-0.026
	c-0.021-0.046-0.039-0.093-0.057-0.139c-0.116-0.305-0.173-0.619-0.17-0.93c0,0,0,0,0-0.001c0.001-0.083,0.006-0.166,0.016-0.248
	c0.001-0.005,0.002-0.011,0.003-0.016c0.009-0.077,0.021-0.154,0.038-0.23c0.003-0.013,0.007-0.027,0.011-0.04
	c0.016-0.068,0.033-0.136,0.054-0.203c0.006-0.019,0.015-0.038,0.021-0.057c0.021-0.06,0.042-0.121,0.068-0.18
	c0.011-0.026,0.026-0.051,0.038-0.077c0.024-0.052,0.048-0.103,0.076-0.154c0.018-0.033,0.041-0.065,0.06-0.098
	c0.025-0.042,0.049-0.084,0.077-0.124c0.029-0.042,0.062-0.082,0.093-0.123c0.023-0.03,0.044-0.061,0.068-0.09
	c0.058-0.069,0.119-0.137,0.185-0.202c1.051-1.051,2.646-1.115,3.798,0.037C71.203,20.496,71.138,22.091,70.087,23.141z"/>
<linearGradient id="SVGID_11_" gradientUnits="userSpaceOnUse" x1="77.1436" y1="37.6299" x2="83.8553" y2="30.9182">
	<stop  offset="1.065558e-07" style="stop-color:#00F1FB"/>
	<stop  offset="1" style="stop-color:#634EF1"/>
</linearGradient>
<path fill="url(#SVGID_11_)" d="M85.255,34.126c-0.002-0.058-0.004-0.116-0.008-0.174c-0.006-0.083-0.014-0.166-0.024-0.249
	c-0.008-0.064-0.017-0.128-0.027-0.191c-0.013-0.078-0.027-0.155-0.044-0.233c-0.015-0.068-0.032-0.136-0.05-0.204
	c-0.019-0.073-0.039-0.145-0.062-0.217c-0.023-0.072-0.049-0.143-0.075-0.214c-0.025-0.067-0.05-0.134-0.078-0.201
	c-0.032-0.075-0.068-0.148-0.103-0.221c-0.03-0.061-0.059-0.123-0.091-0.183c-0.042-0.078-0.089-0.153-0.136-0.229
	c-0.033-0.054-0.065-0.109-0.101-0.162c-0.057-0.084-0.12-0.166-0.183-0.248c-0.033-0.042-0.062-0.086-0.096-0.127
	c-0.1-0.122-0.207-0.241-0.322-0.355c-1.132-1.132-2.641-1.568-4.067-1.346c-0.009,0.001-0.019,0.003-0.028,0.004
	c-0.104,0.017-0.207,0.036-0.31,0.06c-0.024,0.005-0.048,0.012-0.072,0.018c-0.293,0.072-0.579,0.174-0.857,0.303
	c-0.056,0.026-0.113,0.051-0.168,0.08c-0.061,0.031-0.121,0.066-0.181,0.1c-0.068,0.039-0.135,0.078-0.201,0.12
	c-0.052,0.033-0.104,0.067-0.155,0.102c-0.076,0.053-0.151,0.109-0.225,0.167c-0.04,0.031-0.081,0.061-0.12,0.094
	c-0.112,0.094-0.223,0.192-0.328,0.298c-0.124,0.124-0.237,0.255-0.345,0.388c-0.01,0.012-0.019,0.024-0.029,0.036
	c-0.027,0.035-0.052,0.071-0.078,0.106c-0.076,0.101-0.149,0.204-0.215,0.309c-0.03,0.047-0.058,0.095-0.086,0.143
	c-0.064,0.109-0.123,0.219-0.177,0.331c-0.021,0.042-0.041,0.085-0.06,0.127c-0.06,0.135-0.114,0.272-0.161,0.411
	c-0.007,0.02-0.015,0.04-0.022,0.06c-0.222,0.687-0.283,1.414-0.179,2.125c0,0,0,0,0,0c0.007,0.044,0.011,0.089,0.019,0.133
	c0.01,0.056,0.022,0.112,0.034,0.168c0.017,0.08,0.037,0.159,0.058,0.238c0.015,0.054,0.028,0.108,0.045,0.162
	c0.037,0.12,0.078,0.239,0.125,0.357c0.234,0.583,0.589,1.134,1.071,1.616c1.899,1.899,4.859,1.853,6.712,0
	c0.661-0.661,1.088-1.464,1.283-2.309c0.004-0.018,0.01-0.036,0.014-0.055c0.023-0.106,0.04-0.213,0.056-0.32
	c0.006-0.038,0.013-0.076,0.017-0.114c0.012-0.096,0.018-0.193,0.024-0.29c0.003-0.05,0.007-0.099,0.008-0.149
	C85.259,34.304,85.258,34.215,85.255,34.126z M82.417,36.191c-0.072,0.072-0.148,0.139-0.225,0.202
	c-0.192,0.157-0.398,0.283-0.613,0.38c-0.004,0.002-0.009,0.004-0.013,0.006c-0.055,0.025-0.112,0.045-0.169,0.066
	c-0.021,0.008-0.041,0.016-0.063,0.023c-0.051,0.017-0.102,0.03-0.153,0.044c-0.028,0.007-0.056,0.016-0.084,0.022
	c-0.048,0.011-0.096,0.019-0.144,0.027c-0.032,0.005-0.064,0.011-0.097,0.015c-0.046,0.006-0.092,0.009-0.138,0.013
	c-0.035,0.003-0.07,0.005-0.106,0.006c-0.044,0.001-0.089,0.001-0.133,0c-0.038-0.001-0.076-0.003-0.113-0.005
	c-0.043-0.003-0.085-0.007-0.128-0.013c-0.04-0.005-0.079-0.011-0.119-0.018c-0.041-0.007-0.082-0.015-0.123-0.024
	c-0.041-0.009-0.082-0.02-0.123-0.031c-0.039-0.011-0.079-0.022-0.118-0.035c-0.042-0.014-0.084-0.03-0.126-0.046
	c-0.037-0.014-0.075-0.029-0.112-0.045c-0.044-0.019-0.087-0.041-0.13-0.063c-0.035-0.018-0.07-0.034-0.104-0.054
	c-0.045-0.025-0.09-0.054-0.135-0.083c-0.031-0.02-0.063-0.039-0.094-0.06c-0.049-0.034-0.097-0.072-0.145-0.11
	c-0.025-0.02-0.052-0.038-0.077-0.059c-0.073-0.061-0.144-0.125-0.214-0.195c-0.01-0.01-0.019-0.021-0.029-0.031
	c-0.057-0.059-0.112-0.118-0.163-0.178c-0.031-0.037-0.059-0.076-0.087-0.113c-0.025-0.033-0.052-0.066-0.076-0.1
	c-0.035-0.05-0.066-0.101-0.097-0.151c-0.014-0.023-0.028-0.045-0.041-0.067c-0.032-0.056-0.06-0.112-0.088-0.168
	c-0.006-0.013-0.014-0.026-0.02-0.039l-0.001,0.001c-0.002-0.004-0.003-0.009-0.005-0.013c-0.004-0.008-0.007-0.017-0.011-0.026
	c-0.021-0.046-0.039-0.093-0.057-0.139c-0.116-0.305-0.173-0.619-0.17-0.93c0,0,0,0,0-0.001c0.001-0.083,0.006-0.166,0.016-0.248
	c0.001-0.005,0.002-0.011,0.003-0.016c0.009-0.077,0.021-0.154,0.038-0.23c0.003-0.013,0.007-0.027,0.011-0.04
	c0.016-0.068,0.033-0.136,0.054-0.203c0.006-0.019,0.015-0.038,0.021-0.057c0.021-0.06,0.042-0.121,0.068-0.18
	c0.011-0.026,0.026-0.051,0.038-0.077c0.024-0.052,0.048-0.103,0.076-0.154c0.018-0.033,0.04-0.065,0.06-0.098
	c0.025-0.042,0.049-0.084,0.077-0.124c0.029-0.042,0.062-0.082,0.093-0.123c0.023-0.03,0.044-0.061,0.068-0.09
	c0.058-0.069,0.119-0.137,0.185-0.202c1.051-1.051,2.646-1.115,3.798,0.037C83.533,33.546,83.468,35.141,82.417,36.191z"/>
</svg>
