<?xml version="1.0" encoding="utf-8"?>
<!-- Generator: Adobe Illustrator 24.0.2, SVG Export Plug-In . SVG Version: 6.00 Build 0)  -->
<svg version="1.1" id="Слой_1" xmlns="http://www.w3.org/2000/svg" xmlns:xlink="http://www.w3.org/1999/xlink" x="0px" y="0px"
	 viewBox="0 0 500 500" enable-background="new 0 0 500 500" xml:space="preserve">
<polygon fill="#ECE4D5" points="92.231,268.644 391.611,268.644 391.611,242.485 238.634,161.068 92.231,241.878 "/>
<ellipse opacity="0.2" fill="#231F20" cx="250" cy="465.609" rx="213.35" ry="9.391"/>
<rect x="124.143" y="282.464" fill="#545E67" width="233.675" height="153.234"/>
<rect x="89.18" y="272.187" fill="#9F9486" width="307.096" height="17.199"/>
<rect x="85.403" y="263.166" fill="#ECE4D5" width="314.647" height="17.62"/>
<rect x="85.403" y="263.166" fill="#9F9486" width="314.647" height="5.478"/>
<rect x="89.18" y="429.09" fill="#9F9486" width="307.096" height="17.198"/>
<rect x="85.403" y="437.688" fill="#ECE4D5" width="314.647" height="17.623"/>
<rect x="80.788" y="446.243" fill="#545E67" width="323.877" height="18.133"/>
<g>
	<g>
		<rect x="118.233" y="291.875" fill="#545E67" width="16.544" height="12.053"/>
		<g>
			<g>
				<polygon fill="#ECE4D5" points="115.438,299.444 113.528,401.464 139.558,401.464 137.74,299.431 				"/>
				<polygon fill="#9F9486" points="138.994,407.841 145.189,409.471 145.189,425.54 108.248,425.54 108.248,409.471 
					114.418,407.873 				"/>
				<polygon fill="#F9E8D2" points="145.066,409.405 138.994,406.136 114.418,406.164 108.373,409.405 				"/>
				<rect x="124.143" y="291.64" fill="#9F9486" width="4.809" height="7.797"/>
				<rect x="132.369" y="291.64" fill="#9F9486" width="4.815" height="7.797"/>
				<rect x="113.043" y="288.599" fill="#9F9486" width="26.934" height="4.802"/>
				<path fill="#9F9486" d="M141.185,405.04c0,0.811-0.843,1.474-1.886,1.474h-25.161c-1.043,0-1.886-0.662-1.886-1.474l0,0
					c0-0.808,0.843-1.464,1.886-1.464h25.161C140.342,403.575,141.185,404.231,141.185,405.04L141.185,405.04z"/>
				<path fill="#9F9486" d="M141.185,402.284c0,0.808-0.843,1.464-1.886,1.464h-25.161c-1.043,0-1.886-0.656-1.886-1.464l0,0
					c0-0.811,0.843-1.473,1.886-1.473h25.161C140.342,400.811,141.185,401.473,141.185,402.284L141.185,402.284z"/>
				<path fill="#9F9486" d="M113.542,400.908c-0.745,0.195-1.29,0.726-1.29,1.376c0,0.653,0.562,1.191,1.323,1.38
					c-0.761,0.185-1.323,0.723-1.323,1.376c0,0.732,0.702,1.315,1.604,1.425l-5.483,2.939h0.131l-0.256,0.067v16.068h18.439V290.35
					h-13.643v3.051h2.139L113.542,400.908z"/>
			</g>
			<path fill="#645E3E" d="M121.276,295.539"/>
		</g>
		<rect x="118.962" y="293.401" fill="#545E67" width="3.417" height="6.036"/>
	</g>
	<rect x="100.716" y="413.807" fill="#9F9486" width="51.394" height="18.941"/>
</g>
<g>
	<g>
		<rect x="194.52" y="291.875" fill="#545E67" width="16.545" height="12.053"/>
		<g>
			<g>
				<polygon fill="#ECE4D5" points="191.727,299.444 189.817,401.464 215.848,401.464 214.029,299.431 				"/>
				<polygon fill="#9F9486" points="215.283,407.841 221.479,409.471 221.479,425.54 184.538,425.54 184.538,409.471 
					190.706,407.873 				"/>
				<polygon fill="#F9E8D2" points="221.354,409.405 215.283,406.136 190.706,406.164 184.662,409.405 				"/>
				<rect x="200.432" y="291.64" fill="#9F9486" width="4.808" height="7.797"/>
				<rect x="208.658" y="291.64" fill="#9F9486" width="4.816" height="7.797"/>
				<rect x="189.332" y="288.599" fill="#9F9486" width="26.935" height="4.802"/>
				<path fill="#9F9486" d="M217.473,405.04c0,0.811-0.843,1.474-1.885,1.474h-25.16c-1.044,0-1.887-0.662-1.887-1.474l0,0
					c0-0.808,0.843-1.464,1.887-1.464h25.16C216.63,403.575,217.473,404.231,217.473,405.04L217.473,405.04z"/>
				<path fill="#9F9486" d="M217.473,402.284c0,0.808-0.843,1.464-1.885,1.464h-25.16c-1.044,0-1.887-0.656-1.887-1.464l0,0
					c0-0.811,0.843-1.473,1.887-1.473h25.16C216.63,400.811,217.473,401.473,217.473,402.284L217.473,402.284z"/>
				<path fill="#9F9486" d="M189.831,400.908c-0.744,0.195-1.29,0.726-1.29,1.376c0,0.653,0.561,1.191,1.322,1.38
					c-0.761,0.185-1.322,0.723-1.322,1.376c0,0.732,0.702,1.315,1.604,1.425l-5.483,2.939h0.131l-0.255,0.067v16.068h18.439V290.35
					h-13.645v3.051h2.14L189.831,400.908z"/>
			</g>
			<path fill="#645E3E" d="M197.566,295.539"/>
		</g>
		<rect x="195.249" y="293.401" fill="#545E67" width="3.419" height="6.036"/>
	</g>
	<rect x="177.005" y="413.807" fill="#9F9486" width="51.392" height="18.941"/>
</g>
<g>
	<rect x="270.81" y="291.875" fill="#545E67" width="16.546" height="12.053"/>
	<g>
		<g>
			<polygon fill="#ECE4D5" points="268.016,299.444 266.107,401.464 292.137,401.464 290.319,299.431 			"/>
			<polygon fill="#9F9486" points="291.572,407.841 297.769,409.471 297.769,425.54 260.827,425.54 260.827,409.471 
				266.997,407.873 			"/>
			<polygon fill="#F9E8D2" points="297.643,409.405 291.572,406.136 266.997,406.164 260.953,409.405 			"/>
			<rect x="276.721" y="291.64" fill="#9F9486" width="4.808" height="7.797"/>
			<rect x="284.948" y="291.64" fill="#9F9486" width="4.814" height="7.797"/>
			<rect x="265.621" y="288.599" fill="#9F9486" width="26.937" height="4.802"/>
			<path fill="#9F9486" d="M293.762,405.04c0,0.811-0.841,1.474-1.886,1.474h-25.16c-1.042,0-1.885-0.662-1.885-1.474l0,0
				c0-0.808,0.842-1.464,1.885-1.464h25.16C292.921,403.575,293.762,404.231,293.762,405.04L293.762,405.04z"/>
			<path fill="#9F9486" d="M293.762,402.284c0,0.808-0.841,1.464-1.886,1.464h-25.16c-1.042,0-1.885-0.656-1.885-1.464l0,0
				c0-0.811,0.842-1.473,1.885-1.473h25.16C292.921,400.811,293.762,401.473,293.762,402.284L293.762,402.284z"/>
			<path fill="#9F9486" d="M266.12,400.908c-0.744,0.195-1.289,0.726-1.289,1.376c0,0.653,0.561,1.191,1.321,1.38
				c-0.759,0.185-1.321,0.723-1.321,1.376c0,0.732,0.7,1.315,1.602,1.425l-5.48,2.939h0.129l-0.255,0.067v16.068h18.439V290.35
				h-13.645v3.051h2.138L266.12,400.908z"/>
		</g>
		<path fill="#645E3E" d="M273.855,295.539"/>
	</g>
	<rect x="271.539" y="293.401" fill="#545E67" width="3.419" height="6.036"/>
</g>
<rect x="253.295" y="413.807" fill="#9F9486" width="51.392" height="18.941"/>
<g>
	<g>
		<rect x="347.097" y="291.875" fill="#545E67" width="16.546" height="12.053"/>
		<g>
			<g>
				<polygon fill="#ECE4D5" points="344.306,299.444 342.396,401.464 368.425,401.464 366.608,299.431 				"/>
				<polygon fill="#9F9486" points="367.86,407.841 374.056,409.471 374.056,425.54 337.116,425.54 337.116,409.471 
					343.284,407.873 				"/>
				<polygon fill="#F9E8D2" points="373.931,409.405 367.86,406.136 343.284,406.164 337.241,409.405 				"/>
				<rect x="353.011" y="291.64" fill="#9F9486" width="4.807" height="7.797"/>
				<rect x="361.236" y="291.64" fill="#9F9486" width="4.815" height="7.797"/>
				<rect x="341.91" y="288.599" fill="#9F9486" width="26.936" height="4.802"/>
				<path fill="#9F9486" d="M370.052,405.04c0,0.811-0.843,1.474-1.889,1.474h-25.158c-1.043,0-1.886-0.662-1.886-1.474l0,0
					c0-0.808,0.843-1.464,1.886-1.464h25.158C369.209,403.575,370.052,404.231,370.052,405.04L370.052,405.04z"/>
				<path fill="#9F9486" d="M370.052,402.284c0,0.808-0.843,1.464-1.889,1.464h-25.158c-1.043,0-1.886-0.656-1.886-1.464l0,0
					c0-0.811,0.843-1.473,1.886-1.473h25.158C369.209,400.811,370.052,401.473,370.052,402.284L370.052,402.284z"/>
				<path fill="#9F9486" d="M342.408,400.908c-0.744,0.195-1.289,0.726-1.289,1.376c0,0.653,0.56,1.191,1.322,1.38
					c-0.762,0.185-1.322,0.723-1.322,1.376c0,0.732,0.702,1.315,1.602,1.425l-5.48,2.939h0.13l-0.255,0.067v16.068h18.439V290.35
					H341.91v3.051h2.139L342.408,400.908z"/>
			</g>
			<path fill="#645E3E" d="M350.143,295.539"/>
		</g>
		<rect x="347.828" y="293.401" fill="#545E67" width="3.418" height="6.036"/>
	</g>
	<rect x="329.582" y="413.807" fill="#9F9486" width="51.392" height="18.941"/>
</g>
<rect x="151.794" y="310.538" fill="#9F9486" width="24.334" height="33.771"/>
<rect x="154.103" y="313.106" fill="#ECE4D5" width="19.718" height="28.632"/>
<rect x="151.794" y="359.082" fill="#9F9486" width="24.334" height="33.769"/>
<rect x="154.103" y="361.65" fill="#ECE4D5" width="19.718" height="28.634"/>
<rect x="228.791" y="310.538" fill="#9F9486" width="24.332" height="33.771"/>
<rect x="231.098" y="313.106" fill="#ECE4D5" width="19.719" height="28.632"/>
<rect x="228.791" y="359.082" fill="#9F9486" width="24.332" height="33.769"/>
<rect x="231.098" y="361.65" fill="#ECE4D5" width="19.719" height="28.634"/>
<rect x="305.787" y="310.538" fill="#9F9486" width="24.332" height="33.771"/>
<rect x="308.094" y="313.106" fill="#ECE4D5" width="19.719" height="28.632"/>
<rect x="305.787" y="359.082" fill="#9F9486" width="24.332" height="33.769"/>
<rect x="308.094" y="361.65" fill="#ECE4D5" width="19.719" height="28.634"/>
<path fill="#ECAD00" d="M444.682,111.317c11.542,22.1,2.984,49.374-19.118,60.917c-22.099,11.542-49.374,2.981-60.916-19.119
	c-11.542-22.101-2.984-49.376,19.117-60.918C405.867,80.656,433.14,89.216,444.682,111.317z"/>
<linearGradient id="SVGID_1_" gradientUnits="userSpaceOnUse" x1="359.5103" y1="132.2161" x2="449.8203" y2="132.2161">
	<stop  offset="0" style="stop-color:#00F1FB"/>
	<stop  offset="1" style="stop-color:#634EF1"/>
</linearGradient>
<path fill="url(#SVGID_1_)" d="M444.682,111.317c11.542,22.1,2.984,49.374-19.118,60.917c-22.099,11.542-49.374,2.981-60.916-19.119
	c-11.542-22.101-2.984-49.376,19.117-60.918C405.867,80.656,433.14,89.216,444.682,111.317z"/>
<path fill="#FFFFFF" d="M438.353,114.622c9.716,18.605,2.511,41.564-16.095,51.281c-18.606,9.717-41.565,2.511-51.282-16.092
	c-9.716-18.605-2.512-41.565,16.093-51.282C405.678,88.812,428.637,96.018,438.353,114.622z"/>
<path fill="#ECAD00" d="M362.515,86.281c-8.904,23.289-35.003,34.952-58.293,26.049c-23.289-8.905-34.95-35.003-26.045-58.293
	c8.904-23.289,35.001-34.952,58.291-26.048C359.756,36.893,371.418,62.993,362.515,86.281z"/>
<linearGradient id="SVGID_2_" gradientUnits="userSpaceOnUse" x1="275.1874" y1="70.1591" x2="365.5036" y2="70.1591">
	<stop  offset="0" style="stop-color:#00F1FB"/>
	<stop  offset="1" style="stop-color:#634EF1"/>
</linearGradient>
<path fill="url(#SVGID_2_)" d="M362.515,86.281c-8.904,23.289-35.003,34.952-58.293,26.049
	c-23.289-8.905-34.95-35.003-26.045-58.293c8.904-23.289,35.001-34.952,58.291-26.048C359.756,36.893,371.418,62.993,362.515,86.281
	z"/>
<path fill="#FFFFFF" d="M355.846,83.731c-7.496,19.605-29.466,29.422-49.074,21.926c-19.607-7.495-29.422-29.466-21.928-49.071
	c7.497-19.605,29.467-29.422,49.073-21.926C353.524,42.157,363.341,64.127,355.846,83.731z"/>
<rect x="307.617" y="151.753" transform="matrix(0.4695 -0.883 0.883 0.4695 -20.9407 387.0968)" fill="#545E67" width="8.057" height="118.441"/>
<polygon fill="#9F9486" points="370.821,239.684 258.595,179.97 260.304,176.96 372.525,236.671 "/>
<polygon fill="#9F9486" points="360.062,242.325 364.732,233.971 371.879,237.773 366.647,247.192 "/>
<polygon fill="#9F9486" points="254.944,186.528 259.614,178.175 266.762,181.977 261.529,191.395 "/>
<path fill="#ECAD00" d="M367.231,188.121c2.388,24.857-15.827,46.94-40.681,49.326c-24.857,2.386-46.941-15.83-49.327-40.685
	c-2.385-24.856,15.83-46.94,40.687-49.326C342.763,145.05,364.845,163.267,367.231,188.121z"/>
<linearGradient id="SVGID_3_" gradientUnits="userSpaceOnUse" x1="277.0123" y1="192.4419" x2="367.4409" y2="192.4419">
	<stop  offset="0" style="stop-color:#00F1FB"/>
	<stop  offset="1" style="stop-color:#634EF1"/>
</linearGradient>
<path fill="url(#SVGID_3_)" d="M367.231,188.121c2.388,24.857-15.827,46.94-40.681,49.326c-24.857,2.386-46.941-15.83-49.327-40.685
	c-2.385-24.856,15.83-46.94,40.687-49.326C342.763,145.05,364.845,163.267,367.231,188.121z"/>
<path fill="#FFFFFF" d="M360.115,188.805c2.011,20.924-13.324,39.513-34.25,41.521c-20.925,2.009-39.517-13.324-41.525-34.247
	c-2.008-20.924,13.324-39.514,34.25-41.523C339.514,152.548,358.107,167.882,360.115,188.805z"/>
<rect x="306.346" y="156.275" transform="matrix(0.4695 -0.883 0.883 0.4695 -30.2681 389.736)" fill="#ECE4D5" width="5.663" height="127.559"/>
<polygon fill="#9F9486" points="119.626,258.783 104.308,258.783 117.801,251.701 238.599,185.025 363.826,251.674 377.607,258.783 
	362.051,258.783 "/>
<polygon fill="#545E67" points="119.626,255.007 238.631,189.321 362.051,255.007 "/>
<polygon fill="#9F9486" points="366.315,247.749 254.089,188.035 255.797,185.025 368.019,244.737 "/>
<linearGradient id="SVGID_4_" gradientUnits="userSpaceOnUse" x1="324.892" y1="131.4853" x2="348.2986" y2="131.4853" gradientTransform="matrix(0.9092 0.4164 -0.4164 0.9092 59.5192 -75.3504)">
	<stop  offset="0" style="stop-color:#00F1FB"/>
	<stop  offset="1" style="stop-color:#634EF1"/>
</linearGradient>
<path fill="url(#SVGID_4_)" d="M318.193,186.763c1.735-0.885,3.203-2.326,4.088-4.224c2.11-4.525,0.145-9.923-4.38-12.033
	l-11.048-5.152l-2.127,4.562l4.562,2.127l2.549,1.189l3.937,1.836c2.01,0.937,2.882,3.335,1.945,5.344
	c-0.937,2.01-3.335,2.882-5.344,1.945l-6.486-3.025l3.013-6.462l-4.562-2.127l-5.141,11.024l0,0l-5.526,11.851l4.562,2.127
	l2.127-4.562l0.608-1.303l2.791-5.986l3.047,1.421l3.439,1.604c0,0,0,0,0,0l1.903,0.887c2.01,0.937,2.882,3.335,1.945,5.344
	c-0.937,2.009-3.334,2.882-5.344,1.945l-7.562-3.526l-2.127,4.562l7.562,3.526c4.525,2.11,9.923,0.145,12.033-4.38
	C319.98,192.441,319.7,189.261,318.193,186.763z"/>
<g>
	
		<linearGradient id="SVGID_5_" gradientUnits="userSpaceOnUse" x1="350.6109" y1="121.7748" x2="376.9189" y2="121.7748" gradientTransform="matrix(0.9063 0.4226 -0.4226 0.9063 61.3807 -74.9741)">
		<stop  offset="0" style="stop-color:#00F1FB"/>
		<stop  offset="1" style="stop-color:#634EF1"/>
	</linearGradient>
	<path fill="url(#SVGID_5_)" d="M329.603,192.945c2.546-4.755,8.406-6.761,13.353-4.454c1.915,0.893,3.494,2.356,4.537,4.158
		c0.673,1.163,2.042,1.726,3.326,1.327l0,0c1.729-0.538,2.54-2.542,1.64-4.114c-1.622-2.833-4.094-5.133-7.096-6.532
		c-7.794-3.635-17.056-0.4-20.933,7.201L329.603,192.945z"/>
	
		<linearGradient id="SVGID_6_" gradientUnits="userSpaceOnUse" x1="350.6109" y1="138.2871" x2="376.9189" y2="138.2871" gradientTransform="matrix(0.9063 0.4226 -0.4226 0.9063 61.3807 -74.9741)">
		<stop  offset="0" style="stop-color:#00F1FB"/>
		<stop  offset="1" style="stop-color:#634EF1"/>
	</linearGradient>
	<path fill="url(#SVGID_6_)" d="M334.293,207.069c-4.947-2.307-7.178-8.085-5.172-13.092l-5.173-2.412
		c-3.331,7.856,0.145,17.03,7.939,20.665c3.002,1.4,6.353,1.815,9.565,1.237c1.782-0.321,2.796-2.23,2.097-3.9l0,0
		c-0.519-1.24-1.831-1.927-3.154-1.694C338.344,208.231,336.208,207.962,334.293,207.069z"/>
</g>
<linearGradient id="SVGID_7_" gradientUnits="userSpaceOnUse" x1="290.826" y1="60.9454" x2="314.2326" y2="60.9454" gradientTransform="matrix(1 -0.0068 0.0068 1 3.4003 10.7252)">
	<stop  offset="0" style="stop-color:#00F1FB"/>
	<stop  offset="1" style="stop-color:#634EF1"/>
</linearGradient>
<path fill="url(#SVGID_7_)" d="M314.066,68.655c1.198-1.536,1.92-3.461,1.92-5.556c0-4.993-4.062-9.055-9.055-9.055l-12.19,0v5.034
	l5.034,0l2.813,0l4.344,0c2.217,0,4.021,1.804,4.021,4.021c0,2.218-1.804,4.022-4.021,4.022l-7.157,0l0-7.13l-5.034,0l0,12.164l0,0
	v13.076l5.034,0l0-5.034l0-1.438l0-6.605l3.362,0h3.794c0,0,0,0,0,0l2.1,0c2.217,0,4.021,1.804,4.021,4.022
	c0,2.217-1.804,4.021-4.021,4.021l-8.344,0v5.034l8.344,0c4.993,0,9.055-4.062,9.055-9.055
	C318.086,73.045,316.488,70.282,314.066,68.655z"/>
<g>
	
		<linearGradient id="SVGID_8_" gradientUnits="userSpaceOnUse" x1="316.0649" y1="51.4688" x2="342.3729" y2="51.4688" gradientTransform="matrix(1 0 0 1 5.2464 10.2795)">
		<stop  offset="0" style="stop-color:#00F1FB"/>
		<stop  offset="1" style="stop-color:#634EF1"/>
	</linearGradient>
	<path fill="url(#SVGID_8_)" d="M327.02,69.435c0.298-5.386,4.761-9.68,10.22-9.68c2.113,0,4.163,0.659,5.869,1.852
		c1.102,0.77,2.581,0.702,3.575-0.203l0,0c1.34-1.218,1.227-3.377-0.252-4.421c-2.667-1.882-5.88-2.922-9.192-2.922
		c-8.6,0-15.627,6.846-15.928,15.373L327.02,69.435z"/>
	
		<linearGradient id="SVGID_9_" gradientUnits="userSpaceOnUse" x1="316.0649" y1="67.9811" x2="342.3729" y2="67.9811" gradientTransform="matrix(1 0 0 1 5.2464 10.2795)">
		<stop  offset="0" style="stop-color:#00F1FB"/>
		<stop  offset="1" style="stop-color:#634EF1"/>
	</linearGradient>
	<path fill="url(#SVGID_9_)" d="M337.24,80.253c-5.459,0-9.922-4.294-10.22-9.68h-5.708c0.301,8.528,7.328,15.373,15.928,15.374
		c3.312,0,6.525-1.04,9.192-2.921c1.48-1.044,1.592-3.203,0.252-4.421l0,0c-0.994-0.904-2.473-0.973-3.575-0.203
		C341.402,79.595,339.352,80.253,337.24,80.253z"/>
</g>
<linearGradient id="SVGID_10_" gradientUnits="userSpaceOnUse" x1="372.6282" y1="124.4319" x2="396.0348" y2="124.4319" gradientTransform="matrix(0.9543 -0.2989 0.2989 0.9543 -13.3217 131.7064)">
	<stop  offset="0" style="stop-color:#00F1FB"/>
	<stop  offset="1" style="stop-color:#634EF1"/>
</linearGradient>
<path fill="url(#SVGID_10_)" d="M397.745,132.41c0.697-1.819,0.824-3.871,0.212-5.874c-1.46-4.774-6.532-7.471-11.307-6.012
	l-11.658,3.564l1.472,4.814l4.814-1.472l2.69-0.822l4.154-1.27c2.12-0.648,4.373,0.549,5.021,2.67
	c0.648,2.121-0.549,4.373-2.67,5.022l-6.844,2.092l-2.085-6.819l-4.814,1.472l3.556,11.632l0,0l3.823,12.505l4.814-1.472
	l-1.472-4.814l-0.42-1.375l-1.931-6.316l3.215-0.983l3.628-1.109c0,0,0,0,0,0l2.008-0.614c2.12-0.648,4.373,0.55,5.022,2.67
	c0.648,2.12-0.55,4.373-2.67,5.021l-7.979,2.439l1.472,4.814l7.979-2.439c4.775-1.46,7.472-6.532,6.012-11.307
	C402.873,135.433,400.537,133.258,397.745,132.41z"/>
<g>
	
		<linearGradient id="SVGID_11_" gradientUnits="userSpaceOnUse" x1="398.298" y1="114.3963" x2="424.606" y2="114.3963" gradientTransform="matrix(0.9563 -0.2924 0.2924 0.9563 -11.6865 130.7404)">
		<stop  offset="0" style="stop-color:#00F1FB"/>
		<stop  offset="1" style="stop-color:#634EF1"/>
	</linearGradient>
	<path fill="url(#SVGID_11_)" d="M410.36,129.369c-1.29-5.238,1.723-10.649,6.944-12.245c2.02-0.618,4.173-0.587,6.154,0.055
		c1.279,0.414,2.673-0.084,3.359-1.239l0,0c0.925-1.557,0.186-3.589-1.534-4.154c-3.101-1.02-6.477-1.075-9.644-0.106
		c-8.224,2.514-12.943,11.115-10.738,19.359L410.36,129.369z"/>
	
		<linearGradient id="SVGID_12_" gradientUnits="userSpaceOnUse" x1="398.298" y1="130.9085" x2="424.606" y2="130.9085" gradientTransform="matrix(0.9563 -0.2924 0.2924 0.9563 -11.6865 130.7404)">
		<stop  offset="0" style="stop-color:#00F1FB"/>
		<stop  offset="1" style="stop-color:#634EF1"/>
	</linearGradient>
	<path fill="url(#SVGID_12_)" d="M423.297,136.727c-5.22,1.596-10.744-1.205-12.604-6.269l-5.459,1.669
		c2.781,8.067,11.503,12.559,19.727,10.045c3.167-0.968,5.935-2.902,7.936-5.481c1.11-1.431,0.586-3.528-1.051-4.302l0,0
		c-1.215-0.574-2.65-0.207-3.478,0.851C427.085,134.88,425.317,136.109,423.297,136.727z"/>
</g>
<path fill="#ECE4D5" d="M223.037,241.019c-0.274,0-0.494,0.227-0.494,0.506v5.625c0,0.281,0.22,0.506,0.494,0.506h30.941
	c0.271,0,0.489-0.225,0.489-0.506v-5.625c0-0.279-0.218-0.506-0.489-0.506H223.037"/>
<path fill="#ECE4D5" d="M253.284,230.519c-0.263-0.723-9.058-24.808-9.436-25.835c-0.889-2.428-1.953-4.854-5.34-4.854
	c-3.384,0-4.489,2.465-5.345,4.854c-0.444,1.232-9.105,24.931-9.429,25.835c-0.093,0.252,0.027,0.55,0.29,0.651
	c0.271,0.105,4.862,1.883,5.13,1.99c0.267,0.107,0.541-0.055,0.628-0.296c0.088-0.241,2.003-5.501,2.216-6.089
	c0.629,0,12.402,0,13.031,0c0.214,0.588,2.108,5.839,2.202,6.089c0.094,0.25,0.377,0.391,0.631,0.296
	c0.252-0.094,4.823-1.873,5.135-1.99C253.309,231.05,253.357,230.718,253.284,230.519z M234.075,220.927l4.407-13.231h0.055
	l4.421,13.231H234.075z"/>
</svg>
