<?xml version="1.0" encoding="utf-8"?>
<!-- Generator: Adobe Illustrator 24.0.2, SVG Export Plug-In . SVG Version: 6.00 Build 0)  -->
<svg version="1.1" id="Слой_1" xmlns="http://www.w3.org/2000/svg" xmlns:xlink="http://www.w3.org/1999/xlink" x="0px" y="0px"
	 viewBox="0 0 500 500" enable-background="new 0 0 500 500" xml:space="preserve">
<ellipse transform="matrix(0.0595 -0.9982 0.9982 0.0595 -20.6541 239.1755)" fill="#D4DEFF" cx="116.606" cy="130.549" rx="15.042" ry="15.042"/>
<g>
	<path fill="#D4DEFF" d="M73.062,209.011l-12.69-14.252c0,0,4.668-10.004,18.372-10.36c8.495-0.22,15.998-8.783,15.998-8.783
		l12.757,14.328c0,0-8.255,11.742-17.97,11.83C79.255,201.866,73.062,209.011,73.062,209.011z"/>
	<path fill="#E3EAFF" d="M91.196,189.336c1.331,3.671-1.062,7.906-5.345,9.458c-4.283,1.553-8.834-0.165-10.165-3.836
		c-1.331-3.671,1.062-7.906,5.345-9.458C85.314,183.948,89.865,185.665,91.196,189.336z"/>
</g>
<g>
	<path fill="#D4DEFF" d="M469.901,225.234l-6.136-18.07c0,0-11.005-0.876-18.075,10.869c-4.383,7.28-15.533,9.582-15.533,9.582
		l6.168,18.166c0,0,14.287-1.387,19.156-9.794C460.631,227.096,469.901,225.234,469.901,225.234z"/>
	<path fill="#E3EAFF" d="M443.841,231.3c2.537,2.969,7.401,2.976,10.864,0.017c3.464-2.959,4.215-7.765,1.679-10.734
		c-2.537-2.969-7.401-2.976-10.864-0.017C442.056,223.525,441.305,228.331,443.841,231.3z"/>
</g>
<path fill="#95A6DB" d="M463.612,422.654H15.599c-1.23,0-2.228-0.997-2.228-2.228v-0.425c0-1.23,0.997-2.228,2.228-2.228h448.014
	c1.23,0,2.227,0.997,2.227,2.228v0.425C465.84,421.656,464.843,422.654,463.612,422.654z"/>
<path fill="#2C2858" d="M189.521,417.641l-72.701,0.046c-11.467,0.007-20.768-9.283-20.776-20.75l-0.113-177.91
	c-0.007-11.467,9.283-20.769,20.75-20.776l72.701-0.046c11.467-0.007,20.769,9.283,20.776,20.75l0.113,177.91
	C210.277,408.332,200.987,417.634,189.521,417.641z"/>
<path fill="#FFFFFF" d="M190.27,414.085l-74.204,0.047c-8.064,0.005-14.604-6.528-14.61-14.591l-0.115-181.807
	c-0.005-8.063,6.528-14.605,14.591-14.61l74.204-0.047c8.064-0.005,14.604,6.528,14.61,14.591l0.115,181.807
	C204.866,407.539,198.334,414.08,190.27,414.085z"/>
<path fill="#2C2858" d="M95.258,256.422L95.258,256.422c-1.789,0-3.239-1.45-3.239-3.239v-16.796c0-1.789,1.45-3.239,3.239-3.239
	l0,0c1.789,0,3.24,1.45,3.24,3.239v16.796C98.498,254.971,97.047,256.422,95.258,256.422z"/>
<path fill="#2C2858" d="M210.78,256.422L210.78,256.422c-1.789,0-3.24-1.45-3.24-3.239v-16.796c0-1.789,1.45-3.239,3.24-3.239l0,0
	c1.789,0,3.239,1.45,3.239,3.239v16.796C214.019,254.971,212.569,256.422,210.78,256.422z"/>
<path fill="#2C2858" d="M386.267,417.641l-72.702,0.046c-11.467,0.007-20.768-9.283-20.776-20.75l-0.113-177.91
	c-0.007-11.467,9.283-20.769,20.75-20.776l72.701-0.046c11.467-0.007,20.768,9.283,20.776,20.75l0.113,177.91
	C407.023,408.332,397.734,417.634,386.267,417.641z"/>
<path fill="#FFFFFF" d="M387.016,414.085l-74.204,0.047c-8.064,0.005-14.605-6.528-14.61-14.591l-0.115-181.807
	c-0.005-8.063,6.527-14.605,14.591-14.61l74.204-0.047c8.064-0.005,14.605,6.528,14.61,14.591l0.115,181.807
	C401.612,407.539,395.079,414.08,387.016,414.085z"/>
<path fill="#2C2858" d="M292.004,256.422L292.004,256.422c-1.789,0-3.24-1.45-3.24-3.239v-16.796c0-1.789,1.45-3.239,3.24-3.239l0,0
	c1.789,0,3.24,1.45,3.24,3.239v16.796C295.244,254.971,293.794,256.422,292.004,256.422z"/>
<path fill="#2C2858" d="M407.526,256.422L407.526,256.422c-1.789,0-3.24-1.45-3.24-3.239v-16.796c0-1.789,1.451-3.239,3.24-3.239
	l0,0c1.789,0,3.239,1.45,3.239,3.239v16.796C410.766,254.971,409.315,256.422,407.526,256.422z"/>
<path fill="#2C2858" d="M292.004,281.268L292.004,281.268c-1.789,0-3.24-1.45-3.24-3.239v-16.797c0-1.789,1.45-3.239,3.24-3.239l0,0
	c1.789,0,3.24,1.45,3.24,3.239v16.797C295.244,279.817,293.794,281.268,292.004,281.268z"/>
<path fill="#2E3192" d="M61.849,406.334c-2.443,10.258-11.174,4.616-9.348,11.099c0.135,0.478,0.589,0.798,1.085,0.816l5.127,0.196
	c0.495,0.019,0.982-0.122,1.391-0.402c2.705-1.852,4.54-4.46,10.382-4.777c-0.045-2.494,0.069-6.055-0.755-7.328L61.849,406.334z"/>
<path fill="#201D40" d="M75.36,334.353c0,0-14.911,22.742-16.969,29.816s2.248,19.06,1.469,43.217
	c4.66,1.21,10.874,0.17,10.874,0.17s3.74-30.3-0.659-37.455c6.591-10.057,23.147-32.014,23.147-32.014L75.36,334.353z"/>
<path fill="#2E3192" d="M83.629,409.641c-3.794,5.164-13.264,2.11-12.884,9.042c14.354-0.228,20.321-0.197,20.321-0.197
	c-0.034-1.592-0.355-5.37-0.7-6.847L83.629,409.641z"/>
<path fill="#2C2858" d="M79.182,329.756c0,0-4.755,37.103-3.657,44.388c1.098,7.285,4.498,12.987,4.618,37.156
	c4.702,1.036,11.888,1.967,11.888,1.967s3.03-29.151-3.202-37.177c1.766-11.894,10.184-41.812,10.184-41.812L79.182,329.756z"/>
<path fill="#14204A" d="M54.823,313.422l-5.796-6.5c-0.126-0.14-0.305-0.222-0.494-0.225l-4.773-0.028
	c-0.136-0.002-0.557,0.752-0.466,0.853l4.089,3.633c0.019,0.021,0.043,0.036,0.07,0.044l7.012,2.601
	C54.615,313.847,54.928,313.539,54.823,313.422z"/>
<path fill="#2E3192" d="M54.381,313.858l-5.522-6.128c-0.126-0.14-0.305-0.222-0.494-0.225l-4.92-0.088
	c-0.136-0.003-0.209,0.159-0.118,0.259l3.888,4.287c0.019,0.021,0.043,0.036,0.07,0.044l6.936,2.103
	C54.371,314.156,54.486,313.975,54.381,313.858z"/>
<path fill="#F37A50" d="M65.292,319.447l-3.994-1.958c0,0-3.939-3.987-4.524-4.878c-0.876-0.444-2.534-1.56-2.907-1.603
	c-0.373-0.043-1.136,0.072-1.136,0.072l1.849,2.103c0,0-0.878,0.174-1.999-0.537c-1.12-0.712-3.1-2.62-4.069-2.25
	c-0.344,0.304-0.344,0.304-0.344,0.304s-0.612-0.654-1.189-0.411c-0.577,0.243,0.57,3.121,3.827,6.172
	c0.216,0.814,1.289,2.242,1.289,2.242l6.585,2.313L65.292,319.447z"/>
<path fill="#14204A" d="M47.959,308.655c0.234,0.234,0.57,0.277,0.751,0.096c0.181-0.181,0.138-0.517-0.096-0.751
	c-0.234-0.234-0.57-0.277-0.751-0.096C47.682,308.084,47.725,308.421,47.959,308.655z"/>
<path fill="#F37A50" d="M83.889,290.08c-1.185,1.536,8.097,3.206,9.341,0.014c1.244-3.192-0.893-11.971-0.893-11.971l-8.463,1.796
	C83.875,279.919,85.431,288.081,83.889,290.08z"/>
<g>
	
		<ellipse transform="matrix(0.9945 -0.1044 0.1044 0.9945 -27.9221 10.3073)" fill="#F37A50" cx="84.532" cy="271.97" rx="9.709" ry="12.361"/>
	<path d="M78.027,274.982c-0.189,0.525-0.767,0.798-1.293,0.61c-0.525-0.188-0.798-0.767-0.61-1.293
		c0.189-0.525,0.767-0.798,1.293-0.61C77.943,273.878,78.216,274.457,78.027,274.982z"/>
	<path d="M84.655,273.535c-0.204,0.569-0.831,0.864-1.399,0.66c-0.569-0.204-0.864-0.831-0.66-1.399
		c0.204-0.569,0.831-0.864,1.399-0.66C84.563,272.339,84.859,272.966,84.655,273.535z"/>
	<path fill="#DE623C" d="M79.957,274.771c-0.214,1.591-0.512,3.549-0.512,3.549s1.046,1.103,2.78,0.34
		c-0.867,0.029-1.812-0.136-1.955-1.245C80.127,276.308,79.957,274.771,79.957,274.771z"/>
	<g>
		<path fill="#020205" d="M77.73,272.674c-0.114,0.068-0.259,0.076-0.384,0.009c-0.012-0.006-0.433-0.221-0.828-0.071
			c-0.278,0.106-0.501,0.379-0.661,0.812c-0.075,0.201-0.298,0.303-0.499,0.228c-0.201-0.074-0.303-0.298-0.228-0.498
			c0.244-0.656,0.621-1.083,1.122-1.27c0.734-0.274,1.434,0.101,1.464,0.118c0.188,0.102,0.257,0.338,0.154,0.526
			C77.837,272.591,77.788,272.64,77.73,272.674z"/>
	</g>
	<g>
		<path fill="#020205" d="M82.773,271.57c0.13,0.027,0.27-0.013,0.365-0.118c0.01-0.01,0.336-0.351,0.758-0.339
			c0.298,0.009,0.598,0.193,0.892,0.549c0.136,0.165,0.381,0.188,0.546,0.052c0.165-0.136,0.188-0.381,0.052-0.546
			c-0.446-0.539-0.943-0.818-1.478-0.83c-0.783-0.017-1.321,0.568-1.343,0.593c-0.144,0.159-0.131,0.404,0.028,0.548
			C82.645,271.525,82.707,271.556,82.773,271.57z"/>
	</g>
	<path fill="#020205" d="M92.206,275.269c-3.513-2.941-2.543-7.435-2.543-7.435c-1.704,0.112-2.181,0.84-2.181,0.84
		c-1.37-1.573-1.036-3.055-1.036-3.055c-3.692-0.402-4.773,2.21-7.591,3.75c-3.859,2.11-9.402,1.837-11.237-3.073
		c-0.266-0.711,0.409-1.399,1.128-1.156c0.667,0.226,1.499,0.329,2.426,0.052c0,0-1.128-0.743-1.535-2.08
		c-0.225-0.738,0.539-1.375,1.24-1.052c1.051,0.483,2.825,0.729,5.52-0.567c1.794-0.863,5.304-5.054,8.157-5.189
		c2.333-0.11,4.585,1.294,6.06,3.774c0,0,5.565-0.897,7.713,4.915c2.11,5.71-5.8,14.531-5.8,14.531S93.134,276.173,92.206,275.269z"
		/>
	<path fill="#FFFFFF" d="M80.387,281.258c-0.22-0.142-0.165-0.477,0.089-0.539c0.647-0.158,1.709-0.441,2.686-0.807
		c0.977-0.366,1.963-0.851,2.555-1.157c0.233-0.12,0.494,0.096,0.421,0.348c-0.222,0.774-0.806,2.042-2.304,2.604
		C82.336,282.267,81.063,281.696,80.387,281.258z"/>
	<g>
		<path fill="#F37A50" d="M89.704,271.269c-1.143,1.128-1.321,2.8-0.398,3.735c0.923,0.935,2.597,0.779,3.74-0.348
			c1.143-1.127,1.321-2.8,0.398-3.735C92.522,269.986,90.847,270.142,89.704,271.269z"/>
		<g>
			<path fill="#DE623C" d="M90.815,274.523c-0.05-0.018-0.096-0.047-0.135-0.088c-0.559-0.586-0.69-1.303-0.35-1.918
				c0.348-0.63,1.091-0.987,1.766-0.849c0.19,0.039,0.312,0.224,0.274,0.414c-0.039,0.19-0.224,0.313-0.414,0.274
				c-0.37-0.075-0.814,0.144-1.011,0.501c-0.189,0.342-0.103,0.731,0.243,1.093c0.134,0.14,0.129,0.363-0.012,0.496
				C91.076,274.542,90.936,274.567,90.815,274.523z"/>
		</g>
	</g>
</g>
<path fill="#0071BC" d="M73.573,337.077c6.62,1.351,18.522,3.683,24.817,1.229c2.382-3.42,2.986-22.76,2.986-22.76
	c0.689-19.906-1.698-22.86-7.082-29.53c-2.259,1.038-7.914,1.923-10.4,1.942c0,0-5.633,7.821-6.732,13.5
	c-1.114,5.759-1.241,15.997-1.344,21.862C75.703,329.834,74.416,332.974,73.573,337.077z"/>
<path fill="#2E3192" d="M95.078,292.06c3.872,7.538,2.995,15.886-8.264,32.32c-7.885-0.688-9.431-7.26-9.431-7.26
	s2.166-8.159,4.981-18.423C85.178,288.433,93.384,288.761,95.078,292.06z"/>
<path fill="#2E3192" d="M60.655,315.546l16.883,1.347c0,0,7.24-1.321,9.276,7.486c-3.624,2.821-12.978,3.88-28.321-1.817
	C60.117,320.353,60.655,315.546,60.655,315.546z"/>
<polygon fill="#FFFFFF" points="83.945,287.4 83.785,291.941 95.207,287.152 93.824,283.479 "/>
<path fill="#E52713" d="M169.195,177.38c-3.733,8.525-13.669,12.409-22.194,8.677c-8.525-3.733-12.409-13.669-8.677-22.194
	c3.733-8.524,13.669-12.409,22.194-8.677C169.043,158.919,172.928,168.855,169.195,177.38z"/>
<path fill="#FFFFFF" d="M166.439,176.173c-3.326,7.809-13.261,10.724-20.296,6.006c-4.474-2.915-6.904-8.345-6.066-13.666
	c1.308-8.974,11.146-14.231,19.234-10.57C166.195,160.89,169.552,169.194,166.439,176.173z"/>
<path fill="#E52713" d="M199.422,128.498c-3.733,8.525-13.669,12.409-22.194,8.677c-8.525-3.733-12.409-13.669-8.677-22.194
	c3.733-8.525,13.669-12.409,22.194-8.677C199.27,110.037,203.154,119.973,199.422,128.498z"/>
<path fill="#FFFFFF" d="M196.665,127.291c-3.326,7.809-13.261,10.724-20.296,6.006c-4.474-2.915-6.904-8.345-6.066-13.666
	c1.308-8.974,11.146-14.231,19.234-10.57C196.421,112.007,199.779,120.312,196.665,127.291z"/>
<ellipse transform="matrix(0.988 -0.1545 0.1545 0.988 -15.0535 49.7523)" fill="#E52713" cx="312.609" cy="121.739" rx="16.85" ry="16.85"/>
<path fill="#FFFFFF" d="M325.288,127.291c-3.326,7.809-13.261,10.724-20.296,6.006c-4.473-2.915-6.904-8.345-6.066-13.666
	c1.308-8.974,11.146-14.231,19.234-10.57C325.045,112.007,328.402,120.312,325.288,127.291z"/>
<path fill="#E52713" d="M362.384,177.38c-3.732,8.525-13.669,12.409-22.194,8.677c-8.525-3.733-12.409-13.669-8.677-22.194
	c3.733-8.524,13.669-12.409,22.194-8.677C362.232,158.919,366.117,168.855,362.384,177.38z"/>
<path fill="#FFFFFF" d="M359.628,176.173c-3.326,7.809-13.261,10.724-20.296,6.006c-4.474-2.915-6.904-8.345-6.066-13.666
	c1.308-8.974,11.146-14.231,19.234-10.57C359.384,160.89,362.741,169.194,359.628,176.173z"/>
<path fill="#E52713" d="M265.061,100.959c-3.732,8.525-13.669,12.409-22.194,8.677c-8.525-3.733-12.409-13.669-8.677-22.194
	c3.733-8.525,13.669-12.409,22.194-8.677C264.909,82.498,268.794,92.435,265.061,100.959z"/>
<path fill="#FFFFFF" d="M262.304,99.753c-3.326,7.809-13.261,10.724-20.296,6.006c-4.474-2.915-6.904-8.345-6.066-13.666
	c1.308-8.974,11.146-14.231,19.234-10.57C262.061,84.469,265.418,92.773,262.304,99.753z"/>
<g>
	<g>
		<g>
			<g>
				<path fill="#95A6DB" d="M320.099,196.97c-0.816,0-1.478-0.662-1.478-1.478c0-1.204-0.031-2.421-0.092-3.619
					c-0.042-0.815,0.586-1.51,1.401-1.552c0.814-0.04,1.51,0.586,1.551,1.401c0.064,1.247,0.096,2.516,0.096,3.769
					C321.578,196.308,320.916,196.97,320.099,196.97z"/>
			</g>
			<g>
				<path fill="#95A6DB" d="M319.235,185.837c-0.716,0-1.344-0.521-1.458-1.25c-0.376-2.404-0.885-4.814-1.511-7.163
					c-0.21-0.789,0.259-1.599,1.048-1.809c0.79-0.21,1.599,0.259,1.809,1.048c0.653,2.449,1.183,4.961,1.575,7.467
					c0.126,0.807-0.425,1.563-1.232,1.689C319.388,185.831,319.311,185.837,319.235,185.837z M178.153,185.774
					c-0.076,0-0.154-0.006-0.232-0.018c-0.807-0.127-1.357-0.884-1.23-1.69c0.395-2.507,0.927-5.019,1.582-7.466
					c0.211-0.789,1.021-1.257,1.81-1.046c0.788,0.211,1.257,1.021,1.046,1.81c-0.628,2.347-1.139,4.757-1.517,7.161
					C179.497,185.254,178.868,185.774,178.153,185.774z M315.388,171.406c-0.595,0-1.155-0.361-1.38-0.949
					c-0.871-2.271-1.873-4.522-2.979-6.69c-0.371-0.727-0.082-1.617,0.645-1.988c0.727-0.371,1.617-0.082,1.988,0.645
					c1.153,2.261,2.198,4.607,3.106,6.975c0.292,0.762-0.089,1.617-0.851,1.909C315.743,171.375,315.564,171.406,315.388,171.406z
					 M182.012,171.351c-0.176,0-0.356-0.032-0.53-0.099c-0.762-0.293-1.142-1.148-0.849-1.91c0.909-2.364,1.955-4.708,3.108-6.966
					c0.371-0.727,1.262-1.016,1.989-0.644c0.727,0.371,1.015,1.262,0.644,1.989c-1.107,2.167-2.11,4.415-2.982,6.682
					C183.166,170.99,182.606,171.351,182.012,171.351z M308.604,158.099c-0.484,0-0.958-0.237-1.241-0.673
					c-1.325-2.038-2.774-4.031-4.307-5.923c-0.514-0.634-0.416-1.565,0.218-2.079c0.634-0.514,1.565-0.416,2.079,0.218
					c1.597,1.972,3.107,4.049,4.488,6.173c0.445,0.684,0.251,1.6-0.434,2.045C309.16,158.022,308.881,158.099,308.604,158.099z
					 M188.8,158.058c-0.277,0-0.556-0.077-0.805-0.24c-0.684-0.445-0.878-1.361-0.432-2.045c1.382-2.123,2.893-4.198,4.491-6.168
					c0.514-0.634,1.445-0.731,2.079-0.217c0.634,0.514,0.731,1.445,0.217,2.079c-1.533,1.89-2.983,3.882-4.309,5.918
					C189.757,157.822,189.283,158.058,188.8,158.058z M299.203,146.494c-0.379,0-0.757-0.144-1.046-0.433
					c-1.72-1.721-3.549-3.371-5.438-4.903c-0.634-0.514-0.731-1.445-0.216-2.079c0.514-0.634,1.445-0.731,2.079-0.216
					c1.968,1.597,3.874,3.316,5.667,5.109c0.577,0.578,0.577,1.513-0.001,2.09C299.959,146.35,299.581,146.494,299.203,146.494z
					 M198.207,146.462c-0.378,0-0.757-0.144-1.046-0.433c-0.577-0.577-0.577-1.513,0.001-2.09c1.794-1.793,3.701-3.511,5.671-5.107
					c0.634-0.514,1.565-0.416,2.079,0.218c0.514,0.634,0.416,1.565-0.218,2.079c-1.89,1.531-3.721,3.18-5.442,4.9
					C198.963,146.318,198.585,146.462,198.207,146.462z M287.606,137.087c-0.276,0-0.556-0.077-0.805-0.24
					c-2.039-1.328-4.17-2.562-6.334-3.668c-0.727-0.372-1.015-1.262-0.643-1.989c0.371-0.727,1.261-1.015,1.989-0.644
					c2.256,1.153,4.477,2.439,6.601,3.823c0.684,0.445,0.878,1.361,0.432,2.045C288.563,136.85,288.09,137.087,287.606,137.087z
					 M209.812,137.06c-0.484,0-0.957-0.237-1.24-0.672c-0.445-0.684-0.251-1.6,0.433-2.045c2.127-1.383,4.351-2.669,6.608-3.82
					c0.727-0.371,1.617-0.082,1.988,0.645c0.371,0.727,0.082,1.617-0.645,1.988c-2.166,1.105-4.299,2.338-6.34,3.665
					C210.368,136.983,210.088,137.06,209.812,137.06z M274.316,130.296c-0.176,0-0.356-0.032-0.53-0.099
					c-2.271-0.874-4.613-1.635-6.962-2.264c-0.788-0.211-1.257-1.022-1.045-1.81c0.211-0.788,1.021-1.257,1.81-1.046
					c2.448,0.656,4.891,1.45,7.258,2.36c0.762,0.293,1.142,1.148,0.849,1.91C275.47,129.936,274.91,130.296,274.316,130.296z
					 M223.117,130.275c-0.594,0-1.155-0.361-1.38-0.949c-0.292-0.762,0.088-1.617,0.851-1.91c2.368-0.909,4.812-1.701,7.263-2.355
					c0.789-0.211,1.599,0.258,1.809,1.047c0.21,0.789-0.258,1.599-1.047,1.809c-2.351,0.627-4.695,1.387-6.966,2.259
					C223.472,130.243,223.293,130.275,223.117,130.275z M259.895,126.433c-0.077,0-0.154-0.006-0.232-0.018
					c-2.397-0.378-4.847-0.633-7.282-0.76c-0.815-0.042-1.442-0.738-1.399-1.553c0.042-0.815,0.74-1.441,1.553-1.399
					c2.537,0.132,5.09,0.398,7.589,0.792c0.806,0.127,1.357,0.884,1.23,1.69C261.239,125.913,260.61,126.433,259.895,126.433z
					 M237.544,126.424c-0.715,0-1.344-0.52-1.458-1.249c-0.126-0.807,0.425-1.563,1.231-1.689c2.498-0.392,5.052-0.656,7.589-0.786
					c0.816-0.04,1.51,0.585,1.552,1.401c0.042,0.815-0.585,1.51-1.401,1.552c-2.435,0.125-4.886,0.378-7.283,0.754
					C237.697,126.418,237.62,126.424,237.544,126.424z"/>
			</g>
			<g>
				<path fill="#95A6DB" d="M177.279,196.97c-0.816,0-1.478-0.662-1.478-1.478c0-1.253,0.032-2.521,0.096-3.769
					c0.041-0.815,0.734-1.443,1.551-1.401c0.815,0.042,1.442,0.736,1.401,1.551c-0.061,1.198-0.092,2.416-0.092,3.619
					C178.757,196.308,178.095,196.97,177.279,196.97z"/>
			</g>
		</g>
	</g>
	<g>
		<g>
			<g>
				<path fill="#95A6DB" d="M197.287,196.97c-0.816,0-1.478-0.662-1.478-1.478c0-1.264,0.045-2.541,0.134-3.797
					c0.058-0.814,0.765-1.427,1.579-1.37c0.814,0.058,1.428,0.765,1.37,1.579c-0.084,1.186-0.127,2.393-0.127,3.588
					C198.765,196.308,198.103,196.97,197.287,196.97z"/>
			</g>
			<g>
				<path fill="#95A6DB" d="M198.457,186.019c-0.104,0-0.209-0.011-0.315-0.034c-0.798-0.173-1.304-0.96-1.131-1.758
					c0.532-2.454,1.248-4.89,2.126-7.241c0.286-0.765,1.138-1.153,1.902-0.867c0.765,0.286,1.153,1.137,0.867,1.902
					c-0.829,2.219-1.504,4.518-2.006,6.833C199.75,185.547,199.137,186.019,198.457,186.019z M298.913,185.98
					c-0.68,0-1.292-0.472-1.443-1.164c-0.504-2.314-1.18-4.611-2.01-6.828c-0.286-0.764,0.102-1.616,0.866-1.902
					c0.764-0.286,1.616,0.102,1.902,0.866c0.879,2.349,1.596,4.784,2.13,7.235c0.174,0.798-0.332,1.585-1.13,1.759
					C299.123,185.969,299.017,185.98,298.913,185.98z M203.573,172.315c-0.24,0-0.483-0.059-0.709-0.182
					c-0.716-0.392-0.978-1.29-0.586-2.006c1.204-2.198,2.579-4.331,4.086-6.34c0.49-0.653,1.416-0.785,2.069-0.295
					c0.653,0.49,0.785,1.416,0.295,2.069c-1.423,1.897-2.721,3.911-3.857,5.986C204.602,172.037,204.096,172.315,203.573,172.315z
					 M293.791,172.29c-0.522,0-1.028-0.278-1.297-0.768c-1.137-2.074-2.435-4.086-3.859-5.981c-0.49-0.653-0.359-1.579,0.294-2.07
					c0.653-0.49,1.579-0.358,2.069,0.294c1.507,2.007,2.882,4.138,4.087,6.335c0.392,0.716,0.13,1.614-0.585,2.007
					C294.275,172.231,294.031,172.29,293.791,172.29z M212.351,160.614c-0.378,0-0.757-0.144-1.045-0.433
					c-0.577-0.577-0.577-1.513,0.001-2.09c1.775-1.774,3.692-3.435,5.697-4.939c0.653-0.49,1.58-0.357,2.069,0.296
					c0.49,0.653,0.357,1.58-0.296,2.069c-1.894,1.42-3.704,2.989-5.38,4.664C213.107,160.47,212.729,160.614,212.351,160.614z
					 M285.011,160.597c-0.378,0-0.756-0.144-1.044-0.432c-1.677-1.675-3.488-3.243-5.383-4.662
					c-0.654-0.489-0.786-1.416-0.297-2.069c0.489-0.654,1.416-0.786,2.069-0.297c2.007,1.502,3.924,3.163,5.7,4.937
					c0.578,0.577,0.579,1.513,0.002,2.09C285.768,160.453,285.389,160.597,285.011,160.597z M224.053,151.845
					c-0.523,0-1.029-0.278-1.298-0.769c-0.392-0.716-0.129-1.614,0.587-2.006c2.201-1.205,4.508-2.26,6.855-3.136
					c0.764-0.285,1.616,0.103,1.902,0.868c0.285,0.765-0.103,1.616-0.868,1.902c-2.216,0.827-4.392,1.823-6.47,2.96
					C224.536,151.787,224.293,151.845,224.053,151.845z M273.301,151.832c-0.24,0-0.482-0.058-0.707-0.181
					c-2.08-1.137-4.26-2.132-6.478-2.959c-0.765-0.285-1.154-1.136-0.869-1.901c0.285-0.765,1.136-1.155,1.901-0.869
					c2.35,0.876,4.659,1.93,6.863,3.135c0.716,0.391,0.98,1.289,0.588,2.006C274.33,151.554,273.823,151.832,273.301,151.832z
					 M237.747,146.734c-0.681,0-1.293-0.473-1.443-1.165c-0.173-0.798,0.334-1.585,1.131-1.758c2.446-0.53,4.957-0.889,7.465-1.067
					c0.813-0.058,1.521,0.556,1.579,1.37c0.058,0.814-0.556,1.521-1.37,1.579c-2.368,0.168-4.739,0.506-7.047,1.007
					C237.956,146.723,237.851,146.734,237.747,146.734z M259.593,146.726c-0.103,0-0.208-0.011-0.314-0.034
					c-2.309-0.499-4.68-0.836-7.048-1.002c-0.814-0.057-1.428-0.763-1.371-1.578c0.057-0.814,0.762-1.428,1.578-1.371
					c2.508,0.176,5.019,0.533,7.465,1.061c0.798,0.172,1.305,0.959,1.133,1.757C260.886,146.252,260.274,146.726,259.593,146.726z"
					/>
			</g>
			<g>
				<path fill="#95A6DB" d="M300.092,196.97c-0.816,0-1.478-0.662-1.478-1.478c0-1.195-0.043-2.402-0.127-3.588
					c-0.058-0.814,0.555-1.521,1.37-1.579c0.816-0.059,1.521,0.556,1.579,1.37c0.089,1.255,0.134,2.533,0.134,3.797
					C301.57,196.308,300.908,196.97,300.092,196.97z"/>
			</g>
		</g>
	</g>
	<g>
		<path fill="#95A6DB" d="M319.839,197.835c-0.006,0-0.012,0-0.018,0c-0.285-0.005-0.552-0.143-0.723-0.372l-9.435-12.688
			c-0.304-0.409-0.219-0.987,0.19-1.291c0.409-0.304,0.987-0.219,1.291,0.19l8.723,11.731l8.687-10.783
			c0.32-0.397,0.901-0.459,1.298-0.14c0.397,0.32,0.46,0.901,0.14,1.298l-9.435,11.712
			C320.382,197.708,320.118,197.835,319.839,197.835z"/>
	</g>
	<g>
		<path fill="#95A6DB" d="M197.257,197.835c-0.006,0-0.012,0-0.018,0c-0.286-0.005-0.552-0.143-0.723-0.372l-9.435-12.688
			c-0.304-0.409-0.219-0.987,0.19-1.291c0.409-0.304,0.987-0.219,1.291,0.19l8.723,11.731l8.687-10.783
			c0.32-0.397,0.901-0.46,1.298-0.14c0.397,0.32,0.46,0.901,0.14,1.298l-9.435,11.712
			C197.801,197.708,197.537,197.835,197.257,197.835z"/>
	</g>
</g>
<g>
	<g>
		<path fill="#2C2858" d="M350.97,285.513c-16.501,0-29.925-13.424-29.925-29.925c0-16.501,13.424-29.925,29.925-29.925
			c16.5,0,29.924,13.424,29.924,29.925C380.894,272.089,367.47,285.513,350.97,285.513z M350.97,227.142
			c-15.686,0-28.447,12.761-28.447,28.447c0,15.685,12.761,28.447,28.447,28.447c15.685,0,28.446-12.761,28.446-28.447
			C379.416,239.903,366.655,227.142,350.97,227.142z"/>
	</g>
	<g>
		<g>
			<path fill="#2C2858" d="M350.97,272.572c-2.194,0-3.972-1.779-3.972-3.972v-54.906c0-2.194,1.779-3.972,3.972-3.972
				c2.194,0,3.972,1.779,3.972,3.972v54.906C354.942,270.793,353.164,272.572,350.97,272.572z"/>
		</g>
		<g>
			<path fill="#2C2858" d="M351.243,275.833c-0.051,0-0.103-0.001-0.154-0.003c-1.215-0.047-2.341-0.648-3.057-1.631l-16.496-21.136
				c-1.292-1.774-0.901-4.258,0.873-5.55c1.774-1.291,4.258-0.901,5.55,0.873l13.534,17.068l12.682-17.31
				c1.425-1.668,3.932-1.865,5.601-0.44c1.668,1.425,1.865,3.933,0.44,5.601l-15.951,21.136
				C353.507,275.326,352.402,275.833,351.243,275.833z"/>
		</g>
	</g>
</g>
<path fill="#2E65BD" d="M383.732,304.276l-12.555-6.752c-0.354,0.658-0.708,1.317-1.062,1.975l0,0
	c-0.513,0.954,1.897,3.248,5.384,5.123c3.486,1.875,6.729,2.621,7.242,1.667C382.788,306.201,383.732,304.276,383.732,304.276z"/>
<linearGradient id="SVGID_1_" gradientUnits="userSpaceOnUse" x1="371.0513" y1="301.0242" x2="383.8148" y2="301.0242">
	<stop  offset="0" style="stop-color:#00F1FB"/>
	<stop  offset="1" style="stop-color:#634EF1"/>
</linearGradient>
<path fill="url(#SVGID_1_)" d="M383.746,304.419c-0.513,0.954-3.756,0.208-7.242-1.667c-3.486-1.875-5.897-4.169-5.384-5.123
	c0.513-0.955,3.756-0.208,7.242,1.667C381.849,301.171,384.259,303.465,383.746,304.419z"/>
<path fill="#2E65BD" d="M343.122,309.958l-11.549-5.688c-0.298,0.606-0.596,1.211-0.895,1.817l0,0
	c-0.432,0.878,1.817,2.87,5.024,4.45c3.207,1.579,6.157,2.148,6.59,1.27C342.332,311.726,343.122,309.958,343.122,309.958z"/>
<linearGradient id="SVGID_2_" gradientUnits="userSpaceOnUse" x1="331.4547" y1="307.1875" x2="343.2097" y2="307.2677">
	<stop  offset="0" style="stop-color:#00F1FB"/>
	<stop  offset="1" style="stop-color:#634EF1"/>
</linearGradient>
<path fill="url(#SVGID_2_)" d="M343.139,310.088c-0.433,0.878-3.383,0.309-6.59-1.271c-3.207-1.58-5.456-3.572-5.024-4.449
	c0.432-0.878,3.383-0.309,6.59,1.27C341.322,307.217,343.571,309.21,343.139,310.088z"/>
<path fill="#2E65BD" d="M325.907,289.114l-13.301,2.16c0.113,0.698,0.226,1.395,0.34,2.092l0,0c0.164,1.011,3.291,1.344,6.985,0.744
	c3.693-0.6,6.555-1.906,6.39-2.917C326.306,291.101,325.907,289.114,325.907,289.114z"/>
<linearGradient id="SVGID_3_" gradientUnits="userSpaceOnUse" x1="312.618" y1="290.2999" x2="326.0065" y2="290.2999">
	<stop  offset="0" style="stop-color:#00F1FB"/>
	<stop  offset="1" style="stop-color:#634EF1"/>
</linearGradient>
<path fill="url(#SVGID_3_)" d="M326,289.214c0.164,1.011-2.697,2.317-6.39,2.917c-3.693,0.6-6.821,0.267-6.985-0.744
	c-0.164-1.011,2.697-2.317,6.39-2.917C322.708,287.869,325.836,288.203,326,289.214z"/>
<path fill="#E3EAFF" d="M193.837,330.577h-80.66c-3.584,0-6.489-2.905-6.489-6.489v-17.06c0-3.584,2.905-6.489,6.489-6.489h80.66
	c3.584,0,6.489,2.905,6.489,6.489v17.06C200.326,327.672,197.421,330.577,193.837,330.577z"/>
<path fill="#FABA23" d="M135.776,311.332v8.451c0,2.278-1.846,4.124-4.124,4.124H115.67c-0.839,0-1.62-0.251-2.273-0.684
	c-1.114-0.737-1.85-2.003-1.85-3.44v-8.451c0-2.278,1.846-4.124,4.122-4.124h15.982c0.929,0,1.789,0.309,2.478,0.829
	C135.129,308.788,135.776,309.985,135.776,311.332z"/>
<path fill="#95A6DB" d="M168.352,318.995h-26.52c-1.899,0-3.438-1.539-3.438-3.438l0,0c0-1.899,1.539-3.438,3.438-3.438h26.52
	c1.899,0,3.438,1.539,3.438,3.438l0,0C171.789,317.456,170.25,318.995,168.352,318.995z"/>
<path fill="#E52713" d="M192.03,318.995h-13.289c-1.899,0-3.438-1.539-3.438-3.438l0,0c0-1.899,1.539-3.438,3.438-3.438h13.289
	c1.899,0,3.438,1.539,3.438,3.438l0,0C195.468,317.456,193.929,318.995,192.03,318.995z"/>
<path fill="#E52713" d="M134.129,308.038l-20.732,15.186c-1.114-0.737-1.85-2.003-1.85-3.44v-8.451c0-2.278,1.846-4.124,4.122-4.124
	h15.982C132.581,307.208,133.44,307.517,134.129,308.038z"/>
<path fill="#E62552" d="M130.413,319.155c0,1.531-1.241,2.773-2.773,2.773c-1.532,0-2.773-1.242-2.773-2.773
	c0-1.532,1.241-2.773,2.773-2.773C129.172,316.382,130.413,317.623,130.413,319.155z"/>
<path fill="#95A6DB" d="M133.706,319.155c0,1.531-1.241,2.773-2.773,2.773c-1.531,0-2.773-1.242-2.773-2.773
	c0-1.532,1.242-2.773,2.773-2.773C132.465,316.382,133.706,317.623,133.706,319.155z"/>
<path fill="#020205" d="M427.405,281.31c1.612-5.047,1.217-9.943-2.324-13.239c-3.589-3.341-9.343-2.293-9.343-2.293l0,0
	c0,0-4.026-2.624-9.073,0.812c-5.046,3.436-2.958,8.03-5.36,10.843c-1.423,1.666-6.432,0.876-6.648,7.364
	c-0.062,1.872,1.794,3.587,3.582,4.143c3.141,0.977,6.621,0.34,7.407,2.002c2.703,5.714,13.087,5.89,15.303,2.489
	c0.687-1.055,8.65,3.219,9.689-4.839C431.165,284.509,425.964,285.82,427.405,281.31z"/>
<g>
	<path fill="#F37A50" d="M406.841,279.326c-0.654,6.212,2.772,11.665,7.651,12.178c4.88,0.514,9.365-4.107,10.018-10.319
		c0.654-6.213-2.772-11.665-7.651-12.178C411.98,268.493,407.494,273.114,406.841,279.326z"/>
	<path d="M421.87,281.945c0.058,0.468,0.483,0.8,0.951,0.743c0.468-0.057,0.8-0.483,0.743-0.951c-0.058-0.468-0.483-0.8-0.951-0.743
		C422.146,281.051,421.813,281.477,421.87,281.945z"/>
	<path d="M415.001,281.269c0.062,0.506,0.523,0.866,1.029,0.804c0.506-0.062,0.866-0.523,0.804-1.03
		c-0.062-0.506-0.523-0.866-1.03-0.804C415.299,280.302,414.939,280.763,415.001,281.269z"/>
	<g>
		<path fill="#020205" d="M414.293,280.208c0.07-0.009,0.137-0.04,0.19-0.094c0.769-0.787,2.013-0.554,2.026-0.551
			c0.174,0.034,0.342-0.079,0.377-0.252c0.035-0.174-0.077-0.342-0.251-0.377c-0.065-0.013-1.595-0.308-2.612,0.732
			c-0.124,0.127-0.122,0.33,0.005,0.454C414.102,280.19,414.199,280.219,414.293,280.208z"/>
	</g>
	<g>
		<path fill="#020205" d="M424.037,281.399c0.034-0.004,0.068-0.014,0.101-0.03c0.16-0.077,0.226-0.27,0.149-0.429
			c-0.601-1.239-1.874-1.263-1.927-1.264c-0.177-0.001-0.322,0.141-0.324,0.319c-0.001,0.177,0.141,0.322,0.317,0.324
			c0.042,0.001,0.933,0.03,1.356,0.902C423.771,281.347,423.905,281.415,424.037,281.399z"/>
	</g>
	<path fill="#DE623C" d="M420.735,283.511c0.281,0.61,0.503,1.215,0.83,1.629c0.11,0.14,0.089,0.345-0.045,0.462
		c-0.554,0.483-1.723,0.629-2.424,0.672c-0.102,0.006-0.134-0.136-0.039-0.174c0.806-0.322,1.211-0.626,1.399-0.804
		c0.094-0.089,0.137-0.217,0.121-0.345c-0.038-0.294-0.11-0.891-0.131-1.371C420.437,283.414,420.665,283.36,420.735,283.511z"/>
	<path fill="#FFFFFF" d="M414.147,286.32c-0.066-0.216,0.155-0.406,0.357-0.306c0.514,0.254,1.372,0.656,2.22,0.955
		c0.848,0.3,1.767,0.526,2.327,0.652c0.22,0.049,0.273,0.337,0.086,0.463c-0.576,0.388-1.663,0.901-2.963,0.442
		C414.874,288.066,414.351,286.983,414.147,286.32z"/>
</g>
<path fill="#020205" d="M406.909,278.78c5.624,1.179,15.071-1.635,16.68-4.225c0.154-3.739-4.781-7.391-8.458-6.933
	C411.454,268.08,406.135,273.733,406.909,278.78z"/>
<path fill="#DE623C" d="M423.462,295.574c5.788,1.445,15.68,14.968,16.606,25.108c-3.176,0.658-6.804-1.874-6.804-1.874
	l-7.863-11.309L423.462,295.574z"/>
<path fill="#F37A50" d="M429.059,411.586l3.1-12.209l-7.691-1.059c-0.264,5.774-0.696,11.459-0.658,12.999L429.059,411.586z"/>
<path fill="#F37A50" d="M410.707,398.248h-8.031c0.264,1.924,1.317,12.345,1.317,12.345c0.679,1.54,6.663,1.188,6.663,0.322
	C410.204,409.038,410.669,398.488,410.707,398.248z"/>
<path fill="#2C2858" d="M423.837,403.02l7.92,1.169l5.491-32.84c-1.131-12.463-12.102-38.976-12.102-38.976l-12.366,4.33
	l-0.302,11.693l14.892,25.214C425.429,378.487,424.101,394.253,423.837,403.02z"/>
<path fill="#2C2858" d="M417.716,333.252c-0.113-0.77-0.151-1.011-0.792-1.395l-11.876-3.368l-2.828,2.791
	c-2.677,9.72-1.018,23.241,1.093,33.972c-3.092,9.287-1.882,28.432-0.638,37.43h8.445c0.49-6.015,0.336-17.172,0.374-22.561l0,0
	c1.093-4.331,2.149-8.95,3.092-13.81c1.207-6.207,2.715-12.222,3.129-17.852C418.093,343.116,418.206,337.39,417.716,333.252z"/>
<path fill="#F37A50" d="M402.736,294.093c-2.792,1.832-14.559,17.142-8.075,29.751c0.3,0.167,5.494-8.634,5.494-8.634l6.131-12.137
	L402.736,294.093z"/>
<path fill="#F37A50" d="M408.644,286.128l7.373,4.187c0,0,0.654,2.985,0.981,3.954c0.674,1.999-1.908,2.872-4.091,1.628
	c-2.182-1.244-3.596-2.909-3.596-2.909L408.644,286.128z"/>
<path fill="#2E3192" d="M426.981,334.313c0,0-3.042,3.602-3.556,3.872l-2.725-2.975l-0.019,0.051l-0.646,1.702l-0.756,1.988
	c-0.632,0-19.632-4.255-19.632-4.255c0.039-1.713,1.649-7.261,4.256-13.167c-0.632-5.002-0.025-10.202-0.223-13.086
	c1.534-7.736,0.44-10.706-0.945-14.35l4.821-1.423l8.677,3.06l0.645-2.092c0,0,5.44,1.305,6.584,1.937l2.055,8.578l-0.445,18.224
	C425.073,322.376,425.756,329.714,426.981,334.313z"/>
<path fill="#0E346D" d="M409.232,291.704l-3.399,1.444c0.359,4.082,9.493,6.522,9.493,6.522l0.907-3.94L409.232,291.704z"/>
<path fill="#0E346D" d="M416.233,295.73l2.69,2.988c0,0,2.326-2.405,1.484-3.892c-0.842-1.487-3.924-2.49-3.924-2.49L416.233,295.73
	z"/>
<g>
	<path fill="#2C2858" d="M427.188,411.389c0.805-2.112,2.524-2.347,2.524-2.347c3.342,4.458,11.55,1.722,11.278,7.752
		c-12.481-0.077-17.669,0-17.669,0c0.017-1.385,0.263-4.672,0.551-5.959l0.65,0.116L427.188,411.389z"/>
	<path fill="#2C2858" d="M440.267,418.404H424.05c-0.403,0-0.729-0.326-0.729-0.729v-1.047h17.675v1.047
		C440.996,418.077,440.67,418.404,440.267,418.404z"/>
</g>
<g>
	<path fill="#0E346D" d="M420.681,335.261l-0.646,1.702c-0.586-3.916-2.771-20.306-1.538-24.831c1.157-4.25-0.29-8.731-1.69-13.065
		c-0.341-1.06-0.696-2.154-0.999-3.215l0.425-0.122l0.424-0.122c0.3,1.047,0.652,2.135,0.99,3.187
		c1.439,4.457,2.926,9.065,1.7,13.57C418.285,316.27,419.915,329.725,420.681,335.261z"/>
</g>
<g>
	<path fill="#2C2858" d="M412.087,416.852c0,0-1.002-3.738-1.09-4.218c-0.1-0.546-0.395-1.837-0.455-2.499
		c-0.015-0.163-1.735-1.215-3.049-1.213c-1.779,0.003-3.401,1.034-3.434,1.228c-0.21,1.247-0.216,2.714-0.557,3.929
		c-0.253,0.904-0.941,3.009-0.941,3.009L412.087,416.852z"/>
	<g>
		<g>
			<g>
				<g>
					<path fill="#2C2858" d="M412.086,416.562c-0.234,0.742-3.115-0.114-5.217-0.113c-1.765,0.001-4.049,0.684-4.308,0.418
						c-0.441,0.779-0.078,2.395-0.078,2.395s1.84,0.095,4.046,0c2.206-0.095,4.755,0.046,5.716-0.24
						C412.851,418.009,412.086,416.562,412.086,416.562z"/>
				</g>
			</g>
		</g>
	</g>
</g>
<path fill="#F37A50" d="M415.774,311.25c0,0-15.205,15.242-21.113,12.593c-1.948-2.633,2.188-7.917,6.062-9.687
	c3.858-1.763,10.334-4.542,10.334-4.542L415.774,311.25z"/>
<path fill="#1B1464" d="M418.654,306.073l6.318-4.875c0.137-0.105,0.312-0.148,0.483-0.119l4.303,0.781
	c0.123,0.021,0.375,0.772,0.275,0.847l-4.296,2.582c-0.02,0.016-0.045,0.025-0.07,0.028l-6.754,1.159
	C418.769,306.49,418.539,306.16,418.654,306.073z"/>
<path fill="#2E3192" d="M418.979,306.54l6.008-4.586c0.137-0.105,0.312-0.148,0.483-0.119l4.446,0.752
	c0.123,0.021,0.161,0.178,0.062,0.253l-4.226,3.204c-0.021,0.016-0.045,0.025-0.07,0.028l-6.602,0.723
	C418.938,306.81,418.864,306.627,418.979,306.54z"/>
<path fill="#F37A50" d="M410.892,309.697l3.55-1.778c0,0,2.25-2.45,2.955-3.182c0.899-0.261,2.648-1.016,3.005-0.991
	c0.357,0.025,0.959,0.237,0.959,0.237l-2.055,1.608c0,0,0.837,0.387,2.012-0.083c1.175-0.47,3.365-1.911,4.208-1.394
	c0.269,0.345,0.269,0.345,0.269,0.345s0.741-0.573,1.186-0.176c1.377,1.229-7.507,6.523-7.507,6.523l-3.701,0.444L410.892,309.697z"
	/>
<path fill="#1B1464" d="M425.641,302.938c-0.25,0.171-0.56,0.153-0.693-0.04c-0.132-0.193-0.037-0.489,0.213-0.66
	c0.25-0.171,0.56-0.153,0.693,0.04C425.987,302.471,425.892,302.767,425.641,302.938z"/>
<path fill="#DE623C" d="M440.068,320.682c0,0-7.882,9.013-13.368,10.287c-0.326-1.806-0.626-3.19-0.626-3.19l7.479-9.846
	L440.068,320.682z"/>
<path id="c_4748_" fill="#DE623C" d="M425.703,331.464c0.026-0.077,0.066-0.146,0.113-0.21c-0.013-0.004-0.027-0.007-0.04-0.011
	c-0.779-0.259-1.259-0.921-1.074-1.48c0.03-0.092,0.078-0.174,0.138-0.248c-0.413-0.32-0.621-0.771-0.488-1.17
	c0.053-0.158,0.154-0.29,0.289-0.394c-0.433-0.293-0.655-0.782-0.506-1.229c0.186-0.558,0.875-0.832,1.54-0.611
	c0.665,0.22,1.053,0.852,0.867,1.411c-0.047,0.141-0.126,0.265-0.229,0.366c0.65,0.299,1.028,0.888,0.86,1.393
	c-0.03,0.092-0.078,0.174-0.138,0.248c0.413,0.32,0.621,0.771,0.488,1.17c-0.049,0.147-0.14,0.271-0.261,0.371
	c0.396,0.242,0.604,0.675,0.474,1.067c-0.157,0.472-0.739,0.703-1.3,0.516C425.874,332.469,425.546,331.935,425.703,331.464z"/>
<g>
	<path fill="#F37A50" d="M408.683,279.705c0.915,1.428,0.709,3.193-0.459,3.942c-1.169,0.749-2.858,0.198-3.773-1.23
		c-0.915-1.428-0.709-3.193,0.46-3.942C406.079,277.726,407.769,278.277,408.683,279.705z"/>
	<g>
		<path fill="#DE623C" d="M406.781,282.799c0.055-0.007,0.11-0.026,0.16-0.059c0.713-0.473,1.014-1.182,0.807-1.895
			c-0.212-0.73-0.894-1.271-1.622-1.286c-0.205-0.004-0.374,0.158-0.378,0.363c-0.004,0.205,0.158,0.374,0.363,0.379
			c0.399,0.008,0.805,0.338,0.925,0.751c0.115,0.397-0.064,0.777-0.505,1.07c-0.171,0.113-0.217,0.344-0.104,0.514
			C406.507,282.757,406.646,282.816,406.781,282.799z"/>
	</g>
</g>
<path fill="#D4DEFF" d="M437.457,158.116c3.04,6.903-0.091,14.964-6.994,18.005c-6.903,3.04-14.964-0.091-18.004-6.994
	c-3.04-6.903,0.091-14.964,6.994-18.005C426.355,148.082,434.416,151.213,437.457,158.116z"/>
<g>
	<path fill="#D4DEFF" d="M13.476,243.027l9.016-16.819c0,0,10.999,0.941,16.048,13.686c3.13,7.901,13.751,12,13.751,12
		l-9.064,16.908c0,0-13.866-3.711-17.291-12.803C22.314,246.384,13.476,243.027,13.476,243.027z"/>
	<path fill="#E3EAFF" d="M38.187,253.285c-2.989,2.513-7.789,1.722-10.72-1.765c-2.931-3.487-2.884-8.351,0.105-10.864
		c2.989-2.513,7.789-1.723,10.72,1.765C41.223,245.908,41.176,250.772,38.187,253.285z"/>
</g>
<g>
	<path fill="#D4DEFF" d="M371.074,133.848l-12.691-14.253c0,0,4.668-10.004,18.372-10.359c8.495-0.22,15.998-8.783,15.998-8.783
		l12.757,14.328c0,0-8.255,11.742-17.97,11.83C377.266,126.704,371.074,133.848,371.074,133.848z"/>
	<path fill="#E3EAFF" d="M389.207,114.174c1.331,3.671-1.062,7.906-5.346,9.458c-4.283,1.553-8.834-0.165-10.164-3.836
		c-1.331-3.671,1.062-7.906,5.345-9.458C383.325,108.786,387.876,110.503,389.207,114.174z"/>
</g>
<g>
	<path fill="#D4DEFF" d="M454.434,347.534l2.072-15.432c0,0,8.673-2.431,16.18,5.861c4.653,5.14,13.943,5.23,13.943,5.23
		l-2.083,15.514c0,0-11.657,1.136-16.877-4.83C462.148,347.567,454.434,347.534,454.434,347.534z"/>
	<path fill="#E3EAFF" d="M476.252,348.294c-1.564,2.776-5.457,3.547-8.696,1.722c-3.238-1.825-4.595-5.554-3.031-8.33
		c1.564-2.776,5.458-3.547,8.696-1.721C476.459,341.788,477.816,345.518,476.252,348.294z"/>
</g>
<path fill="#D4DEFF" d="M254.945,205.412l-2.14-15.938c0,0-8.957-2.511-16.71,6.053c-4.806,5.308-14.4,5.401-14.4,5.401
	l2.151,16.022c0,0,12.038,1.173,17.43-4.988C246.978,205.446,254.945,205.412,254.945,205.412z"/>
<path fill="#E3EAFF" d="M232.412,206.196c1.615,2.867,5.636,3.663,8.981,1.778c3.344-1.885,4.746-5.736,3.131-8.603
	c-1.616-2.867-5.636-3.663-8.981-1.778C232.198,199.478,230.797,203.33,232.412,206.196z"/>
<path fill="#E3EAFF" d="M193.837,366.972h-80.66c-3.584,0-6.489-2.905-6.489-6.489v-17.06c0-3.584,2.905-6.489,6.489-6.489h80.66
	c3.584,0,6.489,2.905,6.489,6.489v17.06C200.326,364.067,197.421,366.972,193.837,366.972z"/>
<path fill="#D6224C" d="M135.776,347.727v8.451c0,2.278-1.846,4.124-4.124,4.124H115.67c-0.839,0-1.62-0.251-2.273-0.683
	c-1.114-0.737-1.85-2.003-1.85-3.44v-8.451c0-2.278,1.846-4.124,4.122-4.124h15.982c0.929,0,1.789,0.308,2.478,0.829
	C135.129,345.183,135.776,346.381,135.776,347.727z"/>
<path fill="#95A6DB" d="M168.352,355.391h-26.52c-1.899,0-3.438-1.539-3.438-3.438l0,0c0-1.899,1.539-3.438,3.438-3.438h26.52
	c1.899,0,3.438,1.539,3.438,3.438l0,0C171.789,353.852,170.25,355.391,168.352,355.391z"/>
<path fill="#E52713" d="M192.03,355.391h-13.289c-1.899,0-3.438-1.539-3.438-3.438l0,0c0-1.899,1.539-3.438,3.438-3.438h13.289
	c1.899,0,3.438,1.539,3.438,3.438l0,0C195.468,353.852,193.929,355.391,192.03,355.391z"/>
<path fill="#E52713" d="M134.129,344.433l-20.732,15.186c-1.114-0.737-1.85-2.003-1.85-3.44v-8.451c0-2.278,1.846-4.124,4.122-4.124
	h15.982C132.581,343.604,133.44,343.912,134.129,344.433z"/>
<ellipse transform="matrix(0.9996 -0.0294 0.0294 0.9996 -10.3889 3.9027)" fill="#FAC832" cx="127.64" cy="355.55" rx="2.773" ry="2.773"/>
<path fill="#95A6DB" d="M133.706,355.55c0,1.532-1.241,2.773-2.773,2.773c-1.531,0-2.773-1.241-2.773-2.773
	c0-1.531,1.242-2.773,2.773-2.773C132.465,352.777,133.706,354.019,133.706,355.55z"/>
<path fill="#E3EAFF" d="M193.837,403.367h-80.66c-3.584,0-6.489-2.905-6.489-6.489v-17.06c0-3.584,2.905-6.489,6.489-6.489h80.66
	c3.584,0,6.489,2.905,6.489,6.489v17.06C200.326,400.462,197.421,403.367,193.837,403.367z"/>
<path fill="#FABA23" d="M135.776,384.123v8.451c0,2.278-1.846,4.124-4.124,4.124H115.67c-0.839,0-1.62-0.251-2.273-0.683
	c-1.114-0.737-1.85-2.003-1.85-3.44v-8.451c0-2.278,1.846-4.124,4.122-4.124h15.982c0.929,0,1.789,0.309,2.478,0.83
	C135.129,381.579,135.776,382.776,135.776,384.123z"/>
<path fill="#95A6DB" d="M168.352,391.786h-26.52c-1.899,0-3.438-1.539-3.438-3.438l0,0c0-1.899,1.539-3.438,3.438-3.438h26.52
	c1.899,0,3.438,1.539,3.438,3.438l0,0C171.789,390.247,170.25,391.786,168.352,391.786z"/>
<path fill="#E52713" d="M192.03,391.786h-13.289c-1.899,0-3.438-1.539-3.438-3.438l0,0c0-1.899,1.539-3.438,3.438-3.438h13.289
	c1.899,0,3.438,1.539,3.438,3.438l0,0C195.468,390.247,193.929,391.786,192.03,391.786z"/>
<path fill="#E52713" d="M134.129,380.828l-20.732,15.186c-1.114-0.737-1.85-2.003-1.85-3.44v-8.451c0-2.278,1.846-4.124,4.122-4.124
	h15.982C132.581,379.999,133.44,380.307,134.129,380.828z"/>
<path fill="#E62552" d="M130.413,391.945c0,1.532-1.241,2.773-2.773,2.773c-1.532,0-2.773-1.242-2.773-2.773
	c0-1.531,1.241-2.773,2.773-2.773C129.172,389.172,130.413,390.414,130.413,391.945z"/>
<path fill="#95A6DB" d="M133.706,391.945c0,1.532-1.241,2.773-2.773,2.773c-1.531,0-2.773-1.242-2.773-2.773
	c0-1.531,1.242-2.773,2.773-2.773C132.465,389.172,133.706,390.414,133.706,391.945z"/>
<path fill="#95A6DB" d="M227.789,389.275h-10.078c-0.928,0-1.68-0.752-1.68-1.68l0,0c0-0.928,0.752-1.68,1.68-1.68h10.078
	c0.928,0,1.68,0.752,1.68,1.68l0,0C229.469,388.523,228.717,389.275,227.789,389.275z"/>
<path fill="#95A6DB" d="M246.826,389.275h-10.078c-0.928,0-1.68-0.752-1.68-1.68l0,0c0-0.928,0.752-1.68,1.68-1.68h10.078
	c0.928,0,1.68,0.752,1.68,1.68l0,0C248.506,388.523,247.754,389.275,246.826,389.275z"/>
<path fill="#95A6DB" d="M265.863,389.275h-10.078c-0.928,0-1.68-0.752-1.68-1.68l0,0c0-0.928,0.752-1.68,1.68-1.68h10.078
	c0.928,0,1.68,0.752,1.68,1.68l0,0C267.543,388.523,266.791,389.275,265.863,389.275z"/>
<path fill="#95A6DB" d="M284.9,389.275h-10.078c-0.928,0-1.68-0.752-1.68-1.68l0,0c0-0.928,0.752-1.68,1.68-1.68H284.9
	c0.928,0,1.68,0.752,1.68,1.68l0,0C286.58,388.523,285.828,389.275,284.9,389.275z"/>
<path fill="#95A6DB" d="M227.789,317.606h-10.078c-0.928,0-1.68-0.752-1.68-1.68l0,0c0-0.928,0.752-1.68,1.68-1.68h10.078
	c0.928,0,1.68,0.752,1.68,1.68l0,0C229.469,316.854,228.717,317.606,227.789,317.606z"/>
<path fill="#95A6DB" d="M246.826,317.606h-10.078c-0.928,0-1.68-0.752-1.68-1.68l0,0c0-0.928,0.752-1.68,1.68-1.68h10.078
	c0.928,0,1.68,0.752,1.68,1.68l0,0C248.506,316.854,247.754,317.606,246.826,317.606z"/>
<path fill="#95A6DB" d="M265.863,317.606h-10.078c-0.928,0-1.68-0.752-1.68-1.68l0,0c0-0.928,0.752-1.68,1.68-1.68h10.078
	c0.928,0,1.68,0.752,1.68,1.68l0,0C267.543,316.854,266.791,317.606,265.863,317.606z"/>
<path fill="#95A6DB" d="M284.9,317.606h-10.078c-0.928,0-1.68-0.752-1.68-1.68l0,0c0-0.928,0.752-1.68,1.68-1.68H284.9
	c0.928,0,1.68,0.752,1.68,1.68l0,0C286.58,316.854,285.828,317.606,284.9,317.606z"/>
<path fill="#95A6DB" d="M227.789,354h-10.078c-0.928,0-1.68-0.752-1.68-1.68v0c0-0.928,0.752-1.68,1.68-1.68h10.078
	c0.928,0,1.68,0.752,1.68,1.68v0C229.469,353.248,228.717,354,227.789,354z"/>
<path fill="#95A6DB" d="M246.826,354h-10.078c-0.928,0-1.68-0.752-1.68-1.68v0c0-0.928,0.752-1.68,1.68-1.68h10.078
	c0.928,0,1.68,0.752,1.68,1.68v0C248.506,353.248,247.754,354,246.826,354z"/>
<path fill="#95A6DB" d="M265.863,354h-10.078c-0.928,0-1.68-0.752-1.68-1.68v0c0-0.928,0.752-1.68,1.68-1.68h10.078
	c0.928,0,1.68,0.752,1.68,1.68v0C267.543,353.248,266.791,354,265.863,354z"/>
<path fill="#95A6DB" d="M284.9,354h-10.078c-0.928,0-1.68-0.752-1.68-1.68v0c0-0.928,0.752-1.68,1.68-1.68H284.9
	c0.928,0,1.68,0.752,1.68,1.68v0C286.58,353.248,285.828,354,284.9,354z"/>
<path fill="#E52713" d="M131.383,277.291c-0.412,0-0.743,0.341-0.743,0.762v8.467c0,0.423,0.331,0.762,0.743,0.762h46.568
	c0.408,0,0.736-0.339,0.736-0.762v-8.467c0-0.421-0.328-0.762-0.736-0.762H131.383"/>
<path fill="#E52713" d="M176.905,258.618c-0.395-1.088-13.633-37.338-14.202-38.882c-1.339-3.655-2.94-7.305-8.037-7.305
	c-5.093,0-6.756,3.709-8.044,7.305c-0.668,1.854-13.703,37.522-14.19,38.882c-0.14,0.379,0.041,0.828,0.437,0.98
	c0.407,0.159,7.317,2.834,7.721,2.995c0.402,0.161,0.814-0.084,0.946-0.445c0.133-0.363,3.014-8.28,3.336-9.164
	c0.947,0,18.666,0,19.613,0c0.323,0.885,3.173,8.788,3.314,9.164c0.141,0.377,0.568,0.588,0.949,0.445
	c0.379-0.141,7.259-2.819,7.728-2.995C176.943,259.418,177.016,258.918,176.905,258.618z M147.994,244.182l6.632-19.913h0.084
	l6.654,19.913H147.994z"/>
<g>
	
		<ellipse transform="matrix(0.2179 -0.976 0.976 0.2179 -81.2836 626.5947)" fill="#FFFFFF" cx="350.305" cy="364.012" rx="33.184" ry="33.184"/>
	
		<linearGradient id="SVGID_4_" gradientUnits="userSpaceOnUse" x1="321.6595" y1="332.8489" x2="380.2122" y2="391.4016" gradientTransform="matrix(1 0.0068 -0.0068 1 1.8452 -0.4293)">
		<stop  offset="1.065558e-07" style="stop-color:#00F1FB"/>
		<stop  offset="1" style="stop-color:#634EF1"/>
	</linearGradient>
	<path fill="url(#SVGID_4_)" d="M389.968,352.168L389.968,352.168c-4.282-14.274-16.062-25.321-30.792-28.537
		c-0.993-0.217-1.999-0.398-3.017-0.543l0,0c-0.443-0.062-0.888-0.117-1.336-0.167c-1.12-0.122-2.253-0.2-3.398-0.231
		c-0.279-0.008-0.558-0.013-0.839-0.014c-0.85-0.006-1.694,0.017-2.531,0.062c-21.696,1.16-39.004,19.042-39.154,41.059
		c-0.15,22.016,16.913,40.132,38.591,41.589c0.837,0.056,1.68,0.09,2.53,0.096c0.28,0.002,0.56-0.001,0.839-0.005
		c1.145-0.015,2.28-0.074,3.401-0.181c20.89-1.98,37.299-19.5,37.445-40.935C391.736,360.121,391.125,356.027,389.968,352.168z
		 M354.328,395.581c-1.117,0.141-2.251,0.225-3.401,0.248c-0.279,0.005-0.559,0.007-0.839,0.005
		c-0.852-0.006-1.695-0.046-2.53-0.118c-16.346-1.401-29.122-15.168-29.008-31.854c0.114-16.686,13.077-30.278,29.44-31.456
		c0.836-0.06,1.679-0.089,2.531-0.083c0.28,0.002,0.56,0.008,0.839,0.017c1.149,0.038,2.282,0.137,3.397,0.295l0.038,0.005l0,0
		c1.473,0.208,2.913,0.519,4.313,0.922c10.357,2.982,18.53,11.089,21.617,21.381h0c0.888,2.96,1.356,6.1,1.334,9.352
		C381.95,380.396,369.876,393.614,354.328,395.581z"/>
	<g>
		<g>
			
				<linearGradient id="SVGID_5_" gradientUnits="userSpaceOnUse" x1="331.2307" y1="356.9864" x2="347.5584" y2="356.9864" gradientTransform="matrix(1 0.0068 -0.0068 1 1.8452 -0.4293)">
				<stop  offset="0" style="stop-color:#00F1FB"/>
				<stop  offset="1" style="stop-color:#634EF1"/>
			</linearGradient>
			<path fill="url(#SVGID_5_)" d="M340.051,351.911l-9.368-0.064l-0.026,3.869l3.869,0.026l2.162,0.015l3.338,0.023
				c1.704,0.012,3.081,1.408,3.069,3.111c-0.012,1.704-1.408,3.081-3.112,3.07l-5.5-0.038l0.037-5.48l-3.869-0.026l-0.064,9.348
				l9.368,0.064c3.837,0.026,6.98-3.074,7.006-6.912C346.988,355.081,343.888,351.938,340.051,351.911z"/>
		</g>
		<g>
			
				<linearGradient id="SVGID_6_" gradientUnits="userSpaceOnUse" x1="331.2307" y1="367.0362" x2="349.1723" y2="367.0362" gradientTransform="matrix(1 0.0068 -0.0068 1 1.8452 -0.4293)">
				<stop  offset="0" style="stop-color:#00F1FB"/>
				<stop  offset="1" style="stop-color:#634EF1"/>
			</linearGradient>
			<path fill="url(#SVGID_6_)" d="M341.596,361.972l-10.982-0.075l-0.095,13.918l3.868,0.026l0.026-3.868l0.008-1.105l0.035-5.076
				l7.114,0.048c1.704,0.012,3.081,1.408,3.069,3.112c-0.012,1.704-1.408,3.081-3.112,3.069l-6.412-0.044l-0.026,3.869l6.412,0.044
				c3.837,0.026,6.98-3.074,7.006-6.911C348.534,365.141,345.433,361.998,341.596,361.972z"/>
		</g>
	</g>
	<g>
		
			<linearGradient id="SVGID_7_" gradientUnits="userSpaceOnUse" x1="351.651" y1="355.9481" x2="371.8696" y2="355.9481" gradientTransform="matrix(1 0.0068 -0.0068 1 1.8452 -0.4293)">
			<stop  offset="0" style="stop-color:#00F1FB"/>
			<stop  offset="1" style="stop-color:#634EF1"/>
		</linearGradient>
		<path fill="url(#SVGID_7_)" d="M355.408,363.845c0.257-4.138,3.71-7.414,7.905-7.385c1.624,0.011,3.195,0.528,4.501,1.454
			c0.842,0.598,1.98,0.553,2.748-0.137l0,0c1.036-0.929,0.961-2.589-0.171-3.399c-2.04-1.46-4.503-2.276-7.049-2.293
			c-6.609-0.045-12.046,5.179-12.322,11.731L355.408,363.845z"/>
		
			<linearGradient id="SVGID_8_" gradientUnits="userSpaceOnUse" x1="351.651" y1="368.6384" x2="371.8696" y2="368.6384" gradientTransform="matrix(1 0.0068 -0.0068 1 1.8452 -0.4293)">
			<stop  offset="0" style="stop-color:#00F1FB"/>
			<stop  offset="1" style="stop-color:#634EF1"/>
		</linearGradient>
		<path fill="url(#SVGID_8_)" d="M363.206,372.213c-4.195-0.029-7.603-3.352-7.804-7.492l-4.387-0.03
			c0.187,6.555,5.551,11.853,12.161,11.898c2.545,0.017,5.02-0.765,7.079-2.197c1.143-0.795,1.24-2.453,0.217-3.397l0,0
			c-0.759-0.7-1.896-0.76-2.746-0.174C366.409,371.728,364.83,372.224,363.206,372.213z"/>
	</g>
</g>
<g>
	<g>
		<g>
			<path fill="#FFFFFF" d="M423.719,156.418l-3.468-2.002l-0.827,1.432l1.432,0.827l0.8,0.462l1.236,0.713
				c0.631,0.364,0.848,1.174,0.484,1.804c-0.364,0.631-1.174,0.848-1.804,0.484l-2.036-1.175l1.171-2.028l-1.432-0.827l-1.998,3.46
				l3.468,2.002c1.42,0.82,3.243,0.332,4.063-1.089C425.628,159.061,425.14,157.238,423.719,156.418z"/>
		</g>
		<g>
			<path fill="#FFFFFF" d="M422.169,160.483l-4.065-2.347l-2.974,5.152l1.432,0.827l0.827-1.432l0.236-0.409l1.085-1.879l2.633,1.52
				c0.631,0.364,0.848,1.174,0.483,1.804c-0.364,0.631-1.174,0.848-1.804,0.483l-2.373-1.37l-0.827,1.432l2.373,1.37
				c1.42,0.82,3.243,0.332,4.063-1.089C424.078,163.125,423.59,161.303,422.169,160.483z"/>
		</g>
	</g>
	<g>
		<path fill="#FFFFFF" d="M426.906,164.095c0.969-1.483,2.944-1.971,4.497-1.075c0.601,0.347,1.076,0.871,1.365,1.491
			c0.187,0.4,0.619,0.623,1.05,0.529l0,0c0.581-0.127,0.904-0.759,0.654-1.299c-0.45-0.973-1.193-1.797-2.135-2.341
			c-2.446-1.412-5.569-0.619-7.056,1.757L426.906,164.095z"/>
		<path fill="#FFFFFF" d="M428.037,168.851c-1.553-0.897-2.117-2.851-1.318-4.432l-1.624-0.937c-1.315,2.475-0.44,5.577,2.006,6.989
			c0.942,0.544,2.027,0.776,3.094,0.679c0.592-0.054,0.979-0.65,0.798-1.216l0,0c-0.134-0.42-0.544-0.683-0.984-0.645
			C429.329,169.347,428.638,169.198,428.037,168.851z"/>
	</g>
</g>
<path fill="#E52713" d="M162.302,176.975c-0.145-0.4-5.01-13.72-5.219-14.288c-0.492-1.343-1.08-2.684-2.953-2.684
	c-1.872,0-2.482,1.363-2.956,2.684c-0.246,0.681-5.035,13.788-5.214,14.288c-0.051,0.139,0.015,0.304,0.161,0.36
	c0.15,0.058,2.689,1.041,2.837,1.1c0.148,0.059,0.299-0.031,0.348-0.163c0.049-0.133,1.108-3.042,1.226-3.368
	c0.348,0,6.859,0,7.207,0c0.119,0.325,1.166,3.229,1.218,3.368c0.052,0.138,0.209,0.216,0.349,0.163
	c0.139-0.052,2.667-1.036,2.84-1.1C162.316,177.269,162.343,177.085,162.302,176.975z M151.679,171.671l2.437-7.317h0.031
	l2.445,7.317H151.679z"/>
<path fill="#E52713" d="M192.066,128.922c-0.145-0.4-5.01-13.72-5.219-14.288c-0.492-1.343-1.08-2.684-2.953-2.684
	c-1.872,0-2.482,1.363-2.956,2.684c-0.246,0.681-5.035,13.788-5.214,14.288c-0.051,0.139,0.015,0.304,0.161,0.36
	c0.15,0.058,2.689,1.041,2.837,1.1c0.148,0.059,0.299-0.031,0.348-0.163c0.049-0.134,1.108-3.042,1.226-3.368
	c0.348,0,6.859,0,7.207,0c0.119,0.325,1.166,3.229,1.218,3.368c0.052,0.138,0.209,0.216,0.349,0.163
	c0.139-0.052,2.667-1.036,2.84-1.1C192.08,129.215,192.107,129.032,192.066,128.922z M181.442,123.617l2.437-7.317h0.031
	l2.445,7.317H181.442z"/>
<path fill="#E52713" d="M258.136,100.869c-0.145-0.4-5.01-13.72-5.219-14.288c-0.492-1.343-1.08-2.684-2.953-2.684
	c-1.872,0-2.482,1.363-2.956,2.684c-0.246,0.681-5.035,13.788-5.214,14.288c-0.051,0.139,0.015,0.304,0.161,0.36
	c0.15,0.058,2.689,1.041,2.837,1.1c0.148,0.059,0.299-0.031,0.348-0.163c0.049-0.134,1.108-3.042,1.226-3.368
	c0.348,0,6.859,0,7.207,0c0.119,0.325,1.166,3.229,1.218,3.368c0.052,0.138,0.209,0.216,0.349,0.163
	c0.139-0.052,2.667-1.036,2.84-1.1C258.15,101.163,258.176,100.979,258.136,100.869z M247.512,95.564l2.437-7.317h0.031l2.445,7.317
	H247.512z"/>
<path fill="#E52713" d="M320.846,128.922c-0.145-0.4-5.01-13.72-5.219-14.288c-0.492-1.343-1.08-2.684-2.953-2.684
	c-1.872,0-2.482,1.363-2.956,2.684c-0.246,0.681-5.035,13.788-5.214,14.288c-0.051,0.139,0.015,0.304,0.161,0.36
	c0.15,0.058,2.689,1.041,2.837,1.1c0.148,0.059,0.299-0.031,0.348-0.163c0.049-0.134,1.108-3.042,1.226-3.368
	c0.348,0,6.859,0,7.207,0c0.119,0.325,1.166,3.229,1.218,3.368c0.052,0.138,0.209,0.216,0.349,0.163
	c0.139-0.052,2.667-1.036,2.84-1.1C320.86,129.215,320.887,129.032,320.846,128.922z M310.222,123.617l2.437-7.317h0.031
	l2.445,7.317H310.222z"/>
<path fill="#E52713" d="M355.56,178.194c-0.145-0.4-5.01-13.72-5.219-14.288c-0.492-1.343-1.08-2.684-2.953-2.684
	c-1.872,0-2.482,1.363-2.956,2.684c-0.246,0.681-5.035,13.788-5.214,14.288c-0.051,0.139,0.015,0.304,0.161,0.36
	c0.15,0.058,2.689,1.041,2.837,1.1c0.148,0.059,0.299-0.031,0.348-0.163c0.049-0.134,1.108-3.042,1.226-3.368
	c0.348,0,6.859,0,7.207,0c0.119,0.325,1.166,3.229,1.218,3.368c0.052,0.138,0.209,0.216,0.349,0.163
	c0.139-0.052,2.667-1.036,2.84-1.1C355.575,178.488,355.601,178.304,355.56,178.194z M344.937,172.889l2.437-7.317h0.031
	l2.445,7.317H344.937z"/>
<g>
	<g>
		<g>
			<path fill="#FFFFFF" d="M110.418,127.89l-3.599,1.755l0.725,1.486l1.486-0.725l0.83-0.405l1.282-0.625
				c0.655-0.319,1.447-0.046,1.766,0.608c0.319,0.655,0.046,1.447-0.608,1.766l-2.113,1.03l-1.027-2.105l-1.486,0.725l1.751,3.591
				l3.599-1.755c1.474-0.719,2.088-2.503,1.369-3.977C113.676,127.786,111.892,127.171,110.418,127.89z"/>
		</g>
		<g>
			<path fill="#FFFFFF" d="M112.92,131.448l-4.219,2.058l2.608,5.346l1.486-0.725l-0.725-1.486l-0.207-0.424l-0.951-1.95
				l2.733-1.333c0.655-0.319,1.447-0.046,1.766,0.608c0.319,0.654,0.046,1.447-0.608,1.766l-2.463,1.201l0.725,1.486l2.463-1.201
				c1.474-0.719,2.088-2.503,1.369-3.977C116.179,131.344,114.394,130.729,112.92,131.448z"/>
		</g>
	</g>
	<g>
		<path fill="#FFFFFF" d="M118.564,129.541c-0.687-1.633,0.012-3.543,1.623-4.329c0.624-0.304,1.324-0.405,1.999-0.298
			c0.436,0.069,0.863-0.164,1.026-0.575l0,0c0.22-0.553-0.124-1.174-0.711-1.269c-1.058-0.172-2.156-0.016-3.134,0.461
			c-2.539,1.238-3.628,4.271-2.489,6.832L118.564,129.541z"/>
		<path fill="#FFFFFF" d="M123.139,131.263c-1.612,0.786-3.547,0.161-4.411-1.386l-1.685,0.822c1.317,2.474,4.377,3.483,6.916,2.245
			c0.978-0.477,1.776-1.246,2.293-2.186c0.286-0.521,0.009-1.175-0.562-1.342l0,0c-0.424-0.124-0.87,0.069-1.085,0.455
			C124.273,130.47,123.763,130.959,123.139,131.263z"/>
	</g>
</g>
<ellipse transform="matrix(0.0595 -0.9982 0.9982 0.0595 -30.2809 508.0043)" fill="#D4DEFF" cx="254.463" cy="270.073" rx="15.042" ry="15.042"/>
<g>
	<g>
		<g>
			<path fill="#FFFFFF" d="M249.26,265.89l-3.93,0.764l0.315,1.623l1.623-0.315l0.907-0.176l1.4-0.272
				c0.715-0.139,1.41,0.33,1.549,1.044c0.139,0.715-0.33,1.41-1.045,1.549l-2.307,0.449l-0.447-2.299l-1.623,0.315l0.762,3.922
				l3.93-0.764c1.61-0.313,2.665-1.877,2.352-3.487C252.434,266.633,250.87,265.578,249.26,265.89z"/>
		</g>
		<g>
			<path fill="#FFFFFF" d="M250.757,269.975l-4.608,0.896l1.135,5.839l1.623-0.315l-0.315-1.623l-0.09-0.464l-0.414-2.13l2.984-0.58
				c0.715-0.139,1.41,0.33,1.549,1.045c0.139,0.715-0.33,1.41-1.045,1.549l-2.69,0.523l0.315,1.623l2.69-0.523
				c1.61-0.313,2.665-1.877,2.352-3.487C253.931,270.717,252.367,269.662,250.757,269.975z"/>
		</g>
	</g>
	<g>
		<path fill="#FFFFFF" d="M256.702,269.594c-0.241-1.755,0.928-3.419,2.689-3.762c0.681-0.132,1.383-0.049,2.008,0.229
			c0.403,0.179,0.876,0.064,1.14-0.289l0,0c0.356-0.477,0.184-1.166-0.358-1.41c-0.978-0.44-2.079-0.573-3.147-0.366
			c-2.773,0.539-4.61,3.187-4.172,5.955L256.702,269.594z"/>
		<path fill="#FFFFFF" d="M260.675,272.441c-1.76,0.342-3.468-0.763-3.902-2.48l-1.84,0.358c0.632,2.731,3.326,4.498,6.099,3.959
			c1.068-0.208,2.039-0.744,2.781-1.518c0.412-0.429,0.313-1.132-0.196-1.441l0,0c-0.377-0.229-0.858-0.159-1.165,0.159
			C261.976,271.968,261.356,272.309,260.675,272.441z"/>
	</g>
</g>
</svg>
