<svg id="ex7e28yp3f9i1" xmlns="http://www.w3.org/2000/svg" xmlns:xlink="http://www.w3.org/1999/xlink" viewBox="0 0 500 500" shape-rendering="geometricPrecision" text-rendering="geometricPrecision"><style><![CDATA[#ex7e28yp3f9i62_to {animation: ex7e28yp3f9i62_to__to 6000ms linear infinite normal forwards}@keyframes ex7e28yp3f9i62_to__to { 0% {transform: translate(142.093483px,396.873428px)} 16.666667% {transform: translate(142.093483px,385.873428px)} 33.333333% {transform: translate(142.093483px,396.873428px)} 50% {transform: translate(142.093483px,385.873428px)} 66.666667% {transform: translate(142.093483px,396.873428px)} 83.333333% {transform: translate(142.093483px,385.873428px)} 100% {transform: translate(142.093483px,396.873428px)} }]]></style><defs><rect id="ex7e28yp3f9i2" width="483.800000" height="483.800000" rx="0" ry="0"/><radialGradient id="ex7e28yp3f9i6-fill" cx="214.818539" cy="322.071999" r="0" spreadMethod="pad" gradientUnits="userSpaceOnUse"><stop id="ex7e28yp3f9i6-fill-0" offset="0%" stop-color="rgb(221,221,221)"/><stop id="ex7e28yp3f9i6-fill-1" offset="100%" stop-color="rgba(255,255,255,0)"/></radialGradient><linearGradient id="ex7e28yp3f9i10-fill" x1="306.256500" y1="38.778800" x2="306.256500" y2="156.738700" spreadMethod="pad" gradientUnits="userSpaceOnUse"><stop id="ex7e28yp3f9i10-fill-0" offset="0%" stop-color="rgb(2,27,121)"/><stop id="ex7e28yp3f9i10-fill-1" offset="43.280000%" stop-color="rgb(2,27,119)"/><stop id="ex7e28yp3f9i10-fill-2" offset="58.880000%" stop-color="rgb(2,25,112)"/><stop id="ex7e28yp3f9i10-fill-3" offset="69.990000%" stop-color="rgb(2,22,101)"/><stop id="ex7e28yp3f9i10-fill-4" offset="78.980000%" stop-color="rgb(1,19,84)"/><stop id="ex7e28yp3f9i10-fill-5" offset="86.670000%" stop-color="rgb(1,14,62)"/><stop id="ex7e28yp3f9i10-fill-6" offset="93.370000%" stop-color="rgb(1,8,35)"/><stop id="ex7e28yp3f9i10-fill-7" offset="99.390000%" stop-color="rgb(0,1,4)"/><stop id="ex7e28yp3f9i10-fill-8" offset="100%" stop-color="rgb(0,0,0)"/></linearGradient><linearGradient id="ex7e28yp3f9i13-fill" x1="359.799500" y1="91.374100" x2="359.799500" y2="212.567700" spreadMethod="pad" gradientUnits="userSpaceOnUse"><stop id="ex7e28yp3f9i13-fill-0" offset="0%" stop-color="rgb(48,116,225)"/><stop id="ex7e28yp3f9i13-fill-1" offset="100%" stop-color="rgb(28,53,153)"/></linearGradient><linearGradient id="ex7e28yp3f9i16-fill" x1="413.881500" y1="150.344300" x2="413.881500" y2="269.878800" spreadMethod="pad" gradientUnits="userSpaceOnUse"><stop id="ex7e28yp3f9i16-fill-0" offset="0%" stop-color="rgb(213,226,247)"/><stop id="ex7e28yp3f9i16-fill-1" offset="100%" stop-color="rgb(172,189,226)"/></linearGradient><linearGradient id="ex7e28yp3f9i18-fill" x1="275.893800" y1="247.000600" x2="672.367300" y2="528.881600" spreadMethod="pad" gradientUnits="userSpaceOnUse"><stop id="ex7e28yp3f9i18-fill-0" offset="0%" stop-color="rgb(255,255,255)"/><stop id="ex7e28yp3f9i18-fill-1" offset="100%" stop-color="rgb(48,116,225)"/></linearGradient><linearGradient id="ex7e28yp3f9i22-fill" x1="269.612100" y1="127.531200" x2="269.612100" y2="258.084900" spreadMethod="pad" gradientUnits="userSpaceOnUse"><stop id="ex7e28yp3f9i22-fill-0" offset="0%" stop-color="rgb(2,27,121)"/><stop id="ex7e28yp3f9i22-fill-1" offset="22.070000%" stop-color="rgb(2,26,118)"/><stop id="ex7e28yp3f9i22-fill-2" offset="39.840000%" stop-color="rgb(2,24,108)"/><stop id="ex7e28yp3f9i22-fill-3" offset="56.110000%" stop-color="rgb(1,20,91)"/><stop id="ex7e28yp3f9i22-fill-4" offset="71.490000%" stop-color="rgb(1,15,67)"/><stop id="ex7e28yp3f9i22-fill-5" offset="86.110000%" stop-color="rgb(1,8,37)"/><stop id="ex7e28yp3f9i22-fill-6" offset="100%" stop-color="rgb(0,0,0)"/></linearGradient><linearGradient id="ex7e28yp3f9i25-fill" x1="322.577600" y1="207.101500" x2="322.577600" y2="283.557600" spreadMethod="pad" gradientUnits="userSpaceOnUse"><stop id="ex7e28yp3f9i25-fill-0" offset="0%" stop-color="rgb(28,53,153)"/><stop id="ex7e28yp3f9i25-fill-1" offset="91.980000%" stop-color="rgb(15,18,59)"/></linearGradient><linearGradient id="ex7e28yp3f9i28-fill" x1="376.596600" y1="256.023700" x2="376.596600" y2="365.336600" spreadMethod="pad" gradientUnits="userSpaceOnUse"><stop id="ex7e28yp3f9i28-fill-0" offset="0%" stop-color="rgb(172,189,226)"/><stop id="ex7e28yp3f9i28-fill-1" offset="91.980000%" stop-color="rgb(63,72,147)"/></linearGradient><linearGradient id="ex7e28yp3f9i36-fill" x1="221.807000" y1="326.033600" x2="459.453300" y2="464.152800" spreadMethod="pad" gradientUnits="userSpaceOnUse"><stop id="ex7e28yp3f9i36-fill-0" offset="0%" stop-color="rgb(255,255,255)"/><stop id="ex7e28yp3f9i36-fill-1" offset="100%" stop-color="rgb(48,116,225)"/></linearGradient><linearGradient id="ex7e28yp3f9i57-fill" x1="0" y1="0.500000" x2="1" y2="0.500000" spreadMethod="pad" gradientUnits="objectBoundingBox"><stop id="ex7e28yp3f9i57-fill-0" offset="0%" stop-color="rgb(0,132,233)"/><stop id="ex7e28yp3f9i57-fill-1" offset="100%" stop-color="rgb(125,231,232)"/></linearGradient><linearGradient id="ex7e28yp3f9i58-fill" x1="51.628500" y1="431.266700" x2="207.012500" y2="421.581500" spreadMethod="pad" gradientUnits="userSpaceOnUse"><stop id="ex7e28yp3f9i58-fill-0" offset="0%" stop-color="rgb(15,18,59)"/><stop id="ex7e28yp3f9i58-fill-1" offset="23.850000%" stop-color="rgb(27,32,98)"/><stop id="ex7e28yp3f9i58-fill-2" offset="29.650000%" stop-color="rgb(29,36,105)"/><stop id="ex7e28yp3f9i58-fill-3" offset="38.130000%" stop-color="rgb(35,46,125)"/><stop id="ex7e28yp3f9i58-fill-4" offset="48.220000%" stop-color="rgb(45,62,157)"/><stop id="ex7e28yp3f9i58-fill-5" offset="58.160000%" stop-color="rgb(56,82,195)"/><stop id="ex7e28yp3f9i58-fill-6" offset="100%" stop-color="rgb(100,213,247)"/></linearGradient><linearGradient id="ex7e28yp3f9i61-fill" x1="120.775000" y1="429.713000" x2="120.775000" y2="254.939800" spreadMethod="pad" gradientUnits="userSpaceOnUse"><stop id="ex7e28yp3f9i61-fill-0" offset="0%" stop-color="rgb(221,221,221)"/><stop id="ex7e28yp3f9i61-fill-1" offset="100%" stop-color="rgba(255,255,255,0)"/></linearGradient><linearGradient id="ex7e28yp3f9i64-fill" x1="125.969800" y1="392.632400" x2="164.089800" y2="392.632400" spreadMethod="pad" gradientUnits="userSpaceOnUse"><stop id="ex7e28yp3f9i64-fill-0" offset="0%" stop-color="rgb(0,241,251)"/><stop id="ex7e28yp3f9i64-fill-1" offset="100%" stop-color="rgb(99,78,241)"/></linearGradient><linearGradient id="ex7e28yp3f9i66-fill" x1="120.273100" y1="403.225400" x2="143.107100" y2="403.225400" spreadMethod="pad" gradientUnits="userSpaceOnUse"><stop id="ex7e28yp3f9i66-fill-0" offset="0%" stop-color="rgb(0,241,251)"/><stop id="ex7e28yp3f9i66-fill-1" offset="100%" stop-color="rgb(99,78,241)"/></linearGradient><linearGradient id="ex7e28yp3f9i68-fill" x1="120.268700" y1="390.700700" x2="164.058800" y2="390.700700" spreadMethod="pad" gradientUnits="userSpaceOnUse"><stop id="ex7e28yp3f9i68-fill-0" offset="0%" stop-color="rgb(0,241,251)"/><stop id="ex7e28yp3f9i68-fill-1" offset="100%" stop-color="rgb(99,78,241)"/></linearGradient><linearGradient id="ex7e28yp3f9i74-fill" x1="89.295300" y1="396.938000" x2="113.527600" y2="396.938000" spreadMethod="pad" gradientUnits="userSpaceOnUse"><stop id="ex7e28yp3f9i74-fill-0" offset="0%" stop-color="rgb(0,241,251)"/><stop id="ex7e28yp3f9i74-fill-1" offset="100%" stop-color="rgb(99,78,241)"/></linearGradient><linearGradient id="ex7e28yp3f9i80-fill" x1="79.570500" y1="374.103900" x2="112.853500" y2="374.103900" spreadMethod="pad" gradientUnits="userSpaceOnUse"><stop id="ex7e28yp3f9i80-fill-0" offset="0%" stop-color="rgb(0,241,251)"/><stop id="ex7e28yp3f9i80-fill-1" offset="100%" stop-color="rgb(99,78,241)"/></linearGradient><linearGradient id="ex7e28yp3f9i82-fill" x1="86.080300" y1="397.808400" x2="98.537000" y2="397.808400" spreadMethod="pad" gradientUnits="userSpaceOnUse"><stop id="ex7e28yp3f9i82-fill-0" offset="0%" stop-color="rgb(0,241,251)"/><stop id="ex7e28yp3f9i82-fill-1" offset="100%" stop-color="rgb(99,78,241)"/></linearGradient><linearGradient id="ex7e28yp3f9i84-fill" x1="87.471600" y1="383.489400" x2="99.405800" y2="383.489400" spreadMethod="pad" gradientUnits="userSpaceOnUse"><stop id="ex7e28yp3f9i84-fill-0" offset="0%" stop-color="rgb(0,241,251)"/><stop id="ex7e28yp3f9i84-fill-1" offset="100%" stop-color="rgb(99,78,241)"/></linearGradient><linearGradient id="ex7e28yp3f9i88-fill" x1="79.570500" y1="386.124500" x2="103.803700" y2="386.124500" spreadMethod="pad" gradientUnits="userSpaceOnUse"><stop id="ex7e28yp3f9i88-fill-0" offset="0%" stop-color="rgb(0,241,251)"/><stop id="ex7e28yp3f9i88-fill-1" offset="100%" stop-color="rgb(99,78,241)"/></linearGradient></defs><g id="ex7e28yp3f9i3" display="none"><g id="ex7e28yp3f9i4"><g id="ex7e28yp3f9i5" clip-path="url(#ex7e28yp3f9i7)"><path id="ex7e28yp3f9i6" d="M-93.400000,322.100000L214.700000,500L523,322L214.900000,144.100000L-93.400000,322.100000ZM237.300000,485.800000L214.700000,498.800000L192.200000,485.800000L214.800000,472.800000L237.300000,485.800000ZM213.700000,472.100000L191.100000,485.100000L168.600000,472.100000L191.200000,459.100000L213.700000,472.100000ZM190,458.500000L167.400000,471.500000L144.900000,458.500000L167.500000,445.500000L190,458.500000ZM166.400000,444.900000L143.800000,457.900000L121.300000,444.900000L143.900000,431.900000L166.400000,444.900000ZM142.800000,431.200000L120.200000,444.200000L97.700000,431.200000L120.300000,418.200000L142.800000,431.200000ZM119.200000,417.600000L96.600000,430.600000L74.100000,417.600000L96.700000,404.600000L119.200000,417.600000ZM95.600000,403.900000L73,417L50.500000,404L73.100000,391L95.600000,403.900000ZM71.900000,390.300000L49.300000,403.300000L26.800000,390.300000L49.400000,377.300000L71.900000,390.300000ZM48.300000,376.700000L25.700000,389.700000L3.200000,376.700000L25.800000,363.700000L48.300000,376.700000ZM24.700000,363L2.100000,376L-20.400000,363L2.200000,350L24.700000,363ZM1.100000,349.400000L-21.500000,362.400000L-44,349.400000L-21.400000,336.400000L1.100000,349.400000ZM-22.500000,335.800000L-45.100000,348.800000L-67.600000,335.800000L-45,322.800000L-22.500000,335.800000ZM-46.200000,322.100000L-68.800000,335.100000L-91.300000,322.100000L-68.700000,309.100000L-46.200000,322.100000ZM260.900000,472.100000L238.300000,485.100000L215.800000,472.100000L238.400000,459.100000L260.900000,472.100000ZM237.300000,458.500000L214.700000,471.500000L192.200000,458.500000L214.800000,445.500000L237.300000,458.500000ZM213.700000,444.800000L191.100000,457.800000L168.600000,444.800000L191.200000,431.800000L213.700000,444.800000ZM190.100000,431.200000L167.500000,444.200000L145,431.200000L167.600000,418.200000L190.100000,431.200000ZM166.400000,417.600000L143.800000,430.600000L121.300000,417.600000L143.900000,404.600000L166.400000,417.600000ZM142.800000,403.900000L120.200000,416.900000L97.700000,403.900000L120.300000,390.900000L142.800000,403.900000ZM119.200000,390.300000L96.600000,403.300000L74.100000,390.300000L96.700000,377.300000L119.200000,390.300000ZM95.600000,376.700000L73,389.700000L50.500000,376.700000L73.100000,363.700000L95.600000,376.700000ZM72,363L49.400000,376L26.900000,363L49.500000,350L72,363ZM48.300000,349.400000L25.700000,362.400000L3.200000,349.400000L25.800000,336.400000L48.300000,349.400000ZM24.700000,335.700000L2.100000,348.700000L-20.400000,335.700000L2.200000,322.700000L24.700000,335.700000ZM1.100000,322.100000L-21.500000,335.100000L-44,322.100000L-21.400000,309.100000L1.100000,322.100000ZM-22.500000,308.500000L-45.100000,321.500000L-67.600000,308.500000L-45,295.500000L-22.500000,308.500000ZM284.600000,458.500000L262,471.500000L239.500000,458.500000L262.100000,445.500000L284.600000,458.500000ZM260.900000,444.800000L238.300000,457.800000L215.800000,444.800000L238.400000,431.800000L260.900000,444.800000ZM237.300000,431.200000L214.700000,444.200000L192.200000,431.200000L214.800000,418.200000L237.300000,431.200000ZM213.700000,417.600000L191.100000,430.600000L168.600000,417.600000L191.200000,404.600000L213.700000,417.600000ZM190.100000,403.900000L167.500000,416.900000L145,403.900000L167.600000,390.900000L190.100000,403.900000ZM166.500000,390.300000L143.900000,403.300000L121.400000,390.300000L144,377.300000L166.500000,390.300000ZM142.800000,376.600000L120.200000,389.600000L97.700000,376.600000L120.300000,363.600000L142.800000,376.600000ZM119.200000,363L96.600000,376L74.100000,363L96.700000,350L119.200000,363ZM95.600000,349.400000L73,362.400000L50.500000,349.400000L73.100000,336.400000L95.600000,349.400000ZM72,335.700000L49.400000,348.700000L26.900000,335.700000L49.500000,322.700000L72,335.700000ZM48.400000,322.100000L25.800000,335.100000L3.300000,322.100000L25.900000,309.100000L48.400000,322.100000ZM24.700000,308.500000L2.100000,321.500000L-20.400000,308.500000L2.200000,295.500000L24.700000,308.500000ZM1.100000,294.800000L-21.500000,307.800000L-44,294.800000L-21.400000,281.800000L1.100000,294.800000ZM308.200000,444.800000L285.600000,457.800000L263.100000,444.800000L285.700000,431.800000L308.200000,444.800000ZM284.600000,431.200000L262,444.200000L239.500000,431.200000L262.100000,418.200000L284.600000,431.200000ZM260.900000,417.600000L238.300000,430.600000L215.800000,417.600000L238.400000,404.600000L260.900000,417.600000ZM237.300000,403.900000L214.700000,416.900000L192.200000,403.900000L214.800000,390.900000L237.300000,403.900000ZM213.700000,390.300000L191.100000,403.300000L168.600000,390.300000L191.200000,377.300000L213.700000,390.300000ZM190.100000,376.600000L167.500000,389.600000L145,376.600000L167.600000,363.600000L190.100000,376.600000ZM166.500000,363L143.900000,376L121.400000,363L144,350L166.500000,363ZM142.800000,349.400000L120.200000,362.400000L97.700000,349.400000L120.300000,336.400000L142.800000,349.400000ZM119.200000,335.700000L96.600000,348.700000L74.100000,335.700000L96.700000,322.700000L119.200000,335.700000ZM95.600000,322.100000L73,335.100000L50.500000,322.100000L73.100000,309.100000L95.600000,322.100000ZM72,308.500000L49.400000,321.500000L26.900000,308.500000L49.500000,295.500000L72,308.500000ZM48.400000,294.800000L25.800000,307.800000L3.300000,294.800000L25.900000,281.800000L48.400000,294.800000ZM24.700000,281.200000L2.100000,294.200000L-20.400000,281.200000L2.200000,268.200000L24.700000,281.200000ZM331.800000,431.200000L309.200000,444.200000L286.700000,431.200000L309.300000,418.200000L331.800000,431.200000ZM308.200000,417.500000L285.600000,430.500000L263.100000,417.500000L285.700000,404.500000L308.200000,417.500000ZM284.600000,403.900000L262,416.900000L239.500000,403.900000L262.100000,390.900000L284.600000,403.900000ZM261,390.300000L238.400000,403.300000L215.900000,390.300000L238.500000,377.300000L261,390.300000ZM237.300000,376.600000L214.700000,389.600000L192.200000,376.600000L214.800000,363.600000L237.300000,376.600000ZM213.700000,363L191.100000,376L168.600000,363L191.200000,350L213.700000,363ZM190.100000,349.400000L167.500000,362.400000L145,349.400000L167.600000,336.400000L190.100000,349.400000ZM166.500000,335.700000L143.900000,348.700000L121.400000,335.700000L144,322.700000L166.500000,335.700000ZM142.900000,322.100000L120.300000,335.100000L97.800000,322.100000L120.400000,309.100000L142.900000,322.100000ZM119.200000,308.400000L96.600000,321.400000L74.100000,308.400000L96.700000,295.400000L119.200000,308.400000ZM95.600000,294.800000L73,307.800000L50.500000,294.800000L73.100000,281.800000L95.600000,294.800000ZM72,281.200000L49.400000,294.200000L26.900000,281.200000L49.500000,268.200000L72,281.200000ZM48.400000,267.500000L25.800000,280.500000L3.300000,267.500000L25.900000,254.500000L48.400000,267.500000ZM355.500000,417.500000L332.900000,430.500000L310.400000,417.500000L333,404.500000L355.500000,417.500000ZM331.800000,403.900000L309.200000,416.900000L286.700000,403.900000L309.300000,390.900000L331.800000,403.900000ZM308.200000,390.300000L285.600000,403.300000L263.100000,390.300000L285.700000,377.300000L308.200000,390.300000ZM284.600000,376.600000L262,389.600000L239.500000,376.600000L262.100000,363.600000L284.600000,376.600000ZM261,363L238.400000,376L215.900000,363L238.500000,350L261,363ZM237.400000,349.400000L214.800000,362.400000L192.300000,349.400000L214.900000,336.400000L237.400000,349.400000ZM213.700000,335.700000L191.100000,348.700000L168.600000,335.700000L191.200000,322.700000L213.700000,335.700000ZM190.100000,322.100000L167.500000,335.100000L145,322.100000L167.600000,309.100000L190.100000,322.100000ZM166.500000,308.400000L143.900000,321.400000L121.400000,308.400000L144,295.400000L166.500000,308.400000ZM142.900000,294.800000L120.300000,307.800000L97.800000,294.800000L120.400000,281.800000L142.900000,294.800000ZM119.300000,281.200000L96.700000,294.200000L74.200000,281.200000L96.800000,268.200000L119.300000,281.200000ZM95.600000,267.500000L73,280.500000L50.500000,267.500000L73.100000,254.500000L95.600000,267.500000ZM72,253.900000L49.400000,266.900000L26.900000,253.900000L49.500000,240.900000L72,253.900000ZM379.100000,403.900000L356.500000,416.900000L334,403.900000L356.600000,390.900000L379.100000,403.900000ZM355.500000,390.300000L332.900000,403.300000L310.400000,390.300000L333,377.300000L355.500000,390.300000ZM331.900000,376.600000L309.300000,389.600000L286.800000,376.600000L309.400000,363.600000L331.900000,376.600000ZM308.200000,363L285.600000,376L263.100000,363L285.700000,350L308.200000,363ZM284.600000,349.300000L262,362.300000L239.500000,349.300000L262.100000,336.300000L284.600000,349.300000ZM261,335.700000L238.400000,348.700000L215.900000,335.700000L238.500000,322.700000L261,335.700000ZM237.400000,322.100000L214.800000,335.100000L192.300000,322.100000L214.900000,309.100000L237.400000,322.100000ZM213.800000,308.400000L191.200000,321.400000L168.700000,308.400000L191.300000,295.400000L213.800000,308.400000ZM190.100000,294.800000L167.500000,307.800000L145,294.800000L167.600000,281.800000L190.100000,294.800000ZM166.500000,281.200000L143.900000,294.200000L121.400000,281.200000L144,268.200000L166.500000,281.200000ZM142.900000,267.500000L120.300000,280.500000L97.800000,267.500000L120.400000,254.500000L142.900000,267.500000ZM119.300000,253.900000L96.700000,266.900000L74.200000,253.900000L96.800000,240.900000L119.300000,253.900000ZM95.700000,240.200000L73.100000,253.200000L50.600000,240.200000L73.200000,227.200000L95.700000,240.200000ZM402.700000,390.200000L380.100000,403.200000L357.600000,390.200000L380.200000,377.200000L402.700000,390.200000ZM379.100000,376.600000L356.500000,389.600000L334,376.600000L356.600000,363.600000L379.100000,376.600000ZM355.500000,363L332.900000,376L310.400000,363L333,350L355.500000,363ZM331.900000,349.300000L309.300000,362.300000L286.800000,349.300000L309.400000,336.300000L331.900000,349.300000ZM308.200000,335.700000L285.600000,348.700000L263.100000,335.700000L285.700000,322.700000L308.200000,335.700000ZM284.600000,322.100000L262,335.100000L239.500000,322.100000L262.100000,309.100000L284.600000,322.100000ZM261,308.400000L238.400000,321.400000L215.900000,308.400000L238.500000,295.400000L261,308.400000ZM237.400000,294.800000L214.800000,307.800000L192.300000,294.800000L214.900000,281.800000L237.400000,294.800000ZM213.800000,281.100000L191.200000,294.100000L168.700000,281.100000L191.300000,268.100000L213.800000,281.100000ZM190.100000,267.500000L167.500000,280.500000L145,267.500000L167.600000,254.500000L190.100000,267.500000ZM166.500000,253.900000L143.900000,266.900000L121.400000,253.900000L144,240.900000L166.500000,253.900000ZM142.900000,240.200000L120.300000,253.200000L97.800000,240.200000L120.400000,227.200000L142.900000,240.200000ZM119.300000,226.600000L96.700000,239.600000L74.200000,226.600000L96.800000,213.600000L119.300000,226.600000ZM426.400000,376.600000L403.800000,389.600000L381.300000,376.600000L403.900000,363.600000L426.400000,376.600000ZM402.700000,363L380.100000,376L357.600000,363L380.200000,350L402.700000,363ZM379.100000,349.300000L356.500000,362.300000L334,349.300000L356.600000,336.300000L379.100000,349.300000ZM355.500000,335.700000L332.900000,348.700000L310.400000,335.700000L333,322.700000L355.500000,335.700000ZM331.900000,322L309.300000,335L286.800000,322L309.400000,309L331.900000,322ZM308.300000,308.400000L285.700000,321.400000L263.200000,308.400000L285.800000,295.400000L308.300000,308.400000ZM284.600000,294.800000L262,307.800000L239.500000,294.800000L262.100000,281.800000L284.600000,294.800000ZM261,281.100000L238.400000,294.100000L215.900000,281.100000L238.500000,268.100000L261,281.100000ZM237.400000,267.500000L214.800000,280.500000L192.300000,267.500000L214.900000,254.500000L237.400000,267.500000ZM213.800000,253.900000L191.200000,266.900000L168.700000,253.900000L191.300000,240.900000L213.800000,253.900000ZM190.200000,240.200000L167.600000,253.200000L145.100000,240.200000L167.700000,227.200000L190.200000,240.200000ZM166.500000,226.600000L143.900000,239.600000L121.400000,226.600000L144,213.600000L166.500000,226.600000ZM142.900000,213L120.300000,226L97.800000,213L120.400000,200L142.900000,213ZM450,363L427.400000,376L404.900000,363L427.500000,350L450,363ZM426.400000,349.300000L403.800000,362.300000L381.300000,349.300000L403.900000,336.300000L426.400000,349.300000ZM402.800000,335.700000L380.200000,348.700000L357.700000,335.700000L380.300000,322.700000L402.800000,335.700000ZM379.100000,322L356.500000,335L334,322L356.600000,309L379.100000,322ZM355.500000,308.400000L332.900000,321.400000L310.400000,308.400000L333,295.400000L355.500000,308.400000ZM331.900000,294.800000L309.300000,307.800000L286.800000,294.800000L309.400000,281.800000L331.900000,294.800000ZM308.300000,281.100000L285.700000,294.100000L263.200000,281.100000L285.800000,268.100000L308.300000,281.100000ZM284.700000,267.500000L262.100000,280.500000L239.600000,267.500000L262.200000,254.500000L284.700000,267.500000ZM261,253.900000L238.400000,266.900000L215.900000,253.900000L238.500000,240.900000L261,253.900000ZM237.400000,240.200000L214.800000,253.200000L192.300000,240.200000L214.900000,227.200000L237.400000,240.200000ZM213.800000,226.600000L191.200000,239.600000L168.700000,226.600000L191.300000,213.600000L213.800000,226.600000ZM190.200000,212.900000L167.600000,225.900000L145.100000,212.900000L167.700000,199.900000L190.200000,212.900000ZM166.600000,199.300000L144,212.300000L121.500000,199.300000L144.100000,186.300000L166.600000,199.300000ZM473.600000,349.300000L451,362.300000L428.500000,349.300000L451.100000,336.300000L473.600000,349.300000ZM450,335.700000L427.400000,348.700000L404.900000,335.700000L427.500000,322.700000L450,335.700000ZM426.400000,322L403.800000,335L381.300000,322L403.900000,309L426.400000,322ZM402.800000,308.400000L380.200000,321.400000L357.700000,308.400000L380.300000,295.400000L402.800000,308.400000ZM379.100000,294.800000L356.500000,307.800000L334,294.800000L356.600000,281.800000L379.100000,294.800000ZM355.500000,281.100000L332.900000,294.100000L310.400000,281.100000L333,268.100000L355.500000,281.100000ZM331.900000,267.500000L309.300000,280.500000L286.800000,267.500000L309.400000,254.500000L331.900000,267.500000ZM308.300000,253.800000L285.700000,266.800000L263.200000,253.800000L285.800000,240.800000L308.300000,253.800000ZM284.700000,240.200000L262.100000,253.200000L239.600000,240.200000L262.200000,227.200000L284.700000,240.200000ZM261.100000,226.600000L238.500000,239.600000L216,226.600000L238.600000,213.600000L261.100000,226.600000ZM237.400000,212.900000L214.800000,225.900000L192.300000,212.900000L214.900000,199.900000L237.400000,212.900000ZM213.800000,199.300000L191.200000,212.300000L168.700000,199.300000L191.300000,186.300000L213.800000,199.300000ZM190.200000,185.700000L167.600000,198.700000L145.100000,185.700000L167.700000,172.700000L190.200000,185.700000ZM497.300000,335.700000L474.700000,348.700000L452.200000,335.700000L474.800000,322.700000L497.300000,335.700000ZM473.600000,322L451,335L428.500000,322L451.100000,309L473.600000,322ZM450,308.400000L427.400000,321.400000L404.900000,308.400000L427.500000,295.400000L450,308.400000ZM426.400000,294.800000L403.800000,307.800000L381.300000,294.800000L403.900000,281.800000L426.400000,294.800000ZM402.800000,281.100000L380.200000,294.100000L357.700000,281.100000L380.300000,268.100000L402.800000,281.100000ZM379.200000,267.500000L356.600000,280.500000L334.100000,267.500000L356.700000,254.500000L379.200000,267.500000ZM355.500000,253.800000L332.900000,266.800000L310.400000,253.800000L333,240.800000L355.500000,253.800000ZM331.900000,240.200000L309.300000,253.200000L286.800000,240.200000L309.400000,227.200000L331.900000,240.200000ZM308.300000,226.600000L285.700000,239.600000L263.200000,226.600000L285.800000,213.600000L308.300000,226.600000ZM284.700000,212.900000L262.100000,225.900000L239.600000,212.900000L262.200000,199.900000L284.700000,212.900000ZM261.100000,199.300000L238.500000,212.300000L216,199.300000L238.600000,186.300000L261.100000,199.300000ZM237.400000,185.700000L214.800000,198.700000L192.300000,185.700000L214.900000,172.700000L237.400000,185.700000ZM213.800000,172L191.200000,185L168.700000,172L191.300000,159L213.800000,172ZM520.900000,322L498.300000,335L475.800000,322L498.400000,309L520.900000,322ZM497.300000,308.400000L474.700000,321.400000L452.200000,308.400000L474.800000,295.400000L497.300000,308.400000ZM473.700000,294.700000L451.100000,307.700000L428.600000,294.700000L451.200000,281.700000L473.700000,294.700000ZM450,281.100000L427.400000,294.100000L404.900000,281.100000L427.500000,268.100000L450,281.100000ZM426.400000,267.500000L403.800000,280.500000L381.300000,267.500000L403.900000,254.500000L426.400000,267.500000ZM402.800000,253.800000L380.200000,266.800000L357.700000,253.800000L380.300000,240.800000L402.800000,253.800000ZM379.200000,240.200000L356.600000,253.200000L334.100000,240.200000L356.700000,227.200000L379.200000,240.200000ZM355.600000,226.600000L333,239.600000L310.500000,226.600000L333.100000,213.600000L355.600000,226.600000ZM331.900000,212.900000L309.300000,225.900000L286.800000,212.900000L309.400000,199.900000L331.900000,212.900000ZM308.300000,199.300000L285.700000,212.300000L263.200000,199.300000L285.800000,186.300000L308.300000,199.300000ZM284.700000,185.600000L262.100000,198.600000L239.600000,185.600000L262.200000,172.600000L284.700000,185.600000ZM261.100000,172L238.500000,185L216,172L238.600000,159L261.100000,172ZM237.500000,158.400000L214.900000,171.400000L192.400000,158.400000L215,145.400000L237.500000,158.400000Z" opacity="0.5" fill="url(#ex7e28yp3f9i6-fill)" stroke="none" stroke-width="1"/><clipPath id="ex7e28yp3f9i7"><use id="ex7e28yp3f9i8" width="483.799988" height="483.799988" xlink:href="#ex7e28yp3f9i2" transform="matrix(1 0 0 1 8.09999999999999 8.09999999999999)" fill="rgb(0,0,0)" stroke="none" stroke-width="1"/></clipPath></g></g></g><g id="ex7e28yp3f9i9"><polygon id="ex7e28yp3f9i10" points="306.300000,36.100000 296.500000,43.600000 299.700000,45.500000 299.700000,154.100000 312.800000,161.600000 312.800000,53 316,54.900000" fill="url(#ex7e28yp3f9i10-fill)" stroke="none" stroke-width="1"/><polygon id="ex7e28yp3f9i11" points="238.300000,204.600000 225.300000,197.100000 299.800000,154.100000 312.800000,161.600000" fill="rgb(2,27,121)" stroke="none" stroke-width="1"/></g><g id="ex7e28yp3f9i12"><polygon id="ex7e28yp3f9i13" points="359.800000,86.800000 350,94.300000 353.300000,96.100000 353.300000,204.700000 366.300000,212.300000 366.300000,103.700000 369.600000,105.500000" fill="url(#ex7e28yp3f9i13-fill)" stroke="none" stroke-width="1"/><polygon id="ex7e28yp3f9i14" points="291.800000,255.200000 278.800000,247.700000 353.300000,204.800000 366.300000,212.300000" fill="rgb(54,109,202)" stroke="none" stroke-width="1"/></g><g id="ex7e28yp3f9i15"><polygon id="ex7e28yp3f9i16" points="413.900000,148.400000 404.100000,155.800000 407.400000,157.700000 407.400000,266.300000 420.400000,273.800000 420.400000,165.200000 423.600000,167.100000" fill="url(#ex7e28yp3f9i16-fill)" stroke="none" stroke-width="1"/><polygon id="ex7e28yp3f9i17" points="345.900000,316.800000 332.900000,309.300000 407.400000,266.300000 420.400000,273.800000" fill="rgb(213,226,247)" stroke="none" stroke-width="1"/></g><polygon id="ex7e28yp3f9i18" points="428.400000,299.800000 360,339.300000 186,238.700000 254.400000,199.200000" fill="url(#ex7e28yp3f9i18-fill)" stroke="none" stroke-width="1"/><polygon id="ex7e28yp3f9i19" points="428.400000,299.800000 428.400000,328.200000 360,367.700000 360,339.300000" fill="rgb(157,170,212)" stroke="none" stroke-width="1"/><polygon id="ex7e28yp3f9i20" points="186,238.700000 186,267.100000 360,367.700000 360,339.300000" fill="rgb(229,227,232)" stroke="none" stroke-width="1"/><path id="ex7e28yp3f9i21" d="M286.400000,122.400000L256.400000,139.700000C254.200000,141,250.400000,140.800000,247.800000,139.300000L219,122.800000C216.500000,121.300000,216.200000,119.100000,218.400000,117.900000L248.400000,100.600000C250.600000,99.300000,254.400000,99.500000,257,101L285.800000,117.600000C288.300000,118.900000,288.600000,121.100000,286.400000,122.400000Z" fill="rgb(2,55,144)" stroke="rgb(2,55,144)" stroke-width="1" stroke-miterlimit="10"/><path id="ex7e28yp3f9i22" d="M287.800000,241.400000L287.800000,120.600000L287.800000,120.600000L287.800000,120.600000C287.700000,121.300000,287.200000,121.900000,286.300000,122.400000L255.400000,139.700000C254.300000,140.300000,252.800000,140.600000,251.300000,140.500000L251.300000,262.100000C252.800000,262.100000,254.300000,261.900000,255.400000,261.300000L286.300000,244C287.500000,243.300000,288,242.400000,287.800000,241.400000Z" fill="url(#ex7e28yp3f9i22-fill)" stroke="none" stroke-width="1"/><path id="ex7e28yp3f9i23" d="M247.800000,139.400000L219,122.800000C217.800000,122.100000,217.100000,121.200000,216.900000,120.400000L216.900000,241.200000C216.700000,242.300000,217.400000,243.500000,219,244.400000L247.800000,261C249.100000,261.800000,250.800000,262.200000,252.400000,262.200000L252.400000,140.600000C250.800000,140.500000,249.100000,140.100000,247.800000,139.400000Z" fill="rgb(2,27,121)" stroke="none" stroke-width="1"/><path id="ex7e28yp3f9i24" d="M339.300000,196.700000L309.300000,214C307.100000,215.300000,303.300000,215.100000,300.700000,213.600000L272,197C269.500000,195.500000,269.200000,193.300000,271.400000,192.100000L301.400000,174.800000C303.600000,173.500000,307.400000,173.700000,310,175.200000L338.800000,191.800000C341.200000,193.200000,341.500000,195.400000,339.300000,196.700000Z" fill="rgb(54,109,202)" stroke="rgb(54,109,202)" stroke-width="1" stroke-miterlimit="10"/><path id="ex7e28yp3f9i25" d="M340.800000,272.200000L340.800000,195L340.800000,195L340.800000,195C340.700000,195.700000,340.200000,196.300000,339.300000,196.800000L308.400000,214C307.300000,214.600000,305.800000,214.900000,304.300000,214.800000L304.300000,292.800000C305.800000,292.800000,307.300000,292.600000,308.400000,292L339.200000,274.700000C340.500000,274,340.900000,273.100000,340.800000,272.200000Z" fill="url(#ex7e28yp3f9i25-fill)" stroke="none" stroke-width="1"/><path id="ex7e28yp3f9i26" d="M300.700000,213.700000L272,197C270.800000,196.300000,270.100000,195.400000,270,194.600000L270,271.800000C269.800000,272.900000,270.500000,274.100000,272,275L300.800000,291.600000C302.100000,292.400000,303.800000,292.800000,305.400000,292.800000L305.400000,214.800000C303.700000,214.800000,302.100000,214.400000,300.700000,213.700000Z" fill="rgb(51,94,196)" stroke="none" stroke-width="1"/><path id="ex7e28yp3f9i27" d="M393.400000,248.300000L363.400000,265.600000C361.200000,266.900000,357.400000,266.700000,354.800000,265.200000L326,248.700000C323.500000,247.200000,323.200000,245,325.400000,243.800000L355.400000,226.500000C357.600000,225.200000,361.400000,225.400000,364,226.900000L392.800000,243.500000C395.300000,244.900000,395.600000,247.100000,393.400000,248.300000Z" fill="rgb(213,226,247)" stroke="rgb(213,226,247)" stroke-width="1" stroke-miterlimit="10"/><path id="ex7e28yp3f9i28" d="M394.800000,302.900000L394.800000,246.600000L394.800000,246.600000C394.800000,246.600000,394.800000,246.600000,394.800000,246.600000C394.700000,247.300000,394.200000,247.900000,393.300000,248.400000L362.400000,265.700000C361.300000,266.300000,359.800000,266.600000,358.300000,266.500000L358.300000,323.600000C359.800000,323.600000,361.300000,323.400000,362.400000,322.800000L393.300000,305.500000C394.500000,304.800000,395,303.900000,394.800000,302.900000Z" fill="url(#ex7e28yp3f9i28-fill)" stroke="none" stroke-width="1"/><path id="ex7e28yp3f9i29" d="M354.800000,265.300000L326,248.700000C324.800000,248,324.100000,247.100000,324,246.300000L324,302.600000C323.800000,303.700000,324.500000,304.900000,326,305.800000L354.800000,322.400000C356.100000,323.200000,357.800000,323.600000,359.400000,323.600000L359.400000,266.500000C357.800000,266.500000,356.100000,266.100000,354.800000,265.300000Z" fill="rgb(172,189,226)" stroke="none" stroke-width="1"/><path id="ex7e28yp3f9i30" d="M188.600000,317.800000C187.900000,317.800000,187.200000,317.600000,186.600000,317.300000L104.100000,270.800000C99.500000,268.200000,96.700000,263.500000,96.700000,258.200000C96.700000,252.900000,99.400000,248.200000,104,245.600000L170.800000,207.400000C175.200000,204.900000,180.700000,204.900000,185.200000,207.400000L212.100000,222.700000C214.100000,223.800000,214.800000,226.300000,213.600000,228.300000C212.500000,230.300000,210,231,208,229.800000L181.100000,214.500000C179.200000,213.400000,176.800000,213.400000,174.900000,214.500000L108.100000,252.700000C106.100000,253.800000,104.900000,255.900000,105,258.100000C105,260.400000,106.200000,262.400000,108.200000,263.500000L190.700000,310C192.700000,311.100000,193.400000,313.600000,192.300000,315.600000C191.500000,317,190.100000,317.800000,188.600000,317.800000Z" fill="rgb(227,224,243)" stroke="none" stroke-width="1"/><path id="ex7e28yp3f9i31" d="M189.400000,312.300000L106.900000,265.800000C104.100000,264.200000,102.400000,261.400000,102.400000,258.100000C102.400000,254.900000,104.100000,252,106.800000,250.400000L173.600000,212.200000C176.300000,210.700000,179.700000,210.700000,182.400000,212.200000L207.400000,226.400000L210.500000,224.600000L183.900000,209.500000C180.300000,207.400000,175.700000,207.400000,172.100000,209.500000L105.300000,247.700000C101.500000,249.900000,99.300000,253.700000,99.300000,258.100000C99.300000,262.400000,101.600000,266.300000,105.400000,268.400000L187.900000,314.900000C188.100000,315,188.400000,315.100000,188.700000,315.100000C189.200000,315.100000,189.800000,314.800000,190,314.300000C190.400000,313.700000,190.200000,312.700000,189.400000,312.300000Z" fill="rgb(2,27,121)" stroke="none" stroke-width="1"/><ellipse id="ex7e28yp3f9i32" rx="18.700000" ry="10.800000" transform="matrix(1 0 0 1 137.40000000000001 279.50000000000000)" fill="rgb(230,230,230)" stroke="none" stroke-width="1"/><path id="ex7e28yp3f9i33" d="M150.600000,287.100000C146.900000,289.200000,142,290.300000,137.100000,290.300000C132.400000,290.300000,127.700000,289.200000,124.200000,287.100000C120.600000,285,118.800000,282.300000,118.700000,279.500000L118.700000,279.500000L118.700000,287.600000C118.700000,290.400000,120.500000,293.100000,124.200000,295.300000C127.800000,297.400000,132.400000,298.400000,137.100000,298.500000C142,298.500000,146.900000,297.500000,150.600000,295.300000C154.300000,293.200000,156.100000,290.400000,156.100000,287.600000L156.100000,279.500000L156.100000,279.500000C156,282.300000,154.200000,285,150.600000,287.100000Z" fill="rgb(157,170,212)" stroke="none" stroke-width="1"/><g id="ex7e28yp3f9i34"><g id="ex7e28yp3f9i35"><path id="ex7e28yp3f9i36" d="M240.500000,351.500000L189.300000,321.900000C183.200000,318.400000,184,312.300000,191,308.300000L191,308.300000C198,304.300000,208.600000,303.800000,214.600000,307.300000L265.800000,336.900000C271.800000,340.400000,271.100000,346.500000,264.100000,350.500000L264.100000,350.500000C257.100000,354.500000,246.600000,355,240.500000,351.500000Z" fill="url(#ex7e28yp3f9i36-fill)" stroke="none" stroke-width="1"/></g><g id="ex7e28yp3f9i37"><path id="ex7e28yp3f9i38" d="M264.100000,350.500000C257.100000,354.500000,246.500000,355,240.500000,351.500000L189.300000,321.900000C186.700000,320.400000,185.300000,318.400000,185.200000,316.200000L185.200000,316.200000L185.200000,331.300000C185.200000,331.300000,185.200000,331.400000,185.200000,331.400000C185.300000,333.600000,186.600000,335.600000,189.300000,337.200000L240.500000,366.800000C246.600000,370.300000,257.100000,369.900000,264.100000,365.800000C268,363.500000,270,360.600000,269.900000,357.800000L269.900000,342.600000C270,345.400000,268,348.300000,264.100000,350.500000Z" fill="rgb(229,227,232)" stroke="none" stroke-width="1"/></g></g><g id="ex7e28yp3f9i39"><path id="ex7e28yp3f9i40" d="M218.100000,323.900000C215.500000,325.400000,211.200000,325.400000,208.600000,323.900000C206,322.400000,206,319.900000,208.600000,318.400000C211.200000,316.900000,215.500000,316.900000,218.100000,318.400000C220.700000,319.900000,220.700000,322.300000,218.100000,323.900000Z" fill="rgb(157,170,212)" stroke="none" stroke-width="1"/><path id="ex7e28yp3f9i41" d="M233,332.400000C230.400000,333.900000,226.100000,333.900000,223.500000,332.400000C220.900000,330.900000,220.900000,328.400000,223.500000,326.900000C226.100000,325.400000,230.400000,325.400000,233,326.900000C235.600000,328.400000,235.600000,330.900000,233,332.400000Z" fill="rgb(157,170,212)" stroke="none" stroke-width="1"/><path id="ex7e28yp3f9i42" d="M247.800000,341C245.200000,342.500000,240.900000,342.500000,238.300000,341C235.700000,339.500000,235.700000,337,238.300000,335.500000C240.900000,334,245.200000,334,247.800000,335.500000C250.400000,337,250.400000,339.500000,247.800000,341Z" fill="rgb(157,170,212)" stroke="none" stroke-width="1"/></g><path id="ex7e28yp3f9i43" d="M217.800000,322.800000C215.200000,324.300000,210.900000,324.300000,208.300000,322.800000C205.700000,321.300000,205.700000,318.800000,208.300000,317.300000C210.900000,315.800000,215.200000,315.800000,217.800000,317.300000C220.500000,318.800000,220.500000,321.200000,217.800000,322.800000Z" fill="rgb(2,27,121)" stroke="none" stroke-width="1"/><path id="ex7e28yp3f9i44" d="M232.700000,331.300000C230.100000,332.800000,225.800000,332.800000,223.200000,331.300000C220.600000,329.800000,220.600000,327.300000,223.200000,325.800000C225.800000,324.300000,230.100000,324.300000,232.700000,325.800000C235.300000,327.400000,235.300000,329.800000,232.700000,331.300000Z" fill="rgb(54,109,202)" stroke="none" stroke-width="1"/><path id="ex7e28yp3f9i45" d="M247.500000,339.900000C244.900000,341.400000,240.600000,341.400000,238,339.900000C235.400000,338.400000,235.400000,335.900000,238,334.400000C240.600000,332.900000,244.900000,332.900000,247.500000,334.400000C250.100000,335.900000,250.100000,338.400000,247.500000,339.900000Z" fill="rgb(213,226,247)" stroke="none" stroke-width="1"/><path id="ex7e28yp3f9i46" d="M367.500000,420.700000C365,420.700000,362.400000,420,360.200000,418.700000L262.600000,361.600000C260.600000,360.500000,260,357.900000,261.100000,356C262.200000,354,264.800000,353.400000,266.700000,354.500000L364.300000,411.600000C366.200000,412.700000,368.600000,412.700000,370.600000,411.600000L436.900000,373.400000C438.900000,372.300000,440,370.200000,440,368C440,365.700000,438.800000,363.700000,436.800000,362.600000L397.200000,339.600000C395.200000,338.500000,394.600000,335.900000,395.700000,334C396.800000,332,399.400000,331.400000,401.300000,332.500000L440.800000,355.500000C445.300000,358.100000,448.100000,362.800000,448.100000,368C448.100000,373.300000,445.400000,378,440.800000,380.600000L374.500000,418.800000C372.500000,420,370,420.700000,367.500000,420.700000Z" fill="rgb(227,224,243)" stroke="none" stroke-width="1"/><path id="ex7e28yp3f9i47" d="M367.500000,418.100000C365.400000,418.100000,363.300000,417.600000,361.500000,416.500000L263.900000,359.400000C263.200000,359,262.900000,358,263.300000,357.300000C263.700000,356.600000,264.700000,356.300000,265.400000,356.700000L363,413.800000C365.700000,415.400000,369.100000,415.400000,371.900000,413.800000L438.200000,375.600000C441,374,442.600000,371.100000,442.600000,367.900000C442.600000,364.700000,440.900000,361.800000,438.100000,360.300000L398.500000,337.300000C397.800000,336.900000,397.500000,335.900000,397.900000,335.200000C398.300000,334.500000,399.300000,334.200000,400,334.600000L439.500000,357.600000C443.200000,359.700000,445.500000,363.600000,445.500000,367.900000C445.500000,372.200000,443.300000,376.100000,439.500000,378.300000L373.200000,416.500000C371.600000,417.600000,369.500000,418.100000,367.500000,418.100000Z" fill="rgb(2,27,121)" stroke="none" stroke-width="1"/><ellipse id="ex7e28yp3f9i48" rx="18.700000" ry="10.800000" transform="matrix(1 0 0 1 326.60000000000002 390.80000000000001)" fill="rgb(230,230,230)" stroke="none" stroke-width="1"/><path id="ex7e28yp3f9i49" d="M339.800000,398.400000C336.100000,400.500000,331.200000,401.600000,326.300000,401.600000C321.600000,401.600000,316.900000,400.500000,313.400000,398.400000C309.800000,396.300000,308,393.600000,307.900000,390.800000L307.900000,390.800000L307.900000,398.900000C307.900000,401.700000,309.700000,404.400000,313.400000,406.600000C317,408.700000,321.600000,409.700000,326.300000,409.800000C331.200000,409.800000,336.100000,408.800000,339.800000,406.600000C343.500000,404.500000,345.300000,401.700000,345.300000,398.900000L345.300000,390.800000L345.300000,390.800000C345.200000,393.600000,343.400000,396.300000,339.800000,398.400000Z" fill="rgb(157,170,212)" stroke="none" stroke-width="1"/><g id="ex7e28yp3f9i50"><path id="ex7e28yp3f9i51" d="M95.900000,396.500000C94.500000,396.500000,93.100000,395.800000,92.300000,394.400000C91.200000,392.400000,91.800000,389.900000,93.800000,388.800000L193.400000,331.300000C195.400000,330.200000,197.900000,330.800000,199,332.800000C200.100000,334.800000,199.500000,337.300000,197.500000,338.400000L97.900000,395.900000C97.300000,396.300000,96.600000,396.500000,95.900000,396.500000Z" fill="rgb(227,224,243)" stroke="none" stroke-width="1"/><path id="ex7e28yp3f9i52" d="M137.900000,420.800000C136.500000,420.800000,135.100000,420.100000,134.300000,418.700000C133.200000,416.700000,133.800000,414.200000,135.800000,413.100000L235.400000,355.600000C237.400000,354.500000,239.900000,355.100000,241,357.100000C242.100000,359.100000,241.500000,361.600000,239.500000,362.700000L140,420.200000C139.400000,420.600000,138.600000,420.800000,137.900000,420.800000Z" fill="rgb(227,224,243)" stroke="none" stroke-width="1"/></g><g id="ex7e28yp3f9i53"><path id="ex7e28yp3f9i54" d="M95.800000,393.900000C95.300000,393.900000,94.700000,393.600000,94.500000,393.100000C94.100000,392.400000,94.300000,391.400000,95.100000,391L194.700000,333.500000C195.400000,333.100000,196.400000,333.300000,196.800000,334.100000C197.200000,334.800000,197,335.800000,196.200000,336.200000L96.600000,393.700000C96.400000,393.800000,96.100000,393.900000,95.800000,393.900000Z" fill="rgb(2,27,121)" stroke="none" stroke-width="1"/><path id="ex7e28yp3f9i55" d="M137.900000,418.200000C137.400000,418.200000,136.800000,417.900000,136.600000,417.400000C136.200000,416.700000,136.400000,415.700000,137.200000,415.300000L236.800000,357.800000C237.500000,357.400000,238.500000,357.600000,238.900000,358.400000C239.300000,359.100000,239.100000,360.100000,238.300000,360.500000L138.700000,418C138.500000,418.100000,138.200000,418.200000,137.900000,418.200000Z" fill="rgb(2,27,121)" stroke="none" stroke-width="1"/></g><g id="ex7e28yp3f9i56"><ellipse id="ex7e28yp3f9i57" rx="69" ry="39.900000" transform="matrix(1 0 0 1 120.80000000000000 393.89999999999998)" fill="url(#ex7e28yp3f9i57-fill)" stroke="none" stroke-width="1"/><path id="ex7e28yp3f9i58" d="M169.600000,422.100000C155.900000,430,137.800000,433.900000,119.800000,433.800000C102.500000,433.700000,85.200000,429.800000,72,422.100000C58.600000,414.400000,51.900000,404.200000,51.800000,394.100000L51.800000,394.100000L51.800000,423.900000C51.700000,434.100000,58.500000,444.400000,72,452.200000C85.200000,459.800000,102.500000,463.700000,119.800000,463.900000C137.800000,464,155.900000,460.200000,169.600000,452.200000C183.100000,444.400000,189.900000,434.100000,189.800000,423.900000L189.800000,394.100000L189.800000,394.100000C189.700000,404.200000,183,414.400000,169.600000,422.100000Z" fill="url(#ex7e28yp3f9i58-fill)" stroke="none" stroke-width="1"/></g><ellipse id="ex7e28yp3f9i59" rx="51.200000" ry="29.600000" transform="matrix(1 0 0 1 120.80000000000000 393.89999999999998)" fill="rgb(28,53,153)" stroke="none" stroke-width="1"/><path id="ex7e28yp3f9i60" d="M157,376.500000C137,365,104.600000,365,84.600000,376.500000C75.400000,381.800000,70.400000,388.700000,69.700000,395.700000C70.400000,402.700000,75.400000,409.500000,84.600000,414.900000C104.600000,426.400000,137,426.400000,157,414.900000C166.200000,409.600000,171.200000,402.700000,171.900000,395.700000C171.200000,388.700000,166.200000,381.800000,157,376.500000Z" fill="rgb(228,226,231)" stroke="none" stroke-width="1"/><path id="ex7e28yp3f9i61" d="M69.600000,393.100000C69.200000,400.900000,74.200000,408.800000,84.600000,414.800000C104.600000,426.300000,137,426.300000,157,414.800000C167.400000,408.800000,172.300000,400.900000,172,393.100000L172,231.500000C172.400000,223.700000,167.400000,215.800000,157,209.800000C137,198.300000,104.600000,198.300000,84.600000,209.800000C74.200000,215.800000,69.300000,223.700000,69.600000,231.500000L69.600000,393.100000Z" fill="url(#ex7e28yp3f9i61-fill)" stroke="none" stroke-width="1"/><g id="ex7e28yp3f9i62_to" transform="translate(142.093483,396.873428)"><g id="ex7e28yp3f9i62" transform="translate(-142.093483,-396.873428)"><g id="ex7e28yp3f9i63"><path id="ex7e28yp3f9i64" d="M161.200000,397.400000L161.500000,397.100000L152.600000,383.700000L140.200000,382.200000C140.200000,382.200000,129.100000,387.200000,129.100000,387.300000C129.100000,387.400000,125.800000,395.200000,125.800000,395.200000L126.600000,395.600000L133.600000,401.100000C134.300000,400.600000,135,400.100000,135.800000,399.600000C138.500000,398.100000,141.100000,397.100000,143.700000,396.800000C146.300000,396.500000,148.500000,396.900000,150.400000,398C151.700000,398.700000,152.600000,399.500000,153.400000,400.300000C154.200000,401.200000,154.800000,401.900000,155.300000,402.900000L163.900000,400.700000C163.400000,399.600000,162.400000,398.500000,161.200000,397.400000Z" fill="url(#ex7e28yp3f9i64-fill)" stroke="none" stroke-width="1"/><path id="ex7e28yp3f9i65" d="M155.200000,403.400000L155.100000,403.200000C154.500000,402.300000,153.900000,401.500000,153.200000,400.700000C152.500000,399.900000,151.600000,399.200000,150.300000,398.500000C148.500000,397.400000,146.300000,397,143.800000,397.300000C141.300000,397.600000,138.700000,398.500000,136,400C135.100000,400.500000,134.500000,401,133.800000,401.500000L133.700000,401.600000L126.500000,395.900000L125.500000,395.400000L125.600000,395.100000C126.500000,393,128.800000,387.500000,128.900000,387.300000C129,387.100000,129,387,140.200000,382L140.300000,382L152.900000,383.600000L162,397.300000L161.700000,397.600000C162.800000,398.600000,163.600000,399.600000,164.300000,400.800000L164.400000,401.300000L155.200000,403.400000ZM145.400000,396.500000C147.400000,396.500000,149.200000,397,150.700000,397.900000C152,398.700000,153,399.400000,153.700000,400.300000C154.400000,401.100000,155,401.800000,155.500000,402.700000L163.300000,400.700000C162.600000,399.700000,161.800000,398.700000,160.800000,397.800000L160.500000,397.500000L160.900000,397.100000L152.300000,384.100000L140.200000,382.600000C136.100000,384.400000,130.100000,387.200000,129.300000,387.600000C128.900000,388.500000,127,393.100000,126.200000,395.100000L126.700000,395.300000L133.500000,400.600000C134.100000,400.100000,134.800000,399.700000,135.500000,399.200000C138.200000,397.700000,140.900000,396.700000,143.500000,396.400000C144.300000,396.500000,144.900000,396.500000,145.400000,396.500000Z" fill="rgb(22,17,13)" stroke="none" stroke-width="1"/><path id="ex7e28yp3f9i66" d="M136.500000,409.400000L136.500000,402.900000L134.300000,400.700000L128.300000,394.700000L125.400000,391.800000L120.400000,391.200000L120.400000,403.700000L120.400000,403.700000C120.400000,406.400000,122.500000,408.900000,126.700000,411.300000C129.800000,413,133.100000,414.400000,136.600000,415.200000L143.300000,411.300000C141.600000,410.900000,139.900000,410.400000,138.400000,409.900000C137.600000,409.900000,137,409.600000,136.500000,409.400000Z" fill="url(#ex7e28yp3f9i66-fill)" stroke="none" stroke-width="1"/><path id="ex7e28yp3f9i67" d="M136.600000,415.700000L136.600000,415.700000C132.900000,414.900000,129.600000,413.600000,126.500000,411.800000C122.300000,409.400000,120.100000,406.800000,120,404L120,404L120,403.800000L120,390.800000L125.600000,391.500000L136.900000,402.800000L136.900000,409.200000C137.400000,409.400000,137.900000,409.600000,138.400000,409.800000C139.900000,410.300000,141.600000,410.800000,143.300000,411.200000L143.600000,411.800000L136.600000,415.700000ZM120.600000,403.600000L120.600000,403.800000C120.600000,406.300000,122.600000,408.800000,126.700000,411.200000C129.700000,412.900000,132.900000,414.200000,136.400000,415L142.200000,411.700000C140.700000,411.300000,139.400000,410.900000,138.100000,410.500000C137.400000,410.300000,136.800000,410,136.400000,409.800000L136.200000,409.700000L136.200000,403.100000L125.300000,392.200000L120.800000,391.600000L120.600000,403.600000L120.600000,403.600000Z" fill="rgb(22,17,13)" stroke="none" stroke-width="1"/><path id="ex7e28yp3f9i68" d="M150.500000,385.700000C148.700000,384.600000,146.400000,384.200000,143.800000,384.500000C141.200000,384.800000,138.600000,385.700000,135.900000,387.300000C130.300000,390.600000,129.600000,393.400000,133.900000,395.800000C135.200000,396.600000,136.600000,397.200000,138.200000,397.600000C139.800000,398,141.400000,398.600000,143.100000,399L136.400000,402.900000C132.900000,402.100000,129.600000,400.900000,126.500000,399C122,396.500000,120,393.800000,120.200000,391C120.400000,388.200000,122.900000,385.400000,127.700000,382.600000C130.700000,380.900000,134,379.700000,137.400000,379C140.800000,378.300000,144.300000,378.200000,147.600000,378.800000C151,379.300000,154.100000,380.400000,157,382.100000C160.200000,383.900000,162.500000,386.100000,164,388.500000L155.400000,390.700000C154.800000,389.800000,154.100000,389,153.500000,388.100000C152.700000,387.300000,151.700000,386.500000,150.500000,385.700000Z" fill="url(#ex7e28yp3f9i68-fill)" stroke="none" stroke-width="1"/><path id="ex7e28yp3f9i69" d="M157.100000,384.700000C154.200000,383.100000,151.100000,381.900000,147.700000,381.400000C144.300000,380.900000,140.900000,380.900000,137.500000,381.600000C134.100000,382.300000,130.800000,383.400000,127.800000,385.200000C123.800000,387.500000,121.400000,389.800000,120.600000,392.200000L120.600000,396C121.400000,398,123.300000,400,126.500000,401.800000C129.600000,403.500000,132.900000,404.900000,136.400000,405.700000L143.100000,401.800000C141.400000,401.400000,139.700000,400.900000,138.200000,400.400000C136.700000,399.900000,135.200000,399.300000,133.900000,398.600000C129.600000,396.200000,130.300000,393.300000,135.900000,390.100000C138.600000,388.600000,141.200000,387.600000,143.800000,387.300000C146.400000,387,148.600000,387.400000,150.500000,388.500000C151.800000,389.200000,152.700000,390,153.500000,390.800000C154.300000,391.700000,154.900000,392.400000,155.400000,393.400000L164,391.200000C162.600000,388.600000,160.300000,386.500000,157.100000,384.700000Z" opacity="0.7" fill="rgb(255,255,255)" stroke="none" stroke-width="1"/><path id="ex7e28yp3f9i70" d="M164.200000,388C162.700000,385.600000,160.300000,383.500000,157.200000,381.700000C154.300000,380.100000,151.100000,378.900000,147.700000,378.400000C144.300000,377.900000,140.800000,377.900000,137.300000,378.600000C133.800000,379.300000,130.500000,380.500000,127.500000,382.300000C122.600000,385.100000,120,388.100000,119.800000,391C119.600000,394,121.700000,396.800000,126.300000,399.400000C129.300000,401.100000,132.600000,402.400000,136,403.200000L136,415.400000L136.400000,415.600000L143.400000,411.500000L143.400000,398.600000C143.400000,398.600000,139.700000,397.600000,138.200000,397.100000C136.700000,396.600000,135.200000,396,133.900000,395.300000C132.200000,394.300000,131.300000,393.300000,131.300000,392.200000C131.300000,390.700000,132.800000,389.100000,135.900000,387.400000C138.500000,385.900000,141.100000,385,143.700000,384.700000C146.200000,384.400000,148.300000,384.800000,150.200000,385.900000C151.400000,386.600000,152.300000,387.400000,153.100000,388.100000C153.800000,388.900000,154.500000,389.700000,154.900000,390.600000L154.900000,402.800000L155.100000,403.200000L164.300000,400.900000L164.300000,388.100000L164.200000,388ZM153.800000,387.800000C153,386.900000,152.100000,386.200000,150.800000,385.400000C148.900000,384.200000,146.500000,383.900000,143.900000,384.100000C141.300000,384.300000,138.600000,385.400000,135.900000,386.900000C132.500000,388.800000,131,390.600000,131,392.300000C131,393.700000,132,394.900000,133.900000,396.100000C135.300000,396.900000,136.700000,397.500000,138.300000,398C139.600000,398.400000,141,398.800000,142.400000,399.200000L136.600000,402.500000C133.200000,401.700000,129.900000,400.500000,126.900000,398.700000C122.600000,396.300000,120.600000,393.700000,120.800000,391C121,388.300000,123.500000,385.600000,128.200000,382.900000C131.200000,381.200000,134.400000,380,137.800000,379.300000C139.700000,378.900000,141.600000,378.700000,143.500000,378.700000C145,378.700000,146.400000,378.800000,147.900000,379.100000C151.200000,379.600000,154.300000,380.700000,157.200000,382.300000C160.100000,383.900000,162.300000,386,163.800000,388.200000L156,390.200000C155,389.400000,154.500000,388.600000,153.800000,387.800000Z" fill="rgb(22,17,13)" stroke="none" stroke-width="1"/><polygon id="ex7e28yp3f9i71" points="143.800000,384.600000 143.800000,396.900000 138.800000,398.100000 133.300000,395.600000 131.200000,393.200000 131.700000,390.600000 134.100000,388.300000 138.900000,385.800000" fill="rgb(22,17,13)" stroke="none" stroke-width="1"/><polygon id="ex7e28yp3f9i72" points="146.100000,384.500000 146.100000,396.700000 149.300000,397.200000 149.300000,384.900000" fill="rgb(22,17,13)" stroke="none" stroke-width="1"/></g><g id="ex7e28yp3f9i73"><path id="ex7e28yp3f9i74" d="M101.200000,404.600000L101.700000,408.300000L111,402.800000L111,402.800000L111.300000,402.600000L111.300000,402.600000C112.800000,401.600000,113.500000,399.900000,113.500000,397.200000C113.500000,395,113,392.900000,112.100000,391C111.200000,389.100000,109.800000,387.300000,107.800000,385.600000L97.600000,389.100000L89.100000,393.800000L98.500000,399.200000L101.200000,404.600000Z" fill="url(#ex7e28yp3f9i74-fill)" stroke="none" stroke-width="1"/><path id="ex7e28yp3f9i75" d="M101.500000,408.900000L100.900000,404.700000L98.300000,399.500000L88.500000,393.900000L97.600000,388.900000L108,385.300000L108.200000,385.400000C110.100000,387.100000,111.700000,389,112.600000,390.900000C113.500000,392.800000,114,395,114,397.200000C114,399.900000,113.300000,401.700000,111.900000,402.800000L111.900000,402.800000L111.400000,403.100000L101.500000,408.900000ZM90,393.800000L98.900000,398.900000L101.600000,404.500000L102,407.600000L111.100000,402.200000C112.500000,401.300000,113.100000,399.600000,113.100000,397.100000C113.100000,395,112.700000,392.900000,111.800000,391.100000C110.900000,389.300000,109.700000,387.600000,107.800000,386L97.800000,389.500000L90,393.800000Z" fill="rgb(22,17,13)" stroke="none" stroke-width="1"/><g id="ex7e28yp3f9i76"><rect id="ex7e28yp3f9i77" width="10" height="10.800000" rx="0" ry="0" transform="matrix(1 0 0 1 85.30000000000000 374.50000000000000)" fill="rgb(22,17,13)" stroke="none" stroke-width="1"/></g><g id="ex7e28yp3f9i78"><rect id="ex7e28yp3f9i79" width="12" height="12" rx="0" ry="0" transform="matrix(1 0 0 1 85.30000000000000 388)" fill="rgb(22,17,13)" stroke="none" stroke-width="1"/></g><path id="ex7e28yp3f9i80" d="M100.300000,363.800000L89.300000,357.500000L79.600000,363.200000L89.300000,371.300000L99.700000,384.600000L101.500000,390.700000L104.400000,389L108.900000,386.400000L110.800000,385.200000C110.900000,385.100000,111,385.100000,111.100000,385L111.100000,385L111.100000,385C111.300000,384.900000,111.400000,384.700000,111.600000,384.600000C112.500000,383.600000,113,382.200000,113,380.100000C113,377,111.900000,374.100000,109.900000,371.500000C107.700000,368.800000,104.500000,366.300000,100.300000,363.800000Z" fill="url(#ex7e28yp3f9i80-fill)" stroke="none" stroke-width="1"/><path id="ex7e28yp3f9i81" d="M101.100000,391.300000L99.200000,384.800000L89,371.500000L79.200000,363.400000L79.200000,363L89.300000,357.100000L100.400000,363.600000C104.700000,366.100000,107.900000,368.700000,110.100000,371.300000C112.200000,374,113.300000,377,113.300000,380.200000C113.300000,382.300000,112.800000,383.900000,111.800000,384.800000C111.700000,384.900000,111.600000,385,111.500000,385.100000L111.500000,385.100000L111.200000,385.300000C111.100000,385.400000,110.900000,385.500000,110.800000,385.500000L101.100000,391.300000ZM80.200000,363.200000L89.500000,370.900000L99.900000,384.300000L101.500000,390L110.400000,384.800000C110.500000,384.700000,110.600000,384.700000,110.700000,384.600000L110.700000,384.600000L110.700000,384.600000C110.900000,384.500000,111,384.400000,111.200000,384.200000C112.100000,383.300000,112.500000,382,112.500000,380C112.500000,377,111.400000,374.200000,109.500000,371.600000C107.500000,369,104.300000,366.500000,100.100000,364L89.300000,357.800000L80.200000,363.200000Z" fill="rgb(22,17,13)" stroke="none" stroke-width="1"/><polygon id="ex7e28yp3f9i82" points="88.100000,396.900000 96.100000,392.100000 98.500000,400.600000 93.300000,403.500000 86.100000,399.500000" fill="url(#ex7e28yp3f9i82-fill)" stroke="none" stroke-width="1"/><path id="ex7e28yp3f9i83" d="M93.300000,403.900000L85.600000,399.500000L88,396.500000L96.400000,391.600000L99,400.700000L93.300000,403.900000ZM86.600000,399.300000L93.300000,403L98.100000,400.300000L95.900000,392.700000L88.400000,397.200000L86.600000,399.300000Z" fill="rgb(22,17,13)" stroke="none" stroke-width="1"/><polygon id="ex7e28yp3f9i84" points="88.100000,382.100000 95.200000,377.700000 99.400000,385.200000 92.300000,389.200000 87.500000,384.400000" fill="url(#ex7e28yp3f9i84-fill)" stroke="none" stroke-width="1"/><path id="ex7e28yp3f9i85" d="M92.200000,389.700000L87,384.500000L87.700000,381.900000L95.300000,377.300000L99.800000,385.300000L92.200000,389.700000ZM87.900000,384.200000L92.400000,388.700000L99,384.900000L95.200000,378.100000L88.400000,382.200000L87.900000,384.200000Z" fill="rgb(22,17,13)" stroke="none" stroke-width="1"/><path id="ex7e28yp3f9i86" d="M95.300000,379.300000L90.800000,382C90.800000,382,92.700000,383.400000,95.100000,383.300000C97.400000,383.200000,97.500000,380.900000,97.500000,380.900000L95.300000,379.300000Z" opacity="0.7" fill="rgb(255,255,255)" stroke="none" stroke-width="1"/><path id="ex7e28yp3f9i87" d="M96.400000,393.500000L91.100000,396.800000C91.100000,396.800000,94.200000,399.200000,96.500000,398C98.800000,396.700000,96.400000,393.500000,96.400000,393.500000Z" opacity="0.7" fill="rgb(255,255,255)" stroke="none" stroke-width="1"/><path id="ex7e28yp3f9i88" d="M79.600000,363.200000L90.500000,369.500000C94.800000,372,97.900000,374.500000,100,377.200000C102,379.900000,103.100000,382.700000,103.100000,385.800000C103.100000,387.800000,102.600000,389.300000,101.700000,390.300000C100.800000,391.300000,99.600000,391.500000,98.100000,391L98.100000,391.300000C100,393,101.500000,394.900000,102.400000,396.700000C103.300000,398.600000,103.800000,400.700000,103.800000,402.900000C103.800000,406.200000,102.700000,408.200000,100.600000,408.800000C98.500000,409.500000,95.600000,408.700000,91.800000,406.600000L79.600000,399.500000L79.600000,363.200000L79.600000,363.200000ZM88.100000,382.100000L90.600000,383.600000C91.900000,384.300000,92.700000,384.600000,93.400000,384.400000C94.100000,384.200000,94.400000,383.500000,94.400000,382.400000C94.400000,380.400000,93,378.500000,90.400000,377.100000L88,375.700000L88.100000,382.100000L88.100000,382.100000ZM88.100000,389.200000L88.100000,396.800000L91.100000,398.500000C93.700000,400,95.100000,399.500000,95.100000,397C95.100000,395.800000,94.700000,394.700000,94,393.600000C93.300000,392.500000,92.300000,391.700000,90.900000,390.900000L88.100000,389.200000Z" fill="url(#ex7e28yp3f9i88-fill)" stroke="none" stroke-width="1"/><path id="ex7e28yp3f9i89" d="M100.100000,379.500000C100.200000,379.600000,100.300000,379.800000,100.400000,379.900000L109.600000,374.400000C107.600000,371.900000,104.500000,369.400000,100.300000,366.900000L89.300000,360.500000L80.300000,365.800000L90.600000,371.700000C94.900000,374.200000,98.100000,376.800000,100.100000,379.500000Z" opacity="0.7" fill="rgb(255,255,255)" stroke="none" stroke-width="1"/><path id="ex7e28yp3f9i90" d="M99,409.500000C97,409.500000,94.500000,408.600000,91.600000,407L79.200000,399.800000L79.200000,363L79.600000,362.800000L90.700000,369.300000C95,371.800000,98.200000,374.400000,100.400000,377C102.500000,379.700000,103.600000,382.700000,103.600000,385.900000C103.600000,388,103.100000,389.600000,102.100000,390.500000C101.300000,391.300000,100.400000,391.700000,99.100000,391.500000C100.700000,393,102,394.800000,102.800000,396.400000C103.700000,398.300000,104.200000,400.500000,104.200000,402.700000C104.200000,406.200000,103,408.300000,100.700000,409C100.200000,409.400000,99.600000,409.500000,99,409.500000ZM80,399.300000L92.100000,406.300000C95.700000,408.300000,98.600000,409.100000,100.600000,408.500000C102.600000,407.900000,103.600000,406.100000,103.600000,402.900000C103.600000,400.800000,103.200000,398.700000,102.300000,396.900000C101.400000,395.100000,100.100000,393.200000,98.100000,391.600000L98,391.500000L98,390.600000L98.500000,390.700000C99.900000,391.100000,100.900000,390.900000,101.700000,390.100000C102.600000,389.200000,103,387.900000,103,385.900000C103,382.900000,101.900000,380.100000,100,377.500000C98,374.900000,94.800000,372.400000,90.600000,369.900000L80.200000,363.900000L80,399.300000L80,399.300000ZM93.500000,399.800000C92.800000,399.800000,92,399.500000,90.900000,398.900000L87.700000,397.100000L87.700000,388.600000L91.100000,390.500000C92.500000,391.300000,93.600000,392.200000,94.300000,393.400000C95.100000,394.500000,95.500000,395.700000,95.500000,397C95.500000,398.400000,95.100000,399.200000,94.500000,399.600000C94.200000,399.700000,93.900000,399.800000,93.500000,399.800000ZM88.500000,396.700000L91.300000,398.300000C92.600000,399.100000,93.500000,399.300000,94.100000,399C94.500000,398.700000,94.800000,398.100000,94.800000,397.100000C94.800000,395.900000,94.500000,394.900000,93.800000,393.900000C93.100000,392.900000,92.200000,392,90.800000,391.300000L88.500000,389.900000L88.500000,396.700000ZM93,384.700000C92.300000,384.700000,91.500000,384.400000,90.500000,383.800000L87.800000,382.300000L87.800000,374.900000L90.700000,376.600000C93.500000,378.200000,94.900000,380.100000,94.900000,382.300000C94.900000,383.700000,94.500000,384.400000,93.600000,384.600000C93.400000,384.700000,93.200000,384.700000,93,384.700000ZM88.500000,381.900000L90.900000,383.300000C92.100000,384,92.900000,384.200000,93.400000,384.100000C93.600000,384,94.200000,383.900000,94.200000,382.500000C94.200000,380.600000,92.900000,378.900000,90.400000,377.500000L88.600000,376.400000L88.500000,381.900000L88.500000,381.900000Z" fill="rgb(22,17,13)" stroke="none" stroke-width="1"/><polygon id="ex7e28yp3f9i91" points="101.200000,394.500000 110.900000,388.800000 108.900000,386.200000 102,390.100000 99.900000,391.300000 98.200000,391.300000" fill="rgb(22,17,13)" stroke="none" stroke-width="1"/><path id="ex7e28yp3f9i92" d="M103.500000,399.700000L113.200000,393.800000L113.600000,397.200000L113.200000,400.500000L111.400000,402.900000L102.400000,408C102.400000,408,103.800000,405.900000,103.800000,405.700000C103.800000,405.500000,104.200000,402,104.200000,402L103.500000,399.700000Z" fill="rgb(22,17,13)" stroke="none" stroke-width="1"/></g></g></g></svg>