<?xml version="1.0" encoding="utf-8"?>
<!-- Generator: Adobe Illustrator 24.0.2, SVG Export Plug-In . SVG Version: 6.00 Build 0)  -->
<svg version="1.1" id="Слой_1" xmlns="http://www.w3.org/2000/svg" xmlns:xlink="http://www.w3.org/1999/xlink" x="0px" y="0px"
	 viewBox="0 0 500 500" enable-background="new 0 0 500 500" xml:space="preserve">
<g>
	<defs>
		<rect id="SVGID_1_" x="8.122" y="8.122" width="483.756" height="483.756"/>
	</defs>
	<clipPath id="SVGID_2_">
		<use xlink:href="#SVGID_1_"  overflow="visible"/>
	</clipPath>
	
		<radialGradient id="SVGID_3_" cx="-486.6349" cy="770.7407" r="165.7224" gradientTransform="matrix(0.866 -0.5 0.866 0.5 -31.2168 -306.616)" gradientUnits="userSpaceOnUse">
		<stop  offset="0" style="stop-color:#DDDDDD"/>
		<stop  offset="1" style="stop-color:#FFFFFF;stop-opacity:0"/>
	</radialGradient>
	<path opacity="0.5" clip-path="url(#SVGID_2_)" fill="url(#SVGID_3_)" d="M-93.412,322.128l308.133,177.901l308.328-178.013
		L214.916,144.115L-93.412,322.128z M237.281,485.763l-22.56,13.025l-22.545-13.016l22.56-13.025L237.281,485.763z M213.661,472.126
		l-22.56,13.025l-22.545-13.016l22.56-13.025L213.661,472.126z M190.041,458.489l-22.56,13.025l-22.544-13.016l22.56-13.025
		L190.041,458.489z M166.422,444.852l-22.56,13.025l-22.545-13.016l22.56-13.025L166.422,444.852z M142.802,431.215l-22.56,13.025
		l-22.545-13.016l22.56-13.025L142.802,431.215z M119.182,417.578l-22.56,13.025l-22.545-13.016l22.56-13.025L119.182,417.578z
		 M95.562,403.941l-22.56,13.025l-22.545-13.016l22.56-13.025L95.562,403.941z M71.942,390.304l-22.56,13.025l-22.544-13.016
		l22.56-13.025L71.942,390.304z M48.322,376.667l-22.56,13.025L3.217,376.676l22.56-13.025L48.322,376.667z M24.702,363.03
		l-22.56,13.025l-22.545-13.016l22.56-13.025L24.702,363.03z M1.082,349.393l-22.56,13.025l-22.545-13.016l22.56-13.025
		L1.082,349.393z M-22.538,335.756l-22.56,13.025l-22.544-13.016l22.56-13.025L-22.538,335.756z M-46.157,322.12l-22.56,13.025
		l-22.545-13.016l22.56-13.025L-46.157,322.12z M260.916,472.117l-22.56,13.025l-22.545-13.016l22.56-13.025L260.916,472.117z
		 M237.296,458.48l-22.56,13.025l-22.545-13.016l22.56-13.025L237.296,458.48z M213.676,444.843l-22.56,13.025l-22.544-13.016
		l22.56-13.025L213.676,444.843z M190.056,431.206l-22.56,13.025l-22.545-13.016l22.56-13.025L190.056,431.206z M166.436,417.569
		l-22.56,13.025l-22.545-13.016l22.56-13.025L166.436,417.569z M142.817,403.932l-22.56,13.025l-22.545-13.016l22.56-13.025
		L142.817,403.932z M119.197,390.295l-22.56,13.025l-22.545-13.016l22.56-13.025L119.197,390.295z M95.577,376.658l-22.56,13.025
		l-22.544-13.016l22.56-13.025L95.577,376.658z M71.957,363.022l-22.56,13.025L26.852,363.03l22.56-13.025L71.957,363.022z
		 M48.337,349.385l-22.56,13.025L3.232,349.393l22.56-13.025L48.337,349.385z M24.717,335.748l-22.56,13.025l-22.545-13.016
		l22.56-13.025L24.717,335.748z M1.097,322.111l-22.56,13.025l-22.544-13.016l22.56-13.025L1.097,322.111z M-22.522,308.474
		l-22.56,13.025l-22.545-13.016l22.56-13.025L-22.522,308.474z M284.551,458.471l-22.56,13.025l-22.545-13.016l22.56-13.025
		L284.551,458.471z M260.931,444.835l-22.56,13.025l-22.545-13.016l22.56-13.025L260.931,444.835z M237.311,431.198l-22.56,13.025
		l-22.544-13.016l22.56-13.025L237.311,431.198z M213.691,417.561l-22.56,13.025l-22.545-13.016l22.56-13.025L213.691,417.561z
		 M190.071,403.924l-22.56,13.025l-22.545-13.016l22.56-13.025L190.071,403.924z M166.451,390.287l-22.56,13.025l-22.545-13.016
		l22.56-13.025L166.451,390.287z M142.831,376.65l-22.56,13.025l-22.545-13.016l22.56-13.025L142.831,376.65z M119.211,363.013
		l-22.56,13.025l-22.544-13.016l22.56-13.025L119.211,363.013z M95.592,349.376l-22.56,13.025l-22.545-13.016l22.56-13.025
		L95.592,349.376z M71.972,335.739l-22.56,13.025l-22.545-13.016l22.56-13.025L71.972,335.739z M48.352,322.102l-22.56,13.025
		L3.247,322.111l22.56-13.025L48.352,322.102z M24.732,308.465L2.172,321.49l-22.544-13.016l22.56-13.025L24.732,308.465z
		 M1.113,294.828l-22.56,13.025l-22.545-13.016l22.56-13.025L1.113,294.828z M308.186,444.826l-22.56,13.025l-22.545-13.016
		l22.56-13.025L308.186,444.826z M284.565,431.189l-22.56,13.025l-22.545-13.016l22.56-13.025L284.565,431.189z M260.946,417.552
		l-22.56,13.025l-22.544-13.016l22.56-13.025L260.946,417.552z M237.326,403.915l-22.56,13.025l-22.545-13.016l22.56-13.025
		L237.326,403.915z M213.706,390.278l-22.56,13.025l-22.545-13.016l22.56-13.025L213.706,390.278z M190.086,376.641l-22.56,13.025
		l-22.545-13.016l22.56-13.025L190.086,376.641z M166.466,363.004l-22.56,13.025l-22.545-13.016l22.56-13.025L166.466,363.004z
		 M142.846,349.367l-22.56,13.025l-22.544-13.016l22.56-13.025L142.846,349.367z M119.227,335.731l-22.56,13.025l-22.545-13.016
		l22.56-13.025L119.227,335.731z M95.607,322.094l-22.56,13.025l-22.545-13.016l22.56-13.025L95.607,322.094z M71.987,308.457
		l-22.56,13.025l-22.545-13.016l22.56-13.025L71.987,308.457z M48.367,294.82l-22.56,13.025L3.263,294.828l22.56-13.025
		L48.367,294.82z M24.747,281.183l-22.56,13.025l-22.545-13.016l22.56-13.025L24.747,281.183z M331.82,431.18l-22.56,13.025
		l-22.545-13.016l22.56-13.025L331.82,431.18z M308.2,417.543l-22.56,13.025l-22.545-13.016l22.56-13.025L308.2,417.543z
		 M284.58,403.906l-22.56,13.025l-22.544-13.016l22.56-13.025L284.58,403.906z M260.961,390.27l-22.56,13.025l-22.545-13.016
		l22.56-13.025L260.961,390.27z M237.341,376.633l-22.56,13.025l-22.545-13.016l22.56-13.025L237.341,376.633z M213.721,362.996
		l-22.56,13.025l-22.545-13.016l22.56-13.025L213.721,362.996z M190.101,349.359l-22.56,13.025l-22.545-13.016l22.56-13.025
		L190.101,349.359z M166.481,335.722l-22.56,13.025l-22.544-13.016l22.56-13.025L166.481,335.722z M142.862,322.085l-22.56,13.025
		l-22.545-13.016l22.56-13.025L142.862,322.085z M119.242,308.448l-22.56,13.025l-22.545-13.016l22.56-13.025L119.242,308.448z
		 M95.622,294.811l-22.56,13.025L50.517,294.82l22.56-13.025L95.622,294.811z M72.002,281.174l-22.56,13.025l-22.544-13.016
		l22.56-13.025L72.002,281.174z M48.382,267.537l-22.56,13.025L3.277,267.546l22.56-13.025L48.382,267.537z M355.456,417.535
		l-22.56,13.025l-22.545-13.016l22.56-13.025L355.456,417.535z M331.836,403.898l-22.56,13.025l-22.545-13.016l22.56-13.025
		L331.836,403.898z M308.216,390.261l-22.56,13.025l-22.544-13.016l22.56-13.025L308.216,390.261z M284.596,376.624l-22.56,13.025
		l-22.545-13.016l22.56-13.025L284.596,376.624z M260.976,362.987l-22.56,13.025l-22.545-13.016l22.56-13.025L260.976,362.987z
		 M237.356,349.35l-22.56,13.025l-22.545-13.016l22.56-13.025L237.356,349.35z M213.736,335.713l-22.56,13.025l-22.545-13.016
		l22.56-13.025L213.736,335.713z M190.116,322.076l-22.56,13.025l-22.544-13.016l22.56-13.025L190.116,322.076z M166.497,308.439
		l-22.56,13.025l-22.545-13.016l22.56-13.025L166.497,308.439z M142.877,294.802l-22.56,13.025l-22.545-13.016l22.56-13.025
		L142.877,294.802z M119.257,281.165l-22.56,13.025l-22.545-13.016l22.56-13.025L119.257,281.165z M95.637,267.528l-22.56,13.025
		l-22.544-13.016l22.56-13.025L95.637,267.528z M72.018,253.891l-22.56,13.025L26.912,253.9l22.56-13.025L72.018,253.891z
		 M379.091,403.889l-22.56,13.025l-22.545-13.016l22.56-13.025L379.091,403.889z M355.471,390.252l-22.56,13.025l-22.545-13.016
		l22.56-13.025L355.471,390.252z M331.851,376.615l-22.56,13.025l-22.544-13.016l22.56-13.025L331.851,376.615z M308.231,362.978
		l-22.56,13.025l-22.545-13.016l22.56-13.025L308.231,362.978z M284.611,349.341l-22.56,13.025l-22.545-13.016l22.56-13.025
		L284.611,349.341z M260.991,335.704l-22.56,13.025l-22.545-13.016l22.56-13.025L260.991,335.704z M237.371,322.067l-22.56,13.025
		l-22.545-13.016l22.56-13.025L237.371,322.067z M213.751,308.43l-22.56,13.025l-22.544-13.016l22.56-13.025L213.751,308.43z
		 M190.132,294.794l-22.56,13.025l-22.545-13.016l22.56-13.025L190.132,294.794z M166.512,281.157l-22.56,13.025l-22.545-13.016
		l22.56-13.025L166.512,281.157z M142.892,267.52l-22.56,13.025l-22.545-13.016l22.56-13.025L142.892,267.52z M119.272,253.883
		l-22.56,13.025l-22.545-13.016l22.56-13.025L119.272,253.883z M95.652,240.246l-22.56,13.025l-22.545-13.016l22.56-13.025
		L95.652,240.246z M402.725,390.243l-22.56,13.025l-22.545-13.016l22.56-13.025L402.725,390.243z M379.105,376.606l-22.56,13.025
		l-22.545-13.016l22.56-13.025L379.105,376.606z M355.485,362.969l-22.56,13.025l-22.544-13.016l22.56-13.025L355.485,362.969z
		 M331.866,349.333l-22.56,13.025l-22.545-13.016l22.56-13.025L331.866,349.333z M308.246,335.696l-22.56,13.025l-22.545-13.016
		l22.56-13.025L308.246,335.696z M284.626,322.059l-22.56,13.025l-22.545-13.016l22.56-13.025L284.626,322.059z M261.006,308.422
		l-22.56,13.025l-22.545-13.016l22.56-13.025L261.006,308.422z M237.386,294.785l-22.56,13.025l-22.544-13.016l22.56-13.025
		L237.386,294.785z M213.767,281.148l-22.56,13.025l-22.545-13.016l22.56-13.025L213.767,281.148z M190.147,267.511l-22.56,13.025
		l-22.545-13.016l22.56-13.025L190.147,267.511z M166.527,253.874l-22.56,13.025l-22.545-13.016l22.56-13.025L166.527,253.874z
		 M142.907,240.237l-22.56,13.025l-22.544-13.016l22.56-13.025L142.907,240.237z M119.287,226.6l-22.56,13.025l-22.545-13.016
		l22.56-13.025L119.287,226.6z M426.36,376.598l-22.56,13.025l-22.545-13.016l22.56-13.025L426.36,376.598z M402.74,362.961
		l-22.56,13.025l-22.545-13.016l22.56-13.025L402.74,362.961z M379.12,349.324l-22.56,13.025l-22.544-13.016l22.56-13.025
		L379.12,349.324z M355.501,335.687l-22.56,13.025l-22.545-13.016l22.56-13.025L355.501,335.687z M331.881,322.05l-22.56,13.025
		l-22.545-13.016l22.56-13.025L331.881,322.05z M308.261,308.413l-22.56,13.025l-22.545-13.016l22.56-13.025L308.261,308.413z
		 M284.641,294.776l-22.56,13.025l-22.545-13.016l22.56-13.025L284.641,294.776z M261.021,281.139l-22.56,13.025l-22.544-13.016
		l22.56-13.025L261.021,281.139z M237.401,267.502l-22.56,13.025l-22.545-13.016l22.56-13.025L237.401,267.502z M213.781,253.865
		l-22.56,13.025l-22.545-13.016l22.56-13.025L213.781,253.865z M190.161,240.228l-22.56,13.025l-22.545-13.016l22.56-13.025
		L190.161,240.228z M166.541,226.591l-22.56,13.025L121.437,226.6l22.56-13.025L166.541,226.591z M142.922,212.955l-22.56,13.025
		l-22.545-13.016l22.56-13.025L142.922,212.955z M449.995,362.952l-22.56,13.025l-22.545-13.016l22.56-13.025L449.995,362.952z
		 M426.375,349.315l-22.56,13.025l-22.545-13.016l22.56-13.025L426.375,349.315z M402.755,335.678l-22.56,13.025l-22.544-13.016
		l22.56-13.025L402.755,335.678z M379.136,322.042l-22.56,13.025l-22.545-13.016l22.56-13.025L379.136,322.042z M355.516,308.405
		l-22.56,13.025l-22.545-13.016l22.56-13.025L355.516,308.405z M331.896,294.768l-22.56,13.025l-22.545-13.016l22.56-13.025
		L331.896,294.768z M308.276,281.131l-22.56,13.025l-22.545-13.016l22.56-13.025L308.276,281.131z M284.656,267.493l-22.56,13.025
		l-22.544-13.016l22.56-13.025L284.656,267.493z M261.036,253.857l-22.56,13.025l-22.545-13.016l22.56-13.025L261.036,253.857z
		 M237.416,240.22l-22.56,13.025l-22.545-13.016l22.56-13.025L237.416,240.22z M213.796,226.583l-22.56,13.025l-22.545-13.016
		l22.56-13.025L213.796,226.583z M190.176,212.946l-22.56,13.025l-22.545-13.016l22.56-13.025L190.176,212.946z M166.557,199.309
		l-22.56,13.025l-22.545-13.016l22.56-13.025L166.557,199.309z M473.63,349.307l-22.56,13.025l-22.545-13.016l22.56-13.025
		L473.63,349.307z M450.01,335.67l-22.56,13.025l-22.545-13.016l22.56-13.025L450.01,335.67z M426.39,322.033l-22.56,13.025
		l-22.544-13.016l22.56-13.025L426.39,322.033z M402.77,308.396l-22.56,13.025l-22.545-13.016l22.56-13.025L402.77,308.396z
		 M379.15,294.759l-22.56,13.025l-22.545-13.016l22.56-13.025L379.15,294.759z M355.53,281.122l-22.56,13.025l-22.545-13.016
		l22.56-13.025L355.53,281.122z M331.91,267.485l-22.56,13.025l-22.545-13.016l22.56-13.025L331.91,267.485z M308.291,253.848
		l-22.56,13.025l-22.544-13.016l22.56-13.025L308.291,253.848z M284.671,240.211l-22.56,13.025l-22.545-13.016l22.56-13.025
		L284.671,240.211z M261.051,226.574l-22.56,13.025l-22.545-13.016l22.56-13.025L261.051,226.574z M237.431,212.937l-22.56,13.025
		l-22.545-13.016l22.56-13.025L237.431,212.937z M213.811,199.3l-22.56,13.025l-22.544-13.016l22.56-13.025L213.811,199.3z
		 M190.192,185.664l-22.56,13.025l-22.545-13.016l22.56-13.025L190.192,185.664z M497.265,335.661l-22.56,13.025L452.16,335.67
		l22.56-13.025L497.265,335.661z M473.645,322.024l-22.56,13.025l-22.545-13.016l22.56-13.025L473.645,322.024z M450.025,308.387
		l-22.56,13.025l-22.544-13.016l22.56-13.025L450.025,308.387z M426.405,294.75l-22.56,13.025L381.3,294.759l22.56-13.025
		L426.405,294.75z M402.785,281.113l-22.56,13.025l-22.545-13.016l22.56-13.025L402.785,281.113z M379.165,267.476l-22.56,13.025
		l-22.545-13.016l22.56-13.025L379.165,267.476z M355.545,253.839l-22.56,13.025l-22.545-13.016L333,240.823L355.545,253.839z
		 M331.925,240.202l-22.56,13.025l-22.544-13.016l22.56-13.025L331.925,240.202z M308.306,226.566l-22.56,13.025l-22.545-13.016
		l22.56-13.025L308.306,226.566z M284.686,212.929l-22.56,13.025l-22.545-13.016l22.56-13.025L284.686,212.929z M261.066,199.292
		l-22.56,13.025L215.961,199.3l22.56-13.025L261.066,199.292z M237.446,185.655l-22.56,13.025l-22.545-13.016l22.56-13.025
		L237.446,185.655z M213.826,172.018l-22.56,13.025l-22.545-13.016l22.56-13.025L213.826,172.018z M520.899,322.015l-22.56,13.025
		l-22.545-13.016l22.56-13.025L520.899,322.015z M497.28,308.379l-22.56,13.025l-22.545-13.016l22.56-13.025L497.28,308.379z
		 M473.66,294.742l-22.56,13.025l-22.544-13.016l22.56-13.025L473.66,294.742z M450.04,281.105l-22.56,13.025l-22.545-13.016
		l22.56-13.025L450.04,281.105z M426.42,267.468l-22.56,13.025l-22.545-13.016l22.56-13.025L426.42,267.468z M402.8,253.831
		l-22.56,13.025l-22.545-13.016l22.56-13.025L402.8,253.831z M379.18,240.194l-22.56,13.025l-22.545-13.016l22.56-13.025
		L379.18,240.194z M355.56,226.557L333,239.582l-22.544-13.016l22.56-13.025L355.56,226.557z M331.941,212.92l-22.56,13.025
		l-22.545-13.016l22.56-13.025L331.941,212.92z M308.321,199.283l-22.56,13.025l-22.545-13.016l22.56-13.025L308.321,199.283z
		 M284.701,185.646l-22.56,13.025l-22.545-13.016l22.56-13.025L284.701,185.646z M261.081,172.009l-22.56,13.025l-22.544-13.016
		l22.56-13.025L261.081,172.009z M237.461,158.372l-22.56,13.025l-22.545-13.016l22.56-13.025L237.461,158.372z"/>
</g>
<linearGradient id="SVGID_4_" gradientUnits="userSpaceOnUse" x1="300.9001" y1="26.7404" x2="300.9001" y2="144.7003">
	<stop  offset="0" style="stop-color:#021B79"/>
	<stop  offset="0.4328" style="stop-color:#021B77"/>
	<stop  offset="0.5888" style="stop-color:#021970"/>
	<stop  offset="0.6999" style="stop-color:#021665"/>
	<stop  offset="0.7898" style="stop-color:#011354"/>
	<stop  offset="0.8667" style="stop-color:#010E3E"/>
	<stop  offset="0.9337" style="stop-color:#010823"/>
	<stop  offset="0.9939" style="stop-color:#000104"/>
	<stop  offset="1" style="stop-color:#000000"/>
</linearGradient>
<polygon fill="url(#SVGID_4_)" points="300.9,24.076 291.148,31.557 294.381,33.424 294.381,142.014 307.42,149.542 307.42,40.952 
	310.652,42.818 "/>
<polygon fill="#021B79" points="232.935,192.529 219.947,185.03 294.408,142.04 307.396,149.539 "/>
<linearGradient id="SVGID_5_" gradientUnits="userSpaceOnUse" x1="354.4427" y1="79.3356" x2="354.4427" y2="200.5293">
	<stop  offset="0" style="stop-color:#3074E1"/>
	<stop  offset="1" style="stop-color:#1C3599"/>
</linearGradient>
<polygon fill="url(#SVGID_5_)" points="354.442,74.756 344.691,82.236 347.924,84.103 347.924,192.693 360.963,200.221 
	360.963,91.631 364.195,93.497 "/>
<polygon fill="#366DCA" points="286.478,243.208 273.49,235.709 347.951,192.719 360.939,200.218 "/>
<linearGradient id="SVGID_6_" gradientUnits="userSpaceOnUse" x1="408.5252" y1="138.3059" x2="408.5252" y2="257.8404">
	<stop  offset="0" style="stop-color:#D5E2F7"/>
	<stop  offset="1" style="stop-color:#ACBDE2"/>
</linearGradient>
<polygon fill="url(#SVGID_6_)" points="408.525,136.323 398.773,143.804 402.006,145.671 402.006,254.26 415.045,261.788 
	415.045,153.199 418.277,155.065 "/>
<polygon fill="#D5E2F7" points="340.561,304.776 327.572,297.277 402.033,254.287 415.022,261.786 "/>
<linearGradient id="SVGID_7_" gradientUnits="userSpaceOnUse" x1="270.5374" y1="234.9621" x2="667.0109" y2="516.843">
	<stop  offset="0" style="stop-color:#FFFFFF"/>
	<stop  offset="1" style="stop-color:#3074E1"/>
</linearGradient>
<polygon fill="url(#SVGID_7_)" points="423.065,287.773 354.666,327.263 180.67,226.701 249.068,187.211 "/>
<polygon fill="#9DAAD4" points="423.065,287.773 423.065,316.165 354.666,355.655 354.666,327.263 "/>
<polygon fill="#E5E3E8" points="180.67,226.701 180.67,255.092 354.666,355.655 354.666,327.263 "/>
<path fill="#023790" stroke="#023790" stroke-miterlimit="10" d="M281.04,110.359l-30.013,17.328
	c-2.188,1.263-6.046,1.103-8.573-0.355l-28.782-16.617c-2.527-1.459-2.804-3.686-0.615-4.95l30.013-17.328
	c2.188-1.263,6.046-1.103,8.573,0.355l28.782,16.617C282.951,106.868,283.228,109.095,281.04,110.359z"/>
<linearGradient id="SVGID_8_" gradientUnits="userSpaceOnUse" x1="264.2549" y1="115.4928" x2="264.2549" y2="246.0465">
	<stop  offset="0" style="stop-color:#021B79"/>
	<stop  offset="0.2207" style="stop-color:#021A76"/>
	<stop  offset="0.3984" style="stop-color:#02186C"/>
	<stop  offset="0.5611" style="stop-color:#01145B"/>
	<stop  offset="0.7149" style="stop-color:#010F43"/>
	<stop  offset="0.8611" style="stop-color:#010825"/>
	<stop  offset="1" style="stop-color:#000000"/>
</linearGradient>
<path fill="url(#SVGID_8_)" d="M282.474,229.391V108.608c0,0,0,0,0,0c0,0,0,0,0,0c-0.139,0.659-0.626,1.274-1.477,1.751
	l-30.898,17.328c-1.083,0.607-2.564,0.877-4.098,0.841v121.558c1.534,0.037,3.016-0.233,4.098-0.841l30.898-17.328
	C282.174,231.256,282.652,230.331,282.474,229.391z"/>
<path fill="#021B79" d="M242.454,127.331l-28.782-16.617c-1.205-0.696-1.892-1.567-2.051-2.424v120.783
	c-0.222,1.086,0.478,2.291,2.051,3.199l28.782,16.617c1.312,0.758,2.982,1.157,4.592,1.196V128.527
	C245.436,128.488,243.767,128.089,242.454,127.331z"/>
<path fill="#366DCA" stroke="#366DCA" stroke-miterlimit="10" d="M333.973,184.648l-30.013,17.328
	c-2.188,1.263-6.046,1.104-8.573-0.355l-28.782-16.617c-2.527-1.459-2.804-3.686-0.615-4.949l30.013-17.328
	c2.188-1.263,6.046-1.103,8.573,0.355l28.782,16.617C335.884,181.157,336.161,183.385,333.973,184.648z"/>
<linearGradient id="SVGID_9_" gradientUnits="userSpaceOnUse" x1="317.2216" y1="195.0631" x2="317.2216" y2="271.5192">
	<stop  offset="0" style="stop-color:#1C3599"/>
	<stop  offset="0.9198" style="stop-color:#0F123B"/>
</linearGradient>
<path fill="url(#SVGID_9_)" d="M335.407,260.128v-77.231c0,0,0,0,0,0c0,0,0,0,0,0c-0.138,0.659-0.625,1.274-1.475,1.751
	l-30.842,17.328c-1.081,0.607-2.56,0.877-4.091,0.841v78.006c1.531,0.036,3.01-0.234,4.091-0.841l30.842-17.328
	C335.109,261.993,335.585,261.069,335.407,260.128z"/>
<path fill="#335EC4" d="M295.388,201.62l-28.782-16.617c-1.205-0.696-1.892-1.566-2.05-2.424v77.231
	c-0.222,1.086,0.478,2.291,2.05,3.199l28.782,16.617c1.312,0.758,2.982,1.157,4.592,1.196v-78.006
	C298.369,202.777,296.7,202.378,295.388,201.62z"/>
<path fill="#D5E2F7" stroke="#D5E2F7" stroke-miterlimit="10" d="M388.01,236.309l-30.013,17.328
	c-2.188,1.263-6.046,1.104-8.573-0.355l-28.782-16.617c-2.527-1.459-2.804-3.686-0.616-4.949l30.013-17.328
	c2.188-1.263,6.046-1.104,8.572,0.355l28.782,16.617C389.921,232.818,390.198,235.046,388.01,236.309z"/>
<linearGradient id="SVGID_10_" gradientUnits="userSpaceOnUse" x1="371.2399" y1="243.9852" x2="371.2399" y2="353.2982">
	<stop  offset="0" style="stop-color:#ACBDE2"/>
	<stop  offset="0.9198" style="stop-color:#3F4893"/>
</linearGradient>
<path fill="url(#SVGID_10_)" d="M389.444,290.895v-56.337c0,0,0,0,0,0c0,0,0,0,0-0.001c-0.138,0.659-0.626,1.274-1.476,1.751
	l-30.873,17.328c-1.082,0.607-2.562,0.877-4.095,0.841v57.111c1.533,0.037,3.013-0.233,4.095-0.841l30.873-17.328
	C389.145,292.76,389.622,291.835,389.444,290.895z"/>
<path fill="#ACBDE2" d="M349.424,253.282l-28.782-16.617c-1.205-0.696-1.892-1.567-2.05-2.424v56.337
	c-0.222,1.085,0.478,2.291,2.05,3.199l28.782,16.617c1.312,0.758,2.982,1.157,4.592,1.196v-57.111
	C352.406,254.438,350.737,254.039,349.424,253.282z"/>
<path fill="#E3E0F3" d="M183.292,305.72c-0.685,0-1.38-0.172-2.019-0.532l-82.514-46.543c-4.599-2.595-7.354-7.296-7.371-12.576
	c-0.017-5.28,2.71-9.998,7.293-12.621l66.782-38.221c4.426-2.533,9.93-2.54,14.363-0.018l26.87,15.288
	c1.977,1.124,2.668,3.639,1.543,5.615c-1.124,1.977-3.636,2.67-5.615,1.543l-26.87-15.288c-1.915-1.089-4.29-1.086-6.2,0.008
	l-66.782,38.221c-1.978,1.132-3.155,3.169-3.148,5.448c0.007,2.279,1.196,4.309,3.182,5.429l82.514,46.542
	c1.98,1.118,2.681,3.629,1.563,5.61C186.126,304.966,184.73,305.72,183.292,305.72z"/>
<path fill="#021B79" d="M184.055,300.256l-82.514-46.543c-2.802-1.58-4.481-4.445-4.491-7.662c-0.01-3.217,1.651-6.092,4.443-7.69
	l66.782-38.221c2.698-1.543,6.05-1.548,8.751-0.011l25.014,14.232l3.1-1.79l-26.587-15.127c-3.645-2.074-8.172-2.069-11.812,0.015
	l-66.782,38.221c-3.769,2.157-6.011,6.037-5.997,10.379c0.014,4.342,2.28,8.209,6.062,10.343l82.514,46.543
	c0.24,0.135,0.5,0.199,0.757,0.199c0.539,0,1.063-0.283,1.347-0.785C185.06,301.618,184.798,300.676,184.055,300.256z"/>
<ellipse fill="#E6E6E6" cx="132.005" cy="267.459" rx="18.67" ry="10.779"/>
<path fill="#9DAAD4" d="M145.207,275.081c-3.714,2.144-8.603,3.194-13.47,3.153c-4.688-0.039-9.356-1.088-12.933-3.153
	c-3.628-2.095-5.449-4.837-5.467-7.582c0,0,0,0,0,0v8.06c-0.018,2.772,1.803,5.547,5.467,7.662
	c3.577,2.065,8.245,3.115,12.933,3.153c4.867,0.04,9.756-1.009,13.47-3.153c3.663-2.115,5.485-4.89,5.467-7.662v-8.06c0,0,0,0,0,0
	C150.656,270.245,148.835,272.987,145.207,275.081z"/>
<g>
	<g>
		<linearGradient id="SVGID_11_" gradientUnits="userSpaceOnUse" x1="216.4507" y1="313.9948" x2="454.097" y2="452.114">
			<stop  offset="0" style="stop-color:#FFFFFF"/>
			<stop  offset="1" style="stop-color:#3074E1"/>
		</linearGradient>
		<path fill="url(#SVGID_11_)" d="M235.172,339.432l-51.198-29.559c-6.05-3.493-5.291-9.594,1.695-13.628v0
			c6.986-4.033,17.554-4.471,23.604-0.978l51.197,29.559c6.05,3.493,5.291,9.594-1.695,13.628l0,0
			C251.79,342.487,241.222,342.925,235.172,339.432z"/>
	</g>
	<g>
		<path fill="#E5E3E8" d="M258.776,338.453c-6.986,4.033-17.554,4.471-23.604,0.978l-51.197-29.559
			c-2.633-1.52-3.974-3.535-4.076-5.658l0,0v15.091c0.001,0.044-0.002,0.087,0,0.131c0.051,2.171,1.388,4.238,4.076,5.789
			l51.197,29.559c6.05,3.493,16.618,3.055,23.604-0.978c3.945-2.278,5.902-5.215,5.77-7.969v-15.222
			C264.611,333.332,262.659,336.212,258.776,338.453z"/>
	</g>
</g>
<g>
	<path fill="#9DAAD4" d="M212.765,311.816c-2.625,1.515-6.88,1.515-9.505,0c-2.625-1.515-2.625-3.972,0-5.488
		c2.625-1.515,6.88-1.515,9.505,0C215.39,307.844,215.39,310.301,212.765,311.816z"/>
	<path fill="#9DAAD4" d="M227.602,320.382c-2.625,1.515-6.88,1.515-9.505,0c-2.625-1.515-2.625-3.972,0-5.488
		c2.625-1.515,6.88-1.515,9.505,0C230.226,316.41,230.226,318.867,227.602,320.382z"/>
	<path fill="#9DAAD4" d="M242.438,328.948c-2.625,1.515-6.88,1.515-9.505,0c-2.625-1.515-2.625-3.972,0-5.488
		c2.625-1.515,6.88-1.515,9.505,0C245.062,324.975,245.062,327.432,242.438,328.948z"/>
</g>
<path fill="#021B79" d="M212.491,310.719c-2.625,1.515-6.88,1.515-9.505,0c-2.625-1.515-2.625-3.972,0-5.488
	c2.625-1.515,6.88-1.515,9.505,0C215.116,306.747,215.116,309.204,212.491,310.719z"/>
<path fill="#366DCA" d="M227.327,319.285c-2.625,1.515-6.88,1.515-9.505,0c-2.625-1.515-2.625-3.972,0-5.488
	c2.625-1.515,6.88-1.515,9.505,0C229.952,315.313,229.952,317.77,227.327,319.285z"/>
<path fill="#D5E2F7" d="M242.163,327.851c-2.625,1.515-6.88,1.515-9.505,0c-2.625-1.515-2.625-3.972,0-5.488
	c2.625-1.515,6.88-1.515,9.505,0C244.788,323.878,244.788,326.335,242.163,327.851z"/>
<path fill="#E3E0F3" d="M362.103,408.616c-2.526,0-5.052-0.656-7.301-1.968l-97.577-57.097c-1.962-1.148-2.623-3.67-1.474-5.634
	c1.149-1.962,3.67-2.623,5.634-1.474l97.571,57.094c1.926,1.123,4.33,1.13,6.268,0.014l66.3-38.186
	c1.967-1.134,3.139-3.167,3.133-5.437c-0.006-2.271-1.187-4.297-3.161-5.42l-39.582-23.032c-1.965-1.143-2.632-3.664-1.488-5.63
	c1.142-1.964,3.663-2.632,5.63-1.488l39.547,23.011c4.538,2.581,7.275,7.274,7.29,12.535c0.014,5.261-2.699,9.969-7.258,12.594
	l-66.3,38.186C367.103,407.972,364.603,408.616,362.103,408.616z"/>
<path fill="#021B79" d="M362.103,406.043c-2.078,0-4.155-0.54-6.005-1.619l-97.573-57.095c-0.736-0.431-0.983-1.377-0.553-2.113
	c0.432-0.736,1.379-0.979,2.113-0.553l97.571,57.094c2.724,1.588,6.117,1.599,8.852,0.023l66.3-38.186
	c2.778-1.599,4.431-4.469,4.422-7.674c-0.008-3.205-1.677-6.065-4.461-7.649l-39.56-23.019c-0.738-0.429-0.987-1.374-0.559-2.112
	c0.43-0.738,1.373-0.984,2.112-0.558l39.546,23.011c3.748,2.132,6,5.992,6.011,10.319c0.012,4.326-2.22,8.198-5.969,10.358
	l-66.3,38.186C366.214,405.514,364.158,406.043,362.103,406.043z"/>
<ellipse fill="#E6E6E6" cx="321.225" cy="378.75" rx="18.67" ry="10.779"/>
<path fill="#9DAAD4" d="M334.426,386.372c-3.714,2.144-8.603,3.194-13.47,3.153c-4.688-0.039-9.356-1.088-12.933-3.153
	c-3.628-2.094-5.449-4.837-5.467-7.582l0,0v8.06c-0.018,2.772,1.803,5.547,5.467,7.662c3.577,2.065,8.245,3.115,12.933,3.153
	c4.867,0.04,9.756-1.009,13.47-3.154c3.663-2.115,5.485-4.89,5.467-7.662v-8.06c0,0,0,0,0,0
	C339.875,381.535,338.054,384.277,334.426,386.372z"/>
<g>
	<path fill="#E3E0F3" d="M90.496,384.437c-1.424,0-2.807-0.739-3.57-2.06c-1.137-1.969-0.462-4.488,1.507-5.625l99.572-57.488
		c1.971-1.14,4.487-0.462,5.625,1.507c1.137,1.969,0.462,4.488-1.507,5.625l-99.572,57.488
		C91.902,384.259,91.194,384.437,90.496,384.437z"/>
	<path fill="#E3E0F3" d="M132.591,408.741c-1.423,0-2.807-0.739-3.57-2.06c-1.138-1.969-0.462-4.488,1.507-5.625l99.572-57.488
		c1.97-1.139,4.488-0.462,5.625,1.507c1.137,1.969,0.462,4.488-1.507,5.625l-99.572,57.488
		C133.997,408.562,133.289,408.741,132.591,408.741z"/>
</g>
<g>
	<path fill="#021B79" d="M90.493,381.863c-0.534,0-1.053-0.277-1.339-0.772c-0.427-0.739-0.173-1.683,0.565-2.109l99.572-57.488
		c0.739-0.427,1.683-0.173,2.109,0.565c0.427,0.739,0.173,1.683-0.565,2.109l-99.572,57.488
		C91.02,381.796,90.755,381.863,90.493,381.863z"/>
	<path fill="#021B79" d="M132.588,406.166c-0.534,0-1.053-0.276-1.339-0.772c-0.427-0.739-0.173-1.683,0.565-2.109l99.572-57.488
		c0.74-0.427,1.684-0.174,2.109,0.565c0.427,0.739,0.173,1.683-0.565,2.109l-99.572,57.488
		C133.116,406.099,132.85,406.166,132.588,406.166z"/>
</g>
<g>
	<linearGradient id="SVGID_12_" gradientUnits="userSpaceOnUse" x1="50.3738" y1="406.3012" x2="197.4359" y2="351.1531">
		<stop  offset="0.1086" style="stop-color:#0084E9"/>
		<stop  offset="0.9996" style="stop-color:#7DE7E8"/>
	</linearGradient>
	<ellipse fill="url(#SVGID_12_)" cx="115.418" cy="381.91" rx="69.024" ry="39.851"/>
	<linearGradient id="SVGID_13_" gradientUnits="userSpaceOnUse" x1="189.5823" y1="377.5725" x2="45.7459" y2="354.3524">
		<stop  offset="6.674000e-04" style="stop-color:#4CFFD5"/>
		<stop  offset="0.6141" style="stop-color:#B9FFEE"/>
		<stop  offset="0.9996" style="stop-color:#FFFFFF"/>
	</linearGradient>
	<path fill="url(#SVGID_13_)" d="M64.966,355.651c26.955-15.563,70.659-15.563,97.614,0c21.022,12.137,25.646,30.154,13.879,44.881
		c13.787-15.052,9.712-34.13-12.233-46.8c-26.955-15.563-70.659-15.563-97.614,0c-5.933,3.426-10.557,7.32-13.879,11.477
		C55.881,361.771,59.956,358.543,64.966,355.651z"/>
	<linearGradient id="SVGID_14_" gradientUnits="userSpaceOnUse" x1="46.272" y1="419.2288" x2="201.6561" y2="409.5436">
		<stop  offset="0" style="stop-color:#0F123B"/>
		<stop  offset="0.2385" style="stop-color:#1B2062"/>
		<stop  offset="0.2965" style="stop-color:#1D2469"/>
		<stop  offset="0.3813" style="stop-color:#232E7D"/>
		<stop  offset="0.4822" style="stop-color:#2D3E9D"/>
		<stop  offset="0.5816" style="stop-color:#3852C3"/>
		<stop  offset="1" style="stop-color:#64D5F7"/>
	</linearGradient>
	<path fill="url(#SVGID_14_)" d="M164.225,410.088c-13.73,7.927-31.806,11.807-49.8,11.658
		c-17.332-0.143-34.589-4.023-47.814-11.658c-13.412-7.743-20.145-17.881-20.21-28.03c0,0,0,0,0,0v29.799
		c-0.066,10.248,6.667,20.509,20.21,28.328c13.225,7.635,30.482,11.515,47.814,11.658c17.994,0.148,36.069-3.731,49.8-11.658
		c13.543-7.819,20.276-18.079,20.211-28.328v-29.799v0C184.37,392.207,177.637,402.345,164.225,410.088z"/>
</g>
<ellipse fill="#1C3599" cx="115.418" cy="381.91" rx="51.196" ry="29.558"/>
<path fill="#E4E2E7" d="M151.619,364.45c-19.993-11.543-52.408-11.543-72.402,0c-9.238,5.334-14.198,12.199-14.899,19.18
	c0.701,6.981,5.66,13.846,14.899,19.18c19.993,11.543,52.408,11.543,72.402,0c9.238-5.334,14.198-12.199,14.899-19.18
	C165.817,376.649,160.858,369.783,151.619,364.45z"/>
<linearGradient id="SVGID_15_" gradientUnits="userSpaceOnUse" x1="115.4183" y1="417.6746" x2="115.4183" y2="242.9014">
	<stop  offset="0" style="stop-color:#DDDDDD"/>
	<stop  offset="1" style="stop-color:#FFFFFF;stop-opacity:0"/>
</linearGradient>
<path fill="url(#SVGID_15_)" d="M64.256,381.102c-0.369,7.832,4.609,15.731,14.961,21.708c19.993,11.543,52.408,11.543,72.402,0
	c10.353-5.977,15.33-13.877,14.962-21.709v-161.65c0.369-7.832-4.609-15.732-14.961-21.709c-19.993-11.543-52.408-11.543-72.402,0
	c-10.353,5.977-15.331,13.878-14.962,21.709V381.102z"/>
<linearGradient id="eyhkjho33taq378_1_" gradientUnits="userSpaceOnUse" x1="83.9388" y1="117.1005" x2="108.1711" y2="117.1005" gradientTransform="matrix(1 0 0 -1 0 502)">
	<stop  offset="0" style="stop-color:#00F1FB"/>
	<stop  offset="1" style="stop-color:#634EF1"/>
</linearGradient>
<path id="eyhkjho33taq378" fill="url(#eyhkjho33taq378_1_)" d="M95.887,392.591l0.484,3.677l9.288-5.515l0,0l0.29-0.194l0,0
	c1.451-0.967,2.225-2.709,2.225-5.418c0-2.225-0.484-4.257-1.355-6.192c-0.871-1.935-2.322-3.677-4.257-5.418l-10.159,3.483
	l-8.514,4.741l9.385,5.418L95.887,392.591z"/>
<path id="eyhkjho33taq379" fill="#16110D" d="M96.177,396.848l-0.581-4.16l-2.612-5.225l-9.772-5.612l9.095-5.031l10.449-3.58
	l0.193,0.097c1.935,1.742,3.483,3.58,4.354,5.515s1.355,4.064,1.355,6.289c0,2.709-0.677,4.547-2.129,5.612l0,0l-0.484,0.29
	L96.177,396.848z M84.663,381.755l8.901,5.128l2.709,5.612l0.387,3.096l9.095-5.418c1.355-0.871,2.032-2.612,2.032-5.128
	c0-2.129-0.387-4.16-1.258-5.999c-0.871-1.838-2.129-3.483-3.967-5.128l-9.965,3.483L84.663,381.755z"/>
<g id="eyhkjho33taq380">
	<rect id="eyhkjho33taq381" x="79.923" y="362.502" fill="#16110D" width="9.965" height="10.836"/>
</g>
<g id="eyhkjho33taq382">
	<rect id="eyhkjho33taq383" x="79.923" y="375.95" fill="#16110D" width="11.997" height="11.997"/>
</g>
<linearGradient id="eyhkjho33taq384_1_" gradientUnits="userSpaceOnUse" x1="74.2144" y1="139.9338" x2="107.4968" y2="139.9338" gradientTransform="matrix(1 0 0 -1 0 502)">
	<stop  offset="0" style="stop-color:#00F1FB"/>
	<stop  offset="1" style="stop-color:#634EF1"/>
</linearGradient>
<path id="eyhkjho33taq384" fill="url(#eyhkjho33taq384_1_)" d="M94.919,351.762l-11.03-6.289l-9.675,5.708l9.675,8.127
	l10.352,13.255l1.838,6.095l2.903-1.742l4.451-2.612l1.935-1.161c0.097-0.097,0.194-0.097,0.29-0.193l0,0l0,0
	c0.193-0.097,0.29-0.29,0.484-0.387c0.871-0.968,1.355-2.419,1.355-4.451c0-3.096-1.064-5.999-3.096-8.611
	C102.369,356.793,99.176,354.278,94.919,351.762z"/>
<path id="eyhkjho33taq385" fill="#16110D" d="M95.79,379.24l-1.935-6.482l-10.256-13.255l-9.772-8.127v-0.387l10.062-5.902
	l11.126,6.482c4.257,2.516,7.547,5.128,9.675,7.74c2.129,2.709,3.193,5.708,3.193,8.901c0,2.129-0.484,3.677-1.451,4.644
	c-0.097,0.097-0.194,0.194-0.29,0.29l0,0l-0.29,0.194c-0.097,0.097-0.29,0.194-0.387,0.194L95.79,379.24z M74.892,351.182
	l9.288,7.74l10.449,13.448l1.645,5.708l8.901-5.225c0.097-0.097,0.193-0.097,0.29-0.194l0,0l0,0c0.193-0.097,0.29-0.193,0.484-0.387
	c0.871-0.871,1.258-2.225,1.258-4.16c0-2.999-1.064-5.805-2.999-8.417c-2.032-2.612-5.225-5.128-9.385-7.643l-10.836-6.192
	L74.892,351.182z"/>
<linearGradient id="eyhkjho33taq386_1_" gradientUnits="userSpaceOnUse" x1="80.7238" y1="116.2298" x2="93.1805" y2="116.2298" gradientTransform="matrix(1 0 0 -1 0 502)">
	<stop  offset="0" style="stop-color:#00F1FB"/>
	<stop  offset="1" style="stop-color:#634EF1"/>
</linearGradient>
<polygon id="eyhkjho33taq386" fill="url(#eyhkjho33taq386_1_)" points="82.728,384.851 90.759,380.11 93.178,388.528 87.953,391.43 
	80.697,387.463 "/>
<path id="eyhkjho33taq387" fill="#16110D" d="M87.953,391.817l-7.74-4.354l2.419-2.999l8.417-4.934l2.612,9.095L87.953,391.817z
	 M81.277,387.27l6.676,3.677l4.838-2.709l-2.225-7.643l-7.547,4.451L81.277,387.27z"/>
<linearGradient id="eyhkjho33taq388_1_" gradientUnits="userSpaceOnUse" x1="82.1151" y1="130.5489" x2="94.0493" y2="130.5489" gradientTransform="matrix(1 0 0 -1 0 502)">
	<stop  offset="0" style="stop-color:#00F1FB"/>
	<stop  offset="1" style="stop-color:#634EF1"/>
</linearGradient>
<polygon id="eyhkjho33taq388" fill="url(#eyhkjho33taq388_1_)" points="82.728,370.048 89.888,365.694 94.048,373.144 
	86.986,377.208 82.148,372.37 "/>
<path id="eyhkjho33taq389" fill="#16110D" d="M86.889,377.691l-5.225-5.225l0.677-2.612l7.643-4.644l4.451,8.03L86.889,377.691z
	 M82.535,372.177l4.451,4.547l6.579-3.773l-3.773-6.773l-6.773,4.064L82.535,372.177z"/>
<path id="eyhkjho33taq390" opacity="0.7" fill="#FFFFFF" enable-background="new    " d="M89.985,367.242l-4.547,2.709
	c0,0,1.935,1.355,4.257,1.258c2.322-0.097,2.419-2.419,2.419-2.419L89.985,367.242z"/>
<path id="eyhkjho33taq391" opacity="0.7" fill="#FFFFFF" enable-background="new    " d="M91.049,381.465l-5.321,3.29
	c0,0,3.096,2.419,5.418,1.161C93.468,384.658,91.049,381.465,91.049,381.465z"/>
<linearGradient id="eyhkjho33taq392_1_" gradientUnits="userSpaceOnUse" x1="74.2144" y1="127.9143" x2="98.4476" y2="127.9143" gradientTransform="matrix(1 0 0 -1 0 502)">
	<stop  offset="0" style="stop-color:#00F1FB"/>
	<stop  offset="1" style="stop-color:#634EF1"/>
</linearGradient>
<path id="eyhkjho33taq392" fill="url(#eyhkjho33taq392_1_)" d="M74.214,351.182l10.933,6.289c4.257,2.516,7.45,5.031,9.482,7.74
	c2.032,2.709,3.096,5.515,3.096,8.611c0,2.032-0.484,3.483-1.355,4.451c-0.871,0.967-2.129,1.161-3.58,0.677v0.29
	c1.935,1.742,3.386,3.58,4.257,5.418c0.871,1.935,1.355,3.967,1.355,6.192c0,3.29-1.064,5.321-3.193,5.902
	c-2.129,0.677-5.031-0.097-8.804-2.225l-12.191-7.063V351.182L74.214,351.182z M82.728,370.048l2.516,1.451
	c1.258,0.677,2.129,0.967,2.806,0.774c0.677-0.193,0.968-0.871,0.968-2.032c0-2.032-1.355-3.87-3.967-5.321l-2.419-1.355
	L82.728,370.048L82.728,370.048z M82.728,377.208v7.643l2.999,1.742c2.612,1.548,3.967,0.968,3.967-1.548
	c0-1.161-0.387-2.322-1.064-3.386c-0.677-1.064-1.742-1.935-3.096-2.709L82.728,377.208z"/>
<path id="eyhkjho33taq393" opacity="0.7" fill="#FFFFFF" enable-background="new    " d="M94.726,367.436
	c0.097,0.097,0.194,0.29,0.29,0.387l9.191-5.515c-2.032-2.516-5.128-5.031-9.288-7.45l-11.03-6.386l-8.998,5.321l10.256,5.902
	C89.501,362.211,92.694,364.727,94.726,367.436z"/>
<path id="eyhkjho33taq394" fill="#16110D" d="M93.661,397.429c-2.032,0-4.451-0.871-7.353-2.516l-12.384-7.16v-36.765l0.387-0.193
	l11.126,6.482c4.257,2.516,7.547,5.128,9.675,7.74c2.129,2.709,3.193,5.708,3.193,8.901c0,2.129-0.484,3.677-1.451,4.644
	c-0.774,0.774-1.742,1.161-2.999,0.968c1.645,1.548,2.903,3.29,3.677,4.934c0.871,1.935,1.355,4.064,1.355,6.289
	c0,3.483-1.161,5.612-3.483,6.289C94.822,397.332,94.242,397.429,93.661,397.429z M74.601,387.27l12.094,6.966
	c3.58,2.032,6.482,2.806,8.514,2.225c2.032-0.581,2.999-2.419,2.999-5.612c0-2.129-0.387-4.16-1.258-5.999
	c-0.871-1.838-2.225-3.677-4.16-5.321l-0.097-0.097v-0.871l0.484,0.097c1.355,0.387,2.419,0.194,3.193-0.581
	c0.871-0.871,1.258-2.225,1.258-4.16c0-2.999-1.064-5.805-2.999-8.417c-2.032-2.612-5.225-5.128-9.385-7.643l-10.449-5.999
	L74.601,387.27L74.601,387.27z M88.147,387.754c-0.677,0-1.548-0.29-2.612-0.871l-3.193-1.838v-8.514l3.386,1.935
	c1.355,0.774,2.516,1.742,3.193,2.903c0.774,1.064,1.161,2.322,1.161,3.58c0,1.355-0.387,2.225-0.968,2.612
	C88.824,387.657,88.534,387.754,88.147,387.754z M83.115,384.658l2.806,1.645c1.258,0.774,2.225,0.967,2.806,0.677
	c0.387-0.29,0.677-0.871,0.677-1.935c0-1.161-0.29-2.225-0.968-3.193c-0.677-0.968-1.645-1.935-2.999-2.612l-2.322-1.355V384.658z
	 M87.663,372.66c-0.677,0-1.548-0.29-2.516-0.871l-2.709-1.548v-7.353l2.903,1.742c2.806,1.645,4.16,3.483,4.16,5.708
	c0,1.355-0.387,2.129-1.258,2.322C88.05,372.66,87.856,372.66,87.663,372.66z M83.115,369.855l2.419,1.355
	c1.161,0.677,2.032,0.871,2.516,0.774c0.194-0.097,0.774-0.194,0.774-1.645c0-1.935-1.258-3.58-3.773-5.031l-1.838-1.064
	L83.115,369.855L83.115,369.855z"/>
<polygon id="eyhkjho33taq395" fill="#16110D" points="95.887,382.432 105.562,376.724 103.53,374.208 96.661,378.079 94.532,379.24 
	92.887,379.24 "/>
<path id="eyhkjho33taq396" fill="#16110D" d="M98.112,387.657l9.675-5.902l0.387,3.386l-0.387,3.29l-1.838,2.419l-8.998,5.128
	c0,0,1.355-2.129,1.355-2.322s0.387-3.677,0.387-3.677L98.112,387.657z"/>
<g id="eyhkjho33taq501">
	
		<linearGradient id="eyhkjho33taq502_1_" gradientUnits="userSpaceOnUse" x1="120.6133" y1="121.406" x2="158.7333" y2="121.406" gradientTransform="matrix(1 0 0 -1 0 502)">
		<stop  offset="0" style="stop-color:#00F1FB"/>
		<stop  offset="1" style="stop-color:#634EF1"/>
	</linearGradient>
	<path id="eyhkjho33taq502" fill="url(#eyhkjho33taq502_1_)" d="M155.872,385.383l0.29-0.29l-8.901-13.352l-12.384-1.548
		c0,0-11.126,5.031-11.126,5.128c0,0.097-3.29,7.934-3.29,7.934l0.774,0.387l6.966,5.515c0.677-0.484,1.355-0.968,2.225-1.451
		c2.709-1.548,5.321-2.516,7.934-2.806c2.612-0.29,4.838,0.097,6.676,1.161c1.258,0.677,2.225,1.451,2.999,2.322
		c0.774,0.871,1.355,1.645,1.935,2.612l8.611-2.225C158.001,387.608,157.033,386.447,155.872,385.383z"/>
	<path id="eyhkjho33taq503" fill="#16110D" d="M149.874,391.382l-0.097-0.193c-0.581-0.871-1.161-1.742-1.935-2.516
		c-0.677-0.774-1.645-1.548-2.903-2.225c-1.838-1.064-3.967-1.451-6.482-1.161c-2.516,0.29-5.128,1.161-7.837,2.709
		c-0.871,0.484-1.548,0.968-2.225,1.451l-0.097,0.097l-7.16-5.708l-0.968-0.484l0.097-0.29c0.871-2.128,3.193-7.643,3.29-7.837
		c0.097-0.194,0.097-0.29,11.32-5.321h0.097l12.578,1.645l9.095,13.739l-0.29,0.29c1.064,0.967,1.935,2.032,2.612,3.193l0.097,0.484
		L149.874,391.382z M140.005,384.416c2.032,0,3.773,0.484,5.321,1.355c1.258,0.774,2.322,1.548,2.999,2.419
		c0.677,0.774,1.258,1.548,1.838,2.419l7.837-2.032c-0.677-0.967-1.548-2.032-2.516-2.903l-0.29-0.29l0.387-0.387l-8.611-12.965
		l-12.094-1.548c-4.064,1.838-10.062,4.644-10.933,5.031c-0.387,0.871-2.322,5.515-3.096,7.45l0.484,0.193l6.773,5.321
		c0.581-0.484,1.258-0.871,2.032-1.355c2.709-1.548,5.418-2.516,8.03-2.806C138.941,384.416,139.521,384.416,140.005,384.416z"/>
	
		<linearGradient id="eyhkjho33taq504_1_" gradientUnits="userSpaceOnUse" x1="114.9166" y1="110.8117" x2="137.7499" y2="110.8117" gradientTransform="matrix(1 0 0 -1 0 502)">
		<stop  offset="0" style="stop-color:#00F1FB"/>
		<stop  offset="1" style="stop-color:#634EF1"/>
	</linearGradient>
	<path id="eyhkjho33taq504" fill="url(#eyhkjho33taq504_1_)" d="M131.104,397.38v-6.482l-2.225-2.225l-5.999-5.999l-2.903-2.903
		l-5.031-0.581v12.481l0,0c0,2.709,2.129,5.225,6.289,7.643c3.096,1.741,6.386,3.096,9.869,3.87l6.676-3.87
		c-1.742-0.387-3.386-0.871-4.934-1.355C132.265,397.864,131.685,397.574,131.104,397.38z"/>
	<path id="eyhkjho33taq505" fill="#16110D" d="M131.201,403.669h-0.097c-3.58-0.774-6.869-2.129-9.965-3.87
		c-4.16-2.419-6.386-5.031-6.482-7.837l0,0v-0.194v-12.965l5.612,0.677l11.32,11.32v6.386c0.484,0.194,0.968,0.387,1.451,0.581
		c1.548,0.484,3.193,0.967,4.934,1.354l0.29,0.581L131.201,403.669z M115.237,391.575v0.193c0,2.516,2.032,5.031,6.095,7.353
		c2.999,1.742,6.192,2.999,9.675,3.773l5.805-3.29c-1.451-0.387-2.806-0.774-4.064-1.161c-0.677-0.194-1.258-0.484-1.742-0.677
		l-0.194-0.097v-6.579l-10.933-10.933l-4.547-0.58L115.237,391.575L115.237,391.575z"/>
	
		<linearGradient id="eyhkjho33taq506_1_" gradientUnits="userSpaceOnUse" x1="114.9122" y1="123.3381" x2="158.7023" y2="123.3381" gradientTransform="matrix(1 0 0 -1 0 502)">
		<stop  offset="0" style="stop-color:#00F1FB"/>
		<stop  offset="1" style="stop-color:#634EF1"/>
	</linearGradient>
	<path id="eyhkjho33taq506" fill="url(#eyhkjho33taq506_1_)" d="M145.133,373.676c-1.838-1.064-4.064-1.451-6.676-1.161
		c-2.612,0.29-5.225,1.161-7.934,2.806c-5.612,3.29-6.289,6.095-2.032,8.514c1.258,0.774,2.709,1.354,4.257,1.838
		s3.193,0.968,4.934,1.355l-6.676,3.87c-3.483-0.774-6.773-2.032-9.869-3.87c-4.451-2.516-6.482-5.225-6.289-8.03
		c0.194-2.806,2.709-5.612,7.547-8.417c2.999-1.742,6.289-2.903,9.675-3.58s6.869-0.774,10.159-0.194
		c3.386,0.484,6.482,1.645,9.385,3.29c3.193,1.838,5.515,3.967,6.966,6.386l-8.611,2.225c-0.581-0.871-1.258-1.742-1.935-2.612
		C147.358,375.224,146.391,374.45,145.133,373.676z"/>
	<path id="eyhkjho33taq507" opacity="0.7" fill="#FFFFFF" enable-background="new    " d="M151.712,372.612
		c-2.903-1.645-5.999-2.806-9.385-3.29c-3.386-0.484-6.773-0.484-10.159,0.193s-6.676,1.838-9.675,3.58
		c-3.967,2.322-6.386,4.644-7.16,6.966v3.773c0.774,2.032,2.709,3.967,5.902,5.805c3.096,1.742,6.386,3.096,9.869,3.87l6.676-3.87
		c-1.742-0.387-3.386-0.871-4.934-1.354c-1.548-0.484-2.999-1.064-4.257-1.838c-4.257-2.419-3.58-5.321,2.032-8.514
		c2.709-1.548,5.321-2.516,7.934-2.806c2.612-0.29,4.838,0.097,6.676,1.161c1.258,0.677,2.225,1.451,2.999,2.322
		c0.774,0.871,1.355,1.645,1.935,2.612l8.611-2.225C157.227,376.579,154.905,374.45,151.712,372.612z"/>
	<path id="eyhkjho33taq508" fill="#16110D" d="M158.872,375.998c-1.548-2.419-3.87-4.547-6.966-6.289
		c-2.903-1.645-6.095-2.806-9.482-3.29c-3.386-0.484-6.869-0.484-10.352,0.193c-3.483,0.677-6.773,1.935-9.772,3.677
		c-4.934,2.806-7.547,5.805-7.74,8.708c-0.194,2.999,1.935,5.805,6.482,8.417c2.999,1.742,6.289,2.999,9.675,3.773v12.191
		l0.387,0.194l6.966-4.064v-12.868c0,0-3.677-0.968-5.225-1.451c-1.548-0.484-2.999-1.064-4.257-1.838
		c-1.742-0.967-2.612-2.032-2.612-3.096c0-1.451,1.548-3.096,4.644-4.838c2.612-1.548,5.225-2.419,7.837-2.709
		c2.516-0.29,4.644,0.097,6.482,1.161c1.161,0.677,2.129,1.451,2.903,2.225c0.677,0.774,1.355,1.645,1.838,2.516v12.191l0.193,0.387
		l9.191-2.322v-12.771L158.872,375.998z M148.423,375.805c-0.774-0.871-1.742-1.645-2.999-2.419
		c-1.935-1.161-4.257-1.548-6.869-1.258c-2.612,0.29-5.321,1.258-8.03,2.806c-3.386,1.935-4.934,3.677-4.934,5.418
		c0,1.355,0.968,2.612,2.903,3.773c1.355,0.774,2.806,1.355,4.354,1.935c1.258,0.387,2.709,0.774,4.064,1.161l-5.805,3.29
		c-3.386-0.774-6.676-2.032-9.675-3.773c-4.257-2.419-6.289-5.031-6.095-7.74c0.194-2.709,2.709-5.418,7.353-8.127
		c2.999-1.742,6.192-2.903,9.578-3.58c1.935-0.387,3.773-0.581,5.708-0.581c1.451,0,2.903,0.097,4.354,0.387
		c3.29,0.484,6.386,1.645,9.288,3.193c2.903,1.645,5.128,3.677,6.579,5.902l-7.837,2.032
		C149.68,377.353,149.1,376.579,148.423,375.805z"/>
	<polygon id="eyhkjho33taq509" fill="#16110D" points="138.457,372.515 138.457,384.899 133.426,386.06 127.911,383.545 
		125.879,381.126 126.363,378.611 128.782,376.289 133.523,373.773 	"/>
	<polygon id="eyhkjho33taq510" fill="#16110D" points="140.779,372.419 140.779,384.706 143.972,385.19 143.972,372.902 	"/>
</g>
</svg>
