<?xml version="1.0" encoding="utf-8"?>
<!-- Generator: Adobe Illustrator 24.0.2, SVG Export Plug-In . SVG Version: 6.00 Build 0)  -->
<svg version="1.1" id="Слой_1" xmlns="http://www.w3.org/2000/svg" xmlns:xlink="http://www.w3.org/1999/xlink" x="0px" y="0px"
	 viewBox="0 0 500 500" style="enable-background:new 0 0 500 500;" xml:space="preserve">
<style type="text/css">
	.st0{fill:#EBF3FA;}
	.st1{fill:#D5E5FB;}
	.st2{fill:#FFEDDC;}
	.st3{fill:#233862;}
	.st4{fill:#E5C1A1;}
	.st5{fill:#F9DDBF;}
	.st6{fill:#E2915A;}
	.st7{fill:#1B1464;}
	.st8{fill:#1B0A4F;}
	.st9{fill:#FFB27D;}
	.st10{fill:#FFFFFF;}
	.st11{fill:#2B478B;}
	.st12{fill:#ED975D;}
	.st13{fill:#E9F3FE;}
	.st14{fill:#22407A;}
	.st15{fill:#D9E9F9;}
	.st16{fill:#BA4C43;}
	.st17{fill:#C6DCF7;}
	.st18{fill:#AFCDFB;}
	.st19{fill:#3E3095;}
	.st20{fill:url(#SVGID_1_);}
	.st21{opacity:0.2;fill:#FFFFFF;enable-background:new    ;}
	.st22{fill:#FAFAFA;}
	.st23{opacity:0.3;enable-background:new    ;}
	.st24{fill:#1A2E35;}
	.st25{fill:#D0D6EC;}
</style>
<path class="st0" d="M35.8,389.8c0,0-42.8-54.2,0.6-121.6c40.2-62.5,102.5-32.5,141.8-89.9c99.5-145.3,311.9-33.6,280,89.9
	c-15.4,59.8,46.9,62,15.2,121.7L35.8,389.8z"/>
<g>
	<g>
		<path class="st1" d="M402.1,269.8L290.4,373.7L233,319.2c-10.8,10.5-27.4,26.8-44.1,43.1c-11.4,11.2-20.7,20.2-28.2,27.5
			l-52.2-0.1c14.5-13.7,72.8-70.7,112.1-109.2l12-11.8l58.1,55l85.3-79.4L402.1,269.8z"/>
	</g>
	<polygon class="st1" points="362.2,232 414.8,287.3 425.3,224.1 	"/>
</g>
<path class="st2" d="M114.1,336c0,0-5.2,7.4-10,7.5C99.3,343.5,92,340,92,340s-4.4-9.8-1.4-13.6c0,0,3-1.3,6.1,1
	c0.5,0.4,1.1,0.9,1.6,1.6c0.8,0.9,1.6,1.4,2.5,1.7c3.4,1,7.5-1.4,9,1c0.9,1.4,1.8,2.4,2.6,3.1C113.4,335.5,114.1,336,114.1,336z"/>
<path class="st2" d="M46,389c0,0,18.5-44.7,51.7-45.6c0,0,30.7,3.4,32.4,45.6H46z"/>
<path class="st3" d="M88.6,344.8c0,0,13.3,3,17.4,1.2c0,0,0.6-5.6-5-4.8c-3.8,0.5-6.3-1.3-7.8-2.1C91.1,338.1,88,342.4,88.6,344.8z"
	/>
<path class="st4" d="M100.1,336.4c-0.9,0.6-3.5-9-3.5-9c0.5,0.4,1.1,0.9,1.6,1.6c0.8,0.9,1.6,1.4,2.5,1.7
	C100.8,330.9,101,335.8,100.1,336.4z"/>
<path class="st4" d="M112.4,334.7c-0.2,0.1-6.3,3.8-7.2,3.8c-0.9,0,4.5-6.9,4.5-6.9C110.7,333,111.6,334,112.4,334.7z"/>
<path class="st5" d="M64,376.5c-0.3-0.3,13.1-19.7,16.8-19.9c3.7-0.1,12,4.3,18,4.8c6,0.6,11.8-1.1,13,2.4
	c1.1,3.6,4.3,16.1,2.3,18.2C112.1,384,71.4,382.8,64,376.5z"/>
<path class="st3" d="M290.2,228.1l-7.6,14.5l-3.9-1.4l1.3,3.9l-7.7,23.1C272.2,268.2,268,238.8,290.2,228.1z"/>
<path class="st3" d="M277.4,241c0,0-8.5,31.2-9.3,60.9c0,0,7,2.4,18,0.5C297.2,300.5,277.4,241,277.4,241z"/>
<path class="st6" d="M236.9,284.2c2.3,0,5.5,0.2,6.5-0.9c1.2-1.3,2.6-1.1,2.6-1.1l-0.3-1.5l-0.3-1.8c0,0-0.1-0.2-0.6-0.2
	c0,0-1.6,0.1-2.4-0.2c-1.9-0.7-9.5,3.9-9.3,5.1C233.2,284.1,235.9,284.2,236.9,284.2z"/>
<path class="st3" d="M278.4,240.4c0,0-12.9,26.5-16.8,29.4s-18.2,9-18.2,9s-0.4,0.9,0,2.2c0.4,1.3,1.1,1.7,1.1,1.7
	s19.8-1.8,24.4-4.6c4.6-2.9,14.8-14.3,14.8-14.3L278.4,240.4z"/>
<path class="st3" d="M316,389.2h7.6c1-0.5,1.8-1.7,2.1-3.5c0.4-2.5,3.1-3.8,3.7-5.8c0.6-2-2.5-4.8-2.5-4.8l-0.5-0.7l-0.5-0.7l-5,1.2
	c0,0-0.1,1.2-0.2,2.7c-0.1,1.1-0.1,2.4,0,3.5c0.1,2.7-0.7,5.5-3.1,6.1C315.7,387.6,315.8,388.7,316,389.2z"/>
<path class="st3" d="M271.8,389.2h17.4c0.8-1,0.5-4.8,0.4-6c0-0.2,0-0.4,0-0.4s-5.9-4.8-6.8-1.1c0,0.1-0.1,0.2-0.1,0.3
	c-1,3.4-5.6,4.9-8.3,5.4C272.7,387.6,272.1,388.5,271.8,389.2z"/>
<path class="st7" d="M275.1,292.1c0,0,0.9,11.3,2,24.8c1.4,18.4,3.2,40.9,3.3,45.2c0.3,7.4,1.5,19.3,1.5,19.3s2.8,2.8,8.5,1.6
	c0,0,5-17,6.5-34.9c0-0.3,0-0.6,0.1-0.9c1.3-18.3,3.4-56.7,3.4-56.7L275.1,292.1z"/>
<path class="st8" d="M275.1,292.1c0,0,0.9,11.3,2,24.8l19.8,31.3c0-0.3,0-0.6,0.1-0.9c1.3-18.3,3.4-56.7,3.4-56.7L275.1,292.1z"/>
<path class="st7" d="M279.3,293.4c0,0,16.3,40.7,26.9,59.9c10.7,19.1,14,24.5,14,24.5s6.1-2.4,6.7-4.1c0,0-4.1-37-11.2-46
	c-4-5.1-8.8-20.4-9-25.7c-0.2-5.3-1.4-15.9-1.4-15.9L279.3,293.4z"/>
<path class="st9" d="M283.3,234c6.4,2,17.3-3.4,17.3-3.4s-5.9-4.4-5.5-13.5l-4.9,4l-3.3,2.7c0,0,0,1.6,0.4,4.4
	c0.1,0.5,0.1,1.1,0.2,1.6c0.1,0.5-0.1,0.9-0.5,1.2C284.6,232.3,283.3,234,283.3,234z"/>
<path class="st10" d="M274.4,293c0.2,0.2,0.4,0.3,0.7,0.3c2.4,0,9.3,1.3,15.2,0.7c5-0.5,9.4-1.9,14.1-4.1c0.6-0.3,2.1-1,2-1.8
	c0-0.8-0.1-1.9-0.2-3.3c-0.3-4.9-0.9-13.2-0.3-22.9c0.1-1.8,0.2-3.6,0.2-5.3c0-13.1-2.5-24.6-7.8-28.5c0,0-3.6,2-6.2,2.8
	c-2.5,0.8-3.7,0.6-5-0.2c0,0-2.5,1.2-3.6,2.4c-2.5,2.7-4.4,6.3-5.7,11.4c-1.1,4.4-2.1,10.7-2.4,18.9
	C275.3,267.1,274.3,292.9,274.4,293z"/>
<path class="st11" d="M305.3,249.8l-7-21.6c0,0-16.8,6.3-17.6,30c-0.3,5.4-1.6,27.5,0.7,45.9c0,0,13.1,5.1,29.1-5L305.3,249.8z"/>
<path class="st12" d="M286.9,223.7c0,0,0,1.6,0.4,4.4c3.7-0.6,7.9-6.6,7.9-6.6c-1.9-0.5-3.5-0.6-4.9-0.4L286.9,223.7z"/>
<path class="st9" d="M284.1,223.6c0,0,11.4,1.9,12.5-5.2c1.1-7.1,3.3-11.7-4-13.2s-9.1,1-10,3.3
	C281.7,210.7,281.2,222.9,284.1,223.6z"/>
<g>
	<path class="st3" d="M334.3,316l-23.4,3.3c-3,0.4-5.9-1.7-6.3-4.7l-1.4-10.1c-0.4-3,1.7-5.9,4.7-6.3l23.4-3.3
		c3-0.4,5.9,1.7,6.3,4.7l1.4,10.1C339.5,312.7,337.3,315.5,334.3,316z"/>
	<path class="st11" d="M306.3,304l1.5,10.2c0.3,2,1.6,3.6,3.3,4.3c0.6,0.3,1.2,0.4,1.8,0.5c0,0,0,0,0,0h0c0.4,0,0.8,0,1.2,0
		l23.3-3.3c3.1-0.4,5.2-3.3,4.8-6.3l-1.5-10.2c-0.4-3.1-3.3-5.2-6.3-4.8l-8,1.1l-0.3-2.2c-0.1-1-1.1-1.7-2.1-1.6l-0.9,0.1l-4.9,0.7
		l-1.2,0.2c-0.5,0.1-0.9,0.3-1.2,0.7c-0.3,0.4-0.4,0.9-0.4,1.4l0.3,2.2l-4.7,0.7c-0.2,0-0.4,0.1-0.5,0.1c0,0,0,0,0,0h0
		c-1.8,0.4-3.2,1.7-3.9,3.4v0C306.3,302,306.1,303,306.3,304z M325.2,295.6l-8.3,1.2l-0.3-2.2c-0.1-0.4,0.2-0.7,0.6-0.8l2.1-0.3
		l3.8-0.5l1-0.1c0.1,0,0.1,0,0.2,0c0.3,0,0.5,0.3,0.6,0.6L325.2,295.6z"/>
</g>
<path class="st9" d="M316.5,285.8c0,0,1.2,1.6,1.3,2.3c0.3,4.4-1.7,5,3.5,7.5c0,0,2.2,0.9,2.3-0.9c0-1.7-1.6-1.8-1.3-4.2
	c0.3-2.8,0.3-2.8-1.5-4.3l-1.2-2L316.5,285.8z"/>
<path class="st11" d="M319.7,287.1c-2,0.4-4.1,0.2-4.1,0.2s-5.9-18.1-6.6-19.7s-17.4-21.2-17.4-21.2l6.7-18.2c0,0,4,2.3,8.1,9.5
	c5.2,8.9,10.9,23.3,11.9,25.6c3,7,4.1,22.6,4.1,22.6S321.2,286.8,319.7,287.1z"/>
<path class="st11" d="M296.6,217.6c0,0-1.2-0.2-1-1.8c0.2-1.6,0.2-3.7-1.1-3.3s-1.4,1.4-1.9,0.8c-0.5-0.6-0.5-3.2-4.5-3.4
	c-3.9-0.2-5.5,1.2-7.3,0.4c-1.8-0.8-1.9-3.6-1.9-3.6s0.5,1,1.3,1.3c0,0-3-4.2,0.5-7s7.1-1,9.1-0.9c4.5,0.3,7.4,0.5,8.8,3.5
	C300.1,206.6,299.5,214.8,296.6,217.6z"/>
<path class="st9" d="M318.5,287.8c0,0-1.2,1.2-1.3,1.7c-0.2,1.6-0.8,2.4-0.5,2.5c0.6,0.4,1.3-0.8,1.7-1.9
	C318.8,289,318.5,287.8,318.5,287.8z"/>
<path class="st3" d="M298.3,228.1l-7.6,14.5l-3.9-1.4l1.3,3.9l-7.7,23.1C280.3,268.2,276.1,238.8,298.3,228.1z"/>
<path class="st10" d="M283.3,219.5c0,0,0.4,1.2,1.6,1.2c1.1,0,2-1.1,2-1.1S284.4,219.1,283.3,219.5z"/>
<path class="st3" d="M223.6,329l23.2-5.4c3-0.7,4.9-3.7,4.2-6.8l-2.3-10.1c-0.7-3-3.7-4.9-6.8-4.2l-23.2,5.4c-3,0.7-4.9,3.7-4.2,6.8
	l2.3,10.1C217.5,327.8,220.6,329.7,223.6,329z"/>
<path class="st7" d="M244.3,304.9L244.3,304.9c-1.2-1.3-3-2-4.9-1.8h0c0,0,0,0,0,0c-0.2,0-0.4,0.1-0.5,0.1l-4.6,1.1l-0.5-2.2
	c-0.1-0.5-0.4-0.9-0.8-1.2c-0.4-0.3-0.9-0.3-1.4-0.2l-1.2,0.3l-4.9,1.1l-0.9,0.2c-1,0.2-1.6,1.2-1.4,2.2l0.5,2.2l-8,1.8
	c-3,0.7-4.9,3.8-4.2,6.8l2.4,10.2c0.7,3,3.8,4.9,6.8,4.2l23.2-5.4c0.4-0.1,0.8-0.2,1.2-0.4l0,0c0,0,0,0,0,0c0.6-0.3,1.1-0.7,1.5-1.1
	c1.3-1.3,2-3.3,1.5-5.3l-2.4-10.2C245.4,306.5,245,305.6,244.3,304.9z M224.3,304.3c-0.1-0.3,0.1-0.6,0.3-0.8c0.1,0,0.1-0.1,0.2-0.1
	l1-0.2l3.8-0.9l2.1-0.5c0.4-0.1,0.8,0.1,0.8,0.5l0.5,2.2l-8.3,1.9L224.3,304.3z"/>
<path class="st9" d="M229.1,291.8c0,0-0.7,2.5-0.5,3.3c1.6,5.4,4.5,8.9-3.1,8c0,0,0.3-0.3-1.1-3c-1.7-3.2-1.6-3.2-0.1-5.8l0.5-2.9
	L229.1,291.8z"/>
<path class="st9" d="M238.6,285.4c-2.3-0.1-5.1-0.7-6.1-1.9c-1.2-1.4-2.3-1.7-2.3-1.7l0.4-1.5l0.4-1.8c0,0,0.1-0.2,0.6-0.1
	c0,0,1.8,0.4,2.5-0.1c0.7-0.5,1.9-0.2,2.6,0.3c1,0.6,2.2,0.5,2.2,0.8c0,0-1.9,0.9-1.7,1.1c1.7,1.5,6.3,2.2,6,3.4
	C243.1,284.3,239.6,285.5,238.6,285.4z"/>
<path class="st9" d="M206.7,226.9l0,1.2c0,0,0.3,3.9-4.5,4.5c-4.8,0.6-8.7,0.5-8.6-2.5c0.4-2.3,1.2-5.9,1.2-7.9c0-0.7,0-1.5-0.2-2.3
	l9.3-0.2l2.7,0.4L206.7,226.9z"/>
<path class="st6" d="M206.7,220.2l0,6.7c-1,0.5-2.1,0.7-3.3,0.7c-4.3,0-7-3.1-8.5-5.4c0-0.7,0-1.5-0.2-2.3l9.3-0.2L206.7,220.2z"/>
<path class="st9" d="M194,218.4c1.1,5.8,8.6,5.6,11.8,5.2c0.9-0.1,1.5-0.2,1.5-0.2c1-0.3,1.6-1.9,1.9-4c0.5-4.2-0.1-10.3-0.8-11.9
	c-1.1-2.4-3.1-4.9-10.6-3.1C190.1,206.3,192.6,211,194,218.4z"/>
<path class="st3" d="M187.9,390.2h10.6c-0.1-0.6-0.4-2.2-0.8-3.8c-0.2-0.5-0.4-1.1-0.6-1.5c-1-2.1-7.6-0.7-7.6-0.7s-0.6,0.5-1.1,2.5
	C188.2,387.5,188,388.6,187.9,390.2z"/>
<path class="st3" d="M219.9,386.8c0,1.4,0.2,2.8,0.7,3.3h21c-0.3-0.8-1-1.9-3.2-2.3c-2.4-0.4-6.3-1.6-8.5-3.9
	c-0.8-0.8-1.4-1.8-1.6-3c-1-4.4-8.2,1.3-8.2,1.3S219.9,384.7,219.9,386.8z"/>
<path class="st11" d="M206,339.3c0.3,1.6,0.5,2.9,0.5,3.9c0.7,13,10.9,42.8,12.8,43.4c2.8,1.1,7.3-1.2,9.7-2c1-0.3,1.6-1.3,1.4-2.3
	c-5.1-23.4-7-57.1-7.6-77.1c-0.3-10.1-2.1-17-2.1-17s-25.1-6.7-25.2,1.8C195.3,297.6,203.7,327,206,339.3z"/>
<path class="st3" d="M206,339.3l16.8-34c-0.3-10.1-2.1-17-2.1-17s-25.1-6.7-25.2,1.8C195.3,297.6,203.7,327,206,339.3z"/>
<path class="st11" d="M211.5,290.1l-13.3,96.1c0,0-5.8,1.4-10.4,0.3c0,0-3.9-51.1-3.6-63.5s-2.8-33.1,0.7-35.3
	C188.6,285.4,211.5,290.1,211.5,290.1z"/>
<path class="st3" d="M208.6,208.4c-2.1,0.7-6.5,0-8.3,1.5c-1.8,1.5-0.1,3.9-2.2,4.8l0,0c-0.4,0.2-0.9,0.1-1.2-0.3
	c-0.6-0.7-1.4-1.4-2.1-1.1c-0.6,0.2-0.6,1-0.4,1.8c0.2,0.6,0.2,1.3-0.2,1.9c-0.2,0.2-0.3,0.5-0.2,0.8c0.2,1,0.6,2.2,0.8,2.8l0,0.7
	c0,0-3.5-3.8-5-7c-1-2.2-1-10.4,4-12.8c0,0,0,0,0-0.1c-0.1-0.2-0.4-0.1-0.4-0.1c0.4-0.2,1.1-0.1,1.1-0.1c0,0,0,0,0.1-0.1
	c0.1-0.6,0.7-1,0.7-1c-0.2,0.3-0.3,0.6-0.3,0.8c1.3-0.7,5.3-2.2,8.5-0.8c2.1,0.9,4.1,1.4,5.5,1.7c1.1,0.2,1.9,1.2,1.8,2.3
	C210.6,205.6,210.1,207.9,208.6,208.4z"/>
<path class="st13" d="M192.5,231.8l3.1,65.5c0,0,25.5,0.4,24.8-5.3c-0.7-5.8-9.2-58.1-9.2-58.1"/>
<path class="st14" d="M200.9,272.8c0,0-1.3,17.5-3.8,28.5c0,0-14.9,0.8-18.4-5c0,0,2.8-23.6,2.8-28.4c0-1.7-0.1-4-0.3-6.5
	c-0.3-3.9-0.8-8.4-1.2-12.3c-0.6-5.4-1.2-9.8-1.2-9.8l12.3-10L200.9,272.8z"/>
<path class="st14" d="M230.4,293.5c0,0-2.8,1.7-7.1,1.2c-1.6,3.9-5.3,5.2-5.3,4.9c0,0-0.8-7.4-1.8-16c-0.1-0.9-0.2-1.7-0.3-2.6
	c0-0.1,0-0.2,0-0.2c-0.2-1.4-0.3-2.9-0.5-4.4c-1.2-10.4-2.3-20.4-2.3-20.4c-2.6-16-4.8-26.5-4.8-26.5c5.6,0.6,9.3,2.6,10.8,5.2
	c4.4,7.7,7.7,26.9,9.5,41.3c0,0,0,0.1,0,0.1c0.3,2.5,0.6,4.8,0.9,6.9c0,0.1,0,0.3,0,0.4C230.1,289.5,230.4,293.5,230.4,293.5z"/>
<path class="st11" d="M206.5,229.5"/>
<path class="st10" d="M204.6,219.4c0,0,0.2,0.7,2.1,0.5c0,0,1.6-0.2,1.5-1.1C208.2,218.8,206.6,218.3,204.6,219.4z"/>
<path class="st15" d="M191.8,229.3c0-0.6,2.9-1.5,2.9-1.5s3.4,4.7,9,4.8c0,0-1.6,3.1-3.5,3.9C200.2,236.5,192,233,191.8,229.3z"/>
<path class="st15" d="M203.7,232.5c0,0,3-1.8,3-3.7c0,0,1.9-0.2,2.7,0.7c0,0,0.7,3.3-0.2,5.1C209.2,234.6,204.9,234,203.7,232.5z"/>
<path class="st16" d="M201.7,232.2l4-1c0,0,0.5,0,0.5,0.7c0,0.7-1.1,2.6-1.6,2.7C204.1,234.8,200.7,233.5,201.7,232.2z"/>
<path class="st13" d="M192.3,228.9c0-0.6,2-1.9,2-1.9s3.9,4.5,9.5,4.6c0,0-1.6,3.1-3.5,3.9C200.2,235.6,192.4,232.7,192.3,228.9z"/>
<path class="st13" d="M203.7,231.7c0,0,3-1.6,3-3.5c0,0,1.8,0.8,2.6,1.7c0,0,0.8,2.1-0.2,3.9C209.2,233.8,204.9,233.2,203.7,231.7z"
	/>
<path class="st3" d="M211,286.6c-0.2,1.9-0.9,3.6-2,4.9l-1.8,2c-0.5,0.5-1.2,0.4-1.5-0.1l-2.2-3.4c-0.6-0.9-0.8-2.1-0.7-3.2
	c0.2-2.6,0.7-7.6,1-12.4c0.3-3.9,0.5-7.7,0.6-10c0.1-7.4-0.8-30.9-0.8-30.9l1.4,0.1c0,0,3.5,9.1,5.3,21.5c0.4,3.1,0.8,6.3,0.9,9.7
	C211.1,264.7,211.7,278.1,211,286.6z"/>
<path class="st3" d="M211,286.6c-0.2,1.9-0.9,3.6-2,4.9l-1.8,2c-0.5,0.5-1.2,0.4-1.5-0.1l-2.2-3.4c-0.6-0.9-0.8-2.1-0.7-3.2
	c0.2-2.6,0.7-7.6,1-12.4c4-5.5,5.7-13.1,6.4-19.3c0.4,3.1,0.8,6.3,0.9,9.7C211.1,264.7,211.7,278.1,211,286.6z"/>
<path class="st3" d="M194.2,227c0,0,7.9,33.3,6.7,45.8c0,0-2.9-13.4-9.9-24.4c0,0,2.6-2.3,2.4-3.1c0,0-1.9-0.6-3.8-0.2
	c0,0,0.2-14.3,1.4-15.9C192.1,227.8,194.2,227,194.2,227z"/>
<path class="st3" d="M206.7,228.2c-1.2,0.1,7.9,32.5,8.5,42.9c0,0-0.8-18.5-0.7-23.9c0,0-3.3-1.7-3.3-2.4c0-0.6,3.5-2.3,3.5-2.3
	s-2.2-11.4-3.4-12.7C210.1,228.6,206.7,228.2,206.7,228.2z"/>
<path class="st9" d="M223.3,296c0,0-0.6,0.7-0.2,2.6c0.4,1.9,0.2,2.9,0.6,2.6s1.5-2.6,1.5-2.6L223.3,296z"/>
<path class="st3" d="M199.9,277.9c-9.2-1.4-15.4-10-18.7-16.6c-0.3-3.9-0.8-8.4-1.2-12.3l2.2-6.2L199.9,277.9z"/>
<path class="st3" d="M229.4,283.4c-1.8,0.4-7.4,1.5-13.3,0.1c-0.1-0.9-0.2-1.7-0.3-2.6c0-0.1,0-0.2,0-0.2c0.2-0.8,0.4-1.5,0.6-2.3
	c3.3,1.2,10.7,3.8,13,4.6C229.3,283.2,229.3,283.3,229.4,283.4z"/>
<path class="st14" d="M191,229.3c0,0-8.1,1-11.8,6.2s4.3,33.4,20.8,42.4c7.9,4.3,30.9,5.3,30.9,5.3s1.3,0.1,1.8-2.4
	c0.2-0.9,0-2.4,0-2.4s-26.1-9.8-28.4-11.7C201.9,264.9,191,229.3,191,229.3z"/>
<path class="st6" d="M242.4,278.5c0,0-2.7-0.7-3.5-0.9c-0.9-0.2-1.8-0.9-2-0.6c-0.5,0.6,1.6,1.7,2.4,3.5c0.4,0.9,1.2,1.4,2.9,0.7
	C242.9,281,243.6,279.3,242.4,278.5z"/>
<g>
	<g>
		<ellipse class="st1" cx="331.7" cy="211.8" rx="11.9" ry="11.9"/>
	</g>
	<g>
		<path class="st10" d="M327.9,207c0-2.1,1.7-3.8,3.8-3.8c2.1,0,3.8,1.7,3.8,3.8c0,2.1-1.7,3.8-3.8,3.8
			C329.6,210.8,327.9,209.1,327.9,207z"/>
		<path class="st10" d="M331.7,210.8c-3.7,0-6.7,3-6.7,6.7h13.3C338.3,213.8,335.4,210.8,331.7,210.8z"/>
	</g>
</g>
<g>
	<g>
		<ellipse class="st17" cx="244" cy="180.2" rx="8" ry="8"/>
	</g>
	<g>
		<path class="st10" d="M241.4,177c0-1.4,1.1-2.6,2.6-2.6s2.6,1.1,2.6,2.6s-1.1,2.6-2.6,2.6S241.4,178.4,241.4,177z"/>
		<path class="st10" d="M244,179.6c-2.5,0-4.5,2-4.5,4.5h9C248.5,181.6,246.5,179.6,244,179.6z"/>
	</g>
</g>
<g>
	<g>
		<g>
			<g>
				<path class="st1" d="M301.1,140c0.1-0.4,0.5-0.6,0.9-0.5s0.6,0.5,0.5,0.9s-0.5,0.6-0.9,0.5C301.2,140.8,300.9,140.4,301.1,140z"
					/>
				<path class="st1" d="M304.1,141c0.1-0.4,0.5-0.6,0.9-0.5s0.6,0.5,0.5,0.9s-0.5,0.6-0.9,0.5C304.2,141.7,304,141.4,304.1,141z"/>
				<path class="st1" d="M307.7,142.8c-0.4-0.1-0.6-0.5-0.5-0.9s0.5-0.6,0.9-0.5s0.6,0.5,0.5,0.9S308.1,142.9,307.7,142.8z"/>
			</g>
			<g>
				<path class="st1" d="M310.4,142.9c0.1-0.4,0.5-0.6,0.9-0.5s0.6,0.5,0.5,0.9s-0.5,0.6-0.9,0.5
					C310.5,143.7,310.3,143.3,310.4,142.9z"/>
				<path class="st1" d="M313.5,143.9c0.1-0.4,0.5-0.6,0.9-0.5s0.6,0.5,0.5,0.9s-0.5,0.6-0.9,0.5
					C313.6,144.6,313.4,144.2,313.5,143.9z"/>
				<path class="st1" d="M317,145.7c-0.4-0.1-0.6-0.5-0.5-0.9s0.5-0.6,0.9-0.5s0.6,0.5,0.5,0.9C317.8,145.6,317.4,145.8,317,145.7z"
					/>
			</g>
		</g>
		<g>
			<g>
				<path class="st1" d="M319.6,145.7c0.1-0.4,0.5-0.6,0.9-0.5s0.6,0.5,0.5,0.9s-0.5,0.6-0.9,0.5
					C319.7,146.5,319.5,146.1,319.6,145.7z"/>
				<path class="st1" d="M322.7,146.7c0.1-0.4,0.5-0.6,0.9-0.5s0.6,0.5,0.5,0.9s-0.5,0.6-0.9,0.5
					C322.8,147.4,322.5,147.1,322.7,146.7z"/>
				<path class="st1" d="M326.2,148.5c-0.4-0.1-0.6-0.5-0.5-0.9s0.5-0.6,0.9-0.5s0.6,0.5,0.5,0.9S326.6,148.6,326.2,148.5z"/>
			</g>
			<g>
				<path class="st1" d="M328.9,148.6c0.1-0.4,0.5-0.6,0.9-0.5s0.6,0.5,0.5,0.9s-0.5,0.6-0.9,0.5S328.8,149,328.9,148.6z"/>
				<path class="st1" d="M332,149.6c0.1-0.4,0.5-0.6,0.9-0.5s0.6,0.5,0.5,0.9s-0.5,0.6-0.9,0.5C332.1,150.3,331.9,149.9,332,149.6z"
					/>
				<path class="st1" d="M335.6,151.4c-0.4-0.1-0.6-0.5-0.5-0.9s0.5-0.6,0.9-0.5s0.6,0.5,0.5,0.9S335.9,151.5,335.6,151.4z"/>
			</g>
		</g>
	</g>
	<g>
		<g>
			<g>
				<path class="st1" d="M338.2,151.5c0.1-0.4,0.5-0.6,0.9-0.5s0.6,0.5,0.5,0.9s-0.5,0.6-0.9,0.5S338.1,151.8,338.2,151.5z"/>
				<path class="st1" d="M341.3,152.4c0.1-0.4,0.5-0.6,0.9-0.5s0.6,0.5,0.5,0.9s-0.5,0.6-0.9,0.5S341.2,152.8,341.3,152.4z"/>
				<path class="st1" d="M344.9,154.3c-0.4-0.1-0.6-0.5-0.5-0.9s0.5-0.6,0.9-0.5s0.6,0.5,0.5,0.9
					C345.7,154.2,345.3,154.4,344.9,154.3z"/>
			</g>
			<g>
				<path class="st1" d="M347.6,154.4c0.1-0.4,0.5-0.6,0.9-0.5s0.6,0.5,0.5,0.9s-0.5,0.6-0.9,0.5S347.4,154.7,347.6,154.4z"/>
				<path class="st1" d="M350.6,155.3c0.1-0.4,0.5-0.6,0.9-0.5s0.6,0.5,0.5,0.9s-0.5,0.6-0.9,0.5S350.5,155.7,350.6,155.3z"/>
				<path class="st1" d="M354.2,157.1c-0.4-0.1-0.6-0.5-0.5-0.9s0.5-0.6,0.9-0.5s0.6,0.5,0.5,0.9S354.6,157.2,354.2,157.1z"/>
			</g>
		</g>
		<g>
			<g>
				<path class="st1" d="M356.8,157.2c0.1-0.4,0.5-0.6,0.9-0.5s0.6,0.5,0.5,0.9s-0.5,0.6-0.9,0.5
					C356.9,157.9,356.6,157.5,356.8,157.2z"/>
				<path class="st1" d="M359.8,158.1c0.1-0.4,0.5-0.6,0.9-0.5s0.6,0.5,0.5,0.9s-0.5,0.6-0.9,0.5
					C359.9,158.9,359.7,158.5,359.8,158.1z"/>
				<path class="st1" d="M363.4,160c-0.4-0.1-0.6-0.5-0.5-0.9s0.5-0.6,0.9-0.5s0.6,0.5,0.5,0.9C364.2,159.9,363.8,160.1,363.4,160z"
					/>
			</g>
			<g>
				<path class="st1" d="M366.1,160.1c0.1-0.4,0.5-0.6,0.9-0.5c0.4,0.1,0.6,0.5,0.5,0.9s-0.5,0.6-0.9,0.5
					C366.2,160.8,366,160.4,366.1,160.1z"/>
				<path class="st1" d="M369.2,161c0.1-0.4,0.5-0.6,0.9-0.5s0.6,0.5,0.5,0.9s-0.5,0.6-0.9,0.5C369.3,161.8,369.1,161.4,369.2,161z"
					/>
				<path class="st1" d="M372.7,162.8c-0.4-0.1-0.6-0.5-0.5-0.9s0.5-0.6,0.9-0.5s0.6,0.5,0.5,0.9S373.1,162.9,372.7,162.8z"/>
			</g>
		</g>
	</g>
</g>
<g>
	<g>
		<g>
			<g>
				<path class="st1" d="M340,199.6c-0.3-0.2-0.4-0.7-0.1-1c0.2-0.3,0.7-0.4,1-0.1c0.3,0.2,0.4,0.7,0.1,1
					C340.7,199.8,340.3,199.9,340,199.6z"/>
				<path class="st1" d="M341.9,197c-0.3-0.2-0.4-0.7-0.1-1c0.2-0.3,0.7-0.4,1-0.1c0.3,0.2,0.4,0.7,0.1,1
					C342.6,197.2,342.2,197.3,341.9,197z"/>
				<path class="st1" d="M344.8,194.3c-0.2,0.3-0.7,0.4-1,0.1c-0.3-0.2-0.4-0.7-0.1-1c0.2-0.3,0.7-0.4,1-0.1
					C345,193.5,345,193.9,344.8,194.3z"/>
			</g>
			<g>
				<path class="st1" d="M345.8,191.8c-0.3-0.2-0.4-0.7-0.1-1c0.2-0.3,0.7-0.4,1-0.1c0.3,0.2,0.4,0.7,0.1,1
					C346.5,191.9,346.1,192,345.8,191.8z"/>
				<path class="st1" d="M347.7,189.2c-0.3-0.2-0.4-0.7-0.1-1c0.2-0.3,0.7-0.4,1-0.1c0.3,0.2,0.4,0.7,0.1,1
					C348.4,189.3,348,189.4,347.7,189.2z"/>
				<path class="st1" d="M350.6,186.4c-0.2,0.3-0.7,0.4-1,0.1s-0.4-0.7-0.1-1c0.2-0.3,0.7-0.4,1-0.1
					C350.7,185.6,350.8,186.1,350.6,186.4z"/>
			</g>
		</g>
	</g>
	<g>
		<g>
			<g>
				<path class="st1" d="M351.5,183.9c-0.3-0.2-0.4-0.7-0.1-1c0.2-0.3,0.7-0.4,1-0.1c0.3,0.2,0.4,0.7,0.1,1
					C352.3,184.1,351.8,184.1,351.5,183.9z"/>
				<path class="st1" d="M353.4,181.3c-0.3-0.2-0.4-0.7-0.1-1c0.2-0.3,0.7-0.4,1-0.1c0.3,0.2,0.4,0.7,0.1,1
					C354.2,181.5,353.7,181.5,353.4,181.3z"/>
				<path class="st1" d="M356.3,178.5c-0.2,0.3-0.7,0.4-1,0.1c-0.3-0.2-0.4-0.7-0.1-1c0.2-0.3,0.7-0.4,1-0.1
					C356.5,177.8,356.6,178.2,356.3,178.5z"/>
			</g>
			<g>
				<path class="st1" d="M357.3,176c-0.3-0.2-0.4-0.7-0.1-1c0.2-0.3,0.7-0.4,1-0.1c0.3,0.2,0.4,0.7,0.1,1
					C358,176.2,357.6,176.3,357.3,176z"/>
				<path class="st1" d="M359.2,173.4c-0.3-0.2-0.4-0.7-0.1-1c0.2-0.3,0.7-0.4,1-0.1c0.3,0.2,0.4,0.7,0.1,1S359.5,173.7,359.2,173.4
					z"/>
				<path class="st1" d="M362.1,170.6c-0.2,0.3-0.7,0.4-1,0.1c-0.3-0.2-0.4-0.7-0.1-1c0.2-0.3,0.7-0.4,1-0.1
					C362.3,169.9,362.3,170.3,362.1,170.6z"/>
			</g>
		</g>
		<g>
			<g>
				<path class="st1" d="M363,168.3c-0.3-0.2-0.4-0.7-0.1-1c0.2-0.3,0.7-0.4,1-0.1c0.3,0.2,0.4,0.7,0.1,1
					C363.7,168.4,363.3,168.5,363,168.3z"/>
				<path class="st1" d="M364.9,165.7c-0.3-0.2-0.4-0.7-0.1-1c0.2-0.3,0.7-0.4,1-0.1c0.3,0.2,0.4,0.7,0.1,1
					C365.6,165.8,365.2,165.9,364.9,165.7z"/>
				<path class="st1" d="M367.8,162.9c-0.2,0.3-0.7,0.4-1,0.1c-0.3-0.2-0.4-0.7-0.1-1c0.2-0.3,0.7-0.4,1-0.1
					C367.9,162.1,368,162.6,367.8,162.9z"/>
			</g>
			<g>
				<path class="st1" d="M368.7,160.4c-0.3-0.2-0.4-0.7-0.1-1c0.2-0.3,0.7-0.4,1-0.1c0.3,0.2,0.4,0.7,0.1,1
					C369.5,160.6,369.1,160.6,368.7,160.4z"/>
				<path class="st1" d="M370.6,157.8c-0.3-0.2-0.4-0.7-0.1-1c0.2-0.3,0.7-0.4,1-0.1c0.3,0.2,0.4,0.7,0.1,1
					C371.4,157.9,371,158,370.6,157.8z"/>
				<path class="st1" d="M373.5,155c-0.2,0.3-0.7,0.4-1,0.1c-0.3-0.2-0.4-0.7-0.1-1c0.2-0.3,0.7-0.4,1-0.1
					C373.7,154.3,373.8,154.7,373.5,155z"/>
			</g>
		</g>
	</g>
</g>
<g>
	<g>
		<g>
			<g>
				<path class="st1" d="M345.8,210.6c-0.1-0.4,0.2-0.7,0.6-0.8s0.7,0.2,0.8,0.6c0.1,0.4-0.2,0.7-0.6,0.8
					C346.2,211.2,345.8,210.9,345.8,210.6z"/>
				<path class="st1" d="M348.9,210c-0.1-0.4,0.2-0.7,0.6-0.8s0.7,0.2,0.8,0.6c0.1,0.4-0.2,0.7-0.6,0.8S349,210.4,348.9,210z"/>
				<path class="st1" d="M353,210.1c-0.4,0.1-0.7-0.2-0.8-0.6c-0.1-0.4,0.2-0.7,0.6-0.8s0.7,0.2,0.8,0.6
					C353.6,209.7,353.3,210,353,210.1z"/>
			</g>
			<g>
				<path class="st1" d="M355.4,209c-0.1-0.4,0.2-0.7,0.6-0.8s0.7,0.2,0.8,0.6c0.1,0.4-0.2,0.7-0.6,0.8
					C355.8,209.6,355.4,209.4,355.4,209z"/>
				<path class="st1" d="M358.6,208.5c-0.1-0.4,0.2-0.7,0.6-0.8s0.7,0.2,0.8,0.6c0.1,0.4-0.2,0.7-0.6,0.8S358.6,208.8,358.6,208.5z"
					/>
				<path class="st1" d="M362.6,208.5c-0.4,0.1-0.7-0.2-0.8-0.6c-0.1-0.4,0.2-0.7,0.6-0.8s0.7,0.2,0.8,0.6
					C363.2,208.1,363,208.4,362.6,208.5z"/>
			</g>
		</g>
	</g>
	<g>
		<g>
			<g>
				<path class="st1" d="M365,207.4c-0.1-0.4,0.2-0.7,0.6-0.8s0.7,0.2,0.8,0.6c0.1,0.4-0.2,0.7-0.6,0.8
					C365.4,208,365.1,207.8,365,207.4z"/>
				<path class="st1" d="M368.2,206.9c-0.1-0.4,0.2-0.7,0.6-0.8c0.4-0.1,0.7,0.2,0.8,0.6c0.1,0.4-0.2,0.7-0.6,0.8
					C368.6,207.5,368.3,207.3,368.2,206.9z"/>
				<path class="st1" d="M372.2,206.9c-0.4,0.1-0.7-0.2-0.8-0.6c-0.1-0.4,0.2-0.7,0.6-0.8s0.7,0.2,0.8,0.6
					C372.9,206.5,372.6,206.9,372.2,206.9z"/>
			</g>
			<g>
				<path class="st1" d="M374.6,205.8c-0.1-0.4,0.2-0.7,0.6-0.8s0.7,0.2,0.8,0.6c0.1,0.4-0.2,0.7-0.6,0.8
					C375.1,206.5,374.7,206.2,374.6,205.8z"/>
				<path class="st1" d="M377.8,205.3c-0.1-0.4,0.2-0.7,0.6-0.8s0.7,0.2,0.8,0.6c0.1,0.4-0.2,0.7-0.6,0.8
					C378.2,205.9,377.9,205.7,377.8,205.3z"/>
				<path class="st1" d="M381.8,205.3c-0.4,0.1-0.7-0.2-0.8-0.6c-0.1-0.4,0.2-0.7,0.6-0.8s0.7,0.2,0.8,0.6
					C382.5,204.9,382.2,205.3,381.8,205.3z"/>
			</g>
		</g>
		<g>
			<g>
				<path class="st1" d="M384.1,204.3c-0.1-0.4,0.2-0.7,0.6-0.8s0.7,0.2,0.8,0.6c0.1,0.4-0.2,0.7-0.6,0.8
					C384.6,204.9,384.2,204.6,384.1,204.3z"/>
				<path class="st1" d="M387.3,203.7c-0.1-0.4,0.2-0.7,0.6-0.8s0.7,0.2,0.8,0.6c0.1,0.4-0.2,0.7-0.6,0.8
					C387.7,204.4,387.4,204.1,387.3,203.7z"/>
				<path class="st1" d="M391.3,203.8c-0.4,0.1-0.7-0.2-0.8-0.6c-0.1-0.4,0.2-0.7,0.6-0.8s0.7,0.2,0.8,0.6
					C392,203.4,391.7,203.7,391.3,203.8z"/>
			</g>
			<g>
				<path class="st1" d="M393.8,202.7c-0.1-0.4,0.2-0.7,0.6-0.8s0.7,0.2,0.8,0.6c0.1,0.4-0.2,0.7-0.6,0.8
					C394.2,203.3,393.8,203.1,393.8,202.7z"/>
				<path class="st1" d="M397,202.2c-0.1-0.4,0.2-0.7,0.6-0.8s0.7,0.2,0.8,0.6c0.1,0.4-0.2,0.7-0.6,0.8S397,202.5,397,202.2z"/>
				<path class="st1" d="M401,202.2c-0.4,0.1-0.7-0.2-0.8-0.6c-0.1-0.4,0.2-0.7,0.6-0.8s0.7,0.2,0.8,0.6
					C401.6,201.8,401.4,202.1,401,202.2z"/>
			</g>
		</g>
	</g>
</g>
<g>
	<g>
		<g>
			<g>
				<path class="st1" d="M327.4,197.9c-0.4,0.1-0.8-0.1-0.9-0.5c-0.1-0.4,0.1-0.8,0.5-0.9c0.4-0.1,0.8,0.1,0.9,0.5
					C328,197.3,327.8,197.7,327.4,197.9z"/>
				<path class="st1" d="M326.5,194.8c-0.4,0.1-0.8-0.1-0.9-0.5c-0.1-0.4,0.1-0.8,0.5-0.9s0.8,0.1,0.9,0.5
					C327,194.3,326.8,194.7,326.5,194.8z"/>
				<path class="st1" d="M325.9,190.8c0.1,0.4-0.1,0.8-0.5,0.9c-0.4,0.1-0.8-0.1-0.9-0.5c-0.1-0.4,0.1-0.8,0.5-0.9
					C325.4,190.2,325.8,190.4,325.9,190.8z"/>
			</g>
			<g>
				<path class="st1" d="M324.5,188.6c-0.4,0.1-0.8-0.1-0.9-0.5c-0.1-0.4,0.1-0.8,0.5-0.9c0.4-0.1,0.8,0.1,0.9,0.5
					C325,188.1,324.8,188.4,324.5,188.6z"/>
				<path class="st1" d="M323.5,185.5c-0.4,0.1-0.8-0.1-0.9-0.5c-0.1-0.4,0.1-0.8,0.5-0.9c0.4-0.1,0.8,0.1,0.9,0.5
					C324.1,185,323.9,185.4,323.5,185.5z"/>
				<path class="st1" d="M322.9,181.5c0.1,0.4-0.1,0.8-0.5,0.9c-0.4,0.1-0.8-0.1-0.9-0.5c-0.1-0.4,0.1-0.8,0.5-0.9
					C322.4,180.9,322.8,181.1,322.9,181.5z"/>
			</g>
		</g>
	</g>
	<g>
		<g>
			<g>
				<path class="st1" d="M321.5,179.3c-0.4,0.1-0.8-0.1-0.9-0.5s0.1-0.8,0.5-0.9c0.4-0.1,0.8,0.1,0.9,0.5S321.9,179.1,321.5,179.3z"
					/>
				<path class="st1" d="M320.5,176.2c-0.4,0.1-0.8-0.1-0.9-0.5s0.1-0.8,0.5-0.9s0.8,0.1,0.9,0.5
					C321.1,175.7,320.9,176.1,320.5,176.2z"/>
				<path class="st1" d="M320,172.2c0.1,0.4-0.1,0.8-0.5,0.9c-0.4,0.1-0.8-0.1-0.9-0.5c-0.1-0.4,0.1-0.8,0.5-0.9
					C319.5,171.6,319.9,171.8,320,172.2z"/>
			</g>
			<g>
				<path class="st1" d="M318.5,170c-0.4,0.1-0.8-0.1-0.9-0.5c-0.1-0.4,0.1-0.8,0.5-0.9c0.4-0.1,0.8,0.1,0.9,0.5
					C319.1,169.5,318.9,169.8,318.5,170z"/>
				<path class="st1" d="M317.5,166.9c-0.4,0.1-0.8-0.1-0.9-0.5c-0.1-0.4,0.1-0.8,0.5-0.9s0.8,0.1,0.9,0.5
					C318.1,166.4,317.9,166.8,317.5,166.9z"/>
				<path class="st1" d="M317,162.9c0.1,0.4-0.1,0.8-0.5,0.9s-0.8-0.1-0.9-0.5c-0.1-0.4,0.1-0.8,0.5-0.9
					C316.5,162.3,316.9,162.5,317,162.9z"/>
			</g>
		</g>
		<g>
			<g>
				<path class="st1" d="M315.6,160.8c-0.4,0.1-0.8-0.1-0.9-0.5c-0.1-0.4,0.1-0.8,0.5-0.9c0.4-0.1,0.8,0.1,0.9,0.5
					C316.2,160.3,316,160.7,315.6,160.8z"/>
				<path class="st1" d="M314.6,157.7c-0.4,0.1-0.8-0.1-0.9-0.5c-0.1-0.4,0.1-0.8,0.5-0.9c0.4-0.1,0.8,0.1,0.9,0.5
					C315.2,157.2,315,157.6,314.6,157.7z"/>
				<path class="st1" d="M314.1,153.7c0.1,0.4-0.1,0.8-0.5,0.9c-0.4,0.1-0.8-0.1-0.9-0.5c-0.1-0.4,0.1-0.8,0.5-0.9
					C313.6,153.2,314,153.4,314.1,153.7z"/>
			</g>
			<g>
				<path class="st1" d="M312.6,151.5c-0.4,0.1-0.8-0.1-0.9-0.5s0.1-0.8,0.5-0.9c0.4-0.1,0.8,0.1,0.9,0.5
					C313.2,151,313,151.4,312.6,151.5z"/>
				<path class="st1" d="M311.6,148.4c-0.4,0.1-0.8-0.1-0.9-0.5c-0.1-0.4,0.1-0.8,0.5-0.9c0.4-0.1,0.8,0.1,0.9,0.5
					C312.2,147.9,312,148.3,311.6,148.4z"/>
				<path class="st1" d="M311.1,144.4c0.1,0.4-0.1,0.8-0.5,0.9c-0.4,0.1-0.8-0.1-0.9-0.5s0.1-0.8,0.5-0.9
					C310.6,143.9,311,144.1,311.1,144.4z"/>
			</g>
		</g>
	</g>
</g>
<g>
	<g>
		<g>
			<g>
				<path class="st1" d="M248.5,176.3c-0.2-0.3-0.1-0.8,0.2-1s0.8-0.1,1,0.2c0.2,0.3,0.1,0.8-0.2,1
					C249.1,176.7,248.7,176.6,248.5,176.3z"/>
				<path class="st1" d="M251.1,174.5c-0.2-0.3-0.1-0.8,0.2-1c0.3-0.2,0.8-0.1,1,0.2c0.2,0.3,0.1,0.8-0.2,1
					C251.8,174.9,251.3,174.8,251.1,174.5z"/>
				<path class="st1" d="M254.8,172.8c-0.3,0.2-0.8,0.1-1-0.2c-0.2-0.3-0.1-0.8,0.2-1s0.8-0.1,1,0.2
					C255.2,172.2,255.1,172.6,254.8,172.8z"/>
			</g>
			<g>
				<path class="st1" d="M256.5,170.8c-0.2-0.3-0.1-0.8,0.2-1c0.3-0.2,0.8-0.1,1,0.2s0.1,0.8-0.2,1
					C257.1,171.2,256.7,171.1,256.5,170.8z"/>
				<path class="st1" d="M259.1,168.9c-0.2-0.3-0.1-0.8,0.2-1c0.3-0.2,0.8-0.1,1,0.2c0.2,0.3,0.1,0.8-0.2,1
					C259.8,169.3,259.4,169.3,259.1,168.9z"/>
				<path class="st1" d="M262.8,167.3c-0.3,0.2-0.8,0.1-1-0.2c-0.2-0.3-0.1-0.8,0.2-1c0.3-0.2,0.8-0.1,1,0.2
					C263.2,166.6,263.1,167,262.8,167.3z"/>
			</g>
		</g>
	</g>
	<g>
		<g>
			<g>
				<path class="st1" d="M264.5,165.2c-0.2-0.3-0.1-0.8,0.2-1c0.3-0.2,0.8-0.1,1,0.2s0.1,0.8-0.2,1
					C265.2,165.6,264.7,165.5,264.5,165.2z"/>
				<path class="st1" d="M267.2,163.4c-0.2-0.3-0.1-0.8,0.2-1c0.3-0.2,0.8-0.1,1,0.2s0.1,0.8-0.2,1
					C267.8,163.8,267.4,163.7,267.2,163.4z"/>
				<path class="st1" d="M270.8,161.7c-0.3,0.2-0.8,0.1-1-0.2s-0.1-0.8,0.2-1c0.3-0.2,0.8-0.1,1,0.2
					C271.2,161.1,271.1,161.5,270.8,161.7z"/>
			</g>
			<g>
				<path class="st1" d="M272.5,159.7c-0.2-0.3-0.1-0.8,0.2-1c0.3-0.2,0.8-0.1,1,0.2s0.1,0.8-0.2,1
					C273.2,160.1,272.8,160,272.5,159.7z"/>
				<path class="st1" d="M275.2,157.9c-0.2-0.3-0.1-0.8,0.2-1s0.8-0.1,1,0.2s0.1,0.8-0.2,1C275.9,158.2,275.4,158.2,275.2,157.9z"/>
				<path class="st1" d="M278.9,156.2c-0.3,0.2-0.8,0.1-1-0.2s-0.1-0.8,0.2-1c0.3-0.2,0.8-0.1,1,0.2
					C279.3,155.5,279.2,156,278.9,156.2z"/>
			</g>
		</g>
		<g>
			<g>
				<path class="st1" d="M280.5,154.2c-0.2-0.3-0.1-0.8,0.2-1c0.3-0.2,0.8-0.1,1,0.2c0.2,0.3,0.1,0.8-0.2,1
					C281.1,154.6,280.7,154.5,280.5,154.2z"/>
				<path class="st1" d="M283.1,152.4c-0.2-0.3-0.1-0.8,0.2-1c0.3-0.2,0.8-0.1,1,0.2s0.1,0.8-0.2,1
					C283.8,152.8,283.3,152.7,283.1,152.4z"/>
				<path class="st1" d="M286.8,150.7c-0.3,0.2-0.8,0.1-1-0.2s-0.1-0.8,0.2-1c0.3-0.2,0.8-0.1,1,0.2
					C287.2,150.1,287.1,150.5,286.8,150.7z"/>
			</g>
			<g>
				<path class="st1" d="M288.5,148.7c-0.2-0.3-0.1-0.8,0.2-1c0.3-0.2,0.8-0.1,1,0.2s0.1,0.8-0.2,1
					C289.2,149.1,288.7,149,288.5,148.7z"/>
				<path class="st1" d="M291.2,146.8c-0.2-0.3-0.1-0.8,0.2-1c0.3-0.2,0.8-0.1,1,0.2c0.2,0.3,0.1,0.8-0.2,1
					C291.8,147.2,291.4,147.2,291.2,146.8z"/>
				<path class="st1" d="M294.8,145.2c-0.3,0.2-0.8,0.1-1-0.2c-0.2-0.3-0.1-0.8,0.2-1c0.3-0.2,0.8-0.1,1,0.2
					C295.2,144.5,295.1,144.9,294.8,145.2z"/>
			</g>
		</g>
	</g>
</g>
<g>
	<g>
		<g>
			<g>
				<path class="st1" d="M381.6,166.8c0.3-0.3,0.7-0.3,1,0s0.3,0.7,0,1c-0.3,0.3-0.7,0.3-1,0C381.4,167.5,381.4,167.1,381.6,166.8z"
					/>
				<path class="st1" d="M383.9,169.1c0.3-0.3,0.7-0.3,1,0s0.3,0.7,0,1c-0.3,0.3-0.7,0.3-1,0S383.6,169.4,383.9,169.1z"/>
				<path class="st1" d="M386.1,172.5c-0.3-0.3-0.3-0.7,0-1c0.3-0.3,0.7-0.3,1,0s0.3,0.7,0,1S386.4,172.7,386.1,172.5z"/>
			</g>
			<g>
				<path class="st1" d="M388.4,173.8c0.3-0.3,0.7-0.3,1,0s0.3,0.7,0,1c-0.3,0.3-0.7,0.3-1,0C388.1,174.5,388.1,174.1,388.4,173.8z"
					/>
				<path class="st1" d="M390.6,176.2c0.3-0.3,0.7-0.3,1,0s0.3,0.7,0,1c-0.3,0.3-0.7,0.3-1,0C390.3,176.9,390.4,176.4,390.6,176.2z"
					/>
				<path class="st1" d="M392.9,179.5c-0.3-0.3-0.3-0.7,0-1c0.3-0.3,0.7-0.3,1,0s0.3,0.7,0,1S393.1,179.8,392.9,179.5z"/>
			</g>
		</g>
	</g>
	<g>
		<g>
			<g>
				<path class="st1" d="M395.2,180.9c0.3-0.3,0.7-0.3,1,0s0.3,0.7,0,1c-0.3,0.3-0.7,0.3-1,0S394.9,181.1,395.2,180.9z"/>
				<path class="st1" d="M397.4,183.2c0.3-0.3,0.7-0.3,1,0s0.3,0.7,0,1c-0.3,0.3-0.7,0.3-1,0S397.1,183.5,397.4,183.2z"/>
				<path class="st1" d="M399.6,186.6c-0.3-0.3-0.3-0.7,0-1c0.3-0.3,0.7-0.3,1,0s0.3,0.7,0,1S399.9,186.8,399.6,186.6z"/>
			</g>
			<g>
				<path class="st1" d="M401.9,187.9c0.3-0.3,0.7-0.3,1,0s0.3,0.7,0,1c-0.3,0.3-0.7,0.3-1,0S401.6,188.2,401.9,187.9z"/>
				<path class="st1" d="M404.1,190.3c0.3-0.3,0.7-0.3,1,0s0.3,0.7,0,1c-0.3,0.3-0.7,0.3-1,0C403.8,191,403.9,190.5,404.1,190.3z"/>
				<path class="st1" d="M406.4,193.6c-0.3-0.3-0.3-0.7,0-1c0.3-0.3,0.7-0.3,1,0s0.3,0.7,0,1S406.6,193.9,406.4,193.6z"/>
			</g>
		</g>
	</g>
</g>
<g>
	<g>
		
			<ellipse transform="matrix(0.1602 -0.9871 0.9871 0.1602 118.4471 421.1045)" class="st1" cx="306.7" cy="140.9" rx="9.9" ry="9.9"/>
	</g>
	<g>
		<path class="st10" d="M303.5,137c0-1.7,1.4-3.2,3.2-3.2c1.7,0,3.2,1.4,3.2,3.2s-1.4,3.2-3.2,3.2
			C304.9,140.2,303.5,138.7,303.5,137z"/>
		<path class="st10" d="M306.7,140.2c-3.1,0-5.5,2.5-5.5,5.5h11.1C312.2,142.6,309.8,140.2,306.7,140.2z"/>
	</g>
</g>
<g>
	<g>
		
			<ellipse transform="matrix(0.1351 -0.9908 0.9908 0.1351 167.4448 508.5339)" class="st17" cx="375" cy="158.4" rx="15.2" ry="15.2"/>
	</g>
	<g>
		<circle class="st10" cx="375" cy="152.2" r="4.9"/>
		<path class="st10" d="M375,157.1c-4.7,0-8.5,3.8-8.5,8.5h17.1C383.5,160.9,379.7,157.1,375,157.1z"/>
	</g>
</g>
<g>
	
		<ellipse transform="matrix(9.850364e-02 -0.9951 0.9951 9.850364e-02 173.3327 591.2727)" class="st1" cx="413" cy="200" rx="10.3" ry="10.3"/>
	<g>
		<path class="st10" d="M414.2,202.4c0-0.2,0-0.4-0.1-0.6s-0.2-0.3-0.3-0.4c-0.1-0.1-0.3-0.3-0.5-0.4c-0.2-0.1-0.5-0.2-0.8-0.3
			c-0.5-0.2-1-0.4-1.4-0.6c-0.4-0.2-0.8-0.4-1.1-0.7c-0.3-0.3-0.5-0.6-0.7-0.9c-0.2-0.4-0.2-0.8-0.2-1.3c0-0.4,0.1-0.8,0.2-1.2
			s0.4-0.6,0.7-0.9c0.3-0.3,0.6-0.5,1-0.6c0.4-0.2,0.8-0.3,1.3-0.3l0-1.6l1.3,0l0,1.6c0.5,0.1,0.9,0.2,1.3,0.4
			c0.4,0.2,0.7,0.4,1,0.7c0.3,0.3,0.5,0.6,0.6,1.1s0.2,0.9,0.2,1.4l-2.3,0c0-0.6-0.1-1.1-0.4-1.4s-0.6-0.5-1.1-0.5
			c-0.2,0-0.5,0-0.6,0.1c-0.2,0.1-0.3,0.2-0.4,0.3s-0.2,0.3-0.3,0.4s-0.1,0.3-0.1,0.5c0,0.2,0,0.4,0.1,0.5c0.1,0.2,0.1,0.3,0.3,0.4
			s0.3,0.3,0.5,0.4c0.2,0.1,0.5,0.2,0.8,0.4c0.5,0.2,1,0.4,1.4,0.6c0.4,0.2,0.8,0.5,1.1,0.7s0.5,0.6,0.7,0.9s0.2,0.8,0.2,1.3
			c0,0.4-0.1,0.8-0.2,1.2c-0.2,0.3-0.4,0.6-0.7,0.9c-0.3,0.3-0.6,0.5-1,0.6c-0.4,0.1-0.8,0.2-1.3,0.3l0,1.5l-1.3,0l0-1.5
			c-0.4-0.1-0.9-0.2-1.3-0.3c-0.4-0.2-0.8-0.4-1.1-0.7s-0.6-0.6-0.8-1.1c-0.2-0.4-0.3-0.9-0.3-1.5l2.3,0c0,0.4,0,0.7,0.1,0.9
			c0.1,0.2,0.2,0.4,0.4,0.6c0.2,0.1,0.4,0.2,0.6,0.3c0.2,0.1,0.4,0.1,0.6,0.1c0.3,0,0.5,0,0.7-0.1c0.2-0.1,0.4-0.1,0.5-0.3
			s0.2-0.2,0.3-0.4C414.2,202.8,414.2,202.6,414.2,202.4z"/>
	</g>
</g>
<g>
	<path class="st10" d="M67,292c0-5.2,4.2-9.5,9.5-9.5c5.2,0,9.5,4.2,9.5,9.5c0,5.2-4.2,9.5-9.5,9.5S67,297.3,67,292z"/>
	<g>
		<g>
			<path class="st18" d="M73.7,288.9l-2.4,0l0,1l1,0l0.6,0l0.9,0c0.4,0,0.8,0.4,0.8,0.8c0,0.4-0.4,0.8-0.8,0.8l-1.4,0l0-1.4l-1,0
				l0,2.4l2.4,0c1,0,1.8-0.8,1.8-1.8C75.5,289.8,74.7,288.9,73.7,288.9z"/>
		</g>
		<g>
			<path class="st18" d="M74.1,291.5l-2.8,0l0,3.6l1,0l0-1l0-0.3l0-1.3l1.8,0c0.4,0,0.8,0.4,0.8,0.8c0,0.4-0.4,0.8-0.8,0.8l-1.7,0
				l0,1l1.7,0c1,0,1.8-0.8,1.8-1.8C75.9,292.4,75.1,291.6,74.1,291.5z"/>
		</g>
	</g>
	<g>
		<path class="st18" d="M77.7,292c0.1-1.1,1-1.9,2.1-1.9c0.4,0,0.8,0.1,1.2,0.4c0.2,0.2,0.5,0.1,0.7,0l0,0c0.3-0.2,0.2-0.7,0-0.9
			c-0.5-0.4-1.2-0.6-1.8-0.6c-1.7,0-3.1,1.3-3.2,3L77.7,292z"/>
		<path class="st18" d="M79.7,294.2c-1.1,0-2-0.9-2-1.9l-1.1,0c0,1.7,1.4,3.1,3.2,3.1c0.7,0,1.3-0.2,1.8-0.6
			c0.3-0.2,0.3-0.6,0.1-0.9l0,0c-0.2-0.2-0.5-0.2-0.7,0C80.5,294.1,80.1,294.2,79.7,294.2z"/>
	</g>
</g>
<g>
	<ellipse class="st10" cx="104.1" cy="261.6" rx="14.2" ry="14.2"/>
	<g>
		<g>
			<path class="st18" d="M101.6,254.9l-3.8-1.1l-0.5,1.6l1.6,0.5l0.9,0.3l1.4,0.4c0.7,0.2,1.1,0.9,0.9,1.6c-0.2,0.7-0.9,1.1-1.6,0.9
				l-2.2-0.6l0.6-2.2l-1.6-0.5l-1.1,3.8l3.8,1.1c1.6,0.4,3.2-0.5,3.7-2C104,257,103.1,255.3,101.6,254.9z"/>
		</g>
		<g>
			<path class="st18" d="M101,259.2l-4.5-1.3l-1.6,5.7l1.6,0.5l0.5-1.6l0.1-0.5l0.6-2.1l2.9,0.8c0.7,0.2,1.1,0.9,0.9,1.6
				c-0.2,0.7-0.9,1.1-1.6,0.9l-2.6-0.8l-0.5,1.6l2.6,0.8c1.6,0.4,3.2-0.5,3.7-2C103.5,261.3,102.6,259.6,101,259.2z"/>
		</g>
	</g>
	<g>
		<path class="st18" d="M106.5,261.5c0.6-1.7,2.4-2.6,4.1-2.1c0.7,0.2,1.2,0.6,1.7,1.1c0.3,0.3,0.7,0.5,1.1,0.3l0,0
			c0.5-0.3,0.7-0.9,0.3-1.4c-0.7-0.8-1.6-1.4-2.6-1.7c-2.7-0.8-5.5,0.7-6.4,3.4L106.5,261.5z"/>
		<path class="st18" d="M108.7,265.8c-1.7-0.5-2.7-2.2-2.3-4l-1.8-0.5c-0.7,2.7,0.9,5.5,3.6,6.3c1,0.3,2.1,0.3,3.1-0.1
			c0.6-0.2,0.8-0.9,0.5-1.4l0,0c-0.2-0.4-0.7-0.5-1.1-0.4C110.1,266,109.4,266,108.7,265.8z"/>
	</g>
</g>
<g>
	<ellipse class="st19" cx="418.6" cy="349.6" rx="40.5" ry="39.6"/>
	
		<linearGradient id="SVGID_1_" gradientUnits="userSpaceOnUse" x1="387.8351" y1="162.9019" x2="444.4609" y2="106.2761" gradientTransform="matrix(1 0 0 -1 0 480)">
		<stop  offset="1.065558e-07" style="stop-color:#00EFF9"/>
		<stop  offset="1" style="stop-color:#634EEF"/>
	</linearGradient>
	<ellipse class="st20" cx="416.1" cy="345.4" rx="40.5" ry="39.6"/>
	
		<ellipse transform="matrix(0.9987 -5.149861e-02 5.149861e-02 0.9987 -17.2166 21.879)" class="st21" cx="416" cy="345" rx="30.8" ry="29.4"/>
	<path class="st22" d="M418.8,374.2c-16.7,1.6-31.5-10.1-33.6-26.2c0,0.3,0,0.6,0.1,0.9c1.6,16.6,16.7,28.7,33.7,27.1
		s29.4-16.4,27.7-32.9c0-0.3-0.1-0.6-0.1-0.9C447.7,358.3,435.5,372.6,418.8,374.2z"/>
	<path class="st23" d="M413,315.9c16.7-1.6,31.5,10.1,33.6,26.2c0-0.3,0-0.6-0.1-0.9c-1.6-16.6-16.7-28.7-33.7-27.1
		c-16.9,1.6-29.4,16.4-27.7,32.9c0,0.3,0.1,0.6,0.1,0.9C384.1,331.7,396.4,317.4,413,315.9z"/>
	<g>
		<path class="st24" d="M397.6,383.4c-0.1,0.1-0.7-0.8-1.4-1.9s-1.1-2-0.9-2.1c0.1-0.1,0.7,0.8,1.4,1.9S397.7,383.3,397.6,383.4z"/>
	</g>
	<g>
		<path class="st24" d="M417.4,389.2c-0.1,0.1-0.8-0.8-1.4-1.9c-0.7-1.1-1.1-2.1-1-2.2c0.1-0.1,0.8,0.8,1.4,1.9
			C417.1,388.1,417.5,389.1,417.4,389.2z"/>
	</g>
	<g>
		<path class="st24" d="M423.9,388.8c-0.1,0.1-0.8-0.8-1.4-1.9c-0.7-1.1-1.1-2.1-1-2.2c0.1-0.1,0.8,0.8,1.4,1.9
			C423.6,387.8,424,388.8,423.9,388.8z"/>
	</g>
	<g>
		<path class="st24" d="M430.3,387.5c-0.1,0.1-0.8-0.8-1.4-1.9c-0.7-1.1-1.1-2.1-1-2.2c0.1-0.1,0.8,0.8,1.4,1.9
			C430,386.4,430.5,387.4,430.3,387.5z"/>
	</g>
	<g>
		<path class="st24" d="M436.2,385.4c-0.1,0.1-0.8-0.8-1.4-1.9c-0.7-1.1-1.1-2.1-1-2.2c0.1-0.1,0.8,0.8,1.4,1.9
			C435.9,384.3,436.3,385.3,436.2,385.4z"/>
	</g>
	<g>
		<path class="st24" d="M441.8,382.1c-0.1,0.1-0.8-0.8-1.4-1.9c-0.7-1.1-1.1-2.1-1-2.2c0.1-0.1,0.8,0.8,1.4,1.9
			C441.5,381.1,441.9,382.1,441.8,382.1z"/>
	</g>
	<g>
		<path class="st24" d="M446.7,378.2c-0.1,0.1-0.8-0.8-1.4-1.9c-0.7-1.1-1.1-2.1-1-2.2c0.1-0.1,0.8,0.8,1.4,1.9
			C446.4,377.1,446.8,378.1,446.7,378.2z"/>
	</g>
	<g>
		<path class="st24" d="M450.4,373.8c-0.1,0.1-0.7-0.7-1.3-1.8c-0.6-1.1-1-2-0.9-2.1s0.7,0.7,1.3,1.8
			C450.1,372.8,450.5,373.7,450.4,373.8z"/>
	</g>
	<g>
		<path class="st24" d="M453.9,369c-0.1,0.1-0.7-0.7-1.3-1.8c-0.6-1.1-1-2-0.9-2.1s0.7,0.7,1.3,1.8S454,368.9,453.9,369z"/>
	</g>
	<g>
		<path class="st24" d="M456.6,363.3c-0.1,0.1-0.7-0.7-1.3-1.7s-1-1.9-0.8-1.9s0.7,0.7,1.3,1.7S456.7,363.2,456.6,363.3z"/>
	</g>
	<g>
		<path class="st24" d="M458.4,357.1c-0.1,0.1-0.7-0.7-1.2-1.6c-0.6-1-0.9-1.8-0.8-1.9s0.7,0.7,1.2,1.6
			C458.1,356.2,458.5,357.1,458.4,357.1z"/>
	</g>
	<g>
		<path class="st24" d="M459.1,350.5c-0.1,0.1-0.8-0.8-1.5-2c-0.7-1.2-1.1-2.2-1-2.2s0.8,0.8,1.5,2
			C458.8,349.4,459.2,350.4,459.1,350.5z"/>
	</g>
	<g>
		<path class="st24" d="M458.4,341.7c-0.1,0.1-0.8-0.9-1.5-2.1c-0.7-1.3-1.2-2.3-1.1-2.4c0.1-0.1,0.8,0.9,1.5,2.1
			C458,340.5,458.5,341.6,458.4,341.7z"/>
	</g>
	<g>
		<g>
			<path class="st10" d="M406.5,333l-9.5-0.1l0,3.9l3.9,0l2.2,0l3.4,0c1.7,0,3.1,1.4,3.1,3.1c0,1.7-1.4,3.1-3.1,3.1l-5.5,0l0-5.5
				l-3.9,0l-0.1,9.4l9.5,0.1c3.9,0,7-3.1,7.1-7C413.5,336.2,410.3,333,406.5,333z"/>
		</g>
		<g>
			<path class="st10" d="M408,343.1l-11.1-0.1l-0.1,14l3.9,0l0-3.9l0-1.1l0-5.1l7.2,0c1.7,0,3.1,1.4,3.1,3.1c0,1.7-1.4,3.1-3.1,3.1
				l-6.5,0l0,3.9l6.5,0c3.9,0,7-3.1,7.1-7C415,346.3,411.9,343.2,408,343.1z"/>
		</g>
	</g>
	<g>
		<path class="st10" d="M422,345c0.3-4.2,3.7-7.5,8-7.5c1.6,0,3.2,0.5,4.5,1.5c0.9,0.6,2,0.6,2.8-0.1l0,0c1-0.9,1-2.6-0.2-3.4
			c-2.1-1.5-4.5-2.3-7.1-2.3c-6.7,0-12.2,5.2-12.4,11.8L422,345z"/>
		<path class="st10" d="M429.8,353.5c-4.2,0-7.7-3.4-7.9-7.6l-4.4,0c0.2,6.6,5.6,12,12.3,12c2.6,0,5.1-0.8,7.1-2.2
			c1.2-0.8,1.3-2.5,0.2-3.4l0,0c-0.8-0.7-1.9-0.8-2.8-0.2C433.1,353,431.5,353.5,429.8,353.5z"/>
	</g>
	<g>
		<path class="st24" d="M411.6,388.6c-0.1,0.1-0.8-0.8-1.4-1.9c-0.7-1.1-1.1-2.1-1-2.2c0.1-0.1,0.8,0.8,1.4,1.9
			C411.3,387.5,411.7,388.5,411.6,388.6z"/>
	</g>
	<g>
		<path class="st24" d="M405.2,387.1c-0.1,0.1-0.8-0.8-1.4-1.9c-0.7-1.1-1.1-2.1-1-2.2c0.1-0.1,0.8,0.8,1.4,1.9
			C404.8,386,405.3,387,405.2,387.1z"/>
	</g>
</g>
<path class="st25" d="M490.5,391.5H9.5c-0.3,0-0.5-0.5-0.5-1v-0.3c0-0.6,0.2-1,0.5-1h481c0.3,0,0.5,0.5,0.5,1v0.3
	C491.1,391.1,490.8,391.5,490.5,391.5z"/>
</svg>
