<?xml version="1.0" encoding="utf-8"?>
<!-- Generator: Adobe Illustrator 24.0.2, SVG Export Plug-In . SVG Version: 6.00 Build 0)  -->
<svg version="1.1" id="Слой_1" xmlns="http://www.w3.org/2000/svg" xmlns:xlink="http://www.w3.org/1999/xlink" x="0px" y="0px"
	 viewBox="0 0 500 500" style="enable-background:new 0 0 500 500;" xml:space="preserve">
<style type="text/css">
	.st0{fill:#B3B3B3;}
	.st1{fill:#F2F2F2;}
	.st2{fill:#33AFCB;}
	.st3{fill:#E6E6E6;}
	.st4{fill:#CCCCCC;}
	.st5{fill:#1F4C6B;}
	.st6{fill:#FFF1DF;}
	.st7{fill:#003F69;}
	.st8{fill:#E8DBCB;}
	.st9{fill:#1F3F65;}
	.st10{fill:#404040;}
	.st11{fill:url(#SVGID_1_);}
	.st12{fill:url(#SVGID_2_);}
	.st13{fill:url(#SVGID_3_);}
	.st14{fill:url(#SVGID_4_);}
	.st15{fill:#9D9D9D;}
	.st16{fill:url(#SVGID_5_);}
	.st17{fill:#239D8E;}
	.st18{fill:url(#SVGID_6_);}
	.st19{fill:#F2EAE6;}
	.st20{fill:url(#SVGID_7_);}
	.st21{fill:#E8CCA9;}
	.st22{fill:#727373;}
</style>
<polygon class="st0" points="203.2,391.1 224.9,391.1 480,245.7 382.5,191.6 "/>
<polygon class="st1" points="203.2,333.3 35.7,236.6 281.6,94.6 449.1,191.3 "/>
<polygon class="st2" points="202.6,154.1 178.9,167.1 72.8,228.3 214.2,309.9 345.2,233.5 "/>
<polygon class="st3" points="203.2,391.1 203.2,333.3 35.7,236.6 35.7,294.3 "/>
<polygon class="st4" points="449.1,191.3 449.1,249.1 203.2,391.1 203.2,333.3 "/>
<polygon class="st0" points="171.8,334.7 203.2,350 233.4,333.3 203.2,354.8 "/>
<polygon class="st0" points="185.1,370.8 203.3,379.6 220.7,369.9 203.3,382.4 "/>
<polygon class="st0" points="35.7,252.7 57.7,266.3 35.7,255.1 "/>
<polygon class="st0" points="35.7,285.4 66.9,304.7 35.7,288.8 "/>
<polygon class="st1" points="217.4,351.4 449.1,219.5 449.1,213.4 458.7,218.5 "/>
<polygon class="st0" points="217.4,351.4 449.1,227.8 449.1,223.7 "/>
<polygon class="st1" points="162.5,343 35.7,268.9 35.7,257.3 20,264.4 "/>
<polygon class="st0" points="149.5,335.8 35.7,276.4 35.7,273.1 "/>
<g>
	<polygon class="st2" points="403.7,179.7 296.1,117.6 298.1,116.4 405.7,178.5 	"/>
	<polygon class="st2" points="392.3,186.2 284.8,124.1 286.8,123 394.3,185.1 	"/>
	<polygon class="st2" points="383,174.3 305.4,129.5 307.4,128.3 385.1,173.1 	"/>
</g>
<path class="st2" d="M248.8,144.7L248.8,144.7l-20.7-11.9l0,0c5.7-3.3,13.1-4.9,20.6-4.9L248.8,144.7z"/>
<path class="st2" d="M279.8,144.8l-29.2-0.1l0,0l0,0l20.6-11.9C276.9,136.2,279.8,140.5,279.8,144.8z"/>
<path class="st2" d="M248.3,145.6l-20.6,11.9c-5.7-3.3-8.6-7.6-8.6-11.9H248.3z"/>
<path class="st5" d="M249.1,162.7L249.1,162.7c-7.5,0-15-1.7-20.7-5l20.6-11.9l0,0L249.1,162.7z"/>
<path class="st2" d="M270.4,157.7c-5.7,3.3-13.1,4.9-20.6,4.9l-0.1-16.8L270.4,157.7z"/>
<path class="st5" d="M271.2,157.2L271.2,157.2l-20.7-11.9l0,0l29.2,0.1c0,0.1,0,0.1,0,0.2c0,0.1,0,0.1,0,0.2c0,0.2,0,0.4,0,0.6
	c0,0.2,0,0.4-0.1,0.6c0,0.3-0.1,0.5-0.2,0.8c-0.1,0.5-0.3,1.1-0.5,1.6l0,0c-0.2,0.5-0.5,1-0.8,1.5l0,0c-0.3,0.5-0.7,1-1.1,1.5
	c0,0,0,0.1-0.1,0.1c-0.1,0.2-0.3,0.3-0.4,0.5l0,0c-0.2,0.2-0.4,0.4-0.6,0.6c-0.2,0.2-0.4,0.4-0.6,0.6c-0.2,0.2-0.5,0.4-0.7,0.6
	c-0.2,0.2-0.5,0.4-0.7,0.6c-0.4,0.3-0.8,0.6-1.2,0.9C272.1,156.7,271.6,157,271.2,157.2z"/>
<path class="st3" d="M278.5,145c0,0.1,0,0.1,0,0.2C278.5,145.2,278.5,145.1,278.5,145L278.5,145z"/>
<path class="st5" d="M248.2,145l-29.2-0.1c0-4.3,2.8-8.6,8.5-11.9L248.2,145z"/>
<path class="st5" d="M270.3,132.7l-20.6,11.9l-0.1-16.9C257.1,127.7,264.6,129.4,270.3,132.7z"/>
<g>
	<g>
		<polygon class="st5" points="321.4,171.4 288.2,152.2 290.4,151 323.6,170.1 		"/>
		<polygon class="st5" points="389.6,210.8 325.3,173.7 327.5,172.4 391.8,209.5 		"/>
	</g>
</g>
<g>
	<g>
		<polygon class="st5" points="312.1,176.8 278.9,157.6 281.1,156.3 314.3,175.5 		"/>
		<polygon class="st5" points="380.3,216.1 316,179 318.2,177.8 382.5,214.9 		"/>
	</g>
</g>
<g>
	<g>
		<polygon class="st5" points="302.8,182.1 269.6,163 271.8,161.7 305,180.9 		"/>
		<polygon class="st5" points="371,221.5 306.7,184.4 308.9,183.2 373.2,220.2 		"/>
	</g>
</g>
<g>
	<g>
		<polygon class="st5" points="293.4,187.5 260.3,168.4 262.5,167.1 295.6,186.2 		"/>
		<polygon class="st5" points="361.6,226.9 297.4,189.8 299.6,188.5 363.9,225.6 		"/>
	</g>
</g>
<polygon class="st5" points="131.7,275.3 129.6,276.5 95.8,257 97.9,255.8 "/>
<polygon class="st2" points="167.2,295.8 165.1,297 129.6,276.5 131.7,275.3 "/>
<polygon class="st5" points="202.6,316.2 200.6,317.4 165.1,297 167.2,295.8 "/>
<polygon class="st2" points="97.9,255.8 95.8,257 58.7,235.5 60.8,234.3 "/>
<polygon class="st0" points="392.8,366.8 403.9,366.8 470.7,328.3 446.8,315.5 "/>
<g>
	<polygon class="st6" points="399.6,349.5 383,339.9 444.3,304.4 460.9,314.1 	"/>
	<polygon class="st7" points="392.8,366.8 399.6,349.5 383,339.9 376.2,357.1 	"/>
	<polygon class="st8" points="460.9,314.1 455.9,330.3 392.8,366.8 399.6,349.5 	"/>
	<polygon class="st5" points="422.9,336.1 399.6,349.5 399.6,349.5 397.3,348.2 383,339.9 406.3,326.4 	"/>
	<polygon class="st9" points="422.9,336.1 422.9,349.3 392.8,366.8 399.6,349.5 	"/>
	<polygon class="st10" points="418.4,325.9 445.8,310 443.4,308.7 416,324.5 	"/>
	<polygon class="st10" points="426.9,326.4 444.6,316.2 442.2,314.8 424.5,325.1 	"/>
	<polygon class="st10" points="413.6,329 416.5,327.3 413.8,325.7 410.9,327.4 	"/>
</g>
<path class="st0" d="M479.4,273.6c0-2.7-1.9-5.9-4.2-7.2c-1.2-0.7-2.3-0.7-3-0.3l0,0l-6.1,3.5c-0.2,0.1-0.3,0.1-0.5,0.2l-1.4,0.8
	c0,0,0,0,0.1,0l-0.2,0.1H464l-0.1,0.1l0,0c-0.7,0.5-1.1,1.3-1.1,2.6c0,0.2,0,0.5,0.1,0.8l-7.2,4.1c-0.2-0.1-0.3-0.3-0.5-0.4
	c-1.2-0.7-2.2-0.7-2.9-0.3l0,0l-133.5,76.1c-1.3-0.6-2.5-0.6-3.4-0.1l0,0l-40.1,22.3c0,0-0.1,0-0.1,0.1l-0.1,0.1l0,0
	c-0.8,0.5-1.3,1.5-1.4,2.8l-12.9,7.4c-0.2,0.1-0.5,0.2-0.7,0.4l0,0c0,0-0.1,0-0.1,0.1l0,0c0,0,0,0-0.1,0l-0.1,0.1l0,0
	c-0.1,0.1-0.3,0.2-0.4,0.3l0,0l-14.2,14l-4.2,4.2l5.8-2l0,0L265,397c0,0,0,0,0.1,0l0,0c0.1,0,0.1,0,0.2,0s0.1-0.1,0.1-0.1
	c0.1,0,0.2-0.1,0.3-0.1l0.1-0.1l0,0c0,0,0.1,0,0.1-0.1l0,0l13.3-7.6c1.6,0.9,3.1,0.9,4,0.1l0,0l40-22.2l0,0c1-0.6,1.6-1.8,1.6-3.5
	L458,287.6l0,0c0.7-0.4,1.2-1.3,1.2-2.6c0-0.1,0-0.1,0-0.2l7.6-4.2c0.1,0.1,0.2,0.1,0.3,0.2c1.3,0.7,2.4,0.7,3.2,0.1l0,0l8-4.5l0,0
	C479,275.9,479.4,274.9,479.4,273.6z"/>
<g>
	<g>
		
			<linearGradient id="SVGID_1_" gradientUnits="userSpaceOnUse" x1="468.3823" y1="237.1054" x2="474.248" y2="226.8146" gradientTransform="matrix(1 0 0 -1 0 500)">
			<stop  offset="8.730160e-02" style="stop-color:#F2EAE6"/>
			<stop  offset="9.502560e-02" style="stop-color:#FFF7F2"/>
			<stop  offset="0.8894" style="stop-color:#FFF7F2"/>
			<stop  offset="0.8977" style="stop-color:#CCBABA"/>
		</linearGradient>
		<path class="st11" d="M478.2,268.9c0-2.7-1.9-5.9-4.2-7.2c-1.2-0.7-2.3-0.7-3-0.3l0,0l-8.3,4.7l6.3,10l8-4.5l0,0
			C477.7,271.2,478.2,270.3,478.2,268.9z"/>
		<g>
			
				<linearGradient id="SVGID_2_" gradientUnits="userSpaceOnUse" x1="465.1831" y1="235.3666" x2="471.0616" y2="225.0532" gradientTransform="matrix(1 0 0 -1 0 500)">
				<stop  offset="0.369" style="stop-color:#002255"/>
				<stop  offset="0.4681" style="stop-color:#003F69"/>
				<stop  offset="0.8894" style="stop-color:#190055"/>
				<stop  offset="0.8898" style="stop-color:#000E3F"/>
			</linearGradient>
			<path class="st12" d="M471.6,272.6c0,1.3-0.5,2.3-1.2,2.7l-1.4,0.8c0.6-0.5,1-1.4,1-2.5c0-2.7-1.9-5.9-4.2-7.2
				c-1.1-0.6-2-0.7-2.8-0.4l1.4-0.8c0.8-0.5,1.8-0.4,3,0.3C469.7,266.7,471.6,270,471.6,272.6z"/>
		</g>
		
			<linearGradient id="SVGID_3_" gradientUnits="userSpaceOnUse" x1="462.8644" y1="233.9694" x2="468.7305" y2="223.6777" gradientTransform="matrix(1 0 0 -1 0 500)">
			<stop  offset="0.369" style="stop-color:#002255"/>
			<stop  offset="0.4681" style="stop-color:#003F69"/>
			<stop  offset="0.8894" style="stop-color:#190055"/>
			<stop  offset="0.8898" style="stop-color:#000E3F"/>
		</linearGradient>
		<path class="st13" d="M470,273.6c0,2.7-1.9,3.7-4.2,2.4c-2.3-1.3-4.2-4.6-4.2-7.2c0-2.7,1.9-3.7,4.2-2.4S470,270.9,470,273.6z"/>
		<g>
			
				<linearGradient id="SVGID_4_" gradientUnits="userSpaceOnUse" x1="458.8571" y1="228.9703" x2="462.5682" y2="222.4595" gradientTransform="matrix(1 0 0 -1 0 500)">
				<stop  offset="0.369" style="stop-color:#F2F2F2"/>
				<stop  offset="0.379" style="stop-color:#BDBDBD"/>
				<stop  offset="0.8894" style="stop-color:#BDBDBD"/>
				<stop  offset="0.8937" style="stop-color:#727373"/>
			</linearGradient>
			<path class="st14" d="M468.2,273.1c0-1.7-1.2-3.7-2.6-4.5c-0.7-0.4-1.4-0.5-1.9-0.2l0,0l-11.5,6.5l3.9,6.3l11.3-6.3l0,0
				C467.9,274.5,468.2,273.9,468.2,273.1z"/>
			<path class="st15" d="M456.7,279.5c0,1.7-1.2,2.3-2.6,1.5c-1.5-0.8-2.6-2.9-2.6-4.5s1.2-2.3,2.6-1.5S456.7,277.9,456.7,279.5z"/>
		</g>
		
			<linearGradient id="SVGID_5_" gradientUnits="userSpaceOnUse" x1="366.3222" y1="178.7978" x2="372.0912" y2="168.6768" gradientTransform="matrix(1 0 0 -1 0 500)">
			<stop  offset="0.369" style="stop-color:#002255"/>
			<stop  offset="0.4681" style="stop-color:#003F69"/>
			<stop  offset="0.8894" style="stop-color:#190055"/>
			<stop  offset="0.8898" style="stop-color:#000E3F"/>
		</linearGradient>
		<path class="st16" d="M458,280.3c0-2.6-1.8-5.7-4.1-7c-1.2-0.7-2.2-0.7-2.9-0.3l0,0l-172.2,98.3l6.1,9.7l171.8-98.1l0,0
			C457.5,282.5,458,281.6,458,280.3z"/>
		<path class="st17" d="M285.9,378.5c0,2.6-1.8,3.6-4.1,2.3c-2.3-1.3-4.1-4.5-4.1-7s1.8-3.6,4.1-2.3
			C284.1,372.8,285.9,375.9,285.9,378.5z"/>
		<g>
			
				<linearGradient id="SVGID_6_" gradientUnits="userSpaceOnUse" x1="295.7056" y1="141.1593" x2="303.6104" y2="127.291" gradientTransform="matrix(1 0 0 -1 0 500)">
				<stop  offset="8.730160e-02" style="stop-color:#F2EAE6"/>
				<stop  offset="9.502560e-02" style="stop-color:#FFF7F2"/>
				<stop  offset="0.8894" style="stop-color:#FFF7F2"/>
				<stop  offset="0.8977" style="stop-color:#CCBABA"/>
			</linearGradient>
			<path class="st18" d="M323.5,358.8c0-3.5-2.5-7.7-5.5-9.5c-1.6-0.9-3-1-4-0.3l0,0l-40.4,22.4l8.2,13.1l40-22.2l0,0
				C322.9,361.7,323.5,360.5,323.5,358.8z"/>
			<path class="st19" d="M283.2,381.1c0,3.5-2.5,4.9-5.5,3.1c-3-1.7-5.5-6-5.5-9.5s2.5-4.9,5.5-3.1
				C280.8,373.4,283.2,377.7,283.2,381.1z"/>
		</g>
		
			<linearGradient id="SVGID_7_" gradientUnits="userSpaceOnUse" x1="267.74" y1="123.1668" x2="273.4582" y2="113.1347" gradientTransform="matrix(1 0 0 -1 0 500)">
			<stop  offset="0.369" style="stop-color:#002255"/>
			<stop  offset="0.4681" style="stop-color:#003F69"/>
			<stop  offset="0.8894" style="stop-color:#190055"/>
			<stop  offset="0.8898" style="stop-color:#000E3F"/>
		</linearGradient>
		<path class="st20" d="M281.2,380.5c0-2.6-1.8-5.7-4.1-7c-1.2-0.7-2.2-0.7-2.9-0.3l0,0l-15.8,9.1l6.1,9.7l15.5-8.9l0,0
			C280.8,382.7,281.2,381.8,281.2,380.5z"/>
		<path class="st17" d="M265.5,389.5c0,2.6-1.8,3.6-4.1,2.3c-2.3-1.3-4.1-4.5-4.1-7s1.8-3.6,4.1-2.3
			C263.7,383.7,265.5,386.9,265.5,389.5z"/>
		<path class="st8" d="M265.5,389.5c0,0.1,0,0.3,0,0.4c-0.1,1.4-0.8,2.3-1.8,2.5l-18.2,6.4l0,0l-5.8,2l4.2-4.2l14.1-13.9l0,0
			c0.7-0.9,2-1,3.4-0.2c0.7,0.4,1.3,0.9,1.8,1.6C264.6,385.6,265.5,387.7,265.5,389.5z"/>
		<path class="st21" d="M265.5,389.9c-0.1,1.3-0.7,2.1-1.6,2.4c-0.1,0-0.2,0.1-0.3,0.1l-18.2,6.4l0,0l-5.8,2L265.5,389.9
			L265.5,389.9L265.5,389.9z"/>
		<path class="st6" d="M263.3,384l-23.6,16.7l4.2-4.2c0,0,14.1-14,14.2-14c0.7-0.9,2-1,3.4-0.1C262.1,382.8,262.7,383.4,263.3,384z"
			/>
	</g>
	<path class="st22" d="M245.6,398.2c0,0.2-0.1,0.4-0.2,0.5l0,0l-5.8,2l4.2-4.2l0,0c0.2-0.2,0.5-0.2,0.8-0.1
		C245.2,396.9,245.6,397.6,245.6,398.2z"/>
</g>
<polygon class="st5" points="214.4,309.5 73.4,228.2 186.9,162.7 178.8,219.3 205.5,223.1 201.7,257.4 222,260 "/>
</svg>
