<svg id="eshnhv3o0fmj1" xmlns="http://www.w3.org/2000/svg" xmlns:xlink="http://www.w3.org/1999/xlink" viewBox="0 0 500 500" shape-rendering="geometricPrecision" text-rendering="geometricPrecision"><style><![CDATA[#eshnhv3o0fmj61 {animation: eshnhv3o0fmj61_c_o 4000ms linear infinite normal forwards}@keyframes eshnhv3o0fmj61_c_o { 0% {opacity: 1} 62.500000% {opacity: 1} 87.500000% {opacity: 0} 100% {opacity: 0} }#eshnhv3o0fmj62 {
           animation-name: eshnhv3o0fmj62_c_o, eshnhv3o0fmj62_s_do;
           animation-duration: 4000ms;
           animation-fill-mode: forwards;
           animation-timing-function: linear;
           animation-direction: normal;
           animation-iteration-count: infinite;  
        }@keyframes eshnhv3o0fmj62_c_o { 0% {opacity: 0} 25% {opacity: 1} 100% {opacity: 1} }@keyframes eshnhv3o0fmj62_s_do { 0% {stroke-dashoffset: 264.510000} 12.500000% {stroke-dashoffset: 264.510000} 37.500000% {stroke-dashoffset: 0} 100% {stroke-dashoffset: 0} }#eshnhv3o0fmj63_tr {animation: eshnhv3o0fmj63_tr__tr 4000ms linear infinite normal forwards}@keyframes eshnhv3o0fmj63_tr__tr { 0% {transform: translate(235.453720px,345.544635px) rotate(4.290057deg)} 25% {transform: translate(235.453720px,345.544635px) rotate(-357.560843deg)} 100% {transform: translate(235.453720px,345.544635px) rotate(-357.560843deg)} }#eshnhv3o0fmj63_ts {animation: eshnhv3o0fmj63_ts__ts 4000ms linear infinite normal forwards}@keyframes eshnhv3o0fmj63_ts__ts { 0% {transform: scale(-0.020809,-0.020809)} 25% {transform: scale(1,1)} 100% {transform: scale(1,1)} }#eshnhv3o0fmj63 {animation: eshnhv3o0fmj63_c_o 4000ms linear infinite normal forwards}@keyframes eshnhv3o0fmj63_c_o { 0% {opacity: 0} 25% {opacity: 1} 100% {opacity: 1} }]]></style><defs><linearGradient id="eshnhv3o0fmj9-fill" x1="119.265628" y1="255.861820" x2="120.234872" y2="242.942575" spreadMethod="pad" gradientUnits="userSpaceOnUse"><stop id="eshnhv3o0fmj9-fill-0" offset="0%" stop-color="rgb(231,178,182)"/><stop id="eshnhv3o0fmj9-fill-1" offset="8.310000%" stop-color="rgb(231,178,182)"/><stop id="eshnhv3o0fmj9-fill-2" offset="96.650000%" stop-color="rgb(202,141,148)"/><stop id="eshnhv3o0fmj9-fill-3" offset="100%" stop-color="rgb(201,140,147)"/></linearGradient><linearGradient id="eshnhv3o0fmj26-fill" x1="368.725498" y1="254.865510" x2="369.691207" y2="241.993272" spreadMethod="pad" gradientUnits="userSpaceOnUse"><stop id="eshnhv3o0fmj26-fill-0" offset="0%" stop-color="rgb(231,178,182)"/><stop id="eshnhv3o0fmj26-fill-1" offset="8.310000%" stop-color="rgb(231,178,182)"/><stop id="eshnhv3o0fmj26-fill-2" offset="96.650000%" stop-color="rgb(202,141,148)"/><stop id="eshnhv3o0fmj26-fill-3" offset="100%" stop-color="rgb(201,140,147)"/></linearGradient><linearGradient id="eshnhv3o0fmj60-fill" x1="152.472300" y1="259.813000" x2="318.639700" y2="428.261300" spreadMethod="pad" gradientUnits="userSpaceOnUse"><stop id="eshnhv3o0fmj60-fill-0" offset="0%" stop-color="rgb(0,241,251)"/><stop id="eshnhv3o0fmj60-fill-1" offset="100%" stop-color="rgb(99,78,241)"/></linearGradient></defs><path id="eshnhv3o0fmj2" d="M31.099000,434.783000C31.099000,434.783000,-11.939000,363.232000,31.714000,274.305000C72.193000,191.843000,134.851000,231.406000,174.356000,155.709000C274.444000,-36.078000,488.095000,111.357000,456.040000,274.355000C440.528000,353.235000,503.251000,356.102000,471.291000,434.950000L31.099000,434.783000Z" fill="rgb(235,243,250)" stroke="none" stroke-width="1"/><path id="eshnhv3o0fmj3" d="M486.266000,437.923000L19.306000,437.923000C18.436000,437.923000,17.724000,437.211000,17.724000,436.342000L17.724000,435.986000C17.724000,435.116000,18.436000,434.405000,19.306000,434.405000L486.266000,434.405000C487.136000,434.405000,487.848000,435.116000,487.848000,435.986000L487.848000,436.342000C487.848000,437.211000,487.137000,437.923000,486.266000,437.923000Z" fill="rgb(208,214,236)" stroke="none" stroke-width="1"/><polygon id="eshnhv3o0fmj4" points="107.261000,414.883000 110.803000,429.801000 116.110000,429.772000 116.304000,414.883000" fill="rgb(231,178,182)" stroke="none" stroke-width="1"/><path id="eshnhv3o0fmj5" d="M113.494000,428.486000C107.492000,428.226000,107.262000,434.331000,107.262000,434.331000L112.358000,434.331000L114.630000,434.331000L119.533000,434.331000C119.533000,434.331000,119.496000,428.226000,113.494000,428.486000Z" fill="rgb(27,20,100)" stroke="none" stroke-width="1"/><polygon id="eshnhv3o0fmj6" points="153.313000,415.518000 161.972000,429.801000 167.279000,429.772000 163.006000,413.554000" fill="rgb(231,178,182)" stroke="none" stroke-width="1"/><path id="eshnhv3o0fmj7" d="M164.662000,428.486000C158.660000,428.226000,158.430000,434.331000,158.430000,434.331000L163.526000,434.331000L165.798000,434.331000L170.702000,434.331000C170.702000,434.331000,170.664000,428.226000,164.662000,428.486000Z" fill="rgb(27,20,100)" stroke="none" stroke-width="1"/><path id="eshnhv3o0fmj8" d="M117.562000,215.513000C107.987000,215.513000,106.382000,231.272000,106.628000,235.285000C106.904000,239.815000,102.178000,241.295000,95.287000,244.864000C82.141000,251.675000,80.986000,260.794000,80.986000,260.794000C81.088000,260.854000,81.195000,260.923000,81.309000,261.001000C81.961000,259.896000,83.304000,257.820000,84.436000,257.508000C84.393000,257.608000,83.098000,260.365000,82.615000,261.945000C86.494000,264.895000,93.749000,271.432000,98.806000,276.067000C98.783000,275.162000,98.819000,273.874000,99.151000,273.195000L99.775000,276.957000C102.481000,279.445000,104.347000,281.195000,104.347000,281.195000C104.306000,280.748000,104.522000,280.067000,104.949000,279.206000C104.930000,278.930000,104.910000,278.654000,104.888000,278.380000C103.913000,265.891000,100.238000,255.412000,100.238000,255.412000C103.575000,252.882000,109.357000,250.848000,113.984000,250.373000C115.001000,251.844000,116.653000,253.193000,119.298000,253.193000C119.367000,253.193000,119.436000,253.192000,119.505000,253.190000C122.691000,253.108000,124.447000,251.499000,125.392000,250.007000C127.822000,250.072000,129.593000,250.159000,130.868000,250.242000C132.145000,247.195000,132.636000,243.599000,132.682000,243.250000C132.405000,246.561000,131.911000,248.784000,131.396000,250.279000C131.599000,250.293000,131.788000,250.308000,131.961000,250.323000C137.880000,242.135000,133.740000,219.787000,129.140000,217.173000C127.621000,216.310000,125.852000,216.085000,124.416000,216.085000C124.121000,216.085000,123.840000,216.094000,123.578000,216.110000C123.974000,215.702000,124.751000,215.553000,124.751000,215.553000C124.685000,215.543000,124.613000,215.539000,124.536000,215.539000C123.513000,215.539000,121.674000,216.356000,121.674000,216.356000C120.163000,215.774000,118.796000,215.513000,117.562000,215.513000L117.562000,215.513000Z" fill="rgb(51,51,131)" stroke="none" stroke-width="1"/><path id="eshnhv3o0fmj9" d="M125.743000,254.370000C124.519000,253.800000,125.273000,243.378000,125.273000,243.378000L115.117000,242.875000C114.397000,246.288000,114.553000,250.700000,113.266000,250.956000C113.224000,250.965000,115.212000,254.909000,118.253000,255.740000C121.489000,256.623000,125.788000,254.391000,125.743000,254.370000Z" fill="url(#eshnhv3o0fmj9-fill)" stroke="none" stroke-width="1"/><path id="eshnhv3o0fmj10" d="M115.378000,221.100000C115.378000,221.100000,120.737000,216.509000,126.238000,222.016000C126.238000,222.015000,122.795000,221.027000,115.378000,221.100000Z" fill="rgb(51,51,131)" stroke="none" stroke-width="1"/><path id="eshnhv3o0fmj11" d="M112.158000,239.222000C112.158000,239.222000,110.825000,235.835000,110.136000,231.955000C109.644000,229.186000,111.055000,218.919000,121.372000,220.397000C121.372000,220.397000,124.368000,220.693000,127.185000,222.595000C129.425000,224.108000,132.658000,227.374000,129.043000,236.333000L128.104000,239.359000L112.158000,239.222000Z" fill="rgb(51,51,131)" stroke="none" stroke-width="1"/><path id="eshnhv3o0fmj12" d="M126.339000,244.643000C123.470000,247.002000,119.888000,250.163000,113.194000,243.318000C111.884000,241.979000,112.121000,240.089000,112.244000,237.358000C112.388000,234.125000,111.759000,232.092000,112.259000,230.260000C112.854000,228.068000,114.831000,227.206000,118.805000,227.159000C126.100000,227.073000,129.641000,228.981000,128.885000,232.541000C127.196000,240.485000,129.257000,242.244000,126.339000,244.643000Z" fill="rgb(231,178,182)" stroke="none" stroke-width="1"/><path id="eshnhv3o0fmj13" d="M129.233000,226.646000C128.125000,225.417000,123.941000,226.547000,122.337000,227.038000L122.337000,227.038000C120.147000,223.351000,113.605000,226.185000,112.315000,228.243000C109.771000,232.303000,105.786000,231.699000,105.786000,231.699000C105.786000,231.699000,109.437000,235.637000,113.891000,234.492000C117.826000,233.480000,121.399000,228.441000,122.178000,227.280000C123.319000,227.390000,126.186000,227.781000,126.881000,228.984000C127.754000,230.494000,127.770000,232.112000,128.203000,232.958000C128.637000,233.806000,128.487000,234.708000,128.487000,234.708000C128.487000,234.708000,130.604000,228.166000,129.233000,226.646000Z" fill="rgb(51,51,131)" stroke="none" stroke-width="1"/><path id="eshnhv3o0fmj14" d="M120.018000,420.716000L115.042000,420.716000C109.312000,420.716000,105.784000,420.716000,105.784000,420.716000C94.583000,369.800000,93.684000,340.210000,94.906000,324.334000C95.791000,312.836000,97.826000,308.798000,97.826000,308.798000L119.940000,308.533000C119.940000,308.533000,120.540000,420.716000,120.018000,420.716000L120.018000,420.716000Z" fill="rgb(85,92,165)" stroke="none" stroke-width="1"/><path id="eshnhv3o0fmj15" d="M166.841000,420.880000L152.048000,420.880000C152.048000,420.880000,133.164000,382.160000,120.266000,348.091000C114.391000,332.573000,109.759000,318.021000,108.719000,308.533000L133.711000,308.533000C133.711000,308.533000,163.760000,404.082000,166.841000,420.880000L166.841000,420.880000Z" fill="rgb(85,92,165)" stroke="none" stroke-width="1"/><path id="eshnhv3o0fmj16" d="M152.047000,420.880000C152.047000,420.880000,133.163000,382.160000,120.265000,348.091000C119.898000,343.369000,119.281000,336.586000,122.243000,334.227000C122.243000,334.227000,153.706000,392.482000,152.047000,420.880000Z" fill="rgb(79,84,160)" stroke="none" stroke-width="1"/><path id="eshnhv3o0fmj17" d="M115.042000,420.716000C109.312000,420.716000,105.784000,420.716000,105.784000,420.716000C94.583000,369.800000,93.684000,340.210000,94.906000,324.334000C97.685000,338.483000,113.566000,419.108000,115.042000,420.716000Z" fill="rgb(79,84,160)" stroke="none" stroke-width="1"/><path id="eshnhv3o0fmj18" d="M138.656000,280.408000C138.658000,280.893000,138.658000,281.379000,138.656000,281.866000C138.577000,299.237000,136.011000,315.836000,136.011000,315.836000C136.011000,315.836000,122.176000,316.378000,113.123000,314.357000C112.927000,314.314000,112.715000,314.264000,112.490000,314.208000C107.977000,313.097000,97.465000,309.692000,97.465000,309.692000C97.733000,308.988000,97.899000,308.285000,98.160000,307.639000C101.537000,299.216000,104.100000,295.524000,104.501000,292.934000C105.244000,288.100000,105.260000,283.098000,104.890000,278.380000C103.915000,265.891000,100.240000,255.412000,100.240000,255.412000C103.577000,252.882000,109.239000,250.861000,113.866000,250.386000C114.909000,251.894000,116.741000,253.262000,119.508000,253.190000C122.694000,253.108000,124.103000,251.499000,125.049000,250.007000C131.958000,250.195000,133.888000,250.543000,133.888000,250.543000C136.773000,256.364000,138.075000,264.843000,138.498000,273.772000C138.600000,275.971000,138.649000,278.192000,138.656000,280.408000L138.656000,280.408000Z" fill="rgb(0,113,188)" stroke="none" stroke-width="1"/><path id="eshnhv3o0fmj19" d="M155.853000,270.099000C155.853000,270.099000,139.910000,251.159000,133.886000,250.667000L134.918000,265.139000L153.836000,281.820000L181.386000,263.102000L178.600000,261.018000L155.853000,270.099000Z" fill="rgb(231,178,182)" stroke="none" stroke-width="1"/><path id="eshnhv3o0fmj20" d="M144.844000,257.122000C144.844000,257.122000,138.988000,266.709000,138.933000,269.338000L134.431000,266.465000L133.887000,250.544000C133.886000,250.544000,136.426000,250.764000,144.844000,257.122000Z" fill="rgb(0,113,188)" stroke="none" stroke-width="1"/><path id="eshnhv3o0fmj21" d="M111.814000,266.402000C110.471000,266.403000,108.839000,271.468000,108.719000,271.900000C108.719000,271.900000,107.082000,274.537000,104.888000,278.381000C105.039000,280.297000,105.125000,282.261000,105.125000,284.241000C105.125000,287.135000,104.940000,290.065000,104.499000,292.935000C104.098000,295.525000,101.535000,299.218000,98.158000,307.640000C104.711000,306.154000,107.344000,294.337000,108.718000,292.392000C110.253000,290.217000,114.325000,279.351000,113.266000,270.190000C112.942000,267.388000,112.406000,266.402000,111.814000,266.402000L111.814000,266.402000Z" fill="rgb(0,113,188)" stroke="none" stroke-width="1"/><path id="eshnhv3o0fmj22" d="M138.495000,273.774000C137.510000,279.352000,127.942000,307.936000,112.489000,314.209000C112.715000,314.265000,112.926000,314.315000,113.122000,314.358000C119.013000,315.674000,126.928000,315.903000,131.739000,315.903000C134.321000,315.903000,136.010000,315.837000,136.010000,315.837000C136.010000,315.837000,138.576000,299.238000,138.655000,281.867000C138.656000,281.623000,138.657000,281.380000,138.657000,281.137000C138.657000,280.894000,138.657000,280.652000,138.655000,280.409000L138.655000,280.409000C138.645000,278.190000,138.595000,275.968000,138.495000,273.774000L138.495000,273.774000L138.495000,273.774000L138.495000,273.774000Z" fill="rgb(0,113,188)" stroke="none" stroke-width="1"/><path id="eshnhv3o0fmj23" d="M136.401000,312.909000C133.133000,308.708000,129.362000,310.596000,129.362000,310.596000L123.104000,303.270000C117.446000,296.570000,109.957000,287.472000,109.668000,285.934000C109.538000,285.240000,111.143000,252.060000,111.143000,252.060000C111.143000,252.060000,106.418000,253.136000,101.679000,255.445000C101.679000,255.445000,94.492000,262.333000,101.441000,291.652000C101.441000,291.652000,110.688000,299.951000,118.350000,306.364000L118.350000,306.364000L118.353000,306.367000C121.419000,308.933000,124.229000,311.195000,126.092000,312.505000L127.361000,313.511000C128.102000,314.256000,130.454000,315.747000,132.708000,315.340000C134.962000,314.932000,134.399000,315.244000,136.006000,314.987000C137.613000,314.728000,136.401000,312.909000,136.401000,312.909000Z" fill="rgb(231,178,182)" stroke="none" stroke-width="1"/><path id="eshnhv3o0fmj24" d="M97.715000,267.304000C97.701000,268.251000,105.776000,268.475000,110.757000,270.956000L113.864000,250.387000C113.844000,250.396000,104.833000,253.091000,100.239000,255.412000C100.239000,255.412000,97.482000,260.513000,97.715000,267.304000L97.715000,267.304000Z" fill="rgb(0,113,188)" stroke="none" stroke-width="1"/><path id="eshnhv3o0fmj25" d="M375.233000,244.508000C369.218000,248.306000,362.705000,296.972000,362.705000,296.972000C357.348000,299.252000,346.763000,296.858000,336.935000,293.631000C337.773000,292.019000,339.585000,289.318000,339.656000,289.211000C338.714000,289.856000,336.473000,291.672000,334.938000,292.960000C329.333000,291.039000,324.120000,288.925000,320.450000,287.360000C321.128000,282.266000,321.724000,279.367000,324.795000,274.422000C318.667000,280.295000,318.407000,282.689000,316.868000,285.795000C315.755000,285.297000,315.131000,285.003000,315.131000,285.003000C315.264000,283.804000,317.851000,266.048000,334.109000,257.819000C345.945000,251.827000,348.557000,236.455000,353.863000,226.631000C360.248000,214.809000,369.360000,216.091000,369.360000,216.091000C384.401000,215.160000,386.711000,237.264000,375.233000,244.508000Z" fill="rgb(85,92,165)" stroke="none" stroke-width="1"/><path id="eshnhv3o0fmj26" d="M375.443000,250.844000C374.219000,250.273000,374.714000,242.368000,374.714000,242.368000L364.558000,241.865000C363.837000,245.279000,364.019000,248.982000,362.732000,249.238000C362.690000,249.246000,364.653000,253.901000,367.693000,254.730000C370.928000,255.613000,375.488000,250.865000,375.443000,250.844000Z" fill="url(#eshnhv3o0fmj26-fill)" stroke="none" stroke-width="1"/><path id="eshnhv3o0fmj27" d="M375.183000,242.021000C372.314000,244.380000,368.732000,247.541000,362.037000,240.696000C360.727000,239.356000,360.965000,237.467000,361.088000,234.736000C361.231000,231.503000,360.604000,229.470000,361.102000,227.638000C361.698000,225.446000,363.674000,224.583000,367.648000,224.536000C374.943000,224.451000,378.484000,226.358000,377.728000,229.919000C376.040000,237.864000,378.100000,239.623000,375.183000,242.021000Z" fill="rgb(231,178,182)" stroke="none" stroke-width="1"/><path id="eshnhv3o0fmj28" d="M378.301000,251.459000C378.301000,251.459000,384.183000,252.595000,385.602000,253.405000C389.915000,255.869000,401.153000,277.418000,403.694000,285.272000C403.694000,285.272000,407.775000,286.238000,383.197000,310.869000L381.132000,307.231000C381.132000,307.231000,388.581000,293.003000,393.944000,285.737000C393.944000,285.737000,386.668000,274.645000,385.132000,269.099000C383.596000,263.557000,378.301000,251.459000,378.301000,251.459000Z" fill="rgb(231,178,182)" stroke="none" stroke-width="1"/><path id="eshnhv3o0fmj29" d="M340.701000,230.746000C340.318000,230.479000,336.158000,192.737000,336.158000,192.737000C336.158000,192.737000,340.696000,191.017000,339.894000,185.755000C339.894000,185.755000,339.408000,183.624000,338.117000,184.614000C336.825000,185.604000,337.438000,185.410000,335.591000,186.766000C333.745000,188.121000,333.211000,190.854000,333.241000,191.905000C333.241000,191.905000,333.098000,193.853000,332.877000,196.878000L332.876000,196.891000C332.177000,206.536000,330.713000,227.107000,330.713000,230.600000C330.713000,235.191000,347.191000,257.587000,347.191000,257.587000L354.175000,247.589000C354.175000,247.589000,341.084000,231.013000,340.701000,230.746000Z" fill="rgb(231,178,182)" stroke="none" stroke-width="1"/><path id="eshnhv3o0fmj30" d="M377.962000,221.939000C376.127000,219.759000,371.926000,222.397000,370.166000,223.663000C369.130000,223.277000,362.270000,220.866000,358.147000,223.015000C353.680000,225.343000,354.929000,238.616000,354.929000,238.616000C354.929000,236.986000,359.470000,232.328000,363.545000,229.301000C366.307000,227.249000,368.426000,225.413000,369.505000,224.441000C370.019000,225.070000,371.934000,227.250000,374.606000,228.324000C377.749000,229.587000,378.564000,239.645000,378.564000,239.645000C381.149000,236.064000,380.312000,224.732000,377.962000,221.939000Z" fill="rgb(85,92,165)" stroke="none" stroke-width="1"/><polygon id="eshnhv3o0fmj31" points="354.366000,414.883000 357.909000,429.801000 363.215000,429.772000 363.410000,414.883000" fill="rgb(231,178,182)" stroke="none" stroke-width="1"/><polygon id="eshnhv3o0fmj32" points="400.903000,414.883000 408.445000,429.801000 413.751000,429.772000 411.304000,414.883000" fill="rgb(231,178,182)" stroke="none" stroke-width="1"/><path id="eshnhv3o0fmj33" d="M360.600000,428.486000C354.597000,428.226000,354.367000,434.331000,354.367000,434.331000L359.464000,434.331000L361.735000,434.331000L366.639000,434.331000C366.639000,434.331000,366.602000,428.226000,360.600000,428.486000Z" fill="rgb(27,20,100)" stroke="none" stroke-width="1"/><path id="eshnhv3o0fmj34" d="M411.768000,428.486000C405.766000,428.226000,405.535000,434.331000,405.535000,434.331000L410.631000,434.331000L412.903000,434.331000L417.807000,434.331000C417.808000,434.331000,417.770000,428.226000,411.768000,428.486000Z" fill="rgb(27,20,100)" stroke="none" stroke-width="1"/><path id="eshnhv3o0fmj35" d="M367.124000,420.716000L362.147000,420.716000C356.417000,420.716000,352.889000,420.716000,352.889000,420.716000C341.687000,369.800000,340.788000,340.210000,342.011000,324.334000C342.895000,312.836000,344.891000,308.533000,344.891000,308.533000L367.044000,308.533000C367.045000,308.533000,367.646000,420.716000,367.124000,420.716000Z" fill="rgb(85,92,165)" stroke="none" stroke-width="1"/><path id="eshnhv3o0fmj36" d="M413.945000,420.880000L399.152000,420.880000C399.152000,420.880000,380.269000,382.160000,367.370000,348.091000C361.495000,332.573000,356.863000,318.021000,355.823000,308.533000L380.816000,308.533000C380.817000,308.533000,410.866000,404.082000,413.945000,420.880000Z" fill="rgb(85,92,165)" stroke="none" stroke-width="1"/><path id="eshnhv3o0fmj37" d="M399.153000,420.880000C399.153000,420.880000,380.270000,382.160000,367.371000,348.091000C367.003000,343.369000,366.387000,336.586000,369.349000,334.227000C369.349000,334.227000,400.812000,392.482000,399.153000,420.880000Z" fill="rgb(79,84,160)" stroke="none" stroke-width="1"/><path id="eshnhv3o0fmj38" d="M362.148000,420.716000C356.418000,420.716000,352.890000,420.716000,352.890000,420.716000C341.688000,369.800000,340.789000,340.210000,342.012000,324.334000C344.791000,338.483000,360.671000,419.108000,362.148000,420.716000Z" fill="rgb(79,84,160)" stroke="none" stroke-width="1"/><path id="eshnhv3o0fmj39" d="M396.557000,269.299000C396.557000,269.299000,389.008000,276.252000,388.223000,277.449000C388.223000,277.449000,388.011000,277.221000,387.193000,276.725000C386.211000,283.131000,384.075000,290.290000,380.601000,298.033000C377.545000,304.844000,380.235000,309.082000,380.235000,309.082000C380.235000,309.082000,366.745000,310.547000,362.326000,310.478000C357.883000,310.411000,344.784000,308.534000,344.784000,308.534000C344.910000,308.248000,345.035000,307.963000,345.157000,307.684000C347.151000,303.113000,348.596000,299.492000,349.593000,296.479000C352.406000,287.984000,351.647000,284.331000,349.500000,277.859000C348.203000,273.942000,348.503000,266.491000,348.927000,261.349000C347.770000,258.615000,345.702000,256.913000,345.702000,256.913000C346.158000,256.759000,347.274000,255.039000,348.487000,252.949000C348.842000,252.337000,349.205000,251.694000,349.563000,251.049000C351.233000,248.041000,352.782000,245.004000,352.782000,245.004000C352.782000,245.004000,357.910000,248.375000,358.526000,248.284000C360.648000,247.977000,362.007000,249.249000,362.007000,249.249000C362.007000,249.249000,362.287000,249.363000,362.731000,249.239000C363.820000,251.034000,365.824000,253.181000,369.316000,253.080000C372.039000,253.001000,373.948000,251.865000,375.219000,250.656000C376.189000,250.891000,377.090000,251.143000,377.924000,251.401000C377.924000,251.401000,384.332000,252.363000,386.008000,253.427000C389.422000,255.590000,396.557000,269.299000,396.557000,269.299000Z" fill="rgb(41,171,226)" stroke="none" stroke-width="1"/><path id="eshnhv3o0fmj40" d="M381.132000,307.232000L380.591000,308.216000C380.591000,308.216000,376.277000,304.435000,371.231000,308.192000C371.231000,308.192000,369.277000,309.883000,371.028000,310.682000C372.777000,311.480000,372.235000,310.948000,374.674000,312.122000C377.115000,313.297000,379.940000,313.359000,381.486000,312.185000L383.197000,310.869000L381.132000,307.232000Z" fill="rgb(231,178,182)" stroke="none" stroke-width="1"/><path id="eshnhv3o0fmj41" d="M347.616000,307.705000C346.726000,307.788000,345.909000,307.775000,345.157000,307.681000C347.151000,303.110000,348.596000,299.489000,349.593000,296.476000C352.406000,287.981000,351.647000,284.328000,349.500000,277.856000C348.203000,273.939000,348.503000,266.488000,348.927000,261.346000C347.770000,258.612000,345.702000,256.910000,345.702000,256.910000C346.158000,256.756000,347.274000,255.036000,348.487000,252.946000C348.487000,252.946000,351.536000,258.004000,351.382000,259.711000C351.226000,261.419000,350.156000,272.442000,353.194000,276.865000C356.232000,281.291000,357.745000,306.759000,347.616000,307.705000Z" opacity="0.69" fill="rgb(41,171,226)" stroke="none" stroke-width="1"/><path id="eshnhv3o0fmj42" d="M201.466000,167.338000L201.771000,163.588000C201.959000,162.522000,202.001000,161.670000,201.329000,160.821000C199.707000,158.769000,197.067000,154.233000,199.445000,148.472000C199.445000,148.472000,201.025000,145.323000,202.668000,147.368000C204.310000,149.413000,203.424000,148.875000,205.795000,151.705000C208.164000,154.536000,207.953000,159.018000,207.502000,160.651000L206.453000,164.752000L201.466000,167.338000Z" fill="rgb(231,178,182)" stroke="none" stroke-width="1"/><path id="eshnhv3o0fmj43" d="M317.341000,186.748000L318.220000,183.275000C318.565000,182.303000,318.739000,181.510000,318.242000,180.606000C317.043000,178.424000,315.279000,173.748000,318.422000,168.713000C318.422000,168.713000,320.402000,166.005000,321.622000,168.185000C322.840000,170.365000,322.093000,169.719000,323.873000,172.751000C325.652000,175.783000,324.746000,179.959000,324.065000,181.421000L322.433000,185.107000L317.341000,186.748000Z" fill="rgb(231,178,182)" stroke="none" stroke-width="1"/><path id="eshnhv3o0fmj44" d="M237.238000,425.355000C227.980000,424.955000,227.626000,434.371000,227.626000,434.371000L235.486000,434.371000L238.990000,434.371000L246.554000,434.371000C246.554000,434.371000,246.496000,424.955000,237.238000,425.355000Z" fill="rgb(34,30,80)" stroke="none" stroke-width="1"/><path id="eshnhv3o0fmj45" d="M278.152000,425.355000C268.894000,424.955000,268.540000,434.371000,268.540000,434.371000L276.400000,434.371000L279.905000,434.371000L287.468000,434.371000C287.467000,434.371000,287.409000,424.955000,278.152000,425.355000Z" fill="rgb(34,30,80)" stroke="none" stroke-width="1"/><path id="eshnhv3o0fmj46" d="M264.942000,222.099000C264.830000,222.095000,264.741000,222.002000,264.743000,221.891000C264.812000,216.562000,264.812000,211.748000,264.812000,211.748000L249.130000,209.185000C248.591000,213.211000,248.532000,217.990000,248.624000,221.955000C248.626000,222.057000,248.543000,222.140000,248.442000,222.142000C247.617000,222.153000,265.409000,222.115000,264.942000,222.099000L264.942000,222.099000Z" fill="rgb(231,178,182)" stroke="none" stroke-width="1"/><path id="eshnhv3o0fmj47" d="M247.127000,204.662000C247.127000,204.662000,236.658000,188.156000,256.759000,187.064000C256.759000,187.064000,264.299000,187.951000,266.005000,186.244000C266.005000,186.244000,271.854000,195.132000,266.392000,204.662000C260.931000,214.190000,247.127000,204.662000,247.127000,204.662000Z" fill="rgb(43,41,94)" stroke="none" stroke-width="1"/><path id="eshnhv3o0fmj48" d="M264.347000,213.274000C262.822000,214.473000,258.355000,215.664000,257.063000,215.803000C257.063000,215.803000,250.438000,214.326000,249.234000,213.599000C247.368000,212.469000,247.489000,210.180000,247.394000,206.999000C247.278000,203.233000,246.899000,200.275000,247.320000,198.104000C247.820000,195.507000,249.466000,194.030000,254.077000,193.628000C262.539000,192.894000,266.064000,195.013000,266.212000,197.851000C266.250000,198.612000,266.286000,199.339000,266.311000,200.027000C266.649000,208.875000,265.950000,212.013000,264.347000,213.274000Z" fill="rgb(231,178,182)" stroke="none" stroke-width="1"/><path id="eshnhv3o0fmj49" d="M270.488000,220.465000C270.488000,220.465000,285.697000,213.402000,303.824000,207.235000L318.042000,182.193000L323.386000,182.919000C323.386000,182.919000,320.474000,210.169000,316.841000,215.064000C308.289000,226.589000,281.120000,243.884000,281.120000,243.884000L270.488000,220.465000Z" fill="rgb(79,84,160)" stroke="none" stroke-width="1"/><path id="eshnhv3o0fmj50" d="M262.023000,296.152000C262.023000,296.152000,261.808000,298.134000,261.473000,301.244000C260.984000,305.783000,260.239000,312.726000,259.539000,319.426000C258.778000,326.682000,258.066000,333.654000,257.780000,336.974000C257.685000,338.056000,257.459000,340.282000,257.131000,343.344000L257.120000,343.451000C254.866000,364.513000,248.007000,424.456000,248.007000,424.456000C248.007000,424.456000,230.991000,425.278000,227.389000,424.456000C224.750000,423.855000,229.956000,352.828000,232.928000,314.908000C234.010000,301.077000,234.797000,291.650000,234.797000,291.650000L262.023000,296.152000L262.023000,296.152000Z" fill="rgb(51,51,131)" stroke="none" stroke-width="1"/><path id="eshnhv3o0fmj51" d="M281.642000,293.814000C281.642000,293.814000,290.697000,427.473000,287.094000,428.318000C283.492000,429.163000,266.477000,428.318000,266.477000,428.318000C266.477000,428.318000,257.493000,341.553000,256.760000,332.816000C256.027000,324.080000,252.460000,296.220000,252.460000,296.220000L281.642000,293.814000Z" fill="rgb(43,41,94)" stroke="none" stroke-width="1"/><path id="eshnhv3o0fmj52" d="M281.661000,276.621000C284.399000,298.805000,282.554000,301.174000,282.554000,301.174000L233.686000,301.174000C233.686000,301.174000,233.563000,301.338000,233.421000,301.167000C233.201000,300.901000,232.939000,299.812000,233.043000,295.977000C233.156000,291.751000,233.713000,284.186000,235.262000,270.703000C235.319000,270.207000,235.345000,269.656000,235.345000,269.062000C235.345000,264.261000,233.591000,256.501000,231.727000,249.620000C230.764000,246.052000,229.770000,242.723000,228.977000,240.163000C228.859000,239.789000,228.750000,239.433000,228.643000,239.094000C219.970000,231.781000,204.813000,205.221000,204.813000,205.221000C203.001000,200.005000,201.718000,193.056000,200.818000,186.216000C199.129000,173.418000,201.070000,164.287000,201.070000,164.287000L207.877000,160.283000C213.152000,175.137000,217.041000,200.126000,217.041000,200.126000C228.697000,207.843000,243.562000,220.228000,243.598000,220.258000C243.628000,220.254000,243.658000,220.249000,243.688000,220.246000C243.709000,220.242000,243.729000,220.240000,243.751000,220.236000C245.269000,220.012000,246.787000,219.821000,248.589000,219.660000C249.824000,220.621000,252.468000,221.668000,257.602000,221.628000C260.578000,221.606000,262.878000,220.780000,264.766000,219.696000C269.555000,220.169000,274.777000,221.110000,280.046000,222.697000L287.819000,232.156000C287.821000,232.157000,280.849000,270.038000,281.661000,276.621000L281.661000,276.621000Z" fill="rgb(79,84,160)" stroke="none" stroke-width="1"/><path id="eshnhv3o0fmj53" d="M200.163000,173.459000C200.159000,173.561000,200.156000,173.666000,200.154000,173.771000L200.820000,186.215000C201.720000,193.055000,203.003000,200.004000,204.815000,205.220000C204.815000,205.220000,219.972000,231.780000,228.645000,239.093000C228.747000,239.421000,228.856000,239.767000,228.968000,240.128000C228.971000,240.139000,228.975000,240.151000,228.979000,240.162000C229.772000,242.722000,230.766000,246.051000,231.729000,249.619000L231.729000,249.619000C233.593000,256.500000,235.347000,264.260000,235.347000,269.061000L235.347000,269.061000L235.347000,269.061000C235.347000,269.655000,235.320000,270.206000,235.264000,270.702000C233.716000,284.185000,233.158000,291.750000,233.045000,295.976000L233.423000,301.166000C237.110000,301.052000,242.483000,300.767000,244.346000,300.064000C247.287000,298.955000,239.970000,271.573000,239.560000,267.883000C239.149000,264.194000,232.203000,236.934000,232.203000,236.934000L232.203000,236.934000C232.103000,235.956000,231.797000,235.272000,231.566000,234.680000C230.131000,230.990000,211.479000,206.395000,209.019000,204.641000C206.663000,202.963000,200.664000,175.748000,200.163000,173.459000L200.163000,173.459000Z" fill="rgb(46,49,146)" stroke="none" stroke-width="1"/><path id="eshnhv3o0fmj54" d="M262.023000,301.465000L262.023000,319.031000C262.023000,319.031000,260.520000,319.253000,259.539000,320.184000C259.167000,320.532000,258.871000,320.984000,258.758000,321.565000C258.348000,323.674000,257.131000,344.810000,257.131000,344.810000L257.120000,344.919000C254.866000,366.604000,248.007000,428.319000,248.007000,428.319000C248.007000,428.319000,230.991000,429.165000,227.389000,428.319000C224.750000,427.701000,229.956000,354.573000,232.928000,315.534000L233.686000,301.387000L261.473000,301.465000L262.023000,301.465000Z" fill="rgb(51,51,131)" stroke="none" stroke-width="1"/><path id="eshnhv3o0fmj55" d="M235.856000,309.667000C244.126000,309.667000,247.372000,303.385000,247.372000,303.385000C247.338000,303.445000,243.778000,309.369000,235.564000,309.223000L235.556000,309.665000C235.657000,309.667000,235.757000,309.667000,235.856000,309.667000Z" fill="rgb(34,30,80)" stroke="none" stroke-width="1"/><path id="eshnhv3o0fmj56" d="M227.809000,417.141000C230.038000,406.685000,232.045000,394.300000,233.416000,381.406000C233.625000,379.435000,233.827000,377.408000,234.015000,375.380000C234.224000,373.143000,234.419000,370.878000,234.596000,368.649000C234.656000,367.884000,234.458000,367.008000,234.266000,366.162000C234.088000,365.374000,233.904000,364.561000,233.950000,363.900000C234.556000,355.425000,234.699000,347.679000,234.825000,340.845000C234.858000,339.052000,234.891000,337.298000,234.929000,335.577000C235.285000,320.036000,235.547000,311.227000,235.556000,311.140000C235.547000,311.227000,234.728000,320.014000,234.373000,335.576000C234.333000,337.298000,234.301000,339.053000,234.268000,340.845000C234.142000,347.672000,233.999000,355.411000,233.395000,363.873000C233.342000,364.610000,233.535000,365.464000,233.722000,366.288000C233.905000,367.097000,234.095000,367.931000,234.040000,368.617000C233.864000,370.845000,233.668000,373.107000,233.461000,375.341000C233.271000,377.367000,233.070000,379.392000,232.861000,381.361000C231.494000,394.236000,229.876000,406.715000,227.649000,417.153000L227.809000,417.141000Z" fill="rgb(43,41,94)" stroke="none" stroke-width="1"/><path id="eshnhv3o0fmj57" d="M243.753000,220.237000L243.753000,220.237000C243.731000,220.241000,243.711000,220.243000,243.690000,220.247000C244.977000,222.308000,249.072000,228.635000,250.886000,228.635000C251.017000,228.635000,251.136000,228.602000,251.241000,228.532000C252.888000,227.434000,245.699000,222.358000,243.753000,220.237000L243.753000,220.237000Z" fill="rgb(46,49,146)" stroke="none" stroke-width="1"/><path id="eshnhv3o0fmj58" d="M247.588000,222.180000C247.588000,222.180000,252.318000,227.097000,252.984000,227.301000C253.003000,227.307000,253.026000,227.310000,253.053000,227.310000C253.948000,227.310000,258.877000,224.072000,258.877000,224.072000C258.454000,224.163000,257.964000,224.204000,257.427000,224.204000C253.739000,224.204000,247.915000,222.312000,247.588000,222.180000L247.588000,222.180000Z" fill="rgb(46,49,146)" stroke="none" stroke-width="1"/><path id="eshnhv3o0fmj59" d="M306.033000,431.400000L125.683000,366.999000C119.600000,364.827000,116.430000,358.135000,118.602000,352.052000L150.131000,263.756000C152.303000,257.673000,158.995000,254.503000,165.078000,256.675000L345.428000,321.075000C351.512000,323.248000,354.682000,329.939000,352.510000,336.022000L320.980000,424.319000C318.808000,430.401000,312.116000,433.572000,306.033000,431.400000Z" fill="rgb(208,214,236)" stroke="none" stroke-width="1"/><path id="eshnhv3o0fmj60" d="M352.510000,336.022000L320.980000,424.319000C318.807000,430.403000,312.115000,433.572000,306.034000,431.400000L125.683000,366.999000C119.600000,364.827000,116.430000,358.136000,118.602000,352.053000L150.132000,263.756000C152.304000,257.672000,158.995000,254.503000,165.078000,256.675000L345.430000,321.076000C351.511000,323.248000,354.682000,329.938000,352.510000,336.022000Z" fill="url(#eshnhv3o0fmj60-fill)" stroke="rgb(2,27,121)" stroke-width="3.133400" stroke-miterlimit="10"/><g id="eshnhv3o0fmj61"><circle id="eshnhv3o0fmj62" r="42.097949" transform="matrix(0.92318485187533 0.24328393181611 -0.24328393181611 0.92318485187533 235.41933814894219 343.89780901966424)" opacity="0" fill="rgb(255,255,255)" fill-opacity="0" stroke="rgb(255,255,255)" stroke-width="10" stroke-dashoffset="264.510000" stroke-dasharray="264.510000"/><g id="eshnhv3o0fmj63_tr" transform="translate(235.453720,345.544635) rotate(4.290057)"><g id="eshnhv3o0fmj63_ts" transform="scale(-0.020809,-0.020809)"><g id="eshnhv3o0fmj63" transform="translate(-235.419338,-345.498000)" opacity="0"><g id="eshnhv3o0fmj64"><path id="eshnhv3o0fmj65" d="M240.424000,345.498000C241.948000,341.562000,246.308000,339.446000,250.370000,340.766000C251.942000,341.277000,253.308000,342.263000,254.290000,343.563000C254.924000,344.402000,256.041000,344.709000,256.999000,344.277000L256.999000,344.277000C258.291000,343.694000,258.729000,342.061000,257.880000,340.926000C256.350000,338.881000,254.211000,337.330000,251.746000,336.529000C245.346000,334.450000,238.462000,337.845000,236.175000,344.118000L240.424000,345.498000Z" fill="rgb(255,255,255)" stroke="none" stroke-width="1"/><path id="eshnhv3o0fmj66" d="M245.414000,356.020000C241.352000,354.700000,239.069000,350.426000,240.149000,346.346000L235.901000,344.966000C234.063000,351.385000,237.637000,358.178000,244.037000,360.258000C246.502000,361.059000,249.144000,361.062000,251.584000,360.306000C252.938000,359.887000,253.543000,358.307000,252.841000,357.077000L252.841000,357.077000C252.320000,356.164000,251.236000,355.755000,250.230000,356.062000C248.671000,356.537000,246.986000,356.531000,245.414000,356.020000Z" fill="rgb(255,255,255)" stroke="none" stroke-width="1"/></g><g id="eshnhv3o0fmj67"><g id="eshnhv3o0fmj68"><path id="eshnhv3o0fmj69" d="M229.197000,329.187000L220.125000,326.239000L218.908000,329.985000L222.654000,331.202000L224.747000,331.882000L227.979000,332.932000C229.629000,333.468000,230.535000,335.247000,229.999000,336.897000C229.463000,338.547000,227.684000,339.454000,226.034000,338.917000L220.708000,337.187000L222.432000,331.881000L218.686000,330.664000L215.745000,339.716000L224.817000,342.664000C228.533000,343.871000,232.538000,341.831000,233.745000,338.115000C234.953000,334.400000,232.912000,330.395000,229.197000,329.187000Z" fill="rgb(255,255,255)" stroke="none" stroke-width="1"/></g><g id="eshnhv3o0fmj70"><path id="eshnhv3o0fmj71" d="M227.597000,339.426000L216.963000,335.971000L212.584000,349.448000L216.330000,350.665000L217.547000,346.919000L217.895000,345.849000L219.492000,340.934000L226.380000,343.172000C228.030000,343.708000,228.936000,345.487000,228.400000,347.137000C227.864000,348.787000,226.085000,349.693000,224.435000,349.157000L218.226000,347.140000L217.009000,350.886000L223.218000,352.903000C226.934000,354.110000,230.939000,352.070000,232.146000,348.354000C233.354000,344.639000,231.313000,340.634000,227.597000,339.426000Z" fill="rgb(255,255,255)" stroke="none" stroke-width="1"/></g></g></g></g></g></g></svg>