<?xml version="1.0" encoding="utf-8"?>
<!-- Generator: Adobe Illustrator 24.0.2, SVG Export Plug-In . SVG Version: 6.00 Build 0)  -->
<svg version="1.1" id="Слой_1" xmlns="http://www.w3.org/2000/svg" xmlns:xlink="http://www.w3.org/1999/xlink" x="0px" y="0px"
	 viewBox="0 0 500 500" enable-background="new 0 0 500 500" xml:space="preserve">
<path fill="#EBF3FA" d="M31.099,434.783c0,0-43.038-71.551,0.615-160.478c40.479-82.462,103.137-42.899,142.642-118.596
	C274.444-36.078,488.095,111.357,456.04,274.355c-15.512,78.88,47.211,81.747,15.251,160.595L31.099,434.783z"/>
<path fill="#D0D6EC" d="M486.266,437.923H19.306c-0.87,0-1.582-0.712-1.582-1.581v-0.356c0-0.87,0.712-1.581,1.582-1.581h466.96
	c0.87,0,1.582,0.711,1.582,1.581v0.356C487.848,437.211,487.137,437.923,486.266,437.923z"/>
<polygon fill="#E7B2B6" points="107.261,414.883 110.803,429.801 116.11,429.772 116.304,414.883 "/>
<path fill="#1B1464" d="M113.494,428.486c-6.002-0.26-6.232,5.845-6.232,5.845h5.096h2.272h4.903
	C119.533,434.331,119.496,428.226,113.494,428.486z"/>
<polygon fill="#E7B2B6" points="153.313,415.518 161.972,429.801 167.279,429.772 163.006,413.554 "/>
<path fill="#1B1464" d="M164.662,428.486c-6.002-0.26-6.232,5.845-6.232,5.845h5.096h2.272h4.904
	C170.702,434.331,170.664,428.226,164.662,428.486z"/>
<path fill="#333383" d="M117.562,215.513c-9.575,0-11.18,15.759-10.934,19.772c0.276,4.53-4.45,6.01-11.341,9.579
	c-13.146,6.811-14.301,15.93-14.301,15.93c0.102,0.06,0.209,0.129,0.323,0.207c0.652-1.105,1.995-3.181,3.127-3.493
	c-0.043,0.1-1.338,2.857-1.821,4.437c3.879,2.95,11.134,9.487,16.191,14.122c-0.023-0.905,0.013-2.193,0.345-2.872l0.624,3.762
	c2.706,2.488,4.572,4.238,4.572,4.238c-0.041-0.447,0.175-1.128,0.602-1.989c-0.019-0.276-0.039-0.552-0.061-0.826
	c-0.975-12.489-4.65-22.968-4.65-22.968c3.337-2.53,9.119-4.564,13.746-5.039c1.017,1.471,2.669,2.82,5.314,2.82
	c0.069,0,0.138-0.001,0.207-0.003c3.186-0.082,4.942-1.691,5.887-3.183c2.43,0.065,4.201,0.152,5.476,0.235
	c1.277-3.047,1.768-6.643,1.814-6.992c-0.277,3.311-0.771,5.534-1.286,7.029c0.203,0.014,0.392,0.029,0.565,0.044
	c5.919-8.188,1.779-30.536-2.821-33.15c-1.519-0.863-3.288-1.088-4.724-1.088c-0.295,0-0.576,0.009-0.838,0.025
	c0.396-0.408,1.173-0.557,1.173-0.557c-0.066-0.01-0.138-0.014-0.215-0.014c-1.023,0-2.862,0.817-2.862,0.817
	C120.163,215.774,118.796,215.513,117.562,215.513L117.562,215.513z"/>
<linearGradient id="SVGID_1_" gradientUnits="userSpaceOnUse" x1="-508.4988" y1="-758.2253" x2="-508.3202" y2="-758.2253" gradientTransform="matrix(5.4269 -72.3362 -72.3362 -5.4269 -51968.2969 -40641.8203)">
	<stop  offset="0" style="stop-color:#E7B2B6"/>
	<stop  offset="0.0831" style="stop-color:#E7B2B6"/>
	<stop  offset="0.9665" style="stop-color:#CA8D94"/>
	<stop  offset="1" style="stop-color:#C98C93"/>
</linearGradient>
<path fill="url(#SVGID_1_)" d="M125.743,254.37c-1.224-0.57-0.47-10.992-0.47-10.992l-10.156-0.503
	c-0.72,3.413-0.564,7.825-1.851,8.081c-0.042,0.009,1.946,3.953,4.987,4.784C121.489,256.623,125.788,254.391,125.743,254.37z"/>
<path fill="#333383" d="M115.378,221.1c0,0,5.359-4.591,10.86,0.916C126.238,222.015,122.795,221.027,115.378,221.1z"/>
<path fill="#333383" d="M112.158,239.222c0,0-1.333-3.387-2.022-7.267c-0.492-2.769,0.919-13.036,11.236-11.558
	c0,0,2.996,0.296,5.813,2.198c2.24,1.513,5.473,4.779,1.858,13.738l-0.939,3.026L112.158,239.222z"/>
<path fill="#E7B2B6" d="M126.339,244.643c-2.869,2.359-6.451,5.52-13.145-1.325c-1.31-1.339-1.073-3.229-0.95-5.96
	c0.144-3.233-0.485-5.266,0.015-7.098c0.595-2.192,2.572-3.054,6.546-3.101c7.295-0.086,10.836,1.822,10.08,5.382
	C127.196,240.485,129.257,242.244,126.339,244.643z"/>
<path fill="#333383" d="M129.233,226.646c-1.108-1.229-5.292-0.099-6.896,0.392l0,0c-2.19-3.687-8.732-0.853-10.022,1.205
	c-2.544,4.06-6.529,3.456-6.529,3.456s3.651,3.938,8.105,2.793c3.935-1.012,7.508-6.051,8.287-7.212
	c1.141,0.11,4.008,0.501,4.703,1.704c0.873,1.51,0.889,3.128,1.322,3.974c0.434,0.848,0.284,1.75,0.284,1.75
	S130.604,228.166,129.233,226.646z"/>
<path fill="#555CA5" d="M120.018,420.716h-4.976c-5.73,0-9.258,0-9.258,0C94.583,369.8,93.684,340.21,94.906,324.334
	c0.885-11.498,2.92-15.536,2.92-15.536l22.114-0.265C119.94,308.533,120.54,420.716,120.018,420.716L120.018,420.716z"/>
<path fill="#555CA5" d="M166.841,420.88h-14.793c0,0-18.884-38.72-31.782-72.789c-5.875-15.518-10.507-30.07-11.547-39.558h24.992
	C133.711,308.533,163.76,404.082,166.841,420.88L166.841,420.88z"/>
<path fill="#4F54A0" d="M152.047,420.88c0,0-18.884-38.72-31.782-72.789c-0.367-4.722-0.984-11.505,1.978-13.864
	C122.243,334.227,153.706,392.482,152.047,420.88z"/>
<path fill="#4F54A0" d="M115.042,420.716c-5.73,0-9.258,0-9.258,0C94.583,369.8,93.684,340.21,94.906,324.334
	C97.685,338.483,113.566,419.108,115.042,420.716z"/>
<path fill="#0071BC" d="M138.656,280.408c0.002,0.485,0.002,0.971,0,1.458c-0.079,17.371-2.645,33.97-2.645,33.97
	s-13.835,0.542-22.888-1.479c-0.196-0.043-0.408-0.093-0.633-0.149c-4.513-1.111-15.025-4.516-15.025-4.516
	c0.268-0.704,0.434-1.407,0.695-2.053c3.377-8.423,5.94-12.115,6.341-14.705c0.743-4.834,0.759-9.836,0.389-14.554
	c-0.975-12.489-4.65-22.968-4.65-22.968c3.337-2.53,8.999-4.551,13.626-5.026c1.043,1.508,2.875,2.876,5.642,2.804
	c3.186-0.082,4.595-1.691,5.541-3.183c6.909,0.188,8.839,0.536,8.839,0.536c2.885,5.821,4.187,14.3,4.61,23.229
	C138.6,275.971,138.649,278.192,138.656,280.408L138.656,280.408z"/>
<path fill="#E7B2B6" d="M155.853,270.099c0,0-15.943-18.94-21.967-19.432l1.032,14.472l18.918,16.681l27.55-18.718l-2.786-2.084
	L155.853,270.099z"/>
<path fill="#0071BC" d="M144.844,257.122c0,0-5.856,9.587-5.911,12.216l-4.502-2.873l-0.544-15.921
	C133.886,250.544,136.426,250.764,144.844,257.122z"/>
<path fill="#0071BC" d="M111.814,266.402c-1.343,0.001-2.975,5.066-3.095,5.498c0,0-1.637,2.637-3.831,6.481
	c0.151,1.916,0.237,3.88,0.237,5.86c0,2.894-0.185,5.824-0.626,8.694c-0.401,2.59-2.964,6.283-6.341,14.705
	c6.553-1.486,9.186-13.303,10.56-15.248c1.535-2.175,5.607-13.041,4.548-22.202C112.942,267.388,112.406,266.402,111.814,266.402
	L111.814,266.402z"/>
<path fill="#0071BC" d="M138.495,273.774c-0.985,5.578-10.553,34.162-26.006,40.435c0.226,0.056,0.437,0.106,0.633,0.149
	c5.891,1.316,13.806,1.545,18.617,1.545c2.582,0,4.271-0.066,4.271-0.066s2.566-16.599,2.645-33.97
	c0.001-0.244,0.002-0.487,0.002-0.73c0-0.243,0-0.485-0.002-0.728l0,0C138.645,278.19,138.595,275.968,138.495,273.774
	L138.495,273.774L138.495,273.774L138.495,273.774z"/>
<path fill="#E7B2B6" d="M136.401,312.909c-3.268-4.201-7.039-2.313-7.039-2.313l-6.258-7.326
	c-5.658-6.7-13.147-15.798-13.436-17.336c-0.13-0.694,1.475-33.874,1.475-33.874s-4.725,1.076-9.464,3.385
	c0,0-7.187,6.888-0.238,36.207c0,0,9.247,8.299,16.909,14.712l0,0l0.003,0.003c3.066,2.566,5.876,4.828,7.739,6.138l1.269,1.006
	c0.741,0.745,3.093,2.236,5.347,1.829c2.254-0.408,1.691-0.096,3.298-0.353C137.613,314.728,136.401,312.909,136.401,312.909z"/>
<path fill="#0071BC" d="M97.715,267.304c-0.014,0.947,8.061,1.171,13.042,3.652l3.107-20.569c-0.02,0.009-9.031,2.704-13.625,5.025
	C100.239,255.412,97.482,260.513,97.715,267.304L97.715,267.304z"/>
<path fill="#555CA5" d="M375.233,244.508c-6.015,3.798-12.528,52.464-12.528,52.464c-5.357,2.28-15.942-0.114-25.77-3.341
	c0.838-1.612,2.65-4.313,2.721-4.42c-0.942,0.645-3.183,2.461-4.718,3.749c-5.605-1.921-10.818-4.035-14.488-5.6
	c0.678-5.094,1.274-7.993,4.345-12.938c-6.128,5.873-6.388,8.267-7.927,11.373c-1.113-0.498-1.737-0.792-1.737-0.792
	c0.133-1.199,2.72-18.955,18.978-27.184c11.836-5.992,14.448-21.364,19.754-31.188c6.385-11.822,15.497-10.54,15.497-10.54
	C384.401,215.16,386.711,237.264,375.233,244.508z"/>
<linearGradient id="SVGID_2_" gradientUnits="userSpaceOnUse" x1="-509.7486" y1="-742.4327" x2="-509.57" y2="-742.4327" gradientTransform="matrix(5.4071 -72.073 -72.073 -5.4071 -50384.3633 -40498.6523)">
	<stop  offset="0" style="stop-color:#E7B2B6"/>
	<stop  offset="0.0831" style="stop-color:#E7B2B6"/>
	<stop  offset="0.9665" style="stop-color:#CA8D94"/>
	<stop  offset="1" style="stop-color:#C98C93"/>
</linearGradient>
<path fill="url(#SVGID_2_)" d="M375.443,250.844c-1.224-0.571-0.729-8.476-0.729-8.476l-10.156-0.503
	c-0.721,3.414-0.539,7.117-1.826,7.373c-0.042,0.008,1.921,4.663,4.961,5.492C370.928,255.613,375.488,250.865,375.443,250.844z"/>
<path fill="#E7B2B6" d="M375.183,242.021c-2.869,2.359-6.451,5.52-13.146-1.325c-1.31-1.34-1.072-3.229-0.949-5.96
	c0.143-3.233-0.484-5.266,0.014-7.098c0.596-2.192,2.572-3.055,6.546-3.102c7.295-0.085,10.836,1.822,10.08,5.383
	C376.04,237.864,378.1,239.623,375.183,242.021z"/>
<path fill="#E7B2B6" d="M378.301,251.459c0,0,5.882,1.136,7.301,1.946c4.313,2.464,15.551,24.013,18.092,31.867
	c0,0,4.081,0.966-20.497,25.597l-2.065-3.638c0,0,7.449-14.228,12.812-21.494c0,0-7.276-11.092-8.812-16.638
	C383.596,263.557,378.301,251.459,378.301,251.459z"/>
<path fill="#E7B2B6" d="M340.701,230.746c-0.383-0.267-4.543-38.009-4.543-38.009s4.538-1.72,3.736-6.982
	c0,0-0.486-2.131-1.777-1.141c-1.292,0.99-0.679,0.796-2.526,2.152c-1.846,1.355-2.38,4.088-2.35,5.139c0,0-0.143,1.948-0.364,4.973
	l-0.001,0.013c-0.699,9.645-2.163,30.216-2.163,33.709c0,4.591,16.478,26.987,16.478,26.987l6.984-9.998
	C354.175,247.589,341.084,231.013,340.701,230.746z"/>
<path fill="#555CA5" d="M377.962,221.939c-1.835-2.18-6.036,0.458-7.796,1.724c-1.036-0.386-7.896-2.797-12.019-0.648
	c-4.467,2.328-3.218,15.601-3.218,15.601c0-1.63,4.541-6.288,8.616-9.315c2.762-2.052,4.881-3.888,5.96-4.86
	c0.514,0.629,2.429,2.809,5.101,3.883c3.143,1.263,3.958,11.321,3.958,11.321C381.149,236.064,380.312,224.732,377.962,221.939z"/>
<polygon fill="#E7B2B6" points="354.366,414.883 357.909,429.801 363.215,429.772 363.41,414.883 "/>
<polygon fill="#E7B2B6" points="400.903,414.883 408.445,429.801 413.751,429.772 411.304,414.883 "/>
<path fill="#1B1464" d="M360.6,428.486c-6.003-0.26-6.233,5.845-6.233,5.845h5.097h2.271h4.904
	C366.639,434.331,366.602,428.226,360.6,428.486z"/>
<path fill="#1B1464" d="M411.768,428.486c-6.002-0.26-6.233,5.845-6.233,5.845h5.096h2.272h4.904
	C417.808,434.331,417.77,428.226,411.768,428.486z"/>
<path fill="#555CA5" d="M367.124,420.716h-4.977c-5.73,0-9.258,0-9.258,0c-11.202-50.916-12.101-80.506-10.878-96.382
	c0.884-11.498,2.88-15.801,2.88-15.801h22.153C367.045,308.533,367.646,420.716,367.124,420.716z"/>
<path fill="#555CA5" d="M413.945,420.88h-14.793c0,0-18.883-38.72-31.782-72.789c-5.875-15.518-10.507-30.07-11.547-39.558h24.993
	C380.817,308.533,410.866,404.082,413.945,420.88z"/>
<path fill="#4F54A0" d="M399.153,420.88c0,0-18.883-38.72-31.782-72.789c-0.368-4.722-0.984-11.505,1.978-13.864
	C369.349,334.227,400.812,392.482,399.153,420.88z"/>
<path fill="#4F54A0" d="M362.148,420.716c-5.73,0-9.258,0-9.258,0c-11.202-50.916-12.101-80.506-10.878-96.382
	C344.791,338.483,360.671,419.108,362.148,420.716z"/>
<path fill="#29ABE2" d="M396.557,269.299c0,0-7.549,6.953-8.334,8.15c0,0-0.212-0.228-1.03-0.724
	c-0.982,6.406-3.118,13.565-6.592,21.308c-3.056,6.811-0.366,11.049-0.366,11.049s-13.49,1.465-17.909,1.396
	c-4.443-0.067-17.542-1.944-17.542-1.944c0.126-0.286,0.251-0.571,0.373-0.85c1.994-4.571,3.439-8.192,4.436-11.205
	c2.813-8.495,2.054-12.148-0.093-18.62c-1.297-3.917-0.997-11.368-0.573-16.51c-1.157-2.734-3.225-4.436-3.225-4.436
	c0.456-0.154,1.572-1.874,2.785-3.964c0.355-0.612,0.718-1.255,1.076-1.9c1.67-3.008,3.219-6.045,3.219-6.045
	s5.128,3.371,5.744,3.28c2.122-0.307,3.481,0.965,3.481,0.965s0.28,0.114,0.724-0.01c1.089,1.795,3.093,3.942,6.585,3.841
	c2.723-0.079,4.632-1.215,5.903-2.424c0.97,0.235,1.871,0.487,2.705,0.745c0,0,6.408,0.962,8.084,2.026
	C389.422,255.59,396.557,269.299,396.557,269.299z"/>
<path fill="#E7B2B6" d="M381.132,307.232l-0.541,0.984c0,0-4.314-3.781-9.36-0.024c0,0-1.954,1.691-0.203,2.49
	c1.749,0.798,1.207,0.266,3.646,1.44c2.441,1.175,5.266,1.237,6.812,0.063l1.711-1.316L381.132,307.232z"/>
<path opacity="0.69" fill="#29ABE2" d="M347.616,307.705c-0.89,0.083-1.707,0.07-2.459-0.024c1.994-4.571,3.439-8.192,4.436-11.205
	c2.813-8.495,2.054-12.148-0.093-18.62c-1.297-3.917-0.997-11.368-0.573-16.51c-1.157-2.734-3.225-4.436-3.225-4.436
	c0.456-0.154,1.572-1.874,2.785-3.964c0,0,3.049,5.058,2.895,6.765c-0.156,1.708-1.226,12.731,1.812,17.154
	C356.232,281.291,357.745,306.759,347.616,307.705z"/>
<path fill="#E7B2B6" d="M201.466,167.338l0.305-3.75c0.188-1.066,0.23-1.918-0.442-2.767c-1.622-2.052-4.262-6.588-1.884-12.349
	c0,0,1.58-3.149,3.223-1.104c1.642,2.045,0.756,1.507,3.127,4.337c2.369,2.831,2.158,7.313,1.707,8.946l-1.049,4.101
	L201.466,167.338z"/>
<path fill="#E7B2B6" d="M317.341,186.748l0.879-3.473c0.345-0.972,0.519-1.765,0.022-2.669c-1.199-2.182-2.963-6.858,0.18-11.893
	c0,0,1.98-2.708,3.2-0.528c1.218,2.18,0.471,1.534,2.251,4.566c1.779,3.032,0.873,7.208,0.192,8.67l-1.632,3.686L317.341,186.748z"
	/>
<path fill="#221E50" d="M237.238,425.355c-9.258-0.4-9.612,9.016-9.612,9.016h7.86h3.504h7.564
	C246.554,434.371,246.496,424.955,237.238,425.355z"/>
<path fill="#221E50" d="M278.152,425.355c-9.258-0.4-9.612,9.016-9.612,9.016h7.86h3.505h7.563
	C287.467,434.371,287.409,424.955,278.152,425.355z"/>
<path fill="#E7B2B6" d="M264.942,222.099c-0.112-0.004-0.201-0.097-0.199-0.208c0.069-5.329,0.069-10.143,0.069-10.143
	l-15.682-2.563c-0.539,4.026-0.598,8.805-0.506,12.77c0.002,0.102-0.081,0.185-0.182,0.187
	C247.617,222.153,265.409,222.115,264.942,222.099L264.942,222.099z"/>
<path fill="#2B295E" d="M247.127,204.662c0,0-10.469-16.506,9.632-17.598c0,0,7.54,0.887,9.246-0.82c0,0,5.849,8.888,0.387,18.418
	C260.931,214.19,247.127,204.662,247.127,204.662z"/>
<path fill="#E7B2B6" d="M264.347,213.274c-1.525,1.199-5.992,2.39-7.284,2.529c0,0-6.625-1.477-7.829-2.204
	c-1.866-1.13-1.745-3.419-1.84-6.6c-0.116-3.766-0.495-6.724-0.074-8.895c0.5-2.597,2.146-4.074,6.757-4.476
	c8.462-0.734,11.987,1.385,12.135,4.223c0.038,0.761,0.074,1.488,0.099,2.176C266.649,208.875,265.95,212.013,264.347,213.274z"/>
<path fill="#4F54A0" d="M270.488,220.465c0,0,15.209-7.063,33.336-13.23l14.218-25.042l5.344,0.726c0,0-2.912,27.25-6.545,32.145
	c-8.552,11.525-35.721,28.82-35.721,28.82L270.488,220.465z"/>
<path fill="#333383" d="M262.023,296.152c0,0-0.215,1.982-0.55,5.092c-0.489,4.539-1.234,11.482-1.934,18.182
	c-0.761,7.256-1.473,14.228-1.759,17.548c-0.095,1.082-0.321,3.308-0.649,6.37l-0.011,0.107
	c-2.254,21.062-9.113,81.005-9.113,81.005s-17.016,0.822-20.618,0c-2.639-0.601,2.567-71.628,5.539-109.548
	c1.082-13.831,1.869-23.258,1.869-23.258L262.023,296.152L262.023,296.152z"/>
<path fill="#2B295E" d="M281.642,293.814c0,0,9.055,133.659,5.452,134.504c-3.602,0.845-20.617,0-20.617,0
	s-8.984-86.765-9.717-95.502c-0.733-8.736-4.3-36.596-4.3-36.596L281.642,293.814z"/>
<path fill="#4F54A0" d="M281.661,276.621c2.738,22.184,0.893,24.553,0.893,24.553h-48.868c0,0-0.123,0.164-0.265-0.007
	c-0.22-0.266-0.482-1.355-0.378-5.19c0.113-4.226,0.67-11.791,2.219-25.274c0.057-0.496,0.083-1.047,0.083-1.641
	c0-4.801-1.754-12.561-3.618-19.442c-0.963-3.568-1.957-6.897-2.75-9.457c-0.118-0.374-0.227-0.73-0.334-1.069
	c-8.673-7.313-23.83-33.873-23.83-33.873c-1.812-5.216-3.095-12.165-3.995-19.005c-1.689-12.798,0.252-21.929,0.252-21.929
	l6.807-4.004c5.275,14.854,9.164,39.843,9.164,39.843c11.656,7.717,26.521,20.102,26.557,20.132c0.03-0.004,0.06-0.009,0.09-0.012
	c0.021-0.004,0.041-0.006,0.063-0.01c1.518-0.224,3.036-0.415,4.838-0.576c1.235,0.961,3.879,2.008,9.013,1.968
	c2.976-0.022,5.276-0.848,7.164-1.932c4.789,0.473,10.011,1.414,15.28,3.001l7.773,9.459
	C287.821,232.157,280.849,270.038,281.661,276.621L281.661,276.621z"/>
<path fill="#2E3192" d="M200.163,173.459c-0.004,0.102-0.007,0.207-0.009,0.312l0.666,12.444c0.9,6.84,2.183,13.789,3.995,19.005
	c0,0,15.157,26.56,23.83,33.873c0.102,0.328,0.211,0.674,0.323,1.035c0.003,0.011,0.007,0.023,0.011,0.034
	c0.793,2.56,1.787,5.889,2.75,9.457l0,0c1.864,6.881,3.618,14.641,3.618,19.442l0,0l0,0c0,0.594-0.027,1.145-0.083,1.641
	c-1.548,13.483-2.106,21.048-2.219,25.274l0.378,5.19c3.687-0.114,9.06-0.399,10.923-1.102c2.941-1.109-4.376-28.491-4.786-32.181
	c-0.411-3.689-7.357-30.949-7.357-30.949l0,0c-0.1-0.978-0.406-1.662-0.637-2.254c-1.435-3.69-20.087-28.285-22.547-30.039
	C206.663,202.963,200.664,175.748,200.163,173.459L200.163,173.459z"/>
<path fill="#333383" d="M262.023,301.465v17.566c0,0-1.503,0.222-2.484,1.153c-0.372,0.348-0.668,0.8-0.781,1.381
	c-0.41,2.109-1.627,23.245-1.627,23.245l-0.011,0.109c-2.254,21.685-9.113,83.4-9.113,83.4s-17.016,0.846-20.618,0
	c-2.639-0.618,2.567-73.746,5.539-112.785l0.758-14.147l27.787,0.078L262.023,301.465z"/>
<path fill="#221E50" d="M235.856,309.667c8.27,0,11.516-6.282,11.516-6.282c-0.034,0.06-3.594,5.984-11.808,5.838l-0.008,0.442
	C235.657,309.667,235.757,309.667,235.856,309.667z"/>
<path fill="#2B295E" d="M227.809,417.141c2.229-10.456,4.236-22.841,5.607-35.735c0.209-1.971,0.411-3.998,0.599-6.026
	c0.209-2.237,0.404-4.502,0.581-6.731c0.06-0.765-0.138-1.641-0.33-2.487c-0.178-0.788-0.362-1.601-0.316-2.262
	c0.606-8.475,0.749-16.221,0.875-23.055c0.033-1.793,0.066-3.547,0.104-5.268c0.356-15.541,0.618-24.35,0.627-24.437
	c-0.009,0.087-0.828,8.874-1.183,24.436c-0.04,1.722-0.072,3.477-0.105,5.269c-0.126,6.827-0.269,14.566-0.873,23.028
	c-0.053,0.737,0.14,1.591,0.327,2.415c0.183,0.809,0.373,1.643,0.318,2.329c-0.176,2.228-0.372,4.49-0.579,6.724
	c-0.19,2.026-0.391,4.051-0.6,6.02c-1.367,12.875-2.985,25.354-5.212,35.792L227.809,417.141z"/>
<path fill="#2E3192" d="M243.753,220.237L243.753,220.237c-0.022,0.004-0.042,0.006-0.063,0.01c1.287,2.061,5.382,8.388,7.196,8.388
	c0.131,0,0.25-0.033,0.355-0.103C252.888,227.434,245.699,222.358,243.753,220.237L243.753,220.237z"/>
<path fill="#2E3192" d="M247.588,222.18c0,0,4.73,4.917,5.396,5.121c0.019,0.006,0.042,0.009,0.069,0.009
	c0.895,0,5.824-3.238,5.824-3.238c-0.423,0.091-0.913,0.132-1.45,0.132C253.739,224.204,247.915,222.312,247.588,222.18
	L247.588,222.18z"/>
<path fill="#D0D6EC" d="M306.033,431.4l-180.35-64.401c-6.083-2.172-9.253-8.864-7.081-14.947l31.529-88.296
	c2.172-6.083,8.864-9.253,14.947-7.081l180.35,64.4c6.084,2.173,9.254,8.864,7.082,14.947l-31.53,88.297
	C318.808,430.401,312.116,433.572,306.033,431.4z"/>
<linearGradient id="SVGID_3_" gradientUnits="userSpaceOnUse" x1="152.4723" y1="259.813" x2="318.6397" y2="428.2613">
	<stop  offset="1.065558e-07" style="stop-color:#00F1FB"/>
	<stop  offset="1" style="stop-color:#634EF1"/>
</linearGradient>
<path fill="url(#SVGID_3_)" stroke="#021B79" stroke-width="3.1334" stroke-miterlimit="10" d="M352.51,336.022l-31.53,88.297
	c-2.173,6.084-8.865,9.253-14.946,7.081l-180.351-64.401c-6.083-2.172-9.253-8.863-7.081-14.946l31.53-88.297
	c2.172-6.084,8.863-9.253,14.946-7.081l180.352,64.401C351.511,323.248,354.682,329.938,352.51,336.022z"/>
<path fill="#FFFFFF" d="M277.558,344.812L277.558,344.812c0.241-15.17-7.788-29.52-21.091-37.177
	c-0.897-0.516-1.817-1.002-2.761-1.456l0,0c-0.411-0.197-0.826-0.388-1.245-0.573c-1.049-0.463-2.125-0.888-3.226-1.271
	c-0.268-0.093-0.538-0.184-0.809-0.272c-0.823-0.267-1.649-0.505-2.476-0.719c-21.411-5.557-43.715,6.465-50.642,27.784
	c-6.927,21.318,4.051,44.154,24.639,52.245c0.795,0.312,1.602,0.605,2.426,0.873c0.271,0.088,0.543,0.171,0.815,0.254
	c1.116,0.338,2.235,0.631,3.356,0.872c20.882,4.513,42.202-7.434,48.946-28.19C276.824,353.074,277.492,348.913,277.558,344.812z
	 M229.6,375.962c-1.127-0.207-2.254-0.475-3.377-0.807c-0.272-0.081-0.544-0.165-0.816-0.253c-0.825-0.268-1.631-0.567-2.419-0.893
	c-15.431-6.394-23.589-23.689-18.339-39.846c5.25-16.157,22.016-25.354,38.258-21.457c0.829,0.199,1.657,0.431,2.482,0.699
	c0.271,0.088,0.541,0.18,0.809,0.275c1.103,0.391,2.172,0.836,3.206,1.332l0.035,0.017l0,0c1.365,0.656,2.667,1.401,3.902,2.223
	c9.132,6.084,14.566,16.468,14.392,27.407l0,0c-0.05,3.145-0.563,6.337-1.586,9.486C261.082,369.735,245.294,378.843,229.6,375.962z
	"/>
<g>
	<g>
		<path fill="#FFFFFF" d="M229.197,329.187l-9.072-2.948l-1.217,3.746l3.746,1.217l2.093,0.68l3.232,1.05
			c1.65,0.536,2.556,2.315,2.02,3.965c-0.536,1.65-2.315,2.557-3.965,2.02l-5.326-1.73l1.724-5.306l-3.746-1.217l-2.941,9.052
			l9.072,2.948c3.716,1.207,7.721-0.833,8.928-4.549C234.953,334.4,232.912,330.395,229.197,329.187z"/>
	</g>
	<g>
		<path fill="#FFFFFF" d="M227.597,339.426l-10.634-3.455l-4.379,13.477l3.746,1.217l1.217-3.746l0.348-1.07l1.597-4.915
			l6.888,2.238c1.65,0.536,2.556,2.315,2.02,3.965c-0.536,1.65-2.315,2.556-3.965,2.02l-6.209-2.017l-1.217,3.746l6.209,2.017
			c3.716,1.207,7.721-0.833,8.928-4.549C233.354,344.639,231.313,340.634,227.597,339.426z"/>
	</g>
</g>
<g>
	<path fill="#FFFFFF" d="M240.424,345.498c1.524-3.936,5.884-6.052,9.946-4.732c1.572,0.511,2.938,1.497,3.92,2.797
		c0.634,0.839,1.751,1.146,2.709,0.714l0,0c1.292-0.583,1.73-2.216,0.881-3.351c-1.53-2.045-3.669-3.596-6.134-4.397
		c-6.4-2.079-13.284,1.316-15.571,7.589L240.424,345.498z"/>
	<path fill="#FFFFFF" d="M245.414,356.02c-4.062-1.32-6.345-5.594-5.265-9.674l-4.248-1.38c-1.838,6.419,1.736,13.212,8.136,15.292
		c2.465,0.801,5.107,0.804,7.547,0.048c1.354-0.419,1.959-1.999,1.257-3.229l0,0c-0.521-0.913-1.605-1.322-2.611-1.015
		C248.671,356.537,246.986,356.531,245.414,356.02z"/>
</g>
</svg>
