<svg id="ejjazbk0ap0a1" xmlns="http://www.w3.org/2000/svg" xmlns:xlink="http://www.w3.org/1999/xlink" viewBox="0 0 550 550" shape-rendering="geometricPrecision" text-rendering="geometricPrecision"><style><![CDATA[#ejjazbk0ap0a2_tr {animation: ejjazbk0ap0a2_tr__tr 20000ms linear infinite normal forwards}@keyframes ejjazbk0ap0a2_tr__tr { 0% {transform: translate(275px,275.050018px) rotate(-90.854273deg)} 100% {transform: translate(275px,275.050018px) rotate(-450.454504deg)} }#ejjazbk0ap0a11 {animation: ejjazbk0ap0a11_c_o 20000ms linear infinite normal forwards}@keyframes ejjazbk0ap0a11_c_o { 0% {opacity: 0.500000} 2.500000% {opacity: 1} 25% {opacity: 1} 30% {opacity: 0} 45% {opacity: 0} 50% {opacity: 1} 75% {opacity: 1} 80% {opacity: 0} 97.500000% {opacity: 0} 100% {opacity: 0.500000} }#ejjazbk0ap0a47_tr {animation: ejjazbk0ap0a47_tr__tr 20000ms linear infinite normal forwards}@keyframes ejjazbk0ap0a47_tr__tr { 0% {transform: translate(275.026070px,275.311172px) rotate(0deg)} 5% {transform: translate(275.026070px,275.311172px) rotate(-4.467856deg)} 10% {transform: translate(275.026070px,275.311172px) rotate(0.035885deg)} 15% {transform: translate(275.026070px,275.311172px) rotate(2.594842deg)} 20% {transform: translate(275.026070px,275.311172px) rotate(0deg)} 25% {transform: translate(275.026070px,275.311172px) rotate(-4.467856deg)} 30% {transform: translate(275.026070px,275.311172px) rotate(0.035885deg)} 35% {transform: translate(275.026070px,275.311172px) rotate(2.594842deg)} 40% {transform: translate(275.026070px,275.311172px) rotate(0deg)} 45% {transform: translate(275.026070px,275.311172px) rotate(-4.467856deg)} 50% {transform: translate(275.026070px,275.311172px) rotate(0.035885deg)} 55% {transform: translate(275.026070px,275.311172px) rotate(2.594842deg)} 60% {transform: translate(275.026070px,275.311172px) rotate(0deg)} 65% {transform: translate(275.026070px,275.311172px) rotate(-4.467856deg)} 70% {transform: translate(275.026070px,275.311172px) rotate(0.035885deg)} 75% {transform: translate(275.026070px,275.311172px) rotate(2.594842deg)} 80% {transform: translate(275.026070px,275.311172px) rotate(0deg)} 85% {transform: translate(275.026070px,275.311172px) rotate(-4.467856deg)} 90% {transform: translate(275.026070px,275.311172px) rotate(0.035885deg)} 95% {transform: translate(275.026070px,275.311172px) rotate(2.594842deg)} 100% {transform: translate(275.026070px,275.311172px) rotate(-0.325563deg)} }#ejjazbk0ap0a65 {animation: ejjazbk0ap0a65_c_o 20000ms linear infinite normal forwards}@keyframes ejjazbk0ap0a65_c_o { 0% {opacity: 0} 27.500000% {opacity: 0} 32.500000% {opacity: 1} 42.500000% {opacity: 1} 47.500000% {opacity: 0} 77.500000% {opacity: 0} 82.500000% {opacity: 1} 95% {opacity: 1} 100% {opacity: 0} }]]></style><defs><linearGradient id="ejjazbk0ap0a3-fill" x1="422.498900" y1="142.431500" x2="535.767300" y2="255.700000" spreadMethod="pad" gradientUnits="userSpaceOnUse"><stop id="ejjazbk0ap0a3-fill-0" offset="0%" stop-color="rgb(0,241,251)"/><stop id="ejjazbk0ap0a3-fill-1" offset="100%" stop-color="rgb(99,78,241)"/></linearGradient><linearGradient id="ejjazbk0ap0a4-fill" x1="294.299600" y1="14.239300" x2="407.566900" y2="127.506500" spreadMethod="pad" gradientUnits="userSpaceOnUse"><stop id="ejjazbk0ap0a4-fill-0" offset="0%" stop-color="rgb(0,241,251)"/><stop id="ejjazbk0ap0a4-fill-1" offset="100%" stop-color="rgb(99,78,241)"/></linearGradient><linearGradient id="ejjazbk0ap0a5-fill" x1="160.901900" y1="32.708100" x2="237.227500" y2="109.033700" spreadMethod="pad" gradientUnits="userSpaceOnUse"><stop id="ejjazbk0ap0a5-fill-0" offset="0%" stop-color="rgb(0,241,251)"/><stop id="ejjazbk0ap0a5-fill-1" offset="100%" stop-color="rgb(99,78,241)"/></linearGradient><linearGradient id="ejjazbk0ap0a6-fill" x1="440.969500" y1="312.774400" x2="517.310400" y2="389.115400" spreadMethod="pad" gradientUnits="userSpaceOnUse"><stop id="ejjazbk0ap0a6-fill-0" offset="0%" stop-color="rgb(0,241,251)"/><stop id="ejjazbk0ap0a6-fill-1" offset="100%" stop-color="rgb(99,78,241)"/></linearGradient><linearGradient id="ejjazbk0ap0a7-fill" x1="14.231100" y1="294.292500" x2="127.506000" y2="407.567400" spreadMethod="pad" gradientUnits="userSpaceOnUse"><stop id="ejjazbk0ap0a7-fill-0" offset="0%" stop-color="rgb(0,241,251)"/><stop id="ejjazbk0ap0a7-fill-1" offset="100%" stop-color="rgb(99,78,241)"/></linearGradient><linearGradient id="ejjazbk0ap0a8-fill" x1="142.434500" y1="422.495900" x2="255.698800" y2="535.760300" spreadMethod="pad" gradientUnits="userSpaceOnUse"><stop id="ejjazbk0ap0a8-fill-0" offset="0%" stop-color="rgb(0,241,251)"/><stop id="ejjazbk0ap0a8-fill-1" offset="100%" stop-color="rgb(99,78,241)"/></linearGradient><linearGradient id="ejjazbk0ap0a9-fill" x1="312.766100" y1="440.959100" x2="389.107700" y2="517.300700" spreadMethod="pad" gradientUnits="userSpaceOnUse"><stop id="ejjazbk0ap0a9-fill-0" offset="0%" stop-color="rgb(0,241,251)"/><stop id="ejjazbk0ap0a9-fill-1" offset="100%" stop-color="rgb(99,78,241)"/></linearGradient><linearGradient id="ejjazbk0ap0a10-fill" x1="32.703600" y1="160.895300" x2="109.035100" y2="237.226800" spreadMethod="pad" gradientUnits="userSpaceOnUse"><stop id="ejjazbk0ap0a10-fill-0" offset="0%" stop-color="rgb(0,241,251)"/><stop id="ejjazbk0ap0a10-fill-1" offset="100%" stop-color="rgb(99,78,241)"/></linearGradient><linearGradient id="ejjazbk0ap0a66-fill" x1="154.648300" y1="272.950000" x2="265.249300" y2="272.950000" spreadMethod="pad" gradientUnits="userSpaceOnUse"><stop id="ejjazbk0ap0a66-fill-0" offset="0%" stop-color="rgb(0,241,251)"/><stop id="ejjazbk0ap0a66-fill-1" offset="100%" stop-color="rgb(99,78,241)"/></linearGradient><linearGradient id="ejjazbk0ap0a68-fill" x1="280.906911" y1="236.301128" x2="405.084111" y2="237.145533" spreadMethod="pad" gradientUnits="userSpaceOnUse"><stop id="ejjazbk0ap0a68-fill-0" offset="0%" stop-color="rgb(0,241,251)"/><stop id="ejjazbk0ap0a68-fill-1" offset="100%" stop-color="rgb(99,78,241)"/></linearGradient><linearGradient id="ejjazbk0ap0a69-fill" x1="280.301541" y1="314.193313" x2="404.589841" y2="315.038474" spreadMethod="pad" gradientUnits="userSpaceOnUse"><stop id="ejjazbk0ap0a69-fill-0" offset="0%" stop-color="rgb(0,241,251)"/><stop id="ejjazbk0ap0a69-fill-1" offset="100%" stop-color="rgb(99,78,241)"/></linearGradient></defs><g id="ejjazbk0ap0a2_tr" transform="translate(275,275.050018) rotate(-90.854273)"><g id="ejjazbk0ap0a2" transform="translate(-275,-275.050018)"><path id="ejjazbk0ap0a3" d="M419.100000,145.900000C437.800000,166.800000,452.100000,191.800000,460.400000,219.400000L460.400000,219.400000C464.700000,233.800000,467.400000,248.900000,468.200000,264.500000L527,264.500000C526.100000,243,522.600000,222.300000,516.600000,202.500000L516.600000,202.500000C505.500000,165.500000,486.100000,132.100000,460.600000,104.300000L419.100000,145.900000Z" fill="url(#ejjazbk0ap0a3-fill)" stroke="none" stroke-width="1"/><path id="ejjazbk0ap0a4" d="M285.600000,81.800000C291.200000,82.100000,296.700000,82.600000,302.200000,83.400000L302.400000,83.400000L302.400000,83.400000C311.400000,84.700000,320.100000,86.600000,328.700000,89C357.100000,97.200000,382.800000,111.700000,404.200000,130.900000L445.800000,89.300000C413.500000,59.700000,373.500000,38.300000,329,28.600000C323,27.300000,316.800000,26.200000,310.600000,25.300000L310.600000,25.300000C307.900000,24.900000,305.200000,24.600000,302.500000,24.300000C296.900000,23.700000,291.200000,23.300000,285.500000,23L285.500000,81.800000Z" fill="url(#ejjazbk0ap0a4-fill)" stroke="none" stroke-width="1"/><path id="ejjazbk0ap0a5" d="M145.900000,130.900000C176.900000,103.100000,216.900000,85.200000,260.900000,82C262.100000,81.900000,263.300000,81.800000,264.400000,81.800000L264.400000,23C263.400000,23,262.300000,23.100000,261.300000,23.100000C200.900000,26.300000,146.100000,50.800000,104.300000,89.300000L145.900000,130.900000Z" fill="url(#ejjazbk0ap0a5-fill)" stroke="none" stroke-width="1"/><path id="ejjazbk0ap0a6" d="M468.200000,285.600000C465.700000,331.100000,447.600000,372.400000,419.100000,404.200000L460.700000,445.800000C499.800000,403.300000,524.500000,347.400000,527,285.600000L468.200000,285.600000Z" fill="url(#ejjazbk0ap0a6-fill)" stroke="none" stroke-width="1"/><path id="ejjazbk0ap0a7" d="M81.800000,285.600000L23,285.600000C25.500000,347.300000,50.200000,403.200000,89.400000,445.800000L131,404.200000C102.400000,372.300000,84.300000,331,81.800000,285.600000Z" fill="url(#ejjazbk0ap0a7-fill)" stroke="none" stroke-width="1"/><path id="ejjazbk0ap0a8" d="M264.400000,468.200000C262.300000,468.100000,260.300000,468,258.200000,467.800000C215.100000,464.100000,176.100000,446.300000,145.800000,419.100000L104.200000,460.700000C145.200000,498.400000,198.700000,522.700000,257.800000,526.700000C260,526.800000,262.200000,527,264.400000,527.100000L264.400000,468.200000Z" fill="url(#ejjazbk0ap0a8-fill)" stroke="none" stroke-width="1"/><path id="ejjazbk0ap0a9" d="M404.100000,419.100000C375.600000,444.700000,339.400000,461.900000,299.500000,467C294.900000,467.600000,290.200000,468,285.500000,468.200000L285.500000,527C290,526.800000,294.600000,526.500000,299.100000,526.100000C355.400000,520.800000,406.300000,496.900000,445.700000,460.700000L404.100000,419.100000Z" fill="url(#ejjazbk0ap0a9-fill)" stroke="none" stroke-width="1"/><path id="ejjazbk0ap0a10" d="M81.800000,264.400000C84.300000,218.900000,102.400000,177.600000,130.900000,145.800000L89.300000,104.200000C50.200000,146.700000,25.500000,202.700000,23,264.400000L81.800000,264.400000Z" fill="url(#ejjazbk0ap0a10-fill)" stroke="none" stroke-width="1"/></g></g><g id="ejjazbk0ap0a11" opacity="0.5"><g id="ejjazbk0ap0a12"><g id="ejjazbk0ap0a13"><image id="ejjazbk0ap0a14" width="104" height="56" xlink:href="5D2D18A6.png" preserveAspectRatio="xMidYMid meet" transform="matrix(1 0 0 1 159.50000000000000 357)" opacity="0.1"/><g id="ejjazbk0ap0a15"><g id="ejjazbk0ap0a16"><path id="ejjazbk0ap0a17" d="M259.100000,389.300000C258.900000,386.300000,257.400000,383.400000,255.200000,381.400000C254.400000,380.800000,253.500000,380.300000,252.700000,379.700000C250.800000,378.800000,248.800000,378.400000,246.600000,378.500000L243.600000,379.100000C242.800000,379.400000,242.100000,379.700000,241.400000,380.100000C240.300000,377.300000,238.500000,374.800000,236.200000,372.800000C234.800000,371.900000,233.400000,370.900000,232,370C228.800000,368.400000,225.400000,367.800000,221.900000,368L217,369C216,367.600000,214.900000,366.400000,213.600000,365.300000C211.800000,364.100000,210.100000,363,208.300000,361.800000C204.300000,359.800000,200,359,195.600000,359.300000C193.500000,359.700000,191.500000,360.200000,189.400000,360.600000C185.400000,362,182,364.300000,179.100000,367.500000C176.500000,370.500000,174.700000,374,173.700000,377.800000C173.300000,377.800000,173,377.800000,172.600000,377.800000C171.600000,378,170.600000,378.200000,169.600000,378.400000C167.700000,379.100000,166,380.200000,164.700000,381.700000C162.600000,384.100000,161.600000,387.200000,161.800000,390.400000C162,393.400000,163.500000,396.300000,165.800000,398.300000C166.600000,398.900000,167.500000,399.400000,168.300000,400C170.200000,400.900000,172.300000,401.300000,174.400000,401.200000C175.400000,401,176.400000,400.800000,177.400000,400.600000C178,400.400000,178.600000,400.100000,179.200000,399.800000C179.900000,400.500000,180.500000,401.200000,181.300000,401.900000C183,403.100000,184.800000,404.300000,186.600000,405.400000C190.600000,407.400000,194.900000,408.200000,199.300000,407.900000C201.400000,407.500000,203.400000,407,205.500000,406.600000C208,405.700000,210.300000,404.500000,212.300000,402.900000C213.100000,403.400000,213.900000,404,214.800000,404.500000C218,406.100000,221.400000,406.700000,224.900000,406.500000C226.500000,406.200000,228.200000,405.800000,229.800000,405.500000C233,404.400000,235.700000,402.500000,237.900000,400C238.400000,399.500000,238.800000,398.900000,239.200000,398.300000C239.300000,398.400000,239.500000,398.600000,239.600000,398.700000C240.400000,399.300000,241.300000,399.800000,242.100000,400.400000C244,401.300000,246,401.700000,248.200000,401.600000L251.200000,401C253.100000,400.300000,254.700000,399.200000,256.100000,397.700000C258.300000,395.500000,259.300000,392.400000,259.100000,389.300000Z" fill="rgb(255,255,252)" stroke="none" stroke-width="1"/><path id="ejjazbk0ap0a18" d="M188.700000,366.600000C191.900000,362.700000,197.600000,361,202.400000,362.600000C207.200000,364.200000,210.800000,368.900000,211,374C208.700000,370.500000,205.100000,368.400000,201.200000,366.900000C197.300000,365.400000,192.800000,365.400000,188.700000,366.600000Z" fill="rgb(245,245,245)" stroke="none" stroke-width="1"/><path id="ejjazbk0ap0a19" d="M191.800000,389.600000C190.300000,392.400000,186.900000,394.200000,183.700000,393.800000C180.500000,393.400000,177.700000,390.900000,176.900000,387.800000C178.800000,389.700000,181.200000,390.600000,183.900000,391C186.600000,391.400000,189.400000,390.900000,191.800000,389.600000Z" fill="rgb(232,232,232)" stroke="none" stroke-width="1"/><path id="ejjazbk0ap0a20" d="M219.900000,387.500000C219.300000,390.700000,216.600000,393.400000,213.400000,394C210.200000,394.600000,206.700000,393,205,390.200000C207.400000,391.500000,210,391.600000,212.700000,391.200000C215.400000,390.800000,218,389.500000,219.900000,387.500000Z" fill="rgb(232,232,232)" stroke="none" stroke-width="1"/><path id="ejjazbk0ap0a21" d="M251.800000,393.300000C246.700000,393.300000,242,390.900000,238.800000,387.300000C235.900000,392.800000,230.100000,396.600000,223.600000,396.600000C219.300000,396.600000,215.300000,394.900000,212.300000,392.200000C209.200000,396.700000,204,399.700000,198.300000,399.700000C192.400000,399.700000,187.100000,396.500000,184,391.800000C181.700000,392.900000,179.300000,393.500000,176.700000,393.500000C171.100000,393.500000,165.700000,390.600000,162.600000,385.900000C162.100000,387.400000,161.900000,389,162,390.600000C162.200000,393.600000,163.700000,396.500000,166,398.500000C166.800000,399.100000,167.700000,399.600000,168.500000,400.200000C170.400000,401.100000,172.500000,401.500000,174.600000,401.400000C175.600000,401.200000,176.600000,401,177.600000,400.800000C178.200000,400.600000,178.800000,400.300000,179.400000,400C180.100000,400.700000,180.700000,401.400000,181.500000,402.100000C183.200000,403.300000,185,404.500000,186.800000,405.600000C190.800000,407.600000,195.100000,408.400000,199.500000,408.100000C201.600000,407.700000,203.600000,407.200000,205.700000,406.800000C208.200000,405.900000,210.500000,404.700000,212.500000,403.100000C213.300000,403.600000,214.100000,404.200000,215,404.700000C218.200000,406.300000,221.600000,406.900000,225.100000,406.700000C226.700000,406.400000,228.400000,406,230,405.700000C233.200000,404.600000,235.900000,402.700000,238.100000,400.200000C238.600000,399.700000,239,399.100000,239.400000,398.500000C239.500000,398.600000,239.700000,398.800000,239.800000,398.900000C240.600000,399.500000,241.500000,400,242.300000,400.600000C244.200000,401.500000,246.200000,401.900000,248.400000,401.800000L251.400000,401.200000C253.300000,400.500000,254.900000,399.400000,256.300000,397.900000C257.800000,396.200000,258.800000,394,259.100000,391.700000C256.800000,392.700000,254.400000,393.300000,251.800000,393.300000Z" fill="rgb(232,232,232)" stroke="none" stroke-width="1"/></g></g></g><g id="ejjazbk0ap0a22"><image id="ejjazbk0ap0a23" width="105" height="56" xlink:href="5D2D18A5.png" preserveAspectRatio="xMidYMid meet" transform="matrix(1 0 0 1 290.94299999999998 138.92500000000001)" opacity="0.1"/><g id="ejjazbk0ap0a24"><g id="ejjazbk0ap0a25"><path id="ejjazbk0ap0a26" d="M390.900000,171.300000C390.700000,168.300000,389.200000,165.400000,387,163.400000C386.200000,162.800000,385.300000,162.300000,384.500000,161.700000C382.600000,160.800000,380.600000,160.400000,378.400000,160.500000L375.400000,161.100000C374.600000,161.400000,373.900000,161.700000,373.200000,162.100000C372.100000,159.300000,370.300000,156.800000,368,154.800000C366.600000,153.900000,365.200000,152.900000,363.800000,152C360.600000,150.400000,357.200000,149.800000,353.700000,150L348.800000,151C347.800000,149.600000,346.700000,148.400000,345.400000,147.300000C343.600000,146.100000,341.900000,144.900000,340.100000,143.800000C336.100000,141.800000,331.800000,141,327.400000,141.300000C325.300000,141.700000,323.300000,142.200000,321.200000,142.600000C317.200000,144,313.800000,146.300000,310.900000,149.500000C308.300000,152.500000,306.500000,156,305.500000,159.800000C305.100000,159.800000,304.800000,159.800000,304.400000,159.800000C303.400000,160,302.400000,160.200000,301.400000,160.400000C299.500000,161.100000,297.800000,162.200000,296.500000,163.700000C294.400000,166.100000,293.400000,169.200000,293.600000,172.400000C293.800000,175.400000,295.300000,178.300000,297.600000,180.300000C298.400000,180.900000,299.300000,181.400000,300.100000,182C302,182.900000,304.100000,183.300000,306.200000,183.200000C307.200000,183,308.200000,182.800000,309.200000,182.600000C309.800000,182.400000,310.400000,182.100000,311,181.800000C311.700000,182.500000,312.300000,183.200000,313.100000,183.900000C314.800000,185.100000,316.600000,186.300000,318.400000,187.400000C322.400000,189.400000,326.700000,190.200000,331.100000,189.900000C333.200000,189.500000,335.200000,189,337.300000,188.600000C339.800000,187.700000,342.100000,186.500000,344.100000,184.900000C344.900000,185.400000,345.700000,186,346.600000,186.500000C349.800000,188.100000,353.200000,188.700000,356.700000,188.500000C358.300000,188.200000,360,187.800000,361.600000,187.500000C364.800000,186.400000,367.500000,184.500000,369.700000,182C370.200000,181.500000,370.600000,180.900000,371,180.300000C371.100000,180.400000,371.300000,180.600000,371.400000,180.700000C372.200000,181.300000,373.100000,181.800000,373.900000,182.400000C375.800000,183.300000,377.800000,183.700000,380,183.600000L383,183C384.900000,182.300000,386.500000,181.200000,387.900000,179.700000C390.100000,177.500000,391.200000,174.400000,390.900000,171.300000Z" fill="rgb(255,255,252)" stroke="none" stroke-width="1"/><path id="ejjazbk0ap0a27" d="M320.500000,148.600000C323.700000,144.700000,329.400000,143,334.200000,144.600000C339,146.200000,342.600000,150.900000,342.800000,156C340.500000,152.500000,336.900000,150.400000,333,148.900000C329.100000,147.400000,324.600000,147.400000,320.500000,148.600000Z" fill="rgb(245,245,245)" stroke="none" stroke-width="1"/><path id="ejjazbk0ap0a28" d="M323.600000,171.700000C322.100000,174.500000,318.700000,176.300000,315.500000,175.900000C312.300000,175.500000,309.500000,173,308.700000,169.900000C310.600000,171.800000,313,172.700000,315.700000,173.100000C318.400000,173.400000,321.300000,172.900000,323.600000,171.700000Z" fill="rgb(232,232,232)" stroke="none" stroke-width="1"/><path id="ejjazbk0ap0a29" d="M351.700000,169.600000C351.100000,172.800000,348.400000,175.500000,345.200000,176.100000C342,176.700000,338.500000,175.100000,336.800000,172.300000C339.200000,173.600000,341.800000,173.700000,344.500000,173.300000C347.200000,172.900000,349.800000,171.500000,351.700000,169.600000Z" fill="rgb(232,232,232)" stroke="none" stroke-width="1"/><path id="ejjazbk0ap0a30" d="M383.700000,175.300000C378.600000,175.300000,373.900000,172.900000,370.700000,169.300000C367.800000,174.800000,362,178.600000,355.500000,178.600000C351.200000,178.600000,347.200000,176.900000,344.200000,174.200000C341.100000,178.700000,335.900000,181.700000,330.200000,181.700000C324.300000,181.700000,319,178.500000,315.900000,173.800000C313.600000,174.900000,311.200000,175.500000,308.600000,175.500000C303,175.500000,297.600000,172.600000,294.500000,167.900000C294,169.400000,293.800000,171,293.900000,172.600000C294.100000,175.600000,295.600000,178.500000,297.900000,180.500000C298.700000,181.100000,299.600000,181.600000,300.400000,182.200000C302.300000,183.100000,304.400000,183.500000,306.500000,183.400000C307.500000,183.200000,308.500000,183,309.500000,182.800000C310.100000,182.600000,310.700000,182.300000,311.300000,182C312,182.700000,312.600000,183.400000,313.400000,184.100000C315.100000,185.300000,316.900000,186.500000,318.700000,187.600000C322.700000,189.600000,327,190.400000,331.400000,190.100000C333.500000,189.700000,335.500000,189.200000,337.600000,188.800000C340.100000,187.900000,342.400000,186.700000,344.400000,185.100000C345.200000,185.600000,346,186.200000,346.900000,186.700000C350.100000,188.300000,353.500000,188.900000,357,188.700000C358.600000,188.400000,360.300000,188,361.900000,187.700000C365.100000,186.600000,367.800000,184.700000,370,182.200000C370.500000,181.700000,370.900000,181.100000,371.300000,180.500000C371.400000,180.600000,371.600000,180.800000,371.700000,180.900000C372.500000,181.500000,373.400000,182,374.200000,182.600000C376.100000,183.500000,378.100000,183.900000,380.300000,183.800000L383.300000,183.200000C385.200000,182.500000,386.800000,181.400000,388.200000,179.900000C389.700000,178.200000,390.700000,176,391,173.700000C388.700000,174.700000,386.200000,175.300000,383.700000,175.300000Z" fill="rgb(232,232,232)" stroke="none" stroke-width="1"/></g></g></g><g id="ejjazbk0ap0a31"><image id="ejjazbk0ap0a32" width="104" height="68" xlink:href="5D2D18A2.png" preserveAspectRatio="xMidYMid meet" transform="matrix(1 0 0 1 300.50000000000000 335)" opacity="0.1"/><g id="ejjazbk0ap0a33"><g id="ejjazbk0ap0a34"><path id="ejjazbk0ap0a35" d="M400.200000,372.600000C399.700000,365.500000,393.600000,361.200000,386.900000,361.200000C386,361.200000,385.200000,361.300000,384.400000,361.500000C384.900000,359.900000,385.100000,358.200000,385,356.600000C384.400000,348.700000,377.700000,343.900000,370.100000,343.900000C365.800000,343.900000,362.100000,346.400000,359.800000,349.900000C358.700000,347.800000,357.200000,345.900000,355.300000,344.200000C353.700000,342.300000,351.800000,340.800000,349.400000,339.800000C347.400000,339,345.400000,338.100000,343.300000,337.800000C341.400000,337.600000,339.400000,337.500000,337.500000,337.500000C333.700000,337.800000,330.400000,339,327.200000,341.100000C322.600000,344.100000,319.400000,349.100000,318.400000,354.500000C318.400000,354.700000,318.300000,354.900000,318.300000,355.100000C312.700000,355.800000,307.600000,359.300000,305,364.500000C303.600000,367.300000,303,370.300000,303.300000,373.500000C303.400000,374,303.500000,374.400000,303.600000,374.900000C303.700000,375.600000,303.800000,376.200000,304,376.800000C304.100000,377.200000,304.100000,377.500000,304.200000,377.900000C305.100000,380.300000,306.400000,382.400000,308.200000,384.200000C308.400000,384.400000,308.500000,384.500000,308.700000,384.700000C308.900000,384.800000,309,385,309.200000,385.200000C309.200000,385.200000,309.300000,385.200000,309.300000,385.300000C309.400000,385.300000,309.400000,385.400000,309.500000,385.400000C310.500000,386.300000,311.700000,387.100000,312.900000,387.700000C312.900000,387.700000,313,387.800000,313,387.800000C313.800000,388.200000,314.700000,388.500000,315.500000,388.800000C315.600000,388.800000,315.700000,388.900000,315.900000,388.900000C316.400000,389,316.900000,389,317.400000,389.100000C317.400000,389.100000,317.400000,388.900000,317.400000,388.900000L317.400000,388.900000C317.900000,388.900000,318.400000,389.300000,318.900000,389.300000C319,389.300000,319.100000,389.400000,319.200000,389.400000C319.700000,389.400000,320.200000,389.500000,320.600000,389.500000C320.600000,389.500000,320.600000,389.500000,320.700000,389.500000C321.100000,389.500000,321.500000,389.500000,321.900000,389.500000C322,389.500000,322.100000,389.500000,322.100000,389.500000C322.400000,389.500000,322.800000,389.400000,323.100000,389.400000C323.300000,389.400000,323.500000,389.400000,323.600000,389.300000C324.300000,389.200000,325.100000,389,325.800000,388.700000C329.900000,396.200000,338.800000,401,347.500000,397.300000C347.700000,397.200000,347.800000,397.200000,348,397.100000C348.400000,396.900000,348.800000,396.700000,349.200000,396.500000C352.900000,395,356.100000,392.200000,358.100000,388.100000C358.400000,387.600000,358.600000,387,358.800000,386.400000C358.900000,386.400000,358.900000,386.500000,359,386.500000C361.900000,387.900000,365,388.500000,368.200000,388.300000C369.700000,388,371.200000,387.700000,372.700000,387.400000C375.400000,386.400000,377.700000,384.900000,379.700000,382.900000C382.100000,384.900000,385.400000,386.100000,388.800000,386.100000C395.500000,386,400.600000,379,400.200000,372.600000Z" fill="rgb(255,255,252)" stroke="none" stroke-width="1"/><path id="ejjazbk0ap0a36" d="M325.100000,356.100000C324.900000,350.800000,328.200000,345.600000,333.100000,343.600000C337.900000,341.500000,344,342.800000,347.600000,346.600000C343.400000,345.500000,339.200000,346.200000,335.100000,347.800000C331,349.400000,327.500000,352.500000,325.100000,356.100000Z" fill="rgb(245,245,245)" stroke="none" stroke-width="1"/><path id="ejjazbk0ap0a37" d="M337.800000,380.900000C336,384.300000,332,386.400000,328.100000,385.900000C324.300000,385.400000,320.900000,382.400000,320,378.700000C322.300000,381,325.200000,382,328.400000,382.500000C331.600000,383,335,382.400000,337.800000,380.900000Z" fill="rgb(232,232,232)" stroke="none" stroke-width="1"/><path id="ejjazbk0ap0a38" d="M400.200000,372.600000C400,370.100000,399.200000,368,397.800000,366.300000C394.900000,371.300000,389.500000,374.800000,383.400000,374.800000C380.400000,374.800000,377.500000,373.900000,375,372.500000C372.600000,377.300000,367.900000,380.900000,360.900000,380.900000C359.200000,380.900000,357.600000,380.700000,356.200000,380.300000C354.400000,386.300000,349.400000,391.200000,341.300000,391.200000C334.300000,391.200000,329.700000,387.600000,327.400000,382.800000C327.300000,382.800000,327.200000,382.900000,327.200000,382.900000C324.600000,384.400000,321.900000,385.100000,318.900000,385.200000C317.400000,385,316,384.800000,314.500000,384.600000C313.100000,384.100000,311.600000,383.700000,310.300000,382.800000C307.800000,381.300000,305.900000,379.400000,304.400000,376.900000C304.200000,376.700000,304.100000,376.400000,303.900000,376.200000C303.900000,376.400000,304,376.600000,304,376.800000C304.100000,377.200000,304.100000,377.500000,304.200000,377.900000C305.100000,380.300000,306.400000,382.400000,308.200000,384.200000C308.400000,384.400000,308.500000,384.500000,308.700000,384.700000C308.900000,384.800000,309,385,309.200000,385.200000C309.200000,385.200000,309.300000,385.200000,309.300000,385.300000C309.400000,385.300000,309.400000,385.400000,309.500000,385.400000C310.500000,386.300000,311.700000,387.100000,312.900000,387.700000C312.900000,387.700000,313,387.800000,313,387.800000C313.800000,388.200000,314.700000,388.500000,315.500000,388.800000C315.600000,388.800000,315.700000,388.900000,315.900000,388.900000C316.400000,389,316.900000,389.200000,317.400000,389.300000C317.400000,389.300000,317.400000,389.300000,317.400000,389.300000L317.400000,389.300000C317.900000,389.300000,318.400000,389.400000,318.900000,389.500000C319,389.500000,319.100000,389.500000,319.200000,389.500000C319.700000,389.500000,320.200000,389.600000,320.600000,389.600000C320.600000,389.600000,320.600000,389.600000,320.700000,389.600000C321.100000,389.600000,321.500000,389.600000,321.900000,389.600000C322,389.600000,322.100000,389.600000,322.100000,389.600000C322.400000,389.600000,322.800000,389.500000,323.100000,389.500000C323.300000,389.500000,323.500000,389.500000,323.600000,389.400000C324.300000,389.300000,325.100000,389.100000,325.800000,388.800000C329.900000,396.300000,338.800000,401.100000,347.500000,397.400000C347.700000,397.300000,347.800000,397.300000,348,397.200000C348.400000,397,348.800000,396.800000,349.200000,396.600000C352.900000,395.100000,356.100000,392.300000,358.100000,388.200000C358.400000,387.700000,358.600000,387.100000,358.800000,386.500000C358.900000,386.500000,358.900000,386.600000,359,386.600000C361.900000,388,365,388.600000,368.200000,388.400000C369.700000,388.100000,371.200000,387.800000,372.700000,387.500000C375.400000,386.500000,377.700000,385,379.700000,383C382.100000,385,385.400000,386.200000,388.800000,386.200000C395.500000,386,400.600000,379,400.200000,372.600000Z" fill="rgb(232,232,232)" stroke="none" stroke-width="1"/></g></g></g><g id="ejjazbk0ap0a39"><image id="ejjazbk0ap0a40" width="115" height="70" xlink:href="5D2D189E.png" preserveAspectRatio="xMidYMid meet" transform="matrix(1 0 0 1 131.37000000000000 160.17500000000001)" opacity="0.1"/><g id="ejjazbk0ap0a41"><g id="ejjazbk0ap0a42"><path id="ejjazbk0ap0a43" d="M241.600000,203.100000C240.800000,193.200000,232.500000,187.200000,223.200000,187.100000C223.500000,182,222.100000,177,219.300000,172.700000C215.900000,167.600000,210.500000,164,204.400000,162.900000C198.400000,161.700000,192,163,186.900000,166.500000C183.300000,169,181.100000,171.700000,179,175.500000C179,175.600000,178.900000,175.600000,178.900000,175.700000C178.600000,176.300000,178.300000,176.800000,178.100000,177.300000C173,175.700000,167.500000,175.800000,162.500000,177.500000C155.800000,179.800000,150.500000,185,147.800000,191.500000C147.200000,191.400000,146.600000,191.400000,145.900000,191.400000C138.700000,191.400000,133.300000,198.800000,133.800000,205.500000C134.400000,213.100000,140.800000,217.600000,147.900000,217.600000C149.200000,217.600000,150.500000,217.300000,151.700000,216.900000C153.900000,219.500000,156.500000,221.600000,159.600000,223.100000C162.500000,224.900000,169.300000,226.300000,172.800000,225.700000L179,224.400000C181.500000,223.500000,183.800000,222.300000,185.900000,220.700000C189.700000,223.400000,194.300000,224.700000,199,224.400000C204.300000,224,209.300000,221.400000,212.700000,217.400000C216.100000,220.300000,220.800000,222,225.700000,222C235.100000,221.800000,242.300000,212,241.600000,203.100000Z" fill="rgb(255,255,252)" stroke="none" stroke-width="1"/><path id="ejjazbk0ap0a44" d="M192.700000,169.600000C196.400000,165.800000,202.400000,164.600000,207.300000,166.700000C212.100000,168.800000,215.400000,174,215.200000,179.300000C213.100000,175.500000,209.700000,173,205.700000,171.100000C201.700000,169.200000,197,168.800000,192.700000,169.600000Z" fill="rgb(245,245,245)" stroke="none" stroke-width="1"/><path id="ejjazbk0ap0a45" d="M194.500000,209.300000C193,213.100000,189,215.700000,184.900000,215.600000C180.800000,215.500000,176.900000,212.700000,175.600000,208.900000C178.200000,211.100000,181.400000,211.800000,184.800000,212C188.100000,212.200000,191.600000,211.100000,194.500000,209.300000Z" fill="rgb(232,232,232)" stroke="none" stroke-width="1"/><path id="ejjazbk0ap0a46" d="M226.200000,215.400000C219.400000,215.400000,213.400000,211.300000,210.600000,205.400000C208,211.700000,201.800000,216.300000,194.600000,216.300000C190.600000,216.300000,186.800000,214.800000,183.900000,212.500000C180.800000,217,175.600000,220.100000,169.800000,220.100000C162.400000,220.100000,156,215.200000,153.700000,208.600000C151.600000,209.500000,149.300000,210.100000,146.900000,210.100000C141.800000,210.100000,137.100000,207.700000,133.900000,204C133.900000,204.500000,133.900000,205.100000,133.900000,205.600000C134.500000,213.200000,140.900000,217.700000,148,217.700000C149.300000,217.700000,150.600000,217.400000,151.800000,217C154,219.600000,156.600000,221.700000,159.700000,223.200000C162.600000,225,169.400000,226.400000,172.900000,225.800000L179.100000,224.500000C181.600000,223.600000,183.900000,222.400000,186,220.800000C189.800000,223.500000,194.400000,224.800000,199.100000,224.500000C204.400000,224.100000,209.400000,221.500000,212.800000,217.500000C216.200000,220.400000,220.900000,222.100000,225.800000,222.100000C234.300000,222.100000,240.900000,214.300000,241.800000,206.300000C238.700000,211.500000,232.800000,215.400000,226.200000,215.400000Z" fill="rgb(232,232,232)" stroke="none" stroke-width="1"/></g></g></g></g><g id="ejjazbk0ap0a47_tr" transform="translate(275.026070,275.311172) rotate(0)"><g id="ejjazbk0ap0a47" transform="translate(-275.026070,-275.311172)"><g id="ejjazbk0ap0a48"><path id="ejjazbk0ap0a49" d="M394.900000,248.900000C395,248.800000,395,248.800000,395.100000,248.700000C391.400000,245.300000,389.400000,240.400000,390,235.200000C390.100000,234.500000,390.300000,233.600000,390.600000,232.600000C390.300000,232.700000,389.900000,232.700000,389.600000,232.800000C373.800000,235.500000,339.900000,255.200000,310.500000,273.700000C316.700000,274,320.700000,274.300000,321.600000,274.300000C322,274.300000,322.300000,274.400000,322.600000,274.400000C326.200000,274.800000,328.600000,276.100000,329.100000,278.100000C329.300000,279,329.400000,280.700000,327,282.600000C323.200000,285.600000,299.100000,301.900000,291.100000,303.500000C290.200000,303.700000,287.300000,303.800000,273.400000,302.100000C273.400000,302.100000,273.400000,302.100000,273.400000,302.100000C271.800000,301.900000,270.100000,301.700000,268.300000,301.500000C262.600000,305.400000,259.100000,307.800000,258.900000,308C257.800000,308.700000,256.600000,308.600000,258.500000,307.100000C258.800000,306.900000,261.800000,304.700000,266.700000,301.300000C264.600000,301,262.400000,300.700000,260,300.400000C256.100000,303.200000,252.500000,305.700000,249.400000,307.900000L248.900000,308.200000L248.400000,307.900000C244.500000,305.700000,238.900000,303.200000,236.200000,302.100000C235.800000,301.900000,235.300000,301.800000,234.800000,301.800000C232.500000,301.500000,230.400000,302.400000,230.200000,302.900000C230.400000,303.600000,231.900000,306.600000,233.700000,309.600000C240.400000,310.500000,245.800000,311.500000,245.900000,312.500000C246,314.900000,239.400000,318.900000,236.100000,319.300000C236,319.700000,236.100000,320.100000,236.200000,320.400000C236.300000,320.800000,236.600000,321.200000,237.100000,321.600000C250.800000,320.200000,278.800000,315.800000,304.200000,302.600000C339.500000,284.400000,388.800000,254.400000,394.900000,248.900000Z" fill="rgb(255,255,255)" stroke="none" stroke-width="1"/><path id="ejjazbk0ap0a50" d="M396.500000,247.500000C400.600000,244.200000,406.400000,239.900000,405.900000,233.100000C404.300000,231.300000,401.700000,229.900000,398.200000,228.900000C397.200000,228.600000,396.300000,228.400000,395.500000,228.200000C393.800000,229.500000,392.200000,233.200000,391.900000,235.400000C391.300000,240.100000,393.100000,244.500000,396.500000,247.500000Z" fill="rgb(255,255,255)" stroke="none" stroke-width="1"/><path id="ejjazbk0ap0a51" d="M326.200000,262.200000C326.300000,261,326.400000,259.900000,326.500000,259L329,257.400000C328.900000,258.400000,328.800000,259.500000,328.700000,260.700000C329.400000,260.300000,330,259.900000,330.700000,259.500000C330.800000,258.200000,330.900000,257,331.100000,256.100000L333.600000,254.500000C333.500000,255.600000,333.400000,256.700000,333.400000,257.900000C334,257.500000,334.700000,257.100000,335.300000,256.700000C335.400000,255.400000,335.500000,254.200000,335.600000,253.200000L338.100000,251.600000C338,252.700000,337.900000,253.900000,337.800000,255.200000C338.500000,254.800000,339.100000,254.400000,339.700000,254.100000C339.800000,252.700000,339.900000,251.400000,340.100000,250.400000L342.600000,248.800000C342.500000,249.900000,342.300000,251.300000,342.300000,252.700000C343,252.300000,343.600000,251.900000,344.300000,251.600000C344.400000,250,344.600000,248.600000,344.700000,247.600000L348,245.500000L347.500000,249.800000C364.600000,240.200000,380,232.800000,389.400000,231.200000C390.100000,231.100000,390.800000,231,391.500000,230.900000C391.500000,231,391.400000,231.100000,391.400000,231.200000C391.800000,230.200000,392.300000,229.300000,392.800000,228.600000C387.700000,229.300000,382,230.700000,378.300000,231.800000C378.100000,230.200000,378,228.600000,377.900000,227.200000C379.200000,226.800000,380.600000,226.500000,382,226.200000C371.300000,225.900000,361.200000,229.300000,350.700000,236.700000C342.200000,242.600000,320.700000,257.700000,298.700000,273.200000C302.200000,273.400000,305.400000,273.600000,308.200000,273.700000C313.900000,269.800000,320,265.900000,326.200000,262.200000ZM371.400000,230.200000C372.600000,229.200000,374.100000,228.300000,375.900000,227.600000C376,229,376.100000,230.600000,376.300000,232.100000C372.400000,233.400000,369.900000,234.500000,369.900000,234.500000L371.400000,230.200000Z" fill="rgb(255,255,255)" stroke="none" stroke-width="1"/><path id="ejjazbk0ap0a52" d="M413.400000,307.200000C412.700000,306.800000,411.500000,306.300000,409.900000,305.500000C409.100000,306.300000,408.200000,307.200000,407.100000,308.100000C407,308.200000,406.900000,308.200000,406.900000,308.300000C411.700000,310.100000,416.100000,311.800000,419.800000,313.300000C418.800000,311.200000,416.400000,308.800000,413.400000,307.200000Z" fill="rgb(255,255,255)" stroke="none" stroke-width="1"/><path id="ejjazbk0ap0a53" d="M356.300000,283.700000C355.900000,283.600000,355.400000,283.500000,355,283.400000C352.100000,285.200000,349.100000,287,346.100000,288.800000C346.500000,288.900000,346.900000,289,347.300000,289.200000C352.100000,290.600000,358.900000,292.700000,366.400000,295C367.500000,293,369,290.900000,370.800000,288.700000C365.200000,286.500000,360,284.700000,356.300000,283.700000Z" fill="rgb(255,255,255)" stroke="none" stroke-width="1"/><path id="ejjazbk0ap0a54" d="M391.700000,297.300000C390.800000,298.100000,389.900000,299,388.900000,299.800000C388.200000,300.400000,387.500000,300.900000,386.900000,301.400000C388.900000,302,390.800000,302.700000,392.800000,303.300000C393.700000,302,394.700000,300.600000,396.100000,299.100000C394.500000,298.600000,393.100000,298,391.700000,297.300000Z" fill="rgb(255,255,255)" stroke="none" stroke-width="1"/><path id="ejjazbk0ap0a55" d="M389.800000,296.500000C390.100000,296.300000,390.300000,296,390.500000,295.800000C390.700000,295.600000,391,295.300000,391.200000,295.100000C394,292.200000,395.600000,289.600000,396.500000,287.800000C396,287.900000,395.500000,287.900000,394.900000,287.900000C393.100000,287.700000,391.200000,286.600000,389.700000,284.900000C388.400000,283.500000,387.600000,281.900000,387.300000,280.300000C387.200000,279.400000,387.200000,278.600000,387.400000,277.800000C384.800000,278.800000,380.600000,280.900000,376,285.600000C375.300000,286.400000,374.600000,287.100000,373.900000,287.800000C373.700000,288.100000,373.400000,288.300000,373.200000,288.600000C373,288.900000,372.800000,289.100000,372.600000,289.300000C370.800000,291.400000,369.300000,293.500000,368.200000,295.400000C365.600000,299.900000,365,303.600000,366.800000,305.600000C367.500000,306.300000,368.400000,306.800000,369.500000,306.900000L369.500000,306.900000C373,307.300000,378.300000,305.100000,384.400000,300.600000C385.400000,299.900000,386.400000,299.100000,387.400000,298.300000C388.400000,297.800000,389.100000,297.100000,389.800000,296.500000Z" fill="rgb(255,255,255)" stroke="none" stroke-width="1"/><path id="ejjazbk0ap0a56" d="M408.800000,304C409,303.800000,409.200000,303.500000,409.400000,303.300000C410.300000,302.200000,411,301.100000,411.400000,300.300000C411.200000,300.300000,411,300.300000,410.800000,300.300000C409.600000,300.100000,408.300000,299.400000,407.300000,298.300000C406.100000,296.900000,405.500000,295.300000,405.700000,294C404.100000,294.700000,401.700000,296,399.100000,298.600000C399,298.700000,398.900000,298.800000,398.800000,298.900000C398.700000,299,398.500000,299.200000,398.400000,299.300000C398.200000,299.500000,397.900000,299.800000,397.700000,300C396.400000,301.400000,395.300000,302.800000,394.500000,304C392,307.700000,391.700000,310.300000,392.800000,311.500000C393.200000,311.900000,393.700000,312.200000,394.400000,312.300000L394.400000,312.300000C396.800000,312.600000,400.500000,310.900000,404.800000,307.600000C405.200000,307.300000,405.600000,307,405.900000,306.700000C406.700000,306,407.400000,305.400000,408.100000,304.700000C408.300000,304.500000,408.500000,304.200000,408.800000,304Z" fill="rgb(255,255,255)" stroke="none" stroke-width="1"/><path id="ejjazbk0ap0a57" d="M277.500000,281.100000C279.400000,281.200000,281.400000,281.400000,283.300000,281.600000C283.800000,281.600000,284.300000,281.700000,284.700000,281.700000C285.200000,281.700000,285.700000,281.800000,286.200000,281.800000C289,282,291.700000,282.300000,294.300000,282.500000C295,282.600000,295.800000,282.600000,296.500000,282.700000C305.600000,283.500000,313.600000,284.400000,319.800000,285.400000C322.700000,283.400000,325,281.800000,325.900000,281.100000C326.600000,280.600000,327.700000,279.600000,327.400000,278.600000C327.200000,277.700000,325.700000,276.700000,322.500000,276.300000C322.200000,276.300000,321.900000,276.200000,321.600000,276.200000C317.300000,276,312.700000,275.700000,307.900000,275.400000C307.100000,275.400000,306.300000,275.300000,305.400000,275.300000C302.400000,275.100000,299.300000,275,296.100000,274.800000C295.600000,274.800000,295.100000,274.700000,294.600000,274.700000C294.100000,274.700000,293.600000,274.600000,293.100000,274.600000C290.100000,274.400000,287,274.300000,283.900000,274.100000C282.300000,276.300000,280.200000,278.700000,277.500000,281.100000Z" fill="rgb(255,255,255)" stroke="none" stroke-width="1"/><path id="ejjazbk0ap0a58" d="M138.700000,269.100000C135.900000,270.100000,133.500000,271.800000,131.800000,273.500000C145.800000,274,172.200000,275.100000,201.500000,276.500000C202.100000,274.600000,203.200000,272.500000,204.600000,270.300000C169.600000,268.900000,141.600000,268.100000,138.700000,269.100000Z" fill="rgb(255,255,255)" stroke="none" stroke-width="1"/><path id="ejjazbk0ap0a59" d="M251.100000,272.500000C244.700000,272.200000,238.200000,271.900000,231.800000,271.600000C230.300000,273.400000,228.400000,275.400000,225.900000,277.500000C225.700000,277.600000,225.600000,277.800000,225.400000,277.900000C232.700000,278.300000,239.900000,278.700000,247.100000,279.200000C248.100000,277,249.400000,274.800000,251.100000,272.500000Z" fill="rgb(255,255,255)" stroke="none" stroke-width="1"/><path id="ejjazbk0ap0a60" d="M248.400000,290.500000C249.300000,291.400000,250.400000,292,251.900000,292.200000C257,292.800000,265.100000,288.900000,274.300000,281.500000C274.500000,281.300000,274.700000,281.200000,274.900000,281C277.800000,278.600000,280,276.200000,281.600000,274.100000C281.800000,273.800000,282.100000,273.500000,282.300000,273.200000C282.500000,272.900000,282.700000,272.600000,282.900000,272.300000C284.100000,270.600000,284.900000,269.100000,285.400000,268C284.700000,268.200000,283.900000,268.300000,283,268.200000C280.800000,267.900000,278.500000,266.600000,276.700000,264.600000C275.200000,262.900000,274.100000,260.900000,273.800000,259C273.600000,257.700000,273.700000,256.600000,274.100000,255.600000C270.900000,256.800000,265.500000,259.400000,259.600000,265.400000C257.800000,267.200000,256.100000,269.100000,254.700000,270.800000C254.500000,271.100000,254.200000,271.400000,254,271.700000C253.800000,272,253.500000,272.300000,253.300000,272.600000C251.500000,274.900000,250.100000,277.100000,249.100000,279.200000C246.600000,284.100000,246.200000,288.100000,248.400000,290.500000Z" fill="rgb(255,255,255)" stroke="none" stroke-width="1"/><path id="ejjazbk0ap0a61" d="M230.200000,270.600000C230.500000,270.300000,230.700000,270,230.900000,269.700000C232.200000,268,233.100000,266.400000,233.700000,265.300000C233.200000,265.400000,232.600000,265.400000,232,265.400000C230.200000,265.200000,228.300000,264.100000,226.800000,262.400000C225.500000,261,224.700000,259.300000,224.400000,257.700000C224.300000,256.800000,224.300000,255.900000,224.600000,255.200000C222,256.200000,217.700000,258.400000,213,263.100000C211.100000,265,209.500000,266.900000,208.100000,268.700000C207.900000,269,207.600000,269.300000,207.400000,269.600000C207.200000,269.900000,207,270.200000,206.800000,270.500000C205.200000,272.700000,204.100000,274.800000,203.400000,276.700000C202.300000,279.600000,202.400000,282,203.700000,283.400000C204.400000,284.100000,205.300000,284.600000,206.500000,284.700000L206.500000,284.700000C210.200000,285.200000,216,282.600000,222.500000,277.700000C223.200000,277.200000,223.900000,276.600000,224.700000,276C226.600000,274.500000,228.200000,272.900000,229.400000,271.500000C229.700000,271.200000,230,270.900000,230.200000,270.600000Z" fill="rgb(255,255,255)" stroke="none" stroke-width="1"/></g><g id="ejjazbk0ap0a62"><path id="ejjazbk0ap0a63" d="M414.200000,305.600000C413.700000,305.300000,412.600000,304.800000,411.100000,304.100000C413.400000,301.200000,414,298.900000,414,298.800000L414.100000,298.500000L413.900000,298.200000C413.900000,298.200000,413.900000,298.200000,413.900000,298.200000C414.100000,296.900000,413.600000,295.200000,412.300000,293.800000C411.300000,292.700000,410,292,408.800000,291.800000C408.600000,291.800000,408.300000,291.800000,408.100000,291.800000C408.100000,291.800000,408.100000,291.800000,408,291.800000L407.700000,291.600000L407.400000,291.700000C407.200000,291.700000,402.600000,292.500000,397.400000,297.700000C397.300000,297.800000,397.300000,297.900000,397.200000,297.900000C395.800000,297.300000,394.500000,296.700000,393,296.100000C398.100000,290.700000,399.200000,286.200000,399.300000,286L399.400000,285.700000L399.200000,285.400000C399.200000,285.400000,399.200000,285.400000,399.200000,285.400000C399.700000,283.400000,398.900000,280.800000,396.900000,278.600000C395.400000,276.900000,393.500000,275.900000,391.700000,275.600000C391.200000,275.500000,390.700000,275.500000,390.300000,275.600000C390.300000,275.600000,390.300000,275.600000,390.300000,275.600000L390,275.400000L389.700000,275.500000C389.400000,275.500000,382.600000,276.600000,374.700000,284.600000C373.800000,285.600000,372.900000,286.500000,372.100000,287.400000C367,285.400000,362.200000,283.700000,358.400000,282.600000C384.300000,266.600000,404.300000,252,407.100000,247.400000C408.700000,244.800000,411,239.800000,409.100000,235.200000C407.700000,231.600000,404.200000,229,398.600000,227.400000C393.900000,226.100000,390.200000,225.300000,386.600000,224.800000C373.700000,223.200000,361.900000,226.500000,349.400000,235.200000C340.700000,241.300000,318.100000,257.100000,295.500000,273.100000C292.200000,272.900000,288.800000,272.700000,285.100000,272.600000C287.600000,268.800000,288.300000,266.100000,288.300000,265.900000L288.400000,265.600000L288.200000,265.300000C288.400000,264.500000,288.500000,263.500000,288.300000,262.500000C288,260.600000,287,258.600000,285.400000,256.900000C283.600000,254.900000,281.300000,253.600000,279.100000,253.300000C278.400000,253.200000,277.800000,253.200000,277.300000,253.400000L277,253.200000L276.700000,253.300000C276.300000,253.400000,268,254.700000,258.300000,264.500000C256.100000,266.800000,254.100000,269,252.400000,271.100000C246.100000,270.800000,239.600000,270.500000,233.100000,270.200000C235.700000,266.500000,236.400000,263.800000,236.500000,263.700000L236.600000,263.400000L236.400000,263.100000L236.400000,263.100000C236.900000,261.100000,236.100000,258.400000,234.100000,256.200000C232.600000,254.500000,230.700000,253.400000,228.900000,253.200000C228.400000,253.100000,227.900000,253.100000,227.500000,253.200000C227.500000,253.200000,227.500000,253.200000,227.500000,253.200000L227.200000,253L226.900000,253.100000C226.600000,253.100000,219.700000,254.300000,211.700000,262.300000C209.400000,264.600000,207.400000,266.900000,205.900000,269.100000C171.200000,267.600000,141.300000,266.800000,138.100000,267.900000C132.400000,269.900000,127.600000,274.800000,127.900000,278.300000C128,279.200000,128.500000,280.900000,131.200000,281.400000C136,282.200000,212.200000,294.300000,257.500000,300.500000C254.400000,302.700000,251.600000,304.700000,249,306.500000C245.100000,304.300000,239.700000,302,237.100000,300.900000C236.500000,300.700000,235.900000,300.500000,235.200000,300.400000C233,300.100000,230.400000,300.700000,229.200000,301.800000C228.600000,302.400000,228.400000,303,228.400000,303.300000C228.400000,304.100000,229.800000,306.800000,231.400000,309.700000C221.600000,308.500000,210,307.700000,208.300000,307.600000C205.200000,307.400000,200.900000,309.600000,200.500000,311.300000C200.100000,312.800000,227.600000,318.600000,234.200000,319.600000C234.100000,320.200000,234.200000,320.800000,234.400000,321.400000C235.200000,323.800000,238.200000,325.300000,243.200000,325.900000C243.200000,325.900000,243.200000,325.900000,243.200000,325.900000C244.800000,326.100000,246.600000,326.200000,248.500000,326.200000C263,326.400000,280.800000,324.200000,311.500000,309.200000C314.200000,310,320.300000,311.100000,334.200000,312.800000C364.800000,316.500000,413.100000,320.500000,417.800000,319.900000C421.100000,319.500000,421.900000,317.600000,422.100000,316.500000C422.700000,312.800000,419.100000,308,414.200000,305.600000ZM236.200000,320.400000C236.100000,320,236.100000,319.700000,236.100000,319.300000C239.400000,318.900000,246,314.800000,245.900000,312.500000C245.900000,311.500000,240.500000,310.500000,233.700000,309.600000C231.900000,306.600000,230.300000,303.600000,230.200000,302.900000C230.500000,302.400000,232.600000,301.500000,234.800000,301.800000C235.300000,301.900000,235.800000,302,236.200000,302.100000C238.900000,303.200000,244.500000,305.700000,248.400000,307.900000L248.900000,308.200000L249.400000,307.900000C252.500000,305.700000,256,303.200000,260,300.400000C262.300000,300.700000,264.500000,301,266.700000,301.300000C261.800000,304.700000,258.800000,306.800000,258.500000,307.100000C256.700000,308.500000,257.800000,308.700000,258.900000,308C259.100000,307.900000,262.600000,305.400000,268.300000,301.500000C270.100000,301.700000,271.800000,301.900000,273.400000,302.100000C273.400000,302.100000,273.400000,302.100000,273.400000,302.100000C287.300000,303.800000,290.100000,303.700000,291.100000,303.500000C299.100000,301.900000,323.100000,285.600000,327,282.600000C329.400000,280.700000,329.400000,279,329.100000,278.100000C328.600000,276.200000,326.300000,274.900000,322.600000,274.400000C322.300000,274.400000,321.900000,274.300000,321.600000,274.300000C320.600000,274.200000,316.600000,274,310.500000,273.700000C339.800000,255.200000,373.800000,235.500000,389.600000,232.800000C389.900000,232.700000,390.300000,232.700000,390.600000,232.600000C390.300000,233.500000,390.100000,234.400000,390,235.200000C389.400000,240.400000,391.400000,245.300000,395.100000,248.700000C395,248.800000,395,248.800000,394.900000,248.900000C388.800000,254.400000,339.500000,284.400000,304.300000,302.600000C278.900000,315.800000,250.900000,320.100000,237.200000,321.600000C236.700000,321.200000,236.400000,320.800000,236.200000,320.400000ZM204.600000,270.300000C203.100000,272.500000,202.100000,274.600000,201.500000,276.500000C172.200000,275,145.800000,274,131.800000,273.500000C133.400000,271.800000,135.900000,270.100000,138.700000,269.100000C141.600000,268.100000,169.600000,268.900000,204.600000,270.300000ZM208.100000,268.600000C209.500000,266.800000,211.100000,264.900000,213,263C217.700000,258.300000,222,256.100000,224.600000,255.100000C224.400000,255.800000,224.300000,256.700000,224.400000,257.600000C224.700000,259.200000,225.500000,260.900000,226.800000,262.300000C228.300000,264,204.400000,284.100000,203.700000,283.300000C202.400000,281.800000,202.300000,279.500000,203.400000,276.600000C204.100000,274.700000,205.200000,272.600000,206.800000,270.400000C207,270.100000,207.200000,269.800000,207.400000,269.500000C207.700000,269.200000,207.900000,268.900000,208.100000,268.600000ZM254.800000,270.800000C256.300000,269,257.900000,267.200000,259.700000,265.400000C265.600000,259.400000,271.100000,256.700000,274.200000,255.600000C273.800000,256.500000,273.700000,257.700000,273.900000,259C274.200000,260.900000,275.200000,262.900000,276.800000,264.600000C278.600000,266.600000,249.200000,291.500000,248.400000,290.500000C246.300000,288.200000,246.600000,284.200000,249.200000,279.200000C250.200000,277.100000,251.700000,274.900000,253.400000,272.600000C253.600000,272.300000,253.900000,272,254.100000,271.700000C254.300000,271.400000,254.500000,271.100000,254.800000,270.800000ZM381.800000,226.100000C380.400000,226.400000,379,226.700000,377.700000,227.100000C377.800000,228.500000,377.900000,230.100000,378.100000,231.700000C381.800000,230.600000,387.400000,229.200000,392.600000,228.500000C392.100000,229.200000,391.600000,230.100000,391.200000,231.100000C391.200000,231,391.300000,230.900000,391.300000,230.800000C390.600000,230.900000,389.900000,231,389.200000,231.100000C379.800000,232.700000,364.400000,240.100000,347.300000,249.700000L347.800000,245.400000L344.500000,247.500000C344.400000,248.500000,344.200000,249.900000,344.100000,251.500000C343.400000,251.900000,342.800000,252.200000,342.100000,252.600000C342.200000,251.200000,342.300000,249.900000,342.400000,248.700000L339.900000,250.300000C339.800000,251.300000,339.600000,252.700000,339.500000,254C338.900000,254.400000,338.200000,254.800000,337.600000,255.100000C337.700000,253.900000,337.800000,252.600000,337.900000,251.500000L335.400000,253.100000C335.300000,254.100000,335.200000,255.300000,335.100000,256.600000C334.500000,257,333.800000,257.400000,333.200000,257.800000C333.300000,256.600000,333.300000,255.500000,333.400000,254.400000L330.900000,256C330.800000,256.900000,330.700000,258.100000,330.500000,259.400000C329.800000,259.800000,329.200000,260.200000,328.500000,260.600000C328.600000,259.400000,328.700000,258.300000,328.800000,257.300000L326.300000,258.900000C326.200000,259.800000,326.100000,260.900000,326,262.100000C319.900000,265.900000,313.700000,269.700000,307.800000,273.500000C305,273.300000,301.800000,273.200000,298.300000,273C320.300000,257.500000,341.800000,242.400000,350.300000,236.500000C361.100000,229.100000,371.100000,225.800000,381.800000,226.100000ZM398.200000,228.900000C401.700000,229.900000,404.300000,231.300000,405.900000,233.100000C406.400000,239.900000,400.600000,244.200000,396.500000,247.500000C393.100000,244.500000,391.300000,240.100000,391.800000,235.400000C392.100000,233.200000,393.800000,229.400000,395.400000,228.200000C396.300000,228.400000,397.200000,228.700000,398.200000,228.900000ZM374,287.900000C374.700000,287.200000,375.400000,286.400000,376.100000,285.700000C380.700000,281,384.900000,278.900000,387.500000,277.900000C387.300000,278.600000,387.200000,279.400000,387.400000,280.400000C387.700000,282,388.500000,283.600000,389.800000,285C391.300000,286.700000,367.700000,306.500000,367,305.800000C365.200000,303.800000,365.800000,300.100000,368.400000,295.600000C369.500000,293.700000,371,291.600000,372.800000,289.500000C373,289.300000,373.200000,289,373.400000,288.800000C373.600000,288.400000,373.800000,288.200000,374,287.900000ZM398.800000,298.800000C398.900000,298.700000,399,298.600000,399.100000,298.500000C401.700000,295.900000,404.100000,294.600000,405.700000,293.900000C405.500000,295.200000,406.100000,296.800000,407.300000,298.200000C408.300000,299.300000,393.200000,311.900000,392.800000,311.400000C391.700000,310.200000,392,307.600000,394.500000,303.900000C395.300000,302.700000,396.400000,301.300000,397.700000,299.900000C397.900000,299.700000,398.200000,299.400000,398.400000,299.200000C398.500000,299.100000,398.700000,299,398.800000,298.800000ZM392.700000,303.400000C390.800000,302.700000,388.800000,302.100000,386.800000,301.500000C387.500000,301,388.100000,300.500000,388.800000,299.900000C389.800000,299.100000,390.800000,298.200000,391.600000,297.400000C393,298,394.500000,298.700000,395.800000,299.300000C394.600000,300.700000,393.500000,302.100000,392.700000,303.400000ZM366.500000,295C358.900000,292.600000,352.200000,290.600000,347.400000,289.200000C347,289.100000,346.600000,289,346.200000,288.800000C349.200000,287,352.200000,285.200000,355.100000,283.400000C355.500000,283.500000,355.900000,283.600000,356.400000,283.700000C360.100000,284.700000,365.300000,286.500000,371,288.700000C369,290.900000,367.600000,293,366.500000,295ZM296.100000,274.800000C299.300000,275,302.300000,275.100000,305.400000,275.300000C306.200000,275.300000,307.100000,275.400000,307.900000,275.400000C312.700000,275.700000,317.300000,275.900000,321.600000,276.200000C321.900000,276.200000,322.200000,276.300000,322.500000,276.300000C325.800000,276.700000,327.200000,277.700000,327.400000,278.600000C327.700000,279.600000,326.600000,280.600000,325.900000,281.100000C325,281.800000,322.700000,283.400000,319.800000,285.400000C313.600000,284.500000,305.600000,283.600000,296.500000,282.700000C295.800000,282.600000,295.100000,282.600000,294.300000,282.500000C291.700000,282.300000,289,282,286.200000,281.800000C285.700000,281.800000,285.200000,281.700000,284.700000,281.700000C284.200000,281.700000,283.700000,281.600000,283.300000,281.600000C281.400000,281.400000,279.500000,281.300000,277.500000,281.100000C280.300000,278.600000,282.300000,276.300000,283.900000,274.100000C287,274.300000,290.100000,274.400000,293.100000,274.600000C293.600000,274.600000,294.100000,274.700000,294.600000,274.700000C295.100000,274.700000,295.600000,274.800000,296.100000,274.800000ZM247.100000,279.100000C239.900000,278.700000,232.700000,278.200000,225.400000,277.800000C225.600000,277.700000,225.700000,277.500000,225.900000,277.400000C228.400000,275.400000,230.300000,273.400000,231.800000,271.500000C238.200000,271.800000,244.600000,272.100000,251.100000,272.400000C249.400000,274.800000,248.100000,277,247.100000,279.100000ZM406.900000,308.300000C407,308.200000,407.100000,308.200000,407.100000,308.100000C408.200000,307.200000,409.100000,306.400000,409.900000,305.500000C411.500000,306.200000,412.700000,306.800000,413.400000,307.200000C416.500000,308.700000,418.800000,311.200000,419.800000,313.300000C416.100000,311.800000,411.700000,310.100000,406.900000,308.300000Z" fill="rgb(61,51,146)" stroke="none" stroke-width="1"/><path id="ejjazbk0ap0a64" d="M375.900000,227.700000C374.200000,228.400000,372.600000,229.200000,371.400000,230.300000L369.900000,234.700000C369.900000,234.700000,372.400000,233.600000,376.300000,232.300000C376.100000,230.700000,376,229.100000,375.900000,227.700000Z" fill="rgb(61,51,146)" stroke="none" stroke-width="1"/></g></g></g></g><g id="ejjazbk0ap0a65" opacity="0"><path id="ejjazbk0ap0a66" d="M246.500000,268.700000C252.200000,261.500000,255.600000,252.400000,255.700000,242.500000C255.800000,218.900000,236.800000,199.600000,213.200000,199.400000L155.600000,199L155.400000,222.800000L179.200000,223L192.500000,223.100000L213,223.200000C223.500000,223.300000,231.900000,231.900000,231.900000,242.300000C231.800000,252.800000,223.200000,261.200000,212.800000,261.200000L194.900000,261.100000L179,261L179.200000,227.300000L155.400000,227.100000L155,284.600000L155,284.600000L154.600000,346.400000L178.400000,346.600000L178.600000,322.800000L178.600000,316L178.800000,284.800000L222.500000,285.100000C233,285.200000,241.400000,293.800000,241.400000,304.200000C241.300000,314.700000,232.700000,323.100000,222.300000,323.100000L182.900000,322.800000L182.700000,346.600000L222.100000,346.900000C245.700000,347.100000,265,328,265.200000,304.400000C265.300000,289.600000,257.800000,276.400000,246.500000,268.700000Z" fill="url(#ejjazbk0ap0a66-fill)" stroke="none" stroke-width="1"/><g id="ejjazbk0ap0a67"><path id="ejjazbk0ap0a68" d="M307.600000,272.800000C309.200000,247.400000,330.400000,227.200000,356.200000,227.400000C366.200000,227.500000,375.800000,230.600000,383.900000,236.300000C389.100000,240,396.100000,239.700000,400.800000,235.500000L400.800000,235.500000C407.200000,229.800000,406.700000,219.600000,399.800000,214.600000C387.300000,205.600000,372.100000,200.600000,356.500000,200.500000C315.900000,200.200000,282.500000,232.300000,280.800000,272.600000L307.600000,272.800000Z" fill="url(#ejjazbk0ap0a68-fill)" stroke="none" stroke-width="1"/><path id="ejjazbk0ap0a69" d="M355.500000,324.200000C329.700000,324,308.800000,303.600000,307.500000,278.100000L280.500000,277.900000C281.600000,318.200000,314.600000,350.800000,355.300000,351C370.900000,351.100000,386.200000,346.300000,398.800000,337.500000C405.800000,332.600000,406.400000,322.400000,400.100000,316.600000L400.100000,316.600000C395.400000,312.300000,388.400000,311.900000,383.200000,315.500000C375.200000,321.200000,365.500000,324.300000,355.500000,324.200000Z" fill="url(#ejjazbk0ap0a69-fill)" stroke="none" stroke-width="1"/></g></g></svg>