<?xml version="1.0" encoding="utf-8"?>
<!-- Generator: Adobe Illustrator 24.0.2, SVG Export Plug-In . SVG Version: 6.00 Build 0)  -->
<svg version="1.1" id="Слой_1" xmlns="http://www.w3.org/2000/svg" xmlns:xlink="http://www.w3.org/1999/xlink" x="0px" y="0px"
	 viewBox="0 0 70 70" enable-background="new 0 0 70 70" xml:space="preserve">
<path fill="#FFFFFF" d="M68.46,24.703L68.46,24.703C64.758,12.662,54.736,3.391,42.266,0.758c-0.841-0.178-1.692-0.325-2.553-0.441
	l0,0c-0.375-0.05-0.751-0.094-1.13-0.133c-0.947-0.097-1.906-0.156-2.874-0.176C35.473,0.003,35.237,0,35,0
	c-0.719,0-1.431,0.024-2.139,0.067C14.528,1.173,0,16.389,0,35c0,18.611,14.528,33.827,32.861,34.933C33.569,69.976,34.281,70,35,70
	c0.237,0,0.473-0.004,0.709-0.009c0.968-0.02,1.927-0.075,2.874-0.172C56.23,68.025,70,53.121,70,35
	C70,31.416,69.46,27.959,68.46,24.703z M38.583,61.606c-0.943,0.126-1.902,0.203-2.874,0.229c-0.236,0.006-0.472,0.009-0.709,0.009
	c-0.72,0-1.433-0.029-2.139-0.085C19.035,60.669,8.156,49.106,8.156,35c0-14.105,10.88-25.67,24.705-26.76
	C33.567,8.185,34.28,8.156,35,8.156c0.237,0,0.473,0.003,0.709,0.009c0.971,0.026,1.93,0.103,2.874,0.229l0.032,0.004l0,0
	c1.246,0.168,2.465,0.422,3.651,0.754c8.772,2.461,15.727,9.267,18.396,17.949h0c0.768,2.497,1.182,5.149,1.182,7.898
	C61.844,48.611,51.714,59.854,38.583,61.606z"/>
<path fill="#FFFFFF" d="M30.907,34.407c0.787-0.993,1.28-2.23,1.29-3.592c0.022-3.243-2.599-5.901-5.843-5.923l-7.919-0.054
	l-0.022,3.27l3.27,0.022l1.827,0.012l2.822,0.019c1.44,0.01,2.605,1.19,2.595,2.63c-0.01,1.441-1.19,2.605-2.63,2.595l-4.649-0.032
	l0.032-4.632l-3.27-0.022l-0.032,4.632l0,0l-0.08,11.765l3.27,0.022l0.022-3.27l0.006-0.934l0.029-4.291l0.278,0.002l5.735,0.039
	c1.44,0.01,2.605,1.19,2.595,2.63c-0.01,1.44-1.19,2.604-2.63,2.595l-5.42-0.037l-0.022,3.27l5.42,0.037
	c3.244,0.022,5.901-2.599,5.923-5.842C33.516,37.279,32.482,35.473,30.907,34.407z"/>
<g>
	<path fill="#FFFFFF" d="M39.335,34.63c0.194-3.499,3.093-6.289,6.64-6.289c1.373,0,2.704,0.428,3.813,1.203
		c0.716,0.5,1.677,0.456,2.322-0.132l0,0c0.87-0.792,0.797-2.194-0.164-2.872c-1.733-1.223-3.82-1.898-5.972-1.898
		c-5.587,0-10.152,4.447-10.348,9.988H39.335z"/>
	<path fill="#FFFFFF" d="M45.975,41.658c-3.546,0-6.446-2.79-6.64-6.289h-3.708c0.196,5.54,4.761,9.988,10.348,9.988
		c2.152,0,4.239-0.675,5.972-1.898c0.961-0.678,1.034-2.081,0.164-2.872l0,0c-0.646-0.587-1.607-0.632-2.322-0.132
		C48.679,41.231,47.348,41.658,45.975,41.658z"/>
</g>
</svg>
